<svg width="186" height="118" viewBox="0 0 186 118" fill="none" xmlns="http://www.w3.org/2000/svg">
<g clip-path="url(#clip0_950_19272)">
<path d="M171.542 26.0059H51.8565V104.889H171.542V26.0059Z" fill="#F8CBC2"/>
<mask id="mask0_950_19272" style="mask-type:alpha" maskUnits="userSpaceOnUse" x="51" y="26" width="121" height="79">
<path d="M171.542 26.0059H51.8565V104.889H171.542V26.0059Z" fill="#F8CBC2"/>
</mask>
<g mask="url(#mask0_950_19272)">
<path d="M52.992 77.4648L103.028 127.166" stroke="white" stroke-width="0.723685" stroke-linecap="round" stroke-linejoin="round"/>
<path d="M55.8145 7.80469L118.362 136.941" stroke="white" stroke-width="0.723685" stroke-linecap="round" stroke-linejoin="round"/>
<path d="M42.9026 96.2035L124.011 -13.7891" stroke="white" stroke-width="0.723685" stroke-linecap="round" stroke-linejoin="round"/>
<path d="M178.488 39.1699L103.028 136.94" stroke="white" stroke-width="0.723685" stroke-linecap="round" stroke-linejoin="round"/>
<path d="M172.839 22.4688L42.9026 112.907" stroke="white" stroke-width="0.723685" stroke-linecap="round" stroke-linejoin="round"/>
<path d="M74.7821 -8.90039L201.893 109.24" stroke="white" stroke-width="0.723685" stroke-linecap="round" stroke-linejoin="round"/>
<path d="M150.242 136.941L58.2368 -17.4551" stroke="white" stroke-width="0.723685" stroke-linecap="round" stroke-linejoin="round"/>
<path d="M107.869 -19.8984L178.488 61.5757" stroke="white" stroke-width="0.723685" stroke-linecap="round" stroke-linejoin="round"/>
<path d="M50.5697 53.8359L204.719 123.091" stroke="white" stroke-width="0.723685" stroke-linecap="round" stroke-linejoin="round"/>
<path d="M140.556 -11.3438L83.2567 163.827" stroke="white" stroke-width="0.723685" stroke-linecap="round" stroke-linejoin="round"/>
</g>
<path d="M174.847 22.7559H48.5511V108.416H174.847V22.7559Z" stroke="#1D1E26" stroke-width="0.723685" stroke-linecap="round" stroke-linejoin="round" stroke-dasharray="3.62 3.62"/>
<path d="M152.329 9.10742H71.0729C68.4749 9.10742 66.3688 11.2158 66.3688 13.8166V73.9749C66.3688 76.5758 68.4749 78.6841 71.0729 78.6841H152.329C154.927 78.6841 157.033 76.5758 157.033 73.9749V13.8166C157.033 11.2158 154.927 9.10742 152.329 9.10742Z" fill="white"/>
<path d="M152.329 9.46929C153.476 9.46929 154.576 9.92552 155.388 10.7376C156.199 11.5497 156.655 12.6511 156.655 13.7996V73.976C156.657 74.5461 156.547 75.1112 156.33 75.6386C156.114 76.1661 155.796 76.6456 155.394 77.0496C154.992 77.4536 154.514 77.7742 153.988 77.9929C153.462 78.2117 152.899 78.3243 152.329 78.3243H71.0693C70.4997 78.3243 69.9358 78.2117 69.4098 77.9929C68.8838 77.7742 68.4062 77.4536 68.0043 77.0496C67.6024 76.6456 67.2841 76.1661 67.0678 75.6386C66.8515 75.1112 66.7414 74.5461 66.7437 73.976V13.8176C66.7437 12.6692 67.1995 11.5677 68.0107 10.7556C68.8219 9.94356 69.9221 9.48734 71.0693 9.48734H152.329V9.46929ZM152.329 8.76562H71.0693C69.7326 8.77132 68.4523 9.30541 67.5072 10.2516C66.562 11.1978 66.0285 12.4795 66.0228 13.8176V73.976C66.0237 75.3172 66.5551 76.6035 67.5008 77.5536C68.4465 78.5037 69.7295 79.0403 71.0693 79.046H152.329C153.669 79.0403 154.952 78.5037 155.897 77.5536C156.843 76.6035 157.375 75.3172 157.375 73.976V13.8176C157.37 12.4795 156.836 11.1978 155.891 10.2516C154.946 9.30541 153.666 8.77132 152.329 8.76562Z" fill="#1D1E26"/>
<path d="M138.653 35.3281L77.4676 78.3241H152.956C153.95 78.3241 154.904 77.9287 155.607 77.2249C156.31 76.5211 156.705 75.5666 156.705 74.5712V45.995L138.653 35.3281Z" fill="#008ACE"/>
<path d="M156.669 74.5711V71.5796L95.671 48.7266C95.671 48.7266 66.7293 63.6804 66.7293 64.2181V74.5711C66.722 74.6985 66.722 74.8262 66.7293 74.9536C66.8169 75.8118 67.1975 76.6136 67.8069 77.2236C68.4162 77.8337 69.2171 78.2146 70.0744 78.3023C70.2025 78.3169 70.3312 78.3241 70.4601 78.324H152.938C153.929 78.3192 154.878 77.9217 155.577 77.2184C156.276 76.5151 156.669 75.5633 156.669 74.5711Z" fill="#008ACE"/>
<path d="M87.694 34.2919C91.2177 34.2919 94.0742 31.4323 94.0742 27.9047C94.0742 24.3772 91.2177 21.5176 87.694 21.5176C84.1702 21.5176 81.3137 24.3772 81.3137 27.9047C81.3137 31.4323 84.1702 34.2919 87.694 34.2919Z" fill="#008ACE"/>
<path d="M77.5937 6.2207H113.312" stroke="#1D1E26" stroke-width="0.723685" stroke-linecap="round" stroke-linejoin="round"/>
<path d="M41.2949 13.0234L45.88 17.9022" stroke="#1D1E26" stroke-width="0.723685" stroke-linecap="round" stroke-linejoin="round"/>
<path d="M40.0549 18.1758L44.1606 20.2074" stroke="#1D1E26" stroke-width="0.723685" stroke-linecap="round" stroke-linejoin="round"/>
<path d="M157.776 4.89023L159.668 0.552734" stroke="#1D1E26" stroke-width="0.723685" stroke-linecap="round" stroke-linejoin="round"/>
<path d="M159.668 6.24593L165.086 0.822266" stroke="#1D1E26" stroke-width="0.723685" stroke-linecap="round" stroke-linejoin="round"/>
<path d="M161.023 8.41457L165.086 6.78711" stroke="#1D1E26" stroke-width="0.723685" stroke-linecap="round" stroke-linejoin="round"/>
<path d="M163.449 68.2023C162.525 68.7609 161.789 69.5826 161.333 70.5623C160.691 70.0353 159.938 69.662 159.13 69.4708C158.322 69.2796 157.481 69.2755 156.671 69.4589C155.862 69.6424 155.105 70.0084 154.458 70.5292C153.811 71.05 153.291 71.7117 152.938 72.464C152.32 71.9535 151.596 71.5857 150.82 71.387C150.043 71.1883 149.232 71.1636 148.445 71.3145C147.658 71.4654 146.914 71.7884 146.265 72.2603C145.617 72.7322 145.08 73.3414 144.694 74.0446L140.07 66.4125C139.321 65.174 138.113 64.2838 136.709 63.9377C135.305 63.5915 133.822 63.8178 132.584 64.5667C131.347 65.3156 130.458 66.5258 130.112 67.931C129.767 69.3363 129.993 70.8215 130.741 72.0599L147.228 99.3587L138.88 100.026C137.616 100.129 136.392 100.526 135.308 101.185C134.426 101.719 133.723 102.502 133.286 103.436C132.849 104.37 132.698 105.413 132.852 106.433C133.006 107.453 133.459 108.404 134.152 109.167C134.846 109.929 135.75 110.469 136.75 110.718L160.951 116.687C163.641 117.358 166.437 117.488 169.177 117.07C171.918 116.652 174.548 115.694 176.916 114.251C180.933 111.813 183.82 107.88 184.943 103.315C186.067 98.7492 185.336 93.9238 182.911 89.897L170.925 70.0499C170.176 68.8157 168.969 67.9287 167.568 67.5825C166.167 67.2363 164.686 67.4591 163.449 68.2023Z" fill="white" stroke="#1D1E26" stroke-width="0.723685" stroke-linecap="round" stroke-linejoin="round"/>
<path d="M144.644 73.8555L153.72 88.997" stroke="#1D1E26" stroke-width="0.723685" stroke-linecap="round" stroke-linejoin="round"/>
<path d="M152.812 72.3418L160.378 85.3651" stroke="#1D1E26" stroke-width="0.723685" stroke-linecap="round" stroke-linejoin="round"/>
<path d="M161.287 70.5215L167.941 82.0328" stroke="#1D1E26" stroke-width="0.723685" stroke-linecap="round" stroke-linejoin="round"/>
<path d="M128.351 74.1092C127.688 73.1556 127.225 72.0779 126.988 70.9407C126.752 69.8036 126.747 68.6303 126.974 67.4911C127.201 66.352 127.655 65.2705 128.31 64.3113C128.964 63.3522 129.806 62.5352 130.783 61.9092C131.761 61.2833 132.854 60.8613 133.998 60.6685C135.143 60.4758 136.314 60.5162 137.442 60.7873C138.571 61.0585 139.632 61.5549 140.565 62.2467C141.497 62.9385 142.28 63.8116 142.867 64.8136" stroke="white" stroke-width="0.723685" stroke-linecap="round" stroke-linejoin="round"/>
<path d="M49.153 94.7643L47.3219 98.1744L47.8626 93.2054C45.3946 90.3588 42.6297 87.7845 39.6151 85.5264L37.8488 90.2969L37.6109 84.0902C34.1779 81.7362 30.4638 79.8219 26.5555 78.3923L25.2974 83.87L24.299 77.6489C20.7162 76.5512 16.997 75.9632 13.2507 75.9023L14.1591 79.6264C14.1591 79.6264 12.7965 77.6128 11.5637 75.924C7.77809 76.046 4.03365 76.7495 0.461395 78.0097C2.55453 82.4928 5.0725 86.7645 7.9807 90.766C10.2733 90.9681 12.7244 91.2207 12.7244 91.2207L9.18826 92.4007C11.9005 96.0024 14.9932 99.3005 18.4126 102.238C20.8133 101.794 23.9998 101.09 23.9998 101.09L19.7967 103.364C23.4873 106.339 27.6999 108.599 32.2184 110.029L37.1063 107.726L34.4605 110.613C40.6677 112.002 47.6571 111.559 55.3855 108.13C55.1728 104.352 52.9127 99.524 49.153 94.7643Z" fill="white" stroke="#F8CBC2" stroke-width="0.723685" stroke-linecap="round" stroke-linejoin="round"/>
<path d="M0.461395 78.0098L55.3855 108.138" stroke="#F8CBC2" stroke-width="0.723685" stroke-linecap="round" stroke-linejoin="round"/>
<path d="M58.2259 92.6853L54.5672 94.6123L57.9989 90.4516C57.4789 86.3041 56.5318 82.2215 55.1728 78.2691L50.7643 81.4699L54.232 75.6962C52.5607 71.3919 50.3748 67.3061 47.722 63.5281L43.3568 67.6888L46.1576 61.4171C43.6141 58.1636 40.6365 55.275 37.3082 52.8323L35.9168 56.7801C35.9168 56.7801 35.8771 54.0917 35.787 51.7931C32.3482 49.5102 28.5794 47.7698 24.6126 46.6328C23.8281 52.0355 23.5493 57.4997 23.7799 62.9543C25.712 64.5926 27.745 66.3753 27.745 66.3753L23.8916 65.2025C24.183 70.1951 24.9924 75.1438 26.3068 79.9687C28.7183 81.091 31.9841 82.4731 31.9841 82.4731L26.8763 81.8668C28.4443 86.7961 30.7405 91.5919 34.0351 95.785L39.7701 96.799L35.6897 97.7409C40.419 102.934 46.9326 106.964 55.8757 108.754C57.9304 105.2 58.7703 99.3792 58.2259 92.6853Z" fill="#88CC00"/>
<path d="M24.609 46.6328L55.8757 108.754" stroke="white" stroke-width="0.723685" stroke-linecap="round" stroke-linejoin="round"/>
</g>
<defs>
<clipPath id="clip0_950_19272">
<rect width="186" height="118" fill="white"/>
</clipPath>
</defs>
</svg>
