<svg width="198" height="164" viewBox="0 0 198 164" fill="none" xmlns="http://www.w3.org/2000/svg">
<path d="M51.15 92.2589L49.7475 95.8759L49.6725 90.866C46.861 88.3398 43.7873 86.1205 40.5038 84.2461L39.33 89.211L38.325 83.0667C34.6107 81.1491 30.6698 79.705 26.595 78.7682L26.0175 84.3847L24.2513 78.3189C20.5436 77.6687 16.7628 77.5426 13.02 77.9445L14.4 81.539C14.4 81.539 12.7913 79.708 11.3513 78.1691C7.58668 78.7612 3.93542 79.9268 0.525024 81.6251C3.16853 85.8221 6.20867 89.7566 9.60377 93.3747C11.9175 93.2961 14.4 93.2324 14.4 93.2324L11.025 94.8425C14.1751 98.0921 17.6679 100.992 21.4425 103.492C23.7825 102.743 26.8725 101.657 26.8725 101.657L22.95 104.465C27.0008 106.968 31.4838 108.694 36.1688 109.554L40.755 106.659L38.475 109.865C44.85 110.475 51.7538 109.168 59.0325 104.802C58.35 101.047 55.4963 96.5274 51.15 92.2589Z" fill="#F8CBC2"/>
<path d="M0.525024 81.6289L59.0325 104.787" stroke="white" stroke-width="0.750436" stroke-linecap="round" stroke-linejoin="round"/>
<path d="M61.4175 88.5149L57.7388 90.447L61.185 86.2796C60.6612 82.1218 59.7099 78.0289 58.3463 74.0657L53.9175 77.2746L57.4012 71.4859C55.7208 67.1709 53.5236 63.0748 50.8575 59.287L46.4625 63.4619L49.275 57.1752C46.7182 53.9134 43.7268 51.0159 40.3838 48.5633L38.9813 52.5211C38.9813 52.5211 38.955 49.8289 38.8538 47.5112C35.4002 45.2282 31.6161 43.4881 27.6338 42.3516C26.8447 47.7665 26.5634 53.2432 26.7938 58.7104C28.7363 60.3579 30.7875 62.1551 30.7875 62.1551L26.91 60.9794C27.2 65.9853 28.0131 70.9472 29.3363 75.7843C31.755 76.9076 35.04 78.2893 35.04 78.2893L29.9063 77.6864C31.485 82.6177 33.7838 87.4216 37.1025 91.6339L42.8663 92.6486L38.775 93.5847C43.5263 98.7893 50.0737 102.829 59.0587 104.623C61.1175 101.047 61.9613 95.2285 61.4175 88.5149Z" fill="#88CC00"/>
<path d="M27.63 42.3594L59.0513 104.623" stroke="white" stroke-width="0.750436" stroke-linecap="round" stroke-linejoin="round"/>
<path d="M185.865 130.866L37.245 131.241C37.0308 131.239 36.82 131.187 36.6297 131.089C36.4394 130.991 36.2751 130.849 36.15 130.675V134.457C36.151 134.793 36.2853 135.115 36.5236 135.352C36.7619 135.589 37.0847 135.723 37.4212 135.723L185.707 135.348C186.043 135.347 186.365 135.213 186.603 134.976C186.84 134.739 186.974 134.418 186.975 134.083V130.301C186.848 130.476 186.682 130.619 186.489 130.718C186.296 130.816 186.082 130.867 185.865 130.866V130.866Z" fill="#008ACE"/>
<path d="M185.115 131.241H37.62C37.3651 131.24 37.1155 131.168 36.899 131.034C36.6826 130.899 36.5079 130.707 36.3943 130.479C36.2808 130.251 36.2329 129.996 36.256 129.743C36.279 129.489 36.3722 129.247 36.525 129.044L57.375 101.287H165.375L186.225 129.044C186.379 129.248 186.472 129.492 186.494 129.747C186.517 130.002 186.468 130.258 186.352 130.486C186.237 130.714 186.06 130.906 185.841 131.04C185.623 131.173 185.371 131.243 185.115 131.241V131.241Z" fill="white" stroke="#F8CBC2" stroke-width="0.750436" stroke-linecap="round" stroke-linejoin="round"/>
<mask id="mask0_950_19271" style="mask-type:alpha" maskUnits="userSpaceOnUse" x="35" y="100" width="152" height="32">
<path d="M185.115 131.241H37.62C37.3651 131.24 37.1155 131.168 36.899 131.034C36.6826 130.899 36.5079 130.707 36.3943 130.479C36.2808 130.251 36.2329 129.996 36.256 129.743C36.279 129.489 36.3722 129.247 36.525 129.044L57.375 101.287H165.375L186.225 129.044C186.379 129.248 186.472 129.492 186.494 129.747C186.517 130.002 186.468 130.258 186.352 130.486C186.237 130.714 186.06 130.906 185.841 131.04C185.623 131.173 185.371 131.243 185.115 131.241V131.241Z" fill="white" stroke="#9BDEFF" stroke-width="0.750436" stroke-linecap="round" stroke-linejoin="round"/>
</mask>
<g mask="url(#mask0_950_19271)">
<path d="M39.1613 80.3184V152.209" stroke="#F8CBC2" stroke-width="0.750436" stroke-linecap="round" stroke-linejoin="round"/>
<path d="M50.2688 80.3184V152.209" stroke="#F8CBC2" stroke-width="0.750436" stroke-linecap="round" stroke-linejoin="round"/>
<path d="M61.3763 80.3184V152.209" stroke="#F8CBC2" stroke-width="0.750436" stroke-linecap="round" stroke-linejoin="round"/>
<path d="M72.48 80.3184V152.209" stroke="#F8CBC2" stroke-width="0.750436" stroke-linecap="round" stroke-linejoin="round"/>
<path d="M83.5875 80.3184V152.209" stroke="#F8CBC2" stroke-width="0.750436" stroke-linecap="round" stroke-linejoin="round"/>
<path d="M94.6913 80.3184V152.209" stroke="#F8CBC2" stroke-width="0.750436" stroke-linecap="round" stroke-linejoin="round"/>
<path d="M105.799 80.3184V152.209" stroke="#F8CBC2" stroke-width="0.750436" stroke-linecap="round" stroke-linejoin="round"/>
<path d="M116.906 80.3184V152.209" stroke="#F8CBC2" stroke-width="0.750436" stroke-linecap="round" stroke-linejoin="round"/>
<path d="M128.01 80.3184V152.209" stroke="#F8CBC2" stroke-width="0.750436" stroke-linecap="round" stroke-linejoin="round"/>
<path d="M139.118 80.3184V152.209" stroke="#F8CBC2" stroke-width="0.750436" stroke-linecap="round" stroke-linejoin="round"/>
<path d="M150.225 80.3184V152.209" stroke="#F8CBC2" stroke-width="0.750436" stroke-linecap="round" stroke-linejoin="round"/>
<path d="M161.329 80.3184V152.209" stroke="#F8CBC2" stroke-width="0.750436" stroke-linecap="round" stroke-linejoin="round"/>
<path d="M172.436 80.3184V152.209" stroke="#F8CBC2" stroke-width="0.750436" stroke-linecap="round" stroke-linejoin="round"/>
<path d="M183.54 80.3184V152.209" stroke="#F8CBC2" stroke-width="0.750436" stroke-linecap="round" stroke-linejoin="round"/>
<path d="M-4.125 100.855H227.381" stroke="#F8CBC2" stroke-width="0.750436" stroke-linecap="round" stroke-linejoin="round"/>
<path d="M-4.125 111.127H227.381" stroke="#F8CBC2" stroke-width="0.750436" stroke-linecap="round" stroke-linejoin="round"/>
<path d="M-4.125 121.396H227.381" stroke="#F8CBC2" stroke-width="0.750436" stroke-linecap="round" stroke-linejoin="round"/>
<path d="M-4.125 131.668H227.381" stroke="#F8CBC2" stroke-width="0.750436" stroke-linecap="round" stroke-linejoin="round"/>
</g>
<path d="M173.591 24.0234L167.243 30.7632" stroke="#1D1E26" stroke-width="0.750436" stroke-linecap="round" stroke-linejoin="round"/>
<path d="M175.305 31.1367L169.624 33.9449" stroke="#1D1E26" stroke-width="0.750436" stroke-linecap="round" stroke-linejoin="round"/>
<path d="M61.4025 34.2637H161.329C161.859 34.2627 162.385 34.3661 162.876 34.5681C163.366 34.7701 163.812 35.0667 164.188 35.4408C164.564 35.815 164.862 36.2594 165.066 36.7487C165.269 37.2381 165.375 37.7627 165.375 38.2925V101.661H57.375V38.2925C57.376 37.2256 57.8004 36.2026 58.5553 35.4474C59.3101 34.6923 60.334 34.2667 61.4025 34.2637V34.2637Z" fill="#008ACE"/>
<path d="M159.743 40.6289H62.9925V96.0444H159.743V40.6289Z" fill="white" stroke="#1D1E26" stroke-width="0.750436" stroke-linecap="round" stroke-linejoin="round"/>
<path d="M111.368 39.1833C112.268 39.1833 112.999 38.4541 112.999 37.5546C112.999 36.655 112.268 35.9258 111.368 35.9258C110.467 35.9258 109.736 36.655 109.736 37.5546C109.736 38.4541 110.467 39.1833 111.368 39.1833Z" fill="#1D1E26"/>
<path d="M166.755 50.3633V82.9386" stroke="#1D1E26" stroke-width="0.750436" stroke-linecap="round" stroke-linejoin="round"/>
<path d="M96.6337 64.5145C98.5391 64.5145 100.084 62.9722 100.084 61.0698C100.084 59.1673 98.5391 57.625 96.6337 57.625C94.7283 57.625 93.1837 59.1673 93.1837 61.0698C93.1837 62.9722 94.7283 64.5145 96.6337 64.5145Z" fill="#1D1E26"/>
<path d="M125.741 64.5145C127.647 64.5145 129.191 62.9722 129.191 61.0698C129.191 59.1673 127.647 57.625 125.741 57.625C123.836 57.625 122.291 59.1673 122.291 61.0698C122.291 62.9722 123.836 64.5145 125.741 64.5145Z" fill="#1D1E26"/>
<path d="M102.559 74.291C103.375 75.873 104.611 77.2 106.132 78.1265C107.654 79.053 109.402 79.5431 111.184 79.5431C112.966 79.5431 114.713 79.053 116.235 78.1265C117.756 77.2 118.993 75.873 119.809 74.291" stroke="#1D1E26" stroke-width="1.50087" stroke-linecap="round" stroke-linejoin="round"/>
<path d="M170.711 141.739C185.64 141.739 197.741 129.656 197.741 114.751C197.741 99.845 185.64 87.7617 170.711 87.7617C155.783 87.7617 143.681 99.845 143.681 114.751C143.681 129.656 155.783 141.739 170.711 141.739Z" fill="#88CC00"/>
<path d="M173.4 137.416C167.515 138.066 161.606 136.418 156.91 132.817C152.214 129.216 149.095 123.942 148.205 118.097C147.315 112.252 148.723 106.29 152.135 101.458C155.547 96.6267 160.699 93.2998 166.511 92.1738" stroke="white" stroke-width="0.750436" stroke-linecap="round" stroke-linejoin="round"/>
<path d="M186.525 105.427C186.026 104.933 185.352 104.656 184.65 104.656C183.948 104.656 183.274 104.933 182.775 105.427L168.994 119.188L163.166 113.369C162.929 113.085 162.636 112.854 162.305 112.69C161.973 112.526 161.611 112.432 161.242 112.416C160.872 112.399 160.503 112.459 160.158 112.593C159.814 112.727 159.5 112.931 159.239 113.192C158.977 113.453 158.773 113.766 158.639 114.11C158.505 114.454 158.445 114.823 158.462 115.192C158.478 115.56 158.572 115.922 158.736 116.253C158.901 116.584 159.132 116.877 159.416 117.113L167.126 124.811C167.625 125.305 168.299 125.582 169.001 125.582C169.704 125.582 170.378 125.305 170.876 124.811L186.525 109.187C187.024 108.688 187.305 108.012 187.305 107.307C187.305 106.602 187.024 105.926 186.525 105.427V105.427Z" fill="#1D1E26"/>
</svg>
