<svg width="1440" height="326" viewBox="0 0 1440 326" fill="none" xmlns="http://www.w3.org/2000/svg">
<g opacity="0.12" clip-path="url(#clip0_950_19267)">
<path d="M2.32263 212.094L483.097 324.313" stroke="#D9E2FC" stroke-width="2" stroke-linecap="round" stroke-linejoin="round"/>
<path d="M2.32263 24.7812L483.097 324.313" stroke="#D9E2FC" stroke-width="2" stroke-linecap="round" stroke-linejoin="round"/>
<path d="M3.39099 256.163L515.613 1.15625" stroke="#D9E2FC" stroke-width="2" stroke-linecap="round" stroke-linejoin="round"/>
<path d="M1093.94 1.15625L327.484 324.313" stroke="#D9E2FC" stroke-width="2" stroke-linecap="round" stroke-linejoin="round"/>
<path d="M1437.68 45.875L413.861 324.482" stroke="#D9E2FC" stroke-width="2" stroke-linecap="round" stroke-linejoin="round"/>
<path d="M1038.19 1.15625L3.39099 292.9" stroke="#D9E2FC" stroke-width="2" stroke-linecap="round" stroke-linejoin="round"/>
<path d="M118.452 1.15625L1305.29 324.313" stroke="#D9E2FC" stroke-width="2" stroke-linecap="round" stroke-linejoin="round"/>
<path d="M673.548 324.313L44.129 2" stroke="#D9E2FC" stroke-width="2" stroke-linecap="round" stroke-linejoin="round"/>
<path d="M390.124 0.84375L994.065 325.156" stroke="#D9E2FC" stroke-width="2" stroke-linecap="round" stroke-linejoin="round"/>
<path d="M606.194 1.15625L281.032 324.313" stroke="#D9E2FC" stroke-width="2" stroke-linecap="round" stroke-linejoin="round"/>
<path d="M2.32263 88.0626L360 1.15625" stroke="#D9E2FC" stroke-width="2" stroke-linecap="round" stroke-linejoin="round"/>
<path d="M1437.68 196.906L1340.13 324.313" stroke="#D9E2FC" stroke-width="2" stroke-linecap="round" stroke-linejoin="round"/>
<path d="M1270.45 2L1247.23 324.313L2.32263 145.438" stroke="#D9E2FC" stroke-width="2" stroke-linecap="round" stroke-linejoin="round"/>
<path d="M687.484 1.15625L1437.68 137.844" stroke="#D9E2FC" stroke-width="2" stroke-linecap="round" stroke-linejoin="round"/>
<path d="M1356.39 1.15625L736.258 324.313" stroke="#D9E2FC" stroke-width="2" stroke-linecap="round" stroke-linejoin="round"/>
<path d="M891.871 1.15625L1093.94 325.157" stroke="#D9E2FC" stroke-width="2" stroke-linecap="round" stroke-linejoin="round"/>
<path d="M661.935 1.15625L1437.68 243.313" stroke="#D9E2FC" stroke-width="2" stroke-linecap="round" stroke-linejoin="round"/>
<path d="M1437.68 167.375L833.806 324.313" stroke="#D9E2FC" stroke-width="2" stroke-linecap="round" stroke-linejoin="round"/>
<path d="M2.32263 268.625L157.936 325.156" stroke="#D9E2FC" stroke-width="2" stroke-linecap="round" stroke-linejoin="round"/>
</g>
<defs>
<clipPath id="clip0_950_19267">
<rect width="1440" height="326" fill="white"/>
</clipPath>
</defs>
</svg>
