<svg width="1440" height="336" viewBox="0 0 1440 336" fill="none" xmlns="http://www.w3.org/2000/svg">
<rect width="1440" height="336" fill="#D9E2FC"/>
<path d="M126.688 157V142.624H121.096V139.96H135.376V142.624H129.784V157H126.688ZM137.141 157V139.96H140.189V145.864C140.189 146.464 140.141 146.896 140.141 146.896H140.189C140.789 145.72 142.277 144.472 144.413 144.472C147.125 144.472 148.661 145.888 148.661 149.128V157H145.637V149.752C145.637 148.264 145.253 147.256 143.693 147.256C142.085 147.256 140.837 148.312 140.381 149.8C140.237 150.28 140.189 150.808 140.189 151.384V157H137.141ZM150.996 150.88C150.996 147.112 153.564 144.472 157.212 144.472C160.74 144.472 162.636 147.04 162.636 150.28C162.636 150.64 162.564 151.456 162.564 151.456H154.116C154.308 153.592 155.964 154.696 157.788 154.696C159.756 154.696 161.316 153.352 161.316 153.352L162.492 155.536C162.492 155.536 160.62 157.288 157.572 157.288C153.516 157.288 150.996 154.36 150.996 150.88ZM154.212 149.368H159.564C159.516 147.712 158.484 146.824 157.14 146.824C155.58 146.824 154.5 147.784 154.212 149.368ZM170.817 153.184V139.96H173.841V152.728C173.841 154.072 174.297 154.408 175.089 154.408C175.329 154.408 175.545 154.384 175.545 154.384V157.048C175.545 157.048 175.089 157.12 174.585 157.12C172.905 157.12 170.817 156.688 170.817 153.184ZM176.773 153.472C176.773 149.584 182.029 149.32 184.021 149.32H184.429V149.152C184.429 147.544 183.421 146.992 182.077 146.992C180.325 146.992 178.717 148.168 178.717 148.168L177.565 145.984C177.565 145.984 179.461 144.472 182.365 144.472C185.581 144.472 187.453 146.248 187.453 149.344V157H184.645V155.992C184.645 155.512 184.693 155.128 184.693 155.128H184.645C184.669 155.128 183.709 157.288 180.925 157.288C178.741 157.288 176.773 155.92 176.773 153.472ZM179.845 153.328C179.845 154.144 180.445 154.912 181.693 154.912C183.301 154.912 184.453 153.184 184.453 151.696V151.408H183.925C182.365 151.408 179.845 151.624 179.845 153.328ZM190.625 157V144.76H193.553V146.872C193.553 147.328 193.505 147.736 193.505 147.736H193.553C194.105 145.984 195.569 144.592 197.441 144.592C197.729 144.592 197.993 144.64 197.993 144.64V147.64C197.993 147.64 197.681 147.592 197.273 147.592C195.977 147.592 194.513 148.336 193.937 150.16C193.745 150.76 193.673 151.432 193.673 152.152V157H190.625ZM201.295 158.656C201.295 158.656 202.831 159.448 204.679 159.448C206.551 159.448 208.135 158.656 208.135 156.472V155.752C208.135 155.464 208.183 155.104 208.183 155.104H208.135C207.415 156.184 206.359 156.76 204.727 156.76C201.223 156.76 199.231 153.928 199.231 150.568C199.231 147.208 201.127 144.472 204.655 144.472C207.319 144.472 208.279 146.032 208.279 146.032H208.351C208.351 146.032 208.327 145.888 208.327 145.696V144.76H211.183V156.256C211.183 160.456 207.919 162.04 204.727 162.04C203.191 162.04 201.559 161.608 200.383 160.984L201.295 158.656ZM205.375 154.192C206.839 154.192 208.207 153.352 208.207 150.592C208.207 147.808 206.839 147.064 205.183 147.064C203.335 147.064 202.303 148.408 202.303 150.472C202.303 152.608 203.407 154.192 205.375 154.192ZM213.668 150.88C213.668 147.112 216.236 144.472 219.884 144.472C223.412 144.472 225.308 147.04 225.308 150.28C225.308 150.64 225.236 151.456 225.236 151.456H216.788C216.98 153.592 218.636 154.696 220.46 154.696C222.428 154.696 223.988 153.352 223.988 153.352L225.164 155.536C225.164 155.536 223.292 157.288 220.244 157.288C216.188 157.288 213.668 154.36 213.668 150.88ZM216.884 149.368H222.236C222.188 147.712 221.156 146.824 219.812 146.824C218.252 146.824 217.172 147.784 216.884 149.368ZM226.789 155.488L228.181 153.352C228.181 153.352 229.525 154.696 231.517 154.696C232.381 154.696 233.125 154.312 233.125 153.592C233.125 151.768 227.173 152.008 227.173 148.072C227.173 145.792 229.213 144.472 231.853 144.472C234.613 144.472 235.957 145.864 235.957 145.864L234.829 148.12C234.829 148.12 233.701 147.064 231.829 147.064C231.037 147.064 230.269 147.4 230.269 148.168C230.269 149.896 236.221 149.68 236.221 153.616C236.221 155.656 234.445 157.288 231.541 157.288C228.493 157.288 226.789 155.488 226.789 155.488ZM239.2 152.512V147.376H237.616V144.952H239.272V141.424H242.248V144.952H245.032V147.376H242.248V152.128C242.248 154.144 243.832 154.432 244.672 154.432C245.008 154.432 245.224 154.384 245.224 154.384V157.048C245.224 157.048 244.864 157.12 244.288 157.12C242.584 157.12 239.2 156.616 239.2 152.512ZM252.667 150.88C252.667 147.4 255.259 144.472 259.315 144.472C262.507 144.472 264.019 146.296 264.019 146.296L262.675 148.384C262.675 148.384 261.403 147.064 259.483 147.064C257.227 147.064 255.763 148.768 255.763 150.856C255.763 152.92 257.251 154.696 259.579 154.696C261.643 154.696 263.179 153.136 263.179 153.136L264.355 155.296C264.355 155.296 262.603 157.288 259.315 157.288C255.259 157.288 252.667 154.432 252.667 150.88ZM265.721 150.88C265.721 147.136 268.721 144.472 272.441 144.472C276.185 144.472 279.185 147.136 279.185 150.88C279.185 154.648 276.185 157.288 272.465 157.288C268.721 157.288 265.721 154.648 265.721 150.88ZM268.817 150.88C268.817 153.16 270.473 154.696 272.465 154.696C274.433 154.696 276.089 153.16 276.089 150.88C276.089 148.624 274.433 147.064 272.465 147.064C270.473 147.064 268.817 148.624 268.817 150.88ZM281.633 157V144.76H284.561V146.176C284.561 146.632 284.513 147.016 284.513 147.016H284.561C285.161 145.816 286.625 144.472 288.545 144.472C290.417 144.472 291.617 145.336 292.121 146.992H292.169C292.841 145.672 294.425 144.472 296.345 144.472C298.889 144.472 300.353 145.912 300.353 149.128V157H297.305V149.704C297.305 148.312 297.041 147.256 295.625 147.256C294.065 147.256 293.033 148.504 292.673 150.04C292.553 150.52 292.529 151.048 292.529 151.624V157H289.481V149.704C289.481 148.384 289.265 147.256 287.825 147.256C286.241 147.256 285.209 148.504 284.825 150.064C284.705 150.52 284.681 151.072 284.681 151.624V157H281.633ZM303.547 157V144.76H306.475V146.176C306.475 146.632 306.427 147.016 306.427 147.016H306.475C307.075 145.816 308.539 144.472 310.459 144.472C312.331 144.472 313.531 145.336 314.035 146.992H314.083C314.755 145.672 316.339 144.472 318.259 144.472C320.803 144.472 322.267 145.912 322.267 149.128V157H319.219V149.704C319.219 148.312 318.955 147.256 317.539 147.256C315.979 147.256 314.947 148.504 314.587 150.04C314.467 150.52 314.443 151.048 314.443 151.624V157H311.395V149.704C311.395 148.384 311.179 147.256 309.739 147.256C308.155 147.256 307.123 148.504 306.739 150.064C306.619 150.52 306.595 151.072 306.595 151.624V157H303.547ZM325.293 152.632V144.76H328.341V152.008C328.341 153.496 328.725 154.504 330.237 154.504C332.445 154.504 333.669 152.56 333.669 150.376V144.76H336.717V157H333.789V155.608C333.789 155.128 333.837 154.744 333.837 154.744H333.789C333.189 156.016 331.629 157.288 329.541 157.288C326.925 157.288 325.293 155.968 325.293 152.632ZM340.086 157V144.76H343.014V146.176C343.014 146.632 342.966 147.016 342.966 147.016H343.014C343.542 145.984 344.886 144.472 347.358 144.472C350.07 144.472 351.606 145.888 351.606 149.128V157H348.582V149.752C348.582 148.264 348.198 147.256 346.638 147.256C345.006 147.256 343.806 148.288 343.35 149.752C343.182 150.256 343.134 150.808 343.134 151.384V157H340.086ZM354.805 142.672V139.96H357.829V142.672H354.805ZM354.805 157V144.76H357.853V157H354.805ZM361.731 152.512V147.376H360.147V144.952H361.803V141.424H364.779V144.952H367.563V147.376H364.779V152.128C364.779 154.144 366.363 154.432 367.203 154.432C367.539 154.432 367.755 154.384 367.755 154.384V157.048C367.755 157.048 367.395 157.12 366.819 157.12C365.115 157.12 361.731 156.616 361.731 152.512ZM368.594 161.248L369.602 158.968C369.602 158.968 370.274 159.472 370.97 159.472C371.81 159.472 372.626 158.968 373.082 157.888L373.538 156.808L368.378 144.76H371.81L374.378 151.816C374.618 152.464 374.834 153.472 374.834 153.472H374.882C374.882 153.472 375.074 152.512 375.29 151.864L377.69 144.76H381.026L375.554 158.848C374.69 161.08 372.986 162.04 371.138 162.04C369.674 162.04 368.594 161.248 368.594 161.248ZM387.69 150.88C387.69 147.136 390.69 144.472 394.41 144.472C398.154 144.472 401.154 147.136 401.154 150.88C401.154 154.648 398.154 157.288 394.434 157.288C390.69 157.288 387.69 154.648 387.69 150.88ZM390.786 150.88C390.786 153.16 392.442 154.696 394.434 154.696C396.402 154.696 398.058 153.16 398.058 150.88C398.058 148.624 396.402 147.064 394.434 147.064C392.442 147.064 390.786 148.624 390.786 150.88ZM404.226 157V147.376H402.714V144.952H404.226V144.4C404.226 140.392 407.514 139.864 409.218 139.864C409.842 139.864 410.25 139.936 410.25 139.936V142.528C410.25 142.528 409.986 142.48 409.626 142.48C408.762 142.48 407.274 142.696 407.274 144.472V144.952H409.89V147.376H407.274V157H404.226ZM416.87 150.88C416.87 147.4 419.462 144.472 423.518 144.472C426.71 144.472 428.222 146.296 428.222 146.296L426.878 148.384C426.878 148.384 425.606 147.064 423.686 147.064C421.43 147.064 419.966 148.768 419.966 150.856C419.966 152.92 421.454 154.696 423.782 154.696C425.846 154.696 427.382 153.136 427.382 153.136L428.558 155.296C428.558 155.296 426.806 157.288 423.518 157.288C419.462 157.288 416.87 154.432 416.87 150.88ZM430.836 157V144.76H433.764V146.872C433.764 147.328 433.716 147.736 433.716 147.736H433.764C434.316 145.984 435.78 144.592 437.652 144.592C437.94 144.592 438.204 144.64 438.204 144.64V147.64C438.204 147.64 437.892 147.592 437.484 147.592C436.188 147.592 434.724 148.336 434.148 150.16C433.956 150.76 433.884 151.432 433.884 152.152V157H430.836ZM439.394 150.88C439.394 147.112 441.962 144.472 445.61 144.472C449.138 144.472 451.034 147.04 451.034 150.28C451.034 150.64 450.962 151.456 450.962 151.456H442.514C442.706 153.592 444.362 154.696 446.186 154.696C448.154 154.696 449.714 153.352 449.714 153.352L450.89 155.536C450.89 155.536 449.018 157.288 445.97 157.288C441.914 157.288 439.394 154.36 439.394 150.88ZM442.61 149.368H447.962C447.914 147.712 446.882 146.824 445.538 146.824C443.978 146.824 442.898 147.784 442.61 149.368ZM452.515 153.472C452.515 149.584 457.771 149.32 459.763 149.32H460.171V149.152C460.171 147.544 459.163 146.992 457.819 146.992C456.067 146.992 454.459 148.168 454.459 148.168L453.307 145.984C453.307 145.984 455.203 144.472 458.107 144.472C461.323 144.472 463.195 146.248 463.195 149.344V157H460.387V155.992C460.387 155.512 460.435 155.128 460.435 155.128H460.387C460.411 155.128 459.451 157.288 456.667 157.288C454.483 157.288 452.515 155.92 452.515 153.472ZM455.587 153.328C455.587 154.144 456.187 154.912 457.435 154.912C459.043 154.912 460.195 153.184 460.195 151.696V151.408H459.667C458.107 151.408 455.587 151.624 455.587 153.328ZM466.825 152.512V147.376H465.241V144.952H466.897V141.424H469.873V144.952H472.657V147.376H469.873V152.128C469.873 154.144 471.457 154.432 472.297 154.432C472.633 154.432 472.849 154.384 472.849 154.384V157.048C472.849 157.048 472.489 157.12 471.913 157.12C470.209 157.12 466.825 156.616 466.825 152.512ZM474.432 150.88C474.432 147.136 477.432 144.472 481.152 144.472C484.896 144.472 487.896 147.136 487.896 150.88C487.896 154.648 484.896 157.288 481.176 157.288C477.432 157.288 474.432 154.648 474.432 150.88ZM477.528 150.88C477.528 153.16 479.184 154.696 481.176 154.696C483.144 154.696 484.8 153.16 484.8 150.88C484.8 148.624 483.144 147.064 481.176 147.064C479.184 147.064 477.528 148.624 477.528 150.88ZM490.344 157V144.76H493.272V146.872C493.272 147.328 493.224 147.736 493.224 147.736H493.272C493.824 145.984 495.288 144.592 497.16 144.592C497.448 144.592 497.712 144.64 497.712 144.64V147.64C497.712 147.64 497.4 147.592 496.992 147.592C495.696 147.592 494.232 148.336 493.656 150.16C493.464 150.76 493.392 151.432 493.392 152.152V157H490.344ZM498.734 155.488L500.126 153.352C500.126 153.352 501.47 154.696 503.462 154.696C504.326 154.696 505.07 154.312 505.07 153.592C505.07 151.768 499.118 152.008 499.118 148.072C499.118 145.792 501.158 144.472 503.798 144.472C506.558 144.472 507.902 145.864 507.902 145.864L506.774 148.12C506.774 148.12 505.646 147.064 503.774 147.064C502.982 147.064 502.214 147.4 502.214 148.168C502.214 149.896 508.166 149.68 508.166 153.616C508.166 155.656 506.39 157.288 503.486 157.288C500.438 157.288 498.734 155.488 498.734 155.488ZM510.498 157V153.952H513.546V157H510.498ZM123.16 187V169.96H129.256C132.328 169.96 134.512 171.544 134.512 174.352C134.512 175.936 133.744 177.304 132.448 178V178.048C134.32 178.6 135.208 180.328 135.208 182.056C135.208 185.464 132.472 187 129.328 187H123.16ZM126.256 176.92H129.256C130.6 176.92 131.368 175.96 131.368 174.736C131.368 173.512 130.648 172.624 129.208 172.624H126.256V176.92ZM126.256 184.336H129.568C131.152 184.336 132.04 183.304 132.04 181.864C132.04 180.448 131.128 179.416 129.568 179.416H126.256V184.336ZM137.214 180.88C137.214 177.112 139.782 174.472 143.43 174.472C146.958 174.472 148.854 177.04 148.854 180.28C148.854 180.64 148.782 181.456 148.782 181.456H140.334C140.526 183.592 142.182 184.696 144.006 184.696C145.974 184.696 147.534 183.352 147.534 183.352L148.71 185.536C148.71 185.536 146.838 187.288 143.79 187.288C139.734 187.288 137.214 184.36 137.214 180.88ZM140.43 179.368H145.782C145.734 177.712 144.702 176.824 143.358 176.824C141.798 176.824 140.718 177.784 140.43 179.368ZM157.731 182.512V177.376H156.147V174.952H157.803V171.424H160.779V174.952H163.563V177.376H160.779V182.128C160.779 184.144 162.363 184.432 163.203 184.432C163.539 184.432 163.755 184.384 163.755 184.384V187.048C163.755 187.048 163.395 187.12 162.819 187.12C161.115 187.12 157.731 186.616 157.731 182.512ZM166.25 187V169.96H169.298V175.864C169.298 176.464 169.25 176.896 169.25 176.896H169.298C169.898 175.72 171.386 174.472 173.522 174.472C176.234 174.472 177.77 175.888 177.77 179.128V187H174.746V179.752C174.746 178.264 174.362 177.256 172.802 177.256C171.194 177.256 169.946 178.312 169.49 179.8C169.346 180.28 169.298 180.808 169.298 181.384V187H166.25ZM180.105 180.88C180.105 177.112 182.673 174.472 186.321 174.472C189.849 174.472 191.745 177.04 191.745 180.28C191.745 180.64 191.673 181.456 191.673 181.456H183.225C183.417 183.592 185.073 184.696 186.897 184.696C188.865 184.696 190.425 183.352 190.425 183.352L191.601 185.536C191.601 185.536 189.729 187.288 186.681 187.288C182.625 187.288 180.105 184.36 180.105 180.88ZM183.321 179.368H188.673C188.625 177.712 187.593 176.824 186.249 176.824C184.689 176.824 183.609 177.784 183.321 179.368ZM199.182 180.88C199.182 177.136 202.182 174.472 205.902 174.472C209.646 174.472 212.646 177.136 212.646 180.88C212.646 184.648 209.646 187.288 205.926 187.288C202.182 187.288 199.182 184.648 199.182 180.88ZM202.278 180.88C202.278 183.16 203.934 184.696 205.926 184.696C207.894 184.696 209.55 183.16 209.55 180.88C209.55 178.624 207.894 177.064 205.926 177.064C203.934 177.064 202.278 178.624 202.278 180.88ZM215.094 187V174.76H218.022V176.176C218.022 176.632 217.974 177.016 217.974 177.016H218.022C218.55 175.984 219.894 174.472 222.366 174.472C225.078 174.472 226.614 175.888 226.614 179.128V187H223.59V179.752C223.59 178.264 223.206 177.256 221.646 177.256C220.014 177.256 218.814 178.288 218.358 179.752C218.19 180.256 218.142 180.808 218.142 181.384V187H215.094ZM228.949 180.88C228.949 177.112 231.517 174.472 235.165 174.472C238.693 174.472 240.589 177.04 240.589 180.28C240.589 180.64 240.517 181.456 240.517 181.456H232.069C232.261 183.592 233.917 184.696 235.741 184.696C237.709 184.696 239.269 183.352 239.269 183.352L240.445 185.536C240.445 185.536 238.573 187.288 235.525 187.288C231.469 187.288 228.949 184.36 228.949 180.88ZM232.165 179.368H237.517C237.469 177.712 236.437 176.824 235.093 176.824C233.533 176.824 232.453 177.784 232.165 179.368ZM251.338 187L247.594 174.76H250.81L252.946 182.8C253.114 183.448 253.186 184.096 253.186 184.096H253.234C253.234 184.096 253.354 183.448 253.522 182.8L255.778 174.784H258.49L260.746 182.8C260.914 183.448 261.01 184.096 261.01 184.096H261.058C261.058 184.096 261.154 183.448 261.322 182.8L263.458 174.76H266.626L262.906 187H259.522L257.458 180.016C257.266 179.368 257.146 178.696 257.146 178.696H257.098C257.098 178.696 257.002 179.368 256.81 180.016L254.746 187H251.338ZM268.649 187V169.96H271.697V175.864C271.697 176.464 271.649 176.896 271.649 176.896H271.697C272.297 175.72 273.785 174.472 275.921 174.472C278.633 174.472 280.169 175.888 280.169 179.128V187H277.145V179.752C277.145 178.264 276.761 177.256 275.201 177.256C273.593 177.256 272.345 178.312 271.889 179.8C271.745 180.28 271.697 180.808 271.697 181.384V187H268.649ZM282.456 180.88C282.456 177.136 285.456 174.472 289.176 174.472C292.92 174.472 295.92 177.136 295.92 180.88C295.92 184.648 292.92 187.288 289.2 187.288C285.456 187.288 282.456 184.648 282.456 180.88ZM285.552 180.88C285.552 183.16 287.208 184.696 289.2 184.696C291.168 184.696 292.824 183.16 292.824 180.88C292.824 178.624 291.168 177.064 289.2 177.064C287.208 177.064 285.552 178.624 285.552 180.88ZM303.315 180.88C303.315 177.4 305.907 174.472 309.963 174.472C313.155 174.472 314.667 176.296 314.667 176.296L313.323 178.384C313.323 178.384 312.051 177.064 310.131 177.064C307.875 177.064 306.411 178.768 306.411 180.856C306.411 182.92 307.899 184.696 310.227 184.696C312.291 184.696 313.827 183.136 313.827 183.136L315.003 185.296C315.003 185.296 313.251 187.288 309.963 187.288C305.907 187.288 303.315 184.432 303.315 180.88ZM317.282 187V169.96H320.33V175.864C320.33 176.464 320.282 176.896 320.282 176.896H320.33C320.93 175.72 322.418 174.472 324.554 174.472C327.266 174.472 328.802 175.888 328.802 179.128V187H325.778V179.752C325.778 178.264 325.394 177.256 323.834 177.256C322.226 177.256 320.978 178.312 320.522 179.8C320.378 180.28 320.33 180.808 320.33 181.384V187H317.282ZM330.968 183.472C330.968 179.584 336.224 179.32 338.216 179.32H338.624V179.152C338.624 177.544 337.616 176.992 336.272 176.992C334.52 176.992 332.912 178.168 332.912 178.168L331.76 175.984C331.76 175.984 333.656 174.472 336.56 174.472C339.776 174.472 341.648 176.248 341.648 179.344V187H338.84V185.992C338.84 185.512 338.888 185.128 338.888 185.128H338.84C338.864 185.128 337.904 187.288 335.12 187.288C332.936 187.288 330.968 185.92 330.968 183.472ZM334.04 183.328C334.04 184.144 334.64 184.912 335.888 184.912C337.496 184.912 338.648 183.184 338.648 181.696V181.408H338.12C336.56 181.408 334.04 181.624 334.04 183.328ZM344.821 187V174.76H347.749V176.176C347.749 176.632 347.701 177.016 347.701 177.016H347.749C348.277 175.984 349.621 174.472 352.093 174.472C354.805 174.472 356.341 175.888 356.341 179.128V187H353.317V179.752C353.317 178.264 352.933 177.256 351.373 177.256C349.741 177.256 348.541 178.288 348.085 179.752C347.917 180.256 347.869 180.808 347.869 181.384V187H344.821ZM360.787 188.656C360.787 188.656 362.323 189.448 364.171 189.448C366.043 189.448 367.627 188.656 367.627 186.472V185.752C367.627 185.464 367.675 185.104 367.675 185.104H367.627C366.907 186.184 365.851 186.76 364.219 186.76C360.715 186.76 358.723 183.928 358.723 180.568C358.723 177.208 360.619 174.472 364.147 174.472C366.811 174.472 367.771 176.032 367.771 176.032H367.843C367.843 176.032 367.819 175.888 367.819 175.696V174.76H370.675V186.256C370.675 190.456 367.411 192.04 364.219 192.04C362.683 192.04 361.051 191.608 359.875 190.984L360.787 188.656ZM364.867 184.192C366.331 184.192 367.699 183.352 367.699 180.592C367.699 177.808 366.331 177.064 364.675 177.064C362.827 177.064 361.795 178.408 361.795 180.472C361.795 182.608 362.899 184.192 364.867 184.192ZM373.16 180.88C373.16 177.112 375.728 174.472 379.376 174.472C382.904 174.472 384.8 177.04 384.8 180.28C384.8 180.64 384.728 181.456 384.728 181.456H376.28C376.472 183.592 378.128 184.696 379.952 184.696C381.92 184.696 383.48 183.352 383.48 183.352L384.656 185.536C384.656 185.536 382.784 187.288 379.736 187.288C375.68 187.288 373.16 184.36 373.16 180.88ZM376.376 179.368H381.728C381.68 177.712 380.648 176.824 379.304 176.824C377.744 176.824 376.664 177.784 376.376 179.368ZM386.281 185.488L387.673 183.352C387.673 183.352 389.017 184.696 391.009 184.696C391.873 184.696 392.617 184.312 392.617 183.592C392.617 181.768 386.665 182.008 386.665 178.072C386.665 175.792 388.705 174.472 391.345 174.472C394.105 174.472 395.449 175.864 395.449 175.864L394.321 178.12C394.321 178.12 393.193 177.064 391.321 177.064C390.529 177.064 389.761 177.4 389.761 178.168C389.761 179.896 395.713 179.68 395.713 183.616C395.713 185.656 393.937 187.288 391.033 187.288C387.985 187.288 386.281 185.488 386.281 185.488ZM404.528 182.512V177.376H402.944V174.952H404.6V171.424H407.576V174.952H410.36V177.376H407.576V182.128C407.576 184.144 409.16 184.432 410 184.432C410.336 184.432 410.552 184.384 410.552 184.384V187.048C410.552 187.048 410.192 187.12 409.616 187.12C407.912 187.12 404.528 186.616 404.528 182.512ZM413.047 187V169.96H416.095V175.864C416.095 176.464 416.047 176.896 416.047 176.896H416.095C416.695 175.72 418.183 174.472 420.319 174.472C423.031 174.472 424.567 175.888 424.567 179.128V187H421.543V179.752C421.543 178.264 421.159 177.256 419.599 177.256C417.991 177.256 416.743 178.312 416.287 179.8C416.143 180.28 416.095 180.808 416.095 181.384V187H413.047ZM426.902 180.88C426.902 177.112 429.47 174.472 433.118 174.472C436.646 174.472 438.542 177.04 438.542 180.28C438.542 180.64 438.47 181.456 438.47 181.456H430.022C430.214 183.592 431.87 184.696 433.694 184.696C435.662 184.696 437.222 183.352 437.222 183.352L438.398 185.536C438.398 185.536 436.526 187.288 433.478 187.288C429.422 187.288 426.902 184.36 426.902 180.88ZM430.118 179.368H435.47C435.422 177.712 434.39 176.824 433.046 176.824C431.486 176.824 430.406 177.784 430.118 179.368ZM449.291 187L445.547 174.76H448.763L450.899 182.8C451.067 183.448 451.139 184.096 451.139 184.096H451.187C451.187 184.096 451.307 183.448 451.475 182.8L453.731 174.784H456.443L458.699 182.8C458.867 183.448 458.963 184.096 458.963 184.096H459.011C459.011 184.096 459.107 183.448 459.275 182.8L461.411 174.76H464.579L460.859 187H457.475L455.411 180.016C455.219 179.368 455.099 178.696 455.099 178.696H455.051C455.051 178.696 454.955 179.368 454.763 180.016L452.699 187H449.291ZM465.69 180.88C465.69 177.136 468.69 174.472 472.41 174.472C476.154 174.472 479.154 177.136 479.154 180.88C479.154 184.648 476.154 187.288 472.434 187.288C468.69 187.288 465.69 184.648 465.69 180.88ZM468.786 180.88C468.786 183.16 470.442 184.696 472.434 184.696C474.402 184.696 476.058 183.16 476.058 180.88C476.058 178.624 474.402 177.064 472.434 177.064C470.442 177.064 468.786 178.624 468.786 180.88ZM481.602 187V174.76H484.53V176.872C484.53 177.328 484.482 177.736 484.482 177.736H484.53C485.082 175.984 486.546 174.592 488.418 174.592C488.706 174.592 488.97 174.64 488.97 174.64V177.64C488.97 177.64 488.658 177.592 488.25 177.592C486.954 177.592 485.49 178.336 484.914 180.16C484.722 180.76 484.65 181.432 484.65 182.152V187H481.602ZM490.856 183.184V169.96H493.88V182.728C493.88 184.072 494.336 184.408 495.128 184.408C495.368 184.408 495.584 184.384 495.584 184.384V187.048C495.584 187.048 495.128 187.12 494.624 187.12C492.944 187.12 490.856 186.688 490.856 183.184ZM497.004 180.88C497.004 176.992 499.308 174.472 502.548 174.472C505.236 174.472 506.076 176.032 506.076 176.032H506.124C506.124 176.032 506.1 175.72 506.1 175.336V169.96H509.148V187H506.268V185.992C506.268 185.536 506.316 185.2 506.316 185.2H506.268C506.268 185.2 505.236 187.288 502.428 187.288C499.116 187.288 497.004 184.672 497.004 180.88ZM500.076 180.88C500.076 183.208 501.324 184.72 503.124 184.72C504.708 184.72 506.196 183.568 506.196 180.856C506.196 178.96 505.188 177.088 503.148 177.088C501.468 177.088 500.076 178.456 500.076 180.88ZM517.32 183.472C517.32 179.584 522.576 179.32 524.568 179.32H524.976V179.152C524.976 177.544 523.968 176.992 522.624 176.992C520.872 176.992 519.264 178.168 519.264 178.168L518.112 175.984C518.112 175.984 520.008 174.472 522.912 174.472C526.128 174.472 528 176.248 528 179.344V187H525.192V185.992C525.192 185.512 525.24 185.128 525.24 185.128H525.192C525.216 185.128 524.256 187.288 521.472 187.288C519.288 187.288 517.32 185.92 517.32 183.472ZM520.392 183.328C520.392 184.144 520.992 184.912 522.24 184.912C523.848 184.912 525 183.184 525 181.696V181.408H524.472C522.912 181.408 520.392 181.624 520.392 183.328ZM531.172 187V174.76H534.1V176.872C534.1 177.328 534.052 177.736 534.052 177.736H534.1C534.652 175.984 536.116 174.592 537.988 174.592C538.276 174.592 538.54 174.64 538.54 174.64V177.64C538.54 177.64 538.228 177.592 537.82 177.592C536.524 177.592 535.06 178.336 534.484 180.16C534.292 180.76 534.22 181.432 534.22 182.152V187H531.172ZM539.682 180.88C539.682 177.136 542.682 174.472 546.402 174.472C550.146 174.472 553.146 177.136 553.146 180.88C553.146 184.648 550.146 187.288 546.426 187.288C542.682 187.288 539.682 184.648 539.682 180.88ZM542.778 180.88C542.778 183.16 544.434 184.696 546.426 184.696C548.394 184.696 550.05 183.16 550.05 180.88C550.05 178.624 548.394 177.064 546.426 177.064C544.434 177.064 542.778 178.624 542.778 180.88ZM555.426 182.632V174.76H558.474V182.008C558.474 183.496 558.858 184.504 560.37 184.504C562.578 184.504 563.802 182.56 563.802 180.376V174.76H566.85V187H563.922V185.608C563.922 185.128 563.97 184.744 563.97 184.744H563.922C563.322 186.016 561.762 187.288 559.674 187.288C557.058 187.288 555.426 185.968 555.426 182.632ZM570.219 187V174.76H573.147V176.176C573.147 176.632 573.099 177.016 573.099 177.016H573.147C573.675 175.984 575.019 174.472 577.491 174.472C580.203 174.472 581.739 175.888 581.739 179.128V187H578.715V179.752C578.715 178.264 578.331 177.256 576.771 177.256C575.139 177.256 573.939 178.288 573.483 179.752C573.315 180.256 573.267 180.808 573.267 181.384V187H570.219ZM584.098 180.88C584.098 176.992 586.402 174.472 589.642 174.472C592.33 174.472 593.17 176.032 593.17 176.032H593.218C593.218 176.032 593.194 175.72 593.194 175.336V169.96H596.242V187H593.362V185.992C593.362 185.536 593.41 185.2 593.41 185.2H593.362C593.362 185.2 592.33 187.288 589.522 187.288C586.21 187.288 584.098 184.672 584.098 180.88ZM587.17 180.88C587.17 183.208 588.418 184.72 590.218 184.72C591.802 184.72 593.29 183.568 593.29 180.856C593.29 178.96 592.282 177.088 590.242 177.088C588.562 177.088 587.17 178.456 587.17 180.88ZM599.49 187V183.952H602.538V187H599.49Z" fill="#474A59"/>
<path d="M144.672 68.76L150.216 90.364C150.7 92.168 150.744 93.664 150.788 93.664H150.876C150.876 93.664 151.008 92.124 151.404 90.364L156.552 68.76H162.404L154.352 100H147.796L143 81.52C142.472 79.496 142.208 77.428 142.208 77.428H142.12C142.12 77.428 141.856 79.496 141.328 81.52L136.532 100H129.976L122.144 68.76H127.996L132.924 90.364C133.32 92.124 133.452 93.664 133.452 93.664H133.54C133.584 93.664 133.628 92.168 134.112 90.364L139.744 68.76H144.672ZM164.219 88.78C164.219 81.872 168.927 77.032 175.615 77.032C182.083 77.032 185.559 81.74 185.559 87.68C185.559 88.34 185.427 89.836 185.427 89.836H169.939C170.291 93.752 173.327 95.776 176.671 95.776C180.279 95.776 183.139 93.312 183.139 93.312L185.295 97.316C185.295 97.316 181.863 100.528 176.275 100.528C168.839 100.528 164.219 95.16 164.219 88.78ZM170.115 86.008H179.927C179.839 82.972 177.947 81.344 175.483 81.344C172.623 81.344 170.643 83.104 170.115 86.008ZM189.858 93.004V68.76H195.402V92.168C195.402 94.632 196.238 95.248 197.69 95.248C198.13 95.248 198.526 95.204 198.526 95.204V100.088C198.526 100.088 197.69 100.22 196.766 100.22C193.686 100.22 189.858 99.428 189.858 93.004ZM201.042 88.78C201.042 82.4 205.794 77.032 213.23 77.032C219.082 77.032 221.854 80.376 221.854 80.376L219.39 84.204C219.39 84.204 217.058 81.784 213.538 81.784C209.402 81.784 206.718 84.908 206.718 88.736C206.718 92.52 209.446 95.776 213.714 95.776C217.498 95.776 220.314 92.916 220.314 92.916L222.47 96.876C222.47 96.876 219.258 100.528 213.23 100.528C205.794 100.528 201.042 95.292 201.042 88.78ZM224.974 88.78C224.974 81.916 230.474 77.032 237.294 77.032C244.158 77.032 249.658 81.916 249.658 88.78C249.658 95.688 244.158 100.528 237.338 100.528C230.474 100.528 224.974 95.688 224.974 88.78ZM230.65 88.78C230.65 92.96 233.686 95.776 237.338 95.776C240.946 95.776 243.982 92.96 243.982 88.78C243.982 84.644 240.946 81.784 237.338 81.784C233.686 81.784 230.65 84.644 230.65 88.78ZM254.146 100V77.56H259.514V80.156C259.514 80.992 259.426 81.696 259.426 81.696H259.514C260.614 79.496 263.298 77.032 266.818 77.032C270.25 77.032 272.45 78.616 273.374 81.652H273.462C274.694 79.232 277.598 77.032 281.118 77.032C285.782 77.032 288.466 79.672 288.466 85.568V100H282.878V86.624C282.878 84.072 282.394 82.136 279.798 82.136C276.938 82.136 275.046 84.424 274.386 87.24C274.166 88.12 274.122 89.088 274.122 90.144V100H268.534V86.624C268.534 84.204 268.138 82.136 265.498 82.136C262.594 82.136 260.702 84.424 259.998 87.284C259.778 88.12 259.734 89.132 259.734 90.144V100H254.146ZM292.738 88.78C292.738 81.872 297.446 77.032 304.134 77.032C310.602 77.032 314.078 81.74 314.078 87.68C314.078 88.34 313.946 89.836 313.946 89.836H298.458C298.81 93.752 301.846 95.776 305.19 95.776C308.798 95.776 311.658 93.312 311.658 93.312L313.814 97.316C313.814 97.316 310.382 100.528 304.794 100.528C297.358 100.528 292.738 95.16 292.738 88.78ZM298.634 86.008H308.446C308.358 82.972 306.466 81.344 304.002 81.344C301.142 81.344 299.162 83.104 298.634 86.008ZM330.353 91.772V82.356H327.449V77.912H330.485V71.444H335.941V77.912H341.045V82.356H335.941V91.068C335.941 94.764 338.845 95.292 340.385 95.292C341.001 95.292 341.397 95.204 341.397 95.204V100.088C341.397 100.088 340.737 100.22 339.681 100.22C336.557 100.22 330.353 99.296 330.353 91.772ZM344.299 88.78C344.299 81.916 349.799 77.032 356.619 77.032C363.483 77.032 368.983 81.916 368.983 88.78C368.983 95.688 363.483 100.528 356.663 100.528C349.799 100.528 344.299 95.688 344.299 88.78ZM349.975 88.78C349.975 92.96 353.011 95.776 356.663 95.776C360.271 95.776 363.307 92.96 363.307 88.78C363.307 84.644 360.271 81.784 356.663 81.784C353.011 81.784 349.975 84.644 349.975 88.78ZM403.222 100L400.582 91.992H389.626L386.986 100H381.134L392.134 68.76H398.074L409.074 100H403.222ZM395.17 74.172H395.082C395.082 74.172 394.378 77.252 393.762 79.012L390.99 87.372H399.174L396.402 79.012C395.83 77.252 395.17 74.172 395.17 74.172ZM412.185 100V77.56H417.553V81.432C417.553 82.268 417.465 83.016 417.465 83.016H417.553C418.565 79.804 421.249 77.252 424.681 77.252C425.209 77.252 425.693 77.34 425.693 77.34V82.84C425.693 82.84 425.121 82.752 424.373 82.752C421.997 82.752 419.313 84.116 418.257 87.46C417.905 88.56 417.773 89.792 417.773 91.112V100H412.185ZM430.427 91.772V82.356H427.523V77.912H430.559V71.444H436.015V77.912H441.119V82.356H436.015V91.068C436.015 94.764 438.919 95.292 440.459 95.292C441.075 95.292 441.471 95.204 441.471 95.204V100.088C441.471 100.088 440.811 100.22 439.755 100.22C436.631 100.22 430.427 99.296 430.427 91.772ZM455.248 96.26L458.328 91.992C458.328 91.992 461.716 95.292 466.116 95.292C468.492 95.292 470.648 94.06 470.648 91.508C470.648 85.92 455.908 86.888 455.908 77.296C455.908 72.104 460.396 68.232 466.38 68.232C472.54 68.232 475.708 71.576 475.708 71.576L473.244 76.196C473.244 76.196 470.252 73.468 466.336 73.468C463.696 73.468 461.628 75.008 461.628 77.208C461.628 82.752 476.324 81.388 476.324 91.376C476.324 96.348 472.54 100.528 466.028 100.528C459.076 100.528 455.248 96.26 455.248 96.26ZM482.075 91.772V82.356H479.171V77.912H482.207V71.444H487.663V77.912H492.767V82.356H487.663V91.068C487.663 94.764 490.567 95.292 492.107 95.292C492.723 95.292 493.119 95.204 493.119 95.204V100.088C493.119 100.088 492.459 100.22 491.403 100.22C488.279 100.22 482.075 99.296 482.075 91.772ZM495.801 93.532C495.801 86.404 505.437 85.92 509.089 85.92H509.837V85.612C509.837 82.664 507.989 81.652 505.525 81.652C502.313 81.652 499.365 83.808 499.365 83.808L497.253 79.804C497.253 79.804 500.729 77.032 506.053 77.032C511.949 77.032 515.381 80.288 515.381 85.964V100H510.233V98.152C510.233 97.272 510.321 96.568 510.321 96.568H510.233C510.277 96.568 508.517 100.528 503.413 100.528C499.409 100.528 495.801 98.02 495.801 93.532ZM501.433 93.268C501.433 94.764 502.533 96.172 504.821 96.172C507.769 96.172 509.881 93.004 509.881 90.276V89.748H508.913C506.053 89.748 501.433 90.144 501.433 93.268ZM521.197 100V77.56H526.565V81.432C526.565 82.268 526.477 83.016 526.477 83.016H526.565C527.577 79.804 530.261 77.252 533.693 77.252C534.221 77.252 534.705 77.34 534.705 77.34V82.84C534.705 82.84 534.133 82.752 533.385 82.752C531.009 82.752 528.325 84.116 527.269 87.46C526.917 88.56 526.785 89.792 526.785 91.112V100H521.197ZM539.439 91.772V82.356H536.535V77.912H539.571V71.444H545.027V77.912H550.131V82.356H545.027V91.068C545.027 94.764 547.931 95.292 549.471 95.292C550.087 95.292 550.483 95.204 550.483 95.204V100.088C550.483 100.088 549.823 100.22 548.767 100.22C545.643 100.22 539.439 99.296 539.439 91.772ZM553.473 88.78C553.473 81.872 558.181 77.032 564.869 77.032C571.337 77.032 574.813 81.74 574.813 87.68C574.813 88.34 574.681 89.836 574.681 89.836H559.193C559.545 93.752 562.581 95.776 565.925 95.776C569.533 95.776 572.393 93.312 572.393 93.312L574.549 97.316C574.549 97.316 571.117 100.528 565.529 100.528C558.093 100.528 553.473 95.16 553.473 88.78ZM559.369 86.008H569.181C569.093 82.972 567.201 81.344 564.737 81.344C561.877 81.344 559.897 83.104 559.369 86.008ZM579.42 100V77.56H584.788V81.432C584.788 82.268 584.7 83.016 584.7 83.016H584.788C585.8 79.804 588.484 77.252 591.916 77.252C592.444 77.252 592.928 77.34 592.928 77.34V82.84C592.928 82.84 592.356 82.752 591.608 82.752C589.232 82.752 586.548 84.116 585.492 87.46C585.14 88.56 585.008 89.792 585.008 91.112V100H579.42Z" fill="#111111"/>
</svg>
