<svg width="390" height="392" viewBox="0 0 390 392" fill="none" xmlns="http://www.w3.org/2000/svg">
<g clip-path="url(#clip0_93_30106)">
<path d="M363.736 33.4735C341.754 -2.3093 208.855 -9.52545 104.068 16.5179C7.7534 40.401 -14.8442 142.312 9.80603 211.317C36.6209 286.327 140.297 403.574 205.524 363.321C328.58 287.38 405.731 342.837 379.634 228.952C358.763 137.805 398.826 90.5696 363.736 33.4735Z" fill="#F5F6FA"/>
<path d="M315.546 245.554H94.6078C89.0097 245.554 83.6355 241.029 83.6355 235.451V46.8258C83.6355 41.2391 89.0097 36.7232 94.6078 36.7232H315.546C321.144 36.7232 326.508 41.2484 326.508 46.8258V235.451C326.555 241.029 321.134 245.554 315.546 245.554Z" fill="#BB9DF5" stroke="#1D1E26" stroke-width="1.78398" stroke-miterlimit="10"/>
<mask id="mask0_93_30106" style="mask-type:alpha" maskUnits="userSpaceOnUse" x="82" y="35" width="246" height="212">
<path d="M315.546 245.554H94.6078C89.0097 245.554 83.6355 241.029 83.6355 235.451V46.8258C83.6355 41.2391 89.0097 36.7232 94.6078 36.7232H315.546C321.144 36.7232 326.508 41.2484 326.508 46.8258V235.451C326.555 241.029 321.134 245.554 315.546 245.554Z" fill="#BB9DF5" stroke="#1D1E26" stroke-width="1.78398" stroke-miterlimit="10"/>
</mask>
<g mask="url(#mask0_93_30106)">
<path d="M73.615 185.329L178.346 289.028" stroke="white" stroke-width="1.78398" stroke-linecap="round" stroke-linejoin="round"/>
<path d="M79.5301 39.9821L210.441 309.428" stroke="white" stroke-width="1.78398" stroke-linecap="round" stroke-linejoin="round"/>
<path d="M52.5007 224.427L222.272 -5.0748" stroke="white" stroke-width="1.78398" stroke-linecap="round" stroke-linejoin="round"/>
<path d="M336.296 105.43L178.346 309.429" stroke="white" stroke-width="1.78398" stroke-linecap="round" stroke-linejoin="round"/>
<path d="M324.465 70.5784L52.5007 259.278" stroke="white" stroke-width="1.78398" stroke-linecap="round" stroke-linejoin="round"/>
<path d="M119.23 5.13019L385.279 251.634" stroke="white" stroke-width="1.78398" stroke-linecap="round" stroke-linejoin="round"/>
<path d="M277.171 309.428L84.5966 -12.7192" stroke="white" stroke-width="1.78398" stroke-linecap="round" stroke-linejoin="round"/>
<path d="M188.488 -17.8217L336.296 152.182" stroke="white" stroke-width="1.78398" stroke-linecap="round" stroke-linejoin="round"/>
<path d="M68.5485 136.027L391.194 280.536" stroke="white" stroke-width="1.78398" stroke-linecap="round" stroke-linejoin="round"/>
<path d="M256.896 0.02771L136.967 365.528" stroke="white" stroke-width="1.78398" stroke-linecap="round" stroke-linejoin="round"/>
<path d="M326.555 53.4925H83.6355V45.9877C83.6355 43.3083 84.7021 40.7387 86.6005 38.8441C88.499 36.9495 91.0739 35.8851 93.7587 35.8851H316.385C317.719 35.879 319.04 36.1358 320.274 36.6407C321.507 37.1457 322.629 37.8889 323.574 38.8276C324.519 39.7663 325.268 40.8821 325.78 42.1108C326.292 43.3396 326.555 44.6571 326.555 45.9877V53.4925Z" fill="white" stroke="#1D1E26" stroke-width="1.78398" stroke-linecap="round" stroke-linejoin="round"/>
<path d="M315.546 245.554H94.6078C89.0097 245.554 83.6355 241.029 83.6355 235.451V46.8258C83.6355 41.2391 89.0097 36.7232 94.6078 36.7232H315.546C321.144 36.7232 326.508 41.2484 326.508 46.8258V235.451C326.555 241.029 321.134 245.554 315.546 245.554Z" stroke="#1D1E26" stroke-width="1.78398" stroke-miterlimit="10"/>
</g>
<path d="M95.6993 48.2038C97.7193 48.2038 99.3567 46.5696 99.3567 44.5538C99.3567 42.538 97.7193 40.9038 95.6993 40.9038C93.6794 40.9038 92.0419 42.538 92.0419 44.5538C92.0419 46.5696 93.6794 48.2038 95.6993 48.2038Z" fill="#14CCCC"/>
<path d="M108.426 48.2038C110.446 48.2038 112.083 46.5696 112.083 44.5538C112.083 42.538 110.446 40.9038 108.426 40.9038C106.406 40.9038 104.768 42.538 104.768 44.5538C104.768 46.5696 106.406 48.2038 108.426 48.2038Z" fill="#14CCCC"/>
<path d="M121.161 48.2038C123.181 48.2038 124.819 46.5696 124.819 44.5538C124.819 42.538 123.181 40.9038 121.161 40.9038C119.141 40.9038 117.504 42.538 117.504 44.5538C117.504 46.5696 119.141 48.2038 121.161 48.2038Z" fill="#14CCCC"/>
<path d="M283.524 81.1187H64.8166C58.6073 81.1187 53.5737 86.1421 53.5737 92.3387V278.73C53.5737 284.926 58.6073 289.95 64.8166 289.95H283.524C289.734 289.95 294.767 284.926 294.767 278.73V92.3387C294.767 86.1421 289.734 81.1187 283.524 81.1187Z" fill="white" stroke="#1D1E26" stroke-width="1.78398" stroke-linecap="round" stroke-linejoin="round"/>
<path d="M295.607 97.8974H52.734V90.3926C52.734 87.7133 53.8006 85.1436 55.699 83.249C57.5975 81.3544 60.1724 80.29 62.8572 80.29H285.502C288.187 80.29 290.762 81.3544 292.661 83.249C294.559 85.1436 295.626 87.7133 295.626 90.3926L295.607 97.8974Z" fill="#6C44EA"/>
<path d="M65.6283 92.6087C67.6482 92.6087 69.2857 90.9745 69.2857 88.9587C69.2857 86.9429 67.6482 85.3087 65.6283 85.3087C63.6083 85.3087 61.9709 86.9429 61.9709 88.9587C61.9709 90.9745 63.6083 92.6087 65.6283 92.6087Z" fill="white"/>
<path d="M78.3639 92.6087C80.3839 92.6087 82.0213 90.9745 82.0213 88.9587C82.0213 86.9429 80.3839 85.3087 78.3639 85.3087C76.344 85.3087 74.7065 86.9429 74.7065 88.9587C74.7065 90.9745 76.344 92.6087 78.3639 92.6087Z" fill="white"/>
<path d="M91.0996 92.6087C93.1195 92.6087 94.757 90.9745 94.757 88.9587C94.757 86.9429 93.1195 85.3087 91.0996 85.3087C89.0796 85.3087 87.4422 86.9429 87.4422 88.9587C87.4422 90.9745 89.0796 92.6087 91.0996 92.6087Z" fill="white"/>
<path d="M34.5309 57.9339L48.75 73.0273" stroke="#1D1E26" stroke-width="1.78398" stroke-linecap="round" stroke-linejoin="round"/>
<path d="M30.6869 73.8653L43.4132 80.1597" stroke="#1D1E26" stroke-width="1.78398" stroke-linecap="round" stroke-linejoin="round"/>
<path d="M364.109 198.56L369.987 185.134" stroke="#1D1E26" stroke-width="1.78398" stroke-linecap="round" stroke-linejoin="round"/>
<path d="M369.987 202.75L386.8 185.972" stroke="#1D1E26" stroke-width="1.78398" stroke-linecap="round" stroke-linejoin="round"/>
<path d="M374.195 209.455L386.8 204.426" stroke="#1D1E26" stroke-width="1.78398" stroke-linecap="round" stroke-linejoin="round"/>
<path d="M332.172 102.944V221.196" stroke="#1D1E26" stroke-width="1.78398" stroke-linecap="round" stroke-linejoin="round"/>
<path d="M256.001 125.17H89.0656C83.4129 125.17 78.8304 129.743 78.8304 135.384V249.148C78.8304 254.789 83.4129 259.362 89.0656 259.362H256.001C261.653 259.362 266.236 254.789 266.236 249.148V135.384C266.236 129.743 261.653 125.17 256.001 125.17Z" fill="#F5F6FA"/>
<path d="M173.373 155.785H173.802C175.195 155.785 176.531 156.337 177.516 157.32C178.501 158.303 179.055 159.637 179.055 161.027V222.676C179.055 224.067 178.501 225.4 177.516 226.383C176.531 227.366 175.195 227.919 173.802 227.919H173.373C171.98 227.919 170.644 227.366 169.658 226.383C168.673 225.4 168.12 224.067 168.12 222.676V161.027C168.12 159.639 168.672 158.308 169.656 157.327C170.639 156.346 171.973 155.794 173.363 155.794L173.373 155.785Z" fill="#1D1E26"/>
<path d="M209.303 191.642V191.223C209.303 188.328 206.951 185.981 204.05 185.981H143.124C140.223 185.981 137.872 188.328 137.872 191.223V191.642C137.872 194.537 140.223 196.884 143.124 196.884H204.05C206.951 196.884 209.303 194.537 209.303 191.642Z" fill="#1D1E26"/>
<path d="M350.333 218.623L216.613 218.763C210.404 218.769 205.376 223.798 205.382 229.994L205.484 326.765C205.49 332.962 210.529 337.98 216.738 337.973L350.458 337.834C356.667 337.827 361.695 332.799 361.689 326.602L361.587 229.831C361.581 223.634 356.542 218.616 350.333 218.623Z" fill="#14CCCC" stroke="#1D1E26" stroke-width="1.78398" stroke-miterlimit="10"/>
<path d="M360.965 331.431C361.024 331.074 361.055 330.713 361.058 330.351L361.011 281.504L330.287 263.459L225.024 337.353L354.144 337.222C354.507 337.22 354.869 337.189 355.227 337.129C356.52 336.617 357.696 335.848 358.682 334.868C359.669 333.889 360.445 332.719 360.965 331.431Z" fill="#BB9DF5"/>
<path d="M206.392 311.328V326.775C206.407 329.495 207.499 332.099 209.431 334.018C211.363 335.937 213.976 337.015 216.702 337.017L350.431 336.878C353.157 336.861 355.766 335.768 357.689 333.839C359.611 331.91 360.692 329.3 360.694 326.58V324.764L258.884 283.441C258.884 283.441 213.492 306.887 206.392 311.328Z" fill="white"/>
<path d="M239.925 258.599C246.046 258.599 251.009 253.646 251.009 247.537C251.009 241.428 246.046 236.475 239.925 236.475C233.803 236.475 228.84 241.428 228.84 247.537C228.84 253.646 233.803 258.599 239.925 258.599Z" fill="white"/>
<path d="M357.568 321.188C356.251 321.984 355.2 323.15 354.545 324.54C353.62 323.777 352.531 323.235 351.363 322.957C350.195 322.679 348.978 322.672 347.807 322.936C346.636 323.201 345.541 323.729 344.606 324.482C343.672 325.235 342.923 326.191 342.416 327.278C341.157 326.245 339.608 325.626 337.982 325.508C336.357 325.389 334.734 325.777 333.338 326.617C332.162 327.331 331.196 328.343 330.539 329.55L323.896 318.572C322.817 316.79 321.073 315.509 319.048 315.011C317.023 314.512 314.882 314.837 313.096 315.914C311.311 316.99 310.027 318.731 309.528 320.752C309.028 322.773 309.354 324.91 310.433 326.691L334.215 365.947L322.17 366.878C320.346 367.033 318.582 367.6 317.01 368.536C315.727 369.3 314.701 370.429 314.063 371.778C313.424 373.126 313.202 374.634 313.426 376.109C313.649 377.584 314.307 378.959 315.316 380.059C316.324 381.16 317.639 381.936 319.091 382.288L354.004 390.873C357.885 391.84 361.92 392.028 365.874 391.427C369.828 390.826 373.624 389.448 377.04 387.372C382.834 383.865 386.997 378.207 388.617 371.64C390.236 365.074 389.18 358.134 385.68 352.344L368.391 323.805C367.304 322.026 365.553 320.751 363.523 320.26C361.493 319.769 359.351 320.103 357.568 321.188Z" fill="#6C44EA"/>
<path d="M330.446 329.271L343.536 351.049" stroke="white" stroke-width="1.78398" stroke-linecap="round" stroke-linejoin="round"/>
<path d="M342.23 327.092L353.146 345.826" stroke="white" stroke-width="1.78398" stroke-linecap="round" stroke-linejoin="round"/>
<path d="M354.452 324.475L364.053 341.031" stroke="white" stroke-width="1.78398" stroke-linecap="round" stroke-linejoin="round"/>
<path d="M306.962 329.643C305.988 328.272 305.303 326.717 304.948 325.074C304.594 323.431 304.577 321.733 304.899 320.083C305.222 318.433 305.876 316.866 306.823 315.476C307.77 314.086 308.99 312.902 310.409 311.996C311.828 311.091 313.416 310.482 315.078 310.206C316.74 309.931 318.44 309.995 320.076 310.395C321.712 310.795 323.25 311.522 324.596 312.532C325.942 313.542 327.069 314.815 327.908 316.272" stroke="#1D1E26" stroke-width="1.78398" stroke-linecap="round" stroke-linejoin="round"/>
<path d="M104.255 181.791C68.9591 187.657 -16.9342 244.418 4.24526 320.174C24.417 392.298 195.858 315.984 195.858 315.984" stroke="#1D1E26" stroke-width="1.78398" stroke-linecap="round" stroke-linejoin="round" stroke-dasharray="8.92 8.92"/>
<path d="M73.1577 175.078C73.1577 175.078 98.3491 175.078 110.982 181.791C106.774 183.467 90.8103 192.694 90.8103 207.788" stroke="#1D1E26" stroke-width="1.78398" stroke-linecap="round" stroke-linejoin="round" stroke-dasharray="8.92 8.92"/>
</g>
<defs>
<clipPath id="clip0_93_30106">
<rect width="390" height="392" fill="white"/>
</clipPath>
</defs>
</svg>
