<svg width="178" height="60" viewBox="0 0 178 60" fill="none" xmlns="http://www.w3.org/2000/svg">
<path d="M38.0653 15H31.5345L22 45H27.4843L38.0653 15Z" fill="white"/>
<path d="M35.3972 45H49L47.0801 38.693H37.2735L35.3972 45Z" fill="white"/>
<path d="M42.1548 21.6583H42.2428C42.2428 21.6583 42.9464 24.9635 43.518 26.8704L45.2771 32.7605H39.0765L40.8795 26.8704C41.4512 24.9635 42.1548 21.6583 42.1548 21.6583Z" fill="white"/>
<path d="M64.557 25.692L64.074 27.372H67.581L67.098 25.692C66.874 24.964 66.657 24.215 66.447 23.445C66.251 22.675 66.055 21.912 65.859 21.156H65.775C65.593 21.926 65.397 22.696 65.187 23.466C64.991 24.222 64.781 24.964 64.557 25.692ZM59.958 33L64.431 19.266H67.287L71.76 33H69.198L68.127 29.283H63.507L62.436 33H59.958ZM73.453 33V19.266H78.094C79.046 19.266 79.9 19.392 80.656 19.644C81.426 19.896 82.028 20.323 82.462 20.925C82.91 21.513 83.134 22.318 83.134 23.34C83.134 24.39 82.882 25.237 82.378 25.881C81.888 26.525 81.23 26.987 80.404 27.267L83.68 33H80.95L77.989 27.624H75.889V33H73.453ZM75.889 25.692H77.842C78.78 25.692 79.494 25.496 79.984 25.104C80.488 24.698 80.74 24.11 80.74 23.34C80.74 22.556 80.488 22.01 79.984 21.702C79.494 21.38 78.78 21.219 77.842 21.219H75.889V25.692ZM88.3246 33V21.324H84.3556V19.266H94.7296V21.324H90.7606V33H88.3246ZM101.797 33.252C100.607 33.252 99.5567 32.965 98.6467 32.391C97.7367 31.803 97.0227 30.977 96.5047 29.913C96.0007 28.835 95.7487 27.554 95.7487 26.07C95.7487 24.586 96.0007 23.319 96.5047 22.269C97.0227 21.219 97.7367 20.414 98.6467 19.854C99.5567 19.294 100.607 19.014 101.797 19.014C103.001 19.014 104.058 19.294 104.968 19.854C105.878 20.414 106.585 21.219 107.089 22.269C107.607 23.319 107.866 24.586 107.866 26.07C107.866 27.554 107.607 28.835 107.089 29.913C106.585 30.977 105.878 31.803 104.968 32.391C104.058 32.965 103.001 33.252 101.797 33.252ZM101.797 31.131C102.875 31.131 103.736 30.676 104.38 29.766C105.024 28.842 105.346 27.61 105.346 26.07C105.346 24.53 105.024 23.326 104.38 22.458C103.736 21.576 102.875 21.135 101.797 21.135C100.719 21.135 99.8577 21.576 99.2137 22.458C98.5697 23.326 98.2477 24.53 98.2477 26.07C98.2477 27.61 98.5697 28.842 99.2137 29.766C99.8577 30.676 100.719 31.131 101.797 31.131ZM116.367 33.252C115.135 33.252 114.029 32.979 113.049 32.433C112.069 31.887 111.299 31.089 110.739 30.039C110.179 28.975 109.899 27.687 109.899 26.175C109.899 24.677 110.186 23.396 110.76 22.332C111.334 21.254 112.111 20.435 113.091 19.875C114.071 19.301 115.17 19.014 116.388 19.014C117.368 19.014 118.194 19.196 118.866 19.56C119.552 19.91 120.112 20.309 120.546 20.757L119.244 22.332C118.894 21.996 118.502 21.716 118.068 21.492C117.648 21.254 117.116 21.135 116.472 21.135C115.254 21.135 114.267 21.583 113.511 22.479C112.769 23.361 112.398 24.572 112.398 26.112C112.398 27.68 112.755 28.912 113.469 29.808C114.183 30.69 115.226 31.131 116.598 31.131C116.99 31.131 117.361 31.082 117.711 30.984C118.061 30.872 118.348 30.718 118.572 30.522V27.561H115.968V25.566H120.756V31.614C120.294 32.076 119.678 32.468 118.908 32.79C118.152 33.098 117.305 33.252 116.367 33.252ZM123.8 33V19.266H128.441C129.393 19.266 130.247 19.392 131.003 19.644C131.773 19.896 132.375 20.323 132.809 20.925C133.257 21.513 133.481 22.318 133.481 23.34C133.481 24.39 133.229 25.237 132.725 25.881C132.235 26.525 131.577 26.987 130.751 27.267L134.027 33H131.297L128.336 27.624H126.236V33H123.8ZM126.236 25.692H128.189C129.127 25.692 129.841 25.496 130.331 25.104C130.835 24.698 131.087 24.11 131.087 23.34C131.087 22.556 130.835 22.01 130.331 21.702C129.841 21.38 129.127 21.219 128.189 21.219H126.236V25.692ZM138.918 25.692L138.435 27.372H141.942L141.459 25.692C141.235 24.964 141.018 24.215 140.808 23.445C140.612 22.675 140.416 21.912 140.22 21.156H140.136C139.954 21.926 139.758 22.696 139.548 23.466C139.352 24.222 139.142 24.964 138.918 25.692ZM134.319 33L138.792 19.266H141.648L146.121 33H143.559L142.488 29.283H137.868L136.797 33H134.319ZM147.814 33V19.266H151.489C153.589 19.266 155.227 19.833 156.403 20.967C157.579 22.101 158.167 23.802 158.167 26.07C158.167 28.352 157.586 30.081 156.424 31.257C155.262 32.419 153.659 33 151.615 33H147.814ZM150.25 31.026H151.321C152.707 31.026 153.778 30.627 154.534 29.829C155.29 29.017 155.668 27.764 155.668 26.07C155.668 24.39 155.29 23.165 154.534 22.395C153.778 21.625 152.707 21.24 151.321 21.24H150.25V31.026Z" fill="#FAFAFC"/>
<path d="M60.9 46V39.44H62.54C63.5533 39.44 64.3233 39.7233 64.85 40.29C65.3767 40.85 65.64 41.65 65.64 42.69C65.64 43.7367 65.3767 44.55 64.85 45.13C64.33 45.71 63.5733 46 62.58 46H60.9ZM61.73 45.32H62.48C63.2467 45.32 63.82 45.09 64.2 44.63C64.5867 44.1633 64.78 43.5167 64.78 42.69C64.78 41.8633 64.5867 41.23 64.2 40.79C63.82 40.3433 63.2467 40.12 62.48 40.12H61.73V45.32ZM66.9723 46V41.14H67.7923V46H66.9723ZM67.3923 40.14C67.2323 40.14 67.099 40.0933 66.9923 40C66.8923 39.9 66.8423 39.7667 66.8423 39.6C66.8423 39.44 66.8923 39.31 66.9923 39.21C67.099 39.11 67.2323 39.06 67.3923 39.06C67.5523 39.06 67.6823 39.11 67.7823 39.21C67.889 39.31 67.9423 39.44 67.9423 39.6C67.9423 39.7667 67.889 39.9 67.7823 40C67.6823 40.0933 67.5523 40.14 67.3923 40.14ZM71.0733 48.24C70.4799 48.24 69.9966 48.1267 69.6233 47.9C69.2499 47.6733 69.0633 47.35 69.0633 46.93C69.0633 46.7233 69.1266 46.5233 69.2533 46.33C69.3799 46.1433 69.5533 45.9767 69.7733 45.83V45.79C69.6533 45.7167 69.5499 45.6133 69.4633 45.48C69.3833 45.3467 69.3433 45.1867 69.3433 45C69.3433 44.7933 69.3999 44.6133 69.5133 44.46C69.6266 44.3067 69.7466 44.1867 69.8733 44.1V44.06C69.7133 43.9267 69.5666 43.7467 69.4333 43.52C69.3066 43.2933 69.2433 43.0367 69.2433 42.75C69.2433 42.3967 69.3266 42.09 69.4933 41.83C69.6599 41.57 69.8833 41.37 70.1633 41.23C70.4433 41.09 70.7466 41.02 71.0733 41.02C71.2066 41.02 71.3333 41.0333 71.4533 41.06C71.5733 41.08 71.6766 41.1067 71.7633 41.14H73.4533V41.77H72.4533C72.5666 41.8767 72.6599 42.02 72.7333 42.2C72.8133 42.3733 72.8533 42.5633 72.8533 42.77C72.8533 43.1167 72.7733 43.4167 72.6133 43.67C72.4533 43.9233 72.2399 44.12 71.9733 44.26C71.7066 44.3933 71.4066 44.46 71.0733 44.46C70.8133 44.46 70.5699 44.4033 70.3433 44.29C70.2566 44.3633 70.1833 44.4467 70.1233 44.54C70.0633 44.6267 70.0333 44.7367 70.0333 44.87C70.0333 45.0233 70.0933 45.15 70.2133 45.25C70.3399 45.35 70.5666 45.4 70.8933 45.4H71.8333C72.3999 45.4 72.8233 45.4933 73.1033 45.68C73.3899 45.86 73.5333 46.1533 73.5333 46.56C73.5333 46.86 73.4333 47.1367 73.2333 47.39C73.0333 47.6433 72.7499 47.8467 72.3833 48C72.0166 48.16 71.5799 48.24 71.0733 48.24ZM71.0733 43.91C71.3533 43.91 71.5933 43.8067 71.7933 43.6C71.9999 43.3867 72.1033 43.1033 72.1033 42.75C72.1033 42.3967 72.0033 42.12 71.8033 41.92C71.6033 41.72 71.3599 41.62 71.0733 41.62C70.7866 41.62 70.5433 41.72 70.3433 41.92C70.1433 42.12 70.0433 42.3967 70.0433 42.75C70.0433 43.1033 70.1433 43.3867 70.3433 43.6C70.5499 43.8067 70.7933 43.91 71.0733 43.91ZM71.1933 47.67C71.6599 47.67 72.0333 47.5667 72.3133 47.36C72.5933 47.16 72.7333 46.9333 72.7333 46.68C72.7333 46.4533 72.6466 46.2967 72.4733 46.21C72.3066 46.1233 72.0666 46.08 71.7533 46.08H70.9133C70.8199 46.08 70.7166 46.0733 70.6033 46.06C70.4966 46.0467 70.3899 46.0267 70.2833 46C70.1099 46.1267 69.9833 46.26 69.9033 46.4C69.8233 46.54 69.7833 46.68 69.7833 46.82C69.7833 47.08 69.9066 47.2867 70.1533 47.44C70.4066 47.5933 70.7533 47.67 71.1933 47.67ZM74.4723 46V41.14H75.2923V46H74.4723ZM74.8923 40.14C74.7323 40.14 74.599 40.0933 74.4923 40C74.3923 39.9 74.3423 39.7667 74.3423 39.6C74.3423 39.44 74.3923 39.31 74.4923 39.21C74.599 39.11 74.7323 39.06 74.8923 39.06C75.0523 39.06 75.1823 39.11 75.2823 39.21C75.389 39.31 75.4423 39.44 75.4423 39.6C75.4423 39.7667 75.389 39.9 75.2823 40C75.1823 40.0933 75.0523 40.14 74.8923 40.14ZM78.4633 46.12C77.9433 46.12 77.5799 45.97 77.3733 45.67C77.1733 45.37 77.0733 44.98 77.0733 44.5V41.81H76.3533V41.19L77.1133 41.14L77.2133 39.78H77.9033V41.14H79.2133V41.81H77.9033V44.51C77.9033 44.81 77.9566 45.0433 78.0633 45.21C78.1766 45.37 78.3733 45.45 78.6533 45.45C78.7399 45.45 78.8333 45.4367 78.9333 45.41C79.0333 45.3767 79.1233 45.3467 79.2033 45.32L79.3633 45.94C79.2299 45.9867 79.0833 46.0267 78.9233 46.06C78.7699 46.1 78.6166 46.12 78.4633 46.12ZM81.2173 46.12C80.8107 46.12 80.4707 46 80.1973 45.76C79.9307 45.5133 79.7973 45.1733 79.7973 44.74C79.7973 44.2067 80.034 43.8 80.5073 43.52C80.9873 43.2333 81.744 43.0333 82.7773 42.92C82.7773 42.7133 82.7473 42.5167 82.6873 42.33C82.634 42.1433 82.534 41.9933 82.3873 41.88C82.2473 41.76 82.044 41.7 81.7773 41.7C81.4973 41.7 81.234 41.7533 80.9873 41.86C80.7407 41.9667 80.5207 42.0867 80.3273 42.22L80.0073 41.65C80.234 41.5033 80.5107 41.3633 80.8373 41.23C81.1707 41.09 81.5307 41.02 81.9173 41.02C82.5107 41.02 82.9407 41.2033 83.2073 41.57C83.474 41.93 83.6073 42.4133 83.6073 43.02V46H82.9273L82.8573 45.42H82.8273C82.6007 45.6067 82.3507 45.77 82.0773 45.91C81.8107 46.05 81.524 46.12 81.2173 46.12ZM81.4573 45.46C81.6907 45.46 81.9107 45.4033 82.1173 45.29C82.324 45.1767 82.544 45.0167 82.7773 44.81V43.46C81.9707 43.56 81.404 43.71 81.0773 43.91C80.7573 44.11 80.5973 44.3667 80.5973 44.68C80.5973 44.9533 80.6807 45.1533 80.8473 45.28C81.014 45.4 81.2173 45.46 81.4573 45.46ZM86.0064 46.12C85.6997 46.12 85.4764 46.0267 85.3364 45.84C85.2031 45.6467 85.1364 45.3733 85.1364 45.02V38.88H85.9564V45.08C85.9564 45.2067 85.9797 45.3 86.0264 45.36C86.0731 45.4133 86.1264 45.44 86.1864 45.44C86.2131 45.44 86.2364 45.44 86.2564 45.44C86.2831 45.4333 86.3197 45.4267 86.3664 45.42L86.4764 46.04C86.4231 46.0667 86.3597 46.0867 86.2864 46.1C86.2131 46.1133 86.1197 46.12 86.0064 46.12ZM89.7672 46V39.44H91.6372C92.1305 39.44 92.5605 39.5 92.9272 39.62C93.2939 39.74 93.5805 39.9433 93.7872 40.23C93.9939 40.51 94.0972 40.89 94.0972 41.37C94.0972 42.0567 93.8739 42.5667 93.4272 42.9C92.9805 43.2333 92.3972 43.4 91.6772 43.4H90.5972V46H89.7672ZM90.5972 42.72H91.5772C92.1505 42.72 92.5739 42.6133 92.8472 42.4C93.1272 42.18 93.2672 41.8367 93.2672 41.37C93.2672 40.8967 93.1205 40.57 92.8272 40.39C92.5405 40.2033 92.1105 40.11 91.5372 40.11H90.5972V42.72ZM96.2213 46.12C95.9146 46.12 95.6913 46.0267 95.5513 45.84C95.4179 45.6467 95.3513 45.3733 95.3513 45.02V38.88H96.1713V45.08C96.1713 45.2067 96.1946 45.3 96.2413 45.36C96.2879 45.4133 96.3413 45.44 96.4013 45.44C96.4279 45.44 96.4513 45.44 96.4713 45.44C96.4979 45.4333 96.5346 45.4267 96.5813 45.42L96.6913 46.04C96.6379 46.0667 96.5746 46.0867 96.5013 46.1C96.4279 46.1133 96.3346 46.12 96.2213 46.12ZM99.0201 46.12C98.6134 46.12 98.2734 46 98.0001 45.76C97.7334 45.5133 97.6001 45.1733 97.6001 44.74C97.6001 44.2067 97.8367 43.8 98.3101 43.52C98.7901 43.2333 99.5467 43.0333 100.58 42.92C100.58 42.7133 100.55 42.5167 100.49 42.33C100.437 42.1433 100.337 41.9933 100.19 41.88C100.05 41.76 99.8467 41.7 99.5801 41.7C99.3001 41.7 99.0367 41.7533 98.7901 41.86C98.5434 41.9667 98.3234 42.0867 98.1301 42.22L97.8101 41.65C98.0367 41.5033 98.3134 41.3633 98.6401 41.23C98.9734 41.09 99.3334 41.02 99.7201 41.02C100.313 41.02 100.743 41.2033 101.01 41.57C101.277 41.93 101.41 42.4133 101.41 43.02V46H100.73L100.66 45.42H100.63C100.403 45.6067 100.153 45.77 99.8801 45.91C99.6134 46.05 99.3267 46.12 99.0201 46.12ZM99.2601 45.46C99.4934 45.46 99.7134 45.4033 99.9201 45.29C100.127 45.1767 100.347 45.0167 100.58 44.81V43.46C99.7734 43.56 99.2067 43.71 98.8801 43.91C98.5601 44.11 98.4001 44.3667 98.4001 44.68C98.4001 44.9533 98.4834 45.1533 98.6501 45.28C98.8167 45.4 99.0201 45.46 99.2601 45.46ZM104.332 46.12C103.812 46.12 103.449 45.97 103.242 45.67C103.042 45.37 102.942 44.98 102.942 44.5V41.81H102.222V41.19L102.982 41.14L103.082 39.78H103.772V41.14H105.082V41.81H103.772V44.51C103.772 44.81 103.826 45.0433 103.932 45.21C104.046 45.37 104.242 45.45 104.522 45.45C104.609 45.45 104.702 45.4367 104.802 45.41C104.902 45.3767 104.992 45.3467 105.072 45.32L105.232 45.94C105.099 45.9867 104.952 46.0267 104.792 46.06C104.639 46.1 104.486 46.12 104.332 46.12ZM106.321 46V41.81H105.661V41.19L106.321 41.14V40.37C106.321 39.8767 106.435 39.4867 106.661 39.2C106.895 38.9067 107.255 38.76 107.741 38.76C107.895 38.76 108.041 38.7767 108.181 38.81C108.321 38.8367 108.445 38.8733 108.551 38.92L108.371 39.55C108.191 39.47 108.008 39.43 107.821 39.43C107.368 39.43 107.141 39.7433 107.141 40.37V41.14H108.171V41.81H107.141V46H106.321ZM110.894 46.12C110.5 46.12 110.13 46.02 109.784 45.82C109.444 45.62 109.167 45.33 108.954 44.95C108.747 44.57 108.644 44.1133 108.644 43.58C108.644 43.0333 108.747 42.57 108.954 42.19C109.167 41.81 109.444 41.52 109.784 41.32C110.13 41.12 110.5 41.02 110.894 41.02C111.294 41.02 111.664 41.12 112.004 41.32C112.344 41.52 112.617 41.81 112.824 42.19C113.037 42.57 113.144 43.0333 113.144 43.58C113.144 44.1133 113.037 44.57 112.824 44.95C112.617 45.33 112.344 45.62 112.004 45.82C111.664 46.02 111.294 46.12 110.894 46.12ZM110.894 45.44C111.314 45.44 111.65 45.27 111.904 44.93C112.164 44.5833 112.294 44.1333 112.294 43.58C112.294 43.02 112.164 42.5667 111.904 42.22C111.65 41.8733 111.314 41.7 110.894 41.7C110.48 41.7 110.144 41.8733 109.884 42.22C109.624 42.5667 109.494 43.02 109.494 43.58C109.494 44.1333 109.624 44.5833 109.884 44.93C110.144 45.27 110.48 45.44 110.894 45.44ZM114.424 46V41.14H115.104L115.174 42.02H115.204C115.37 41.7133 115.574 41.47 115.814 41.29C116.054 41.11 116.31 41.02 116.584 41.02C116.777 41.02 116.95 41.0533 117.104 41.12L116.944 41.84C116.864 41.8133 116.79 41.7933 116.724 41.78C116.657 41.7667 116.574 41.76 116.474 41.76C116.267 41.76 116.05 41.8433 115.824 42.01C115.604 42.1767 115.41 42.4667 115.244 42.88V46H114.424ZM117.89 46V41.14H118.57L118.64 41.84H118.67C118.884 41.6067 119.117 41.4133 119.37 41.26C119.624 41.1 119.894 41.02 120.18 41.02C120.554 41.02 120.844 41.1033 121.05 41.27C121.264 41.43 121.42 41.6567 121.52 41.95C121.774 41.6767 122.03 41.4533 122.29 41.28C122.55 41.1067 122.827 41.02 123.12 41.02C123.62 41.02 123.99 41.1833 124.23 41.51C124.477 41.83 124.6 42.3 124.6 42.92V46H123.78V43.03C123.78 42.5767 123.707 42.2467 123.56 42.04C123.414 41.8333 123.187 41.73 122.88 41.73C122.52 41.73 122.114 41.98 121.66 42.48V46H120.84V43.03C120.84 42.5767 120.767 42.2467 120.62 42.04C120.474 41.8333 120.244 41.73 119.93 41.73C119.57 41.73 119.164 41.98 118.71 42.48V46H117.89Z" fill="#FAFAFC"/>
</svg>
