<svg width="178" height="60" viewBox="0 0 178 60" fill="none" xmlns="http://www.w3.org/2000/svg">
<path fill-rule="evenodd" clip-rule="evenodd" d="M49.5 30.75V37.5L36 45L22.5 37.5V30.75L25.875 32.55V35.5142L36 41.1392L46.125 35.514V32.55L49.5 30.75ZM36 24L41.625 27V33L36 36L30.375 33V27L36 24ZM36 15L49.5 22.5V27L46.125 28.8V24.4858L36 18.8606L25.875 24.4856V28.8L22.5 27V22.5L36 15Z" fill="#FAFAFC"/>
<path d="M64.557 30.192L64.074 31.872H67.581L67.098 30.192C66.874 29.464 66.657 28.715 66.447 27.945C66.251 27.175 66.055 26.412 65.859 25.656H65.775C65.593 26.426 65.397 27.196 65.187 27.966C64.991 28.722 64.781 29.464 64.557 30.192ZM59.958 37.5L64.431 23.766H67.287L71.76 37.5H69.198L68.127 33.783H63.507L62.436 37.5H59.958ZM73.453 37.5V23.766H78.094C79.046 23.766 79.9 23.892 80.656 24.144C81.426 24.396 82.028 24.823 82.462 25.425C82.91 26.013 83.134 26.818 83.134 27.84C83.134 28.89 82.882 29.737 82.378 30.381C81.888 31.025 81.23 31.487 80.404 31.767L83.68 37.5H80.95L77.989 32.124H75.889V37.5H73.453ZM75.889 30.192H77.842C78.78 30.192 79.494 29.996 79.984 29.604C80.488 29.198 80.74 28.61 80.74 27.84C80.74 27.056 80.488 26.51 79.984 26.202C79.494 25.88 78.78 25.719 77.842 25.719H75.889V30.192ZM88.3246 37.5V25.824H84.3556V23.766H94.7296V25.824H90.7606V37.5H88.3246ZM101.797 37.752C100.607 37.752 99.5567 37.465 98.6467 36.891C97.7367 36.303 97.0227 35.477 96.5047 34.413C96.0007 33.335 95.7487 32.054 95.7487 30.57C95.7487 29.086 96.0007 27.819 96.5047 26.769C97.0227 25.719 97.7367 24.914 98.6467 24.354C99.5567 23.794 100.607 23.514 101.797 23.514C103.001 23.514 104.058 23.794 104.968 24.354C105.878 24.914 106.585 25.719 107.089 26.769C107.607 27.819 107.866 29.086 107.866 30.57C107.866 32.054 107.607 33.335 107.089 34.413C106.585 35.477 105.878 36.303 104.968 36.891C104.058 37.465 103.001 37.752 101.797 37.752ZM101.797 35.631C102.875 35.631 103.736 35.176 104.38 34.266C105.024 33.342 105.346 32.11 105.346 30.57C105.346 29.03 105.024 27.826 104.38 26.958C103.736 26.076 102.875 25.635 101.797 25.635C100.719 25.635 99.8577 26.076 99.2137 26.958C98.5697 27.826 98.2477 29.03 98.2477 30.57C98.2477 32.11 98.5697 33.342 99.2137 34.266C99.8577 35.176 100.719 35.631 101.797 35.631ZM116.367 37.752C115.135 37.752 114.029 37.479 113.049 36.933C112.069 36.387 111.299 35.589 110.739 34.539C110.179 33.475 109.899 32.187 109.899 30.675C109.899 29.177 110.186 27.896 110.76 26.832C111.334 25.754 112.111 24.935 113.091 24.375C114.071 23.801 115.17 23.514 116.388 23.514C117.368 23.514 118.194 23.696 118.866 24.06C119.552 24.41 120.112 24.809 120.546 25.257L119.244 26.832C118.894 26.496 118.502 26.216 118.068 25.992C117.648 25.754 117.116 25.635 116.472 25.635C115.254 25.635 114.267 26.083 113.511 26.979C112.769 27.861 112.398 29.072 112.398 30.612C112.398 32.18 112.755 33.412 113.469 34.308C114.183 35.19 115.226 35.631 116.598 35.631C116.99 35.631 117.361 35.582 117.711 35.484C118.061 35.372 118.348 35.218 118.572 35.022V32.061H115.968V30.066H120.756V36.114C120.294 36.576 119.678 36.968 118.908 37.29C118.152 37.598 117.305 37.752 116.367 37.752ZM123.8 37.5V23.766H128.441C129.393 23.766 130.247 23.892 131.003 24.144C131.773 24.396 132.375 24.823 132.809 25.425C133.257 26.013 133.481 26.818 133.481 27.84C133.481 28.89 133.229 29.737 132.725 30.381C132.235 31.025 131.577 31.487 130.751 31.767L134.027 37.5H131.297L128.336 32.124H126.236V37.5H123.8ZM126.236 30.192H128.189C129.127 30.192 129.841 29.996 130.331 29.604C130.835 29.198 131.087 28.61 131.087 27.84C131.087 27.056 130.835 26.51 130.331 26.202C129.841 25.88 129.127 25.719 128.189 25.719H126.236V30.192ZM138.918 30.192L138.435 31.872H141.942L141.459 30.192C141.235 29.464 141.018 28.715 140.808 27.945C140.612 27.175 140.416 26.412 140.22 25.656H140.136C139.954 26.426 139.758 27.196 139.548 27.966C139.352 28.722 139.142 29.464 138.918 30.192ZM134.319 37.5L138.792 23.766H141.648L146.121 37.5H143.559L142.488 33.783H137.868L136.797 37.5H134.319ZM147.814 37.5V23.766H151.489C153.589 23.766 155.227 24.333 156.403 25.467C157.579 26.601 158.167 28.302 158.167 30.57C158.167 32.852 157.586 34.581 156.424 35.757C155.262 36.919 153.659 37.5 151.615 37.5H147.814ZM150.25 35.526H151.321C152.707 35.526 153.778 35.127 154.534 34.329C155.29 33.517 155.668 32.264 155.668 30.57C155.668 28.89 155.29 27.665 154.534 26.895C153.778 26.125 152.707 25.74 151.321 25.74H150.25V35.526Z" fill="#FAFAFC"/>
</svg>
