<svg width="238" height="152" viewBox="0 0 238 152" fill="none" xmlns="http://www.w3.org/2000/svg">
<g clip-path="url(#clip0_950_19273)">
<path d="M199.635 23.1289H41.2117C39.1077 23.1289 37.4021 24.8345 37.4021 26.9385V122.734C37.4021 124.838 39.1077 126.544 41.2117 126.544H199.635C201.739 126.544 203.444 124.838 203.444 122.734V26.9385C203.444 24.8345 201.739 23.1289 199.635 23.1289Z" fill="white" stroke="#1D1E26" stroke-width="0.269422" stroke-miterlimit="10" stroke-linecap="round"/>
<path d="M32.6738 17.9629L36.0295 21.5314" stroke="#1D1E26" stroke-width="0.269422" stroke-linecap="round" stroke-linejoin="round"/>
<path d="M31.7658 21.7305L34.7699 23.2177" stroke="#1D1E26" stroke-width="0.269422" stroke-linecap="round" stroke-linejoin="round"/>
<g clip-path="url(#clip1_950_19273)">
<path d="M145.803 86.0231H107.191C106.283 86.0231 105.411 85.4698 105.411 84.7883V61.7465C105.411 61.065 106.283 60.5117 107.191 60.5117H145.803C146.711 60.5117 147.583 61.065 147.583 61.7465V84.7883C147.576 85.4698 146.704 86.0231 145.803 86.0231Z" fill="white" stroke="#1D1E26" stroke-width="0.269422" stroke-miterlimit="10"/>
<mask id="mask0_950_19273" style="mask-type:alpha" maskUnits="userSpaceOnUse" x="105" y="60" width="43" height="27">
<path d="M145.803 86.0231H107.191C106.283 86.0231 105.411 85.4698 105.411 84.7883V61.7465C105.411 61.065 106.283 60.5117 107.191 60.5117H145.803C146.711 60.5117 147.583 61.065 147.583 61.7465V84.7883C147.576 85.4698 146.704 86.0231 145.803 86.0231Z" fill="white" stroke="#1D1E26" stroke-width="0.269422" stroke-miterlimit="10"/>
</mask>
<g mask="url(#mask0_950_19273)">
<path d="M105.04 76.1836L122.854 89.4549" stroke="#F8CBC2" stroke-width="0.269422" stroke-linecap="round" stroke-linejoin="round"/>
<path d="M106.044 57.582L128.314 92.0657" stroke="#F8CBC2" stroke-width="0.269422" stroke-linecap="round" stroke-linejoin="round"/>
<path d="M101.447 81.188L130.326 51.8164" stroke="#F8CBC2" stroke-width="0.269422" stroke-linecap="round" stroke-linejoin="round"/>
<path d="M149.722 65.959L122.854 92.066" stroke="#F8CBC2" stroke-width="0.269422" stroke-linecap="round" stroke-linejoin="round"/>
<path d="M160.795 73.8691L125.973 93.9929" stroke="#F8CBC2" stroke-width="0.269422" stroke-linecap="round" stroke-linejoin="round"/>
<path d="M147.71 61.5L101.447 85.6494" stroke="#F8CBC2" stroke-width="0.269422" stroke-linecap="round" stroke-linejoin="round"/>
<path d="M112.798 53.123L158.055 84.6697" stroke="#F8CBC2" stroke-width="0.269422" stroke-linecap="round" stroke-linejoin="round"/>
<path d="M139.665 92.0659L106.907 50.8379" stroke="#F8CBC2" stroke-width="0.269422" stroke-linecap="round" stroke-linejoin="round"/>
<path d="M124.579 50.1855L149.722 71.9416" stroke="#F8CBC2" stroke-width="0.269422" stroke-linecap="round" stroke-linejoin="round"/>
<path d="M104.177 69.875L159.061 88.3686" stroke="#F8CBC2" stroke-width="0.269422" stroke-linecap="round" stroke-linejoin="round"/>
<path d="M136.216 52.4688L115.815 99.2455" stroke="#F8CBC2" stroke-width="0.269422" stroke-linecap="round" stroke-linejoin="round"/>
<path d="M145.803 86.0231H107.191C106.283 86.0231 105.411 85.4698 105.411 84.7883V61.7465C105.411 61.065 106.283 60.5117 107.191 60.5117H145.803C146.711 60.5117 147.583 61.065 147.583 61.7465V84.7883C147.576 85.4698 146.704 86.0231 145.803 86.0231Z" stroke="#1D1E26" stroke-width="0.269422" stroke-miterlimit="10"/>
</g>
<path d="M147.808 59.2549L148.763 57.6152" stroke="#1D1E26" stroke-width="0.269422" stroke-linecap="round" stroke-linejoin="round"/>
<path d="M148.763 59.7676L151.493 57.7188" stroke="#1D1E26" stroke-width="0.269422" stroke-linecap="round" stroke-linejoin="round"/>
<path d="M149.446 60.5855L151.493 59.9707" stroke="#1D1E26" stroke-width="0.269422" stroke-linecap="round" stroke-linejoin="round"/>
<path d="M148.458 65.1094V74.2279" stroke="#1D1E26" stroke-width="0.269422" stroke-linecap="round" stroke-linejoin="round"/>
<path d="M153.728 85.0236C155.949 83.7337 154.745 82.6038 154.203 82.5169C155.197 82.0389 157.751 80.6715 157.427 79.07C157.399 78.9117 157.334 78.7584 157.236 78.6174C158.004 78.3863 158.817 78.362 159.606 78.6874C162.482 79.8713 159.097 82.4119 158.262 83.0044C159.56 82.9695 160.83 84.3527 158.814 85.3713C156.798 86.3899 149.134 86.2033 149.133 86.2033C151.134 85.9934 152.39 85.8016 153.728 85.0236Z" fill="#F8CBC2"/>
<path d="M143.751 86.0138C143.751 86.0138 150.75 86.2258 153.07 84.9348C155.575 83.542 154.276 82.4969 153.396 82.428C154.276 82.1101 157.245 80.5827 156.919 78.9812C156.593 77.3796 154.091 78.3897 154.091 78.3897C154.091 78.3897 161.908 72.3672 156.549 70.4519C154.601 69.7556 152.606 71.9485 152.746 75.0096C152.332 74.2443 150.846 73.5829 150.103 74.2443C149.361 74.9057 150.15 76.5762 150.15 76.5762C150.15 76.5762 148.48 75.1135 146.95 76.1522C145.419 77.1909 147.088 80.1216 147.413 80.6442C146.625 79.9128 144.907 79.1285 144.214 80.1216C143.193 81.5949 144.91 84.4122 143.751 86.0138Z" fill="#88CC00"/>
<path d="M143.751 86.015C143.751 86.015 155.205 80.5839 156.549 70.4531" stroke="white" stroke-width="0.269422" stroke-linecap="round" stroke-linejoin="round"/>
<path d="M152.714 78.8886C152.714 78.8886 152.932 76.3352 150.15 74.2461" stroke="white" stroke-width="0.269422" stroke-linecap="round" stroke-linejoin="round"/>
<path d="M150.427 81.3135C150.427 81.3135 152.237 79.8159 156.913 79.3633" stroke="white" stroke-width="0.269422" stroke-linecap="round" stroke-linejoin="round"/>
<path d="M149.408 82.2187C149.408 82.2187 151.818 78.0055 146.95 76.1602" stroke="white" stroke-width="0.269422" stroke-linecap="round" stroke-linejoin="round"/>
<path d="M147.26 83.8913C147.26 83.8913 149.714 82.9438 154.5 83.5734" stroke="white" stroke-width="0.269422" stroke-linecap="round" stroke-linejoin="round"/>
<path d="M146.675 84.2936C146.675 84.2936 147.271 81.5251 144.653 79.7656" stroke="white" stroke-width="0.269422" stroke-linecap="round" stroke-linejoin="round"/>
<path d="M94.9158 72.4909C94.9158 72.4909 91.8798 58.0759 105.222 52.7964C109.434 51.1302 122.279 49.4163 125.962 57.3053" stroke="#1D1E26" stroke-width="0.269422" stroke-linecap="round" stroke-linejoin="round" stroke-dasharray="1.35 1.35"/>
<path d="M121.445 55.9736C121.445 55.9736 125.479 57.0335 126.18 58.7178C126.971 57.7119 127.475 55.2444 127.466 54.2852" stroke="#1D1E26" stroke-width="0.269422" stroke-linecap="round" stroke-linejoin="round" stroke-dasharray="1.35 1.35"/>
<path d="M81.9546 76.2715L84.0633 77.3865" stroke="#1D1E26" stroke-width="0.269422" stroke-linecap="round" stroke-linejoin="round"/>
<path d="M81.9077 77.8262L83.6079 78.1548" stroke="#1D1E26" stroke-width="0.269422" stroke-linecap="round" stroke-linejoin="round"/>
<path d="M93.9402 97.6009C93.5536 97.5996 93.1778 97.5033 92.8677 97.3261C92.5575 97.1489 92.3293 96.9002 92.2165 96.6162L85.5924 79.6977C85.4554 79.3464 85.5055 78.9678 85.7317 78.6449C85.9578 78.322 86.3415 78.0812 86.7985 77.9753L116.586 71.1027C116.813 71.0498 117.051 71.0318 117.286 71.0497C117.522 71.0677 117.75 71.1212 117.959 71.2074C118.167 71.2935 118.351 71.4104 118.501 71.5514C118.65 71.6925 118.762 71.8548 118.829 72.0291L125.453 88.9476C125.59 89.2989 125.539 89.6774 125.313 90.0002C125.087 90.3231 124.704 90.5639 124.247 90.67L94.4659 97.5447C94.2953 97.5834 94.1181 97.6023 93.9402 97.6009Z" fill="#008ACE"/>
<path d="M117.105 71.1466C117.463 71.1468 117.811 71.2353 118.097 71.3991C118.384 71.5629 118.595 71.7932 118.698 72.0561L125.322 88.9746C125.386 89.1352 125.407 89.3038 125.386 89.4708C125.364 89.6378 125.3 89.7998 125.196 89.9476C125.093 90.0954 124.952 90.226 124.782 90.3319C124.613 90.4378 124.418 90.5168 124.208 90.5645L94.419 97.4424C94.2637 97.4785 94.1024 97.4967 93.9401 97.4964C93.5827 97.4971 93.2345 97.4088 92.9477 97.2449C92.6609 97.081 92.4509 96.8502 92.349 96.587L85.7249 79.6685C85.6612 79.5079 85.6396 79.3393 85.6612 79.1723C85.6828 79.0053 85.7472 78.8432 85.8507 78.6954C85.9543 78.5476 86.0948 78.417 86.2644 78.3112C86.4339 78.2053 86.629 78.1262 86.8385 78.0786L116.624 71.2018C116.779 71.1655 116.94 71.1469 117.102 71.1466H117.105ZM117.102 70.9347C116.913 70.9352 116.725 70.9566 116.544 70.9982L86.7612 77.8751C86.5169 77.9307 86.2893 78.023 86.0916 78.1466C85.8939 78.2701 85.73 78.4225 85.6092 78.5949C85.4885 78.7673 85.4134 78.9564 85.3883 79.1512C85.3631 79.346 85.3884 79.5427 85.4626 79.7299L92.084 96.6464C92.2056 96.952 92.4514 97.2198 92.7854 97.4105C93.1193 97.6012 93.524 97.7049 93.9401 97.7063C94.1271 97.7057 94.3129 97.6846 94.4922 97.6438L124.277 90.7669C124.769 90.653 125.183 90.3936 125.426 90.0459C125.67 89.6981 125.724 89.2903 125.576 88.9121L118.952 71.9935C118.83 71.6879 118.584 71.4203 118.25 71.2296C117.916 71.0389 117.512 70.9352 117.096 70.9336L117.102 70.9347Z" fill="#1D1E26"/>
<path d="M125.149 88.5427L122.238 81.0999L114.461 79.6309L96.7637 96.9002L123.642 90.6954C124.214 90.5633 124.694 90.2624 124.976 89.8587C125.259 89.455 125.321 88.9817 125.149 88.5427Z" fill="#F8CBC2"/>
<path d="M125.31 88.9526L124.992 88.1407L100.646 86.3516C100.646 86.3516 91.1125 93.4298 91.1759 93.5909L92.3172 96.5057C92.4528 96.8513 92.7616 97.1415 93.1756 97.3124C93.5896 97.4834 94.0751 97.521 94.5253 97.4172L124.177 90.5722C124.606 90.4727 124.967 90.2462 125.179 89.9425C125.392 89.6388 125.439 89.2828 125.31 88.9526Z" fill="white"/>
<path d="M94.3679 83.3146C95.717 83.3146 96.8106 82.4747 96.8106 81.4386C96.8106 80.4024 95.717 79.5625 94.3679 79.5625C93.0189 79.5625 91.9253 80.4024 91.9253 81.4386C91.9253 82.4747 93.0189 83.3146 94.3679 83.3146Z" fill="white"/>
<path d="M123.318 89.1602L127.13 92.6547" stroke="white" stroke-width="0.269422" stroke-linecap="round" stroke-linejoin="round"/>
<path d="M126 88.4727L129.196 91.4871" stroke="white" stroke-width="0.269422" stroke-linecap="round" stroke-linejoin="round"/>
<path d="M128.768 87.6973L131.582 90.3619" stroke="white" stroke-width="0.269422" stroke-linecap="round" stroke-linejoin="round"/>
<path d="M96.8479 98.0359L112.994 94.3262" stroke="#1D1E26" stroke-width="0.269422" stroke-linecap="round" stroke-linejoin="round"/>
</g>
<path d="M194.004 94.2441C196.27 91.0111 198.337 87.4736 198.109 85.6455C197.602 81.5975 194.021 74.2301 190.47 71.0469L191.053 78.2458C191.053 78.2458 194.946 84.2405 195.063 85.9971C195.121 86.8741 194.104 89.0645 192.645 91.3856" fill="white"/>
<path d="M194.004 94.2441C196.27 91.0111 198.337 87.4736 198.109 85.6455C197.602 81.5975 194.021 74.2301 190.47 71.0469L191.053 78.2458C191.053 78.2458 194.946 84.2405 195.063 85.9971C195.121 86.8741 194.104 89.0645 192.645 91.3856" stroke="#1D1E26" stroke-width="0.269422" stroke-linecap="round" stroke-linejoin="round"/>
<path d="M184.146 100.523C187.961 100.523 191.053 99.282 191.053 97.7509C191.053 96.2197 187.961 94.9785 184.146 94.9785C180.332 94.9785 177.24 96.2197 177.24 97.7509C177.24 99.282 180.332 100.523 184.146 100.523Z" stroke="#1D1E26" stroke-width="0.269422" stroke-miterlimit="10" stroke-linecap="round"/>
<path d="M181.48 140.147L183.854 100.523L177.238 97.7988L177.959 140.143L181.48 140.147Z" fill="white" stroke="#1D1E26" stroke-width="0.269422" stroke-linecap="round" stroke-linejoin="round"/>
<path d="M186.909 140.17L184.437 100.523L191.053 97.7988L190.332 140.164L186.909 140.17Z" fill="white" stroke="#1D1E26" stroke-width="0.269422" stroke-linecap="round" stroke-linejoin="round"/>
<path d="M191.053 72.3105H177.238V97.7023H191.053V72.3105Z" stroke="#1D1E26" stroke-width="0.269422" stroke-miterlimit="10" stroke-linecap="round"/>
<path d="M186.909 140.162C186.909 140.097 186.774 144.007 186.774 145.955C186.774 147.943 189.888 148.977 191.297 147.183C192.075 146.192 190.529 141.779 190.339 140.178C190.332 140.113 186.909 140.162 186.909 140.162Z" stroke="#1D1E26" stroke-width="0.269422" stroke-linecap="round" stroke-linejoin="round"/>
<path d="M181.479 140.156C181.479 140.156 182.589 144.691 181.713 144.983C179.874 145.596 179.088 144.691 177.724 144.691C176.361 144.691 177.683 145.535 171.429 145.6C170.499 145.534 169.902 144.144 171.429 143.396C172.957 142.649 176.694 142.588 177.957 140.152L181.479 140.156Z" stroke="#1D1E26" stroke-width="0.269422" stroke-linecap="round" stroke-linejoin="round"/>
<path d="M186.137 69.2372C186.17 69.3315 186.205 69.4285 186.242 69.5268C186.242 69.5268 185.495 70.5668 183.745 70.3742C181.878 70.1694 182.146 69.3504 182.146 69.3504C182.166 69.31 182.186 69.2709 182.204 69.2305C179.336 69.6198 177.238 70.847 177.238 72.3113C177.238 74.0841 180.337 75.5215 184.146 75.5215C187.956 75.5215 191.053 74.0841 191.053 72.3113C191.053 70.8605 188.981 69.6346 186.137 69.2372Z" stroke="#1D1E26" stroke-width="0.269422" stroke-miterlimit="10" stroke-linecap="round"/>
<path d="M184.562 66.5921C183.916 66.8546 183.214 66.9514 182.52 66.8736C178.841 66.095 179.214 61.2319 179.38 59.3015C179.38 59.3015 179.615 54.2229 184.721 54.7469C189.706 55.2575 188.528 59.8282 188.535 59.6814C187.798 59.7703 187.201 60.5206 187.201 60.5206C187.201 60.5206 188.562 59.0711 189.572 60.2297C190.142 60.8817 189.963 62.2503 189.325 62.8296C189.112 63.0252 188.85 63.1582 188.567 63.2138C188.284 63.2694 187.991 63.2456 187.72 63.1448C187.695 63.1344 187.668 63.1294 187.641 63.1301C187.614 63.1307 187.588 63.137 187.564 63.1486C187.539 63.1601 187.517 63.1767 187.5 63.1971C187.482 63.2176 187.469 63.2415 187.461 63.2674C186.939 65.3541 185.926 66.1637 185.926 66.1637C185.926 66.1637 185.617 67.5997 186.384 69.5881C186.384 69.5881 185.604 70.6657 183.78 70.4677C181.835 70.2522 182.116 69.3995 182.116 69.3995C182.516 68.6218 182.657 67.7371 182.52 66.8736" fill="white"/>
<path d="M184.562 66.5921C183.916 66.8546 183.214 66.9514 182.52 66.8736C178.841 66.095 179.214 61.2319 179.38 59.3015C179.38 59.3015 179.615 54.2229 184.721 54.7469C189.706 55.2575 188.528 59.8282 188.535 59.6814C187.798 59.7703 187.201 60.5206 187.201 60.5206C187.201 60.5206 188.562 59.0711 189.572 60.2297C190.142 60.8817 189.963 62.2503 189.325 62.8296C189.112 63.0252 188.85 63.1582 188.567 63.2138C188.284 63.2694 187.991 63.2456 187.72 63.1448C187.695 63.1344 187.668 63.1294 187.641 63.1301C187.614 63.1307 187.588 63.137 187.564 63.1486C187.539 63.1601 187.517 63.1767 187.5 63.1971C187.482 63.2176 187.469 63.2415 187.461 63.2674C186.939 65.3541 185.926 66.1637 185.926 66.1637C185.926 66.1637 185.617 67.5997 186.384 69.5881C186.384 69.5881 185.604 70.6657 183.78 70.4677C181.835 70.2522 182.116 69.3995 182.116 69.3995C182.516 68.6218 182.657 67.7371 182.52 66.8736" stroke="#1D1E26" stroke-width="0.269422" stroke-linecap="round" stroke-linejoin="round"/>
<path d="M188.611 60.5703C188.611 60.5703 187.779 60.674 187.635 61.6588" stroke="#1D1E26" stroke-width="0.269422" stroke-miterlimit="10" stroke-linecap="round"/>
<path d="M187.844 61.1814C188.079 61.1213 188.327 61.1491 188.543 61.2595" stroke="#1D1E26" stroke-width="0.269422" stroke-miterlimit="10" stroke-linecap="round"/>
<path d="M193.009 54.5201C194.563 54.6023 196.456 53.3845 196.848 51.1523C197.31 48.5308 193.995 46.6247 191.45 47.1837C189.615 47.5879 188.981 49.4631 188.769 50.4801C191.571 51.671 192.849 54.1847 193.009 54.5201Z" fill="#1D1E26"/>
<path d="M191.713 55.4029C191.713 55.4029 194.314 54.3252 195.727 57.5583C195.191 57.6283 192.548 57.7011 191.713 55.4029Z" fill="#008ACE"/>
<path d="M196.872 54.6631C196.872 54.6631 195.137 57.7749 191.713 55.404C192.002 54.8355 193.801 53.2001 196.872 54.6631Z" fill="#9BDEFF"/>
<path d="M193.177 48.0801C193.177 48.0801 190.738 48.8762 190.511 50.7743" stroke="white" stroke-width="0.134711" stroke-linecap="round" stroke-linejoin="round"/>
<path d="M193.635 50.8587C193.635 50.8587 192.178 49.8618 191.36 51.306" stroke="white" stroke-width="0.134711" stroke-linecap="round" stroke-linejoin="round"/>
<path d="M187.418 51.5649C183.551 50.5398 181.067 52 179.663 53.6947C179.559 53.82 179.963 54.34 179.908 54.2942C177.518 56.5735 179.346 59.6072 179.346 59.6072C180.035 57.0315 181.034 56.5452 181.034 56.5452C181.742 57.7185 182.749 59.0454 184.117 60.1056C183.869 59.6045 182.699 57.8613 182.722 56.3081C183.345 57.0665 188.803 61.3988 184.088 67.7815C184.492 67.4555 187.03 65.0064 187.552 60.2188C187.558 60.1649 187.561 60.1123 187.565 60.0585C187.889 59.8146 188.28 59.6759 188.685 59.6611C188.874 59.6671 189.059 59.7141 189.229 59.7988C189.398 59.8834 189.547 60.0037 189.665 60.1514C190.262 60.8344 190.129 62.2596 189.407 62.9224C189.178 63.1332 188.896 63.2765 188.59 63.3364C188.285 63.3963 187.97 63.3705 187.678 63.2619C187.655 63.2525 187.63 63.2525 187.607 63.2619C187.6 63.2652 187.594 63.2699 187.59 63.2758C187.585 63.2816 187.582 63.2883 187.58 63.2956C187.261 64.5686 186.772 65.3715 186.415 65.816C186.843 65.7958 189.804 65.5264 191.423 62.1586C193.616 57.6013 191.933 52.7612 187.418 51.5649Z" fill="#1D1E26"/>
<path d="M191.827 55.33L193.026 54.5568C193.026 54.5568 191.616 51.3992 188.194 50.2676L187.418 51.5635C189.568 52.1333 191.074 53.5303 191.827 55.33Z" fill="#9BDEFF"/>
<path d="M180.085 65.3379C179.922 66.0152 179.969 66.7261 180.219 67.3761C180.327 67.1551 180.126 66.584 180.607 65.9953C180.409 65.7963 180.234 65.5758 180.085 65.3379V65.3379Z" fill="#1D1E26"/>
<path d="M191.869 59.5754C192.17 57.8484 191.902 56.1901 191.132 54.8457" stroke="white" stroke-width="0.134711" stroke-linecap="round" stroke-linejoin="round"/>
<path d="M187.618 65.9679C189.054 65.5432 190.296 64.6285 191.128 63.3828" stroke="#1D1E26" stroke-width="0.134711" stroke-linecap="round" stroke-linejoin="round"/>
<path d="M179.191 54.5059C178.028 55.9621 178.204 57.6042 178.5 58.6213" stroke="#1D1E26" stroke-width="0.134711" stroke-linecap="round" stroke-linejoin="round"/>
<path d="M183.493 61.798C183.674 61.798 183.822 61.6509 183.822 61.4693C183.822 61.2878 183.674 61.1406 183.493 61.1406C183.311 61.1406 183.164 61.2878 183.164 61.4693C183.164 61.6509 183.311 61.798 183.493 61.798Z" fill="#1D1E26"/>
<path d="M180.175 61.9712C180.346 61.9712 180.485 61.8325 180.485 61.6614C180.485 61.4903 180.346 61.3516 180.175 61.3516C180.004 61.3516 179.865 61.4903 179.865 61.6614C179.865 61.8325 180.004 61.9712 180.175 61.9712Z" fill="#1D1E26"/>
<path d="M181.735 61.1953C181.735 61.1953 181.263 63.8141 181.42 64.159C181.576 64.5038 182.193 64.1482 182.193 64.1482" stroke="#1D1E26" stroke-width="0.269422" stroke-miterlimit="10" stroke-linecap="round"/>
<path d="M180.625 60.0239C180.795 60.5277 180.294 60.2798 179.627 60.5331C178.96 60.7863 178.375 61.3171 178.28 61.0477C178.184 60.7783 178.595 59.8083 179.262 59.5537C179.928 59.2991 180.532 59.7504 180.625 60.0239Z" fill="#1D1E26"/>
<path d="M182.862 59.7067C182.927 59.0157 183.222 59.5895 183.94 59.6515C184.658 59.7135 185.474 59.5168 185.449 59.8091C185.423 60.1014 184.56 60.7521 183.848 60.6942C183.137 60.6362 182.837 59.995 182.862 59.7067Z" fill="#1D1E26"/>
<path d="M182.674 65.3764L184.01 65.041" stroke="#1D1E26" stroke-width="0.269422" stroke-linecap="round" stroke-linejoin="round"/>
<path d="M178.192 70.6505C171.397 71.3524 171.495 67.2827 172.302 65.2621C173.426 62.4466 175.146 60.8058 177.582 58.0671C178.153 57.4259 179.92 56.3523 179.903 55.9508C179.885 55.5494 179.458 55.0321 178.046 56.4358C178.552 55.7434 180.482 53.914 180.58 53.1044C180.663 52.4308 179.967 51.3882 178.676 52.5184C177.914 53.1852 173.248 57.8179 169.708 64.1184C168.16 66.8732 168.117 73.8108 177.252 74.3968" fill="white"/>
<path d="M178.192 70.6505C171.397 71.3524 171.495 67.2827 172.302 65.2621C173.426 62.4466 175.146 60.8058 177.582 58.0671C178.153 57.4259 179.92 56.3523 179.903 55.9508C179.885 55.5494 179.458 55.0321 178.046 56.4358C178.552 55.7434 180.482 53.914 180.58 53.1044C180.663 52.4308 179.967 51.3882 178.676 52.5184C177.914 53.1852 173.248 57.8179 169.708 64.1184C168.16 66.8732 168.117 73.8108 177.252 74.3968" stroke="#1D1E26" stroke-width="0.269422" stroke-linecap="round" stroke-linejoin="round"/>
<path d="M182.193 68.9107C182.193 68.9107 184.014 70.9879 186.156 68.9107C186.587 68.9107 189.73 69.4158 191.639 71.718C193.548 74.0203 196.158 78.5398 196.158 78.5398L192.424 81.2071L191.275 79.4383C191.275 79.4383 191.658 96.4497 195.855 108.351C182.198 111.271 177.741 105.807 171.607 107.977C172.88 103.561 176.623 80.5093 176.623 78.2583C176.623 76.4626 173.478 74.2883 170.784 73.1662C171.532 71.2937 172.7 68.5254 172.7 68.5254C172.7 68.5254 176.019 70.7131 182.193 68.9107Z" fill="#008ACE"/>
<path d="M181.224 69.3887C181.224 69.3887 183.342 73.0649 187.635 69.3887" stroke="white" stroke-width="0.269422" stroke-linecap="round" stroke-linejoin="round"/>
<path d="M184.146 71.0469L183.141 78.2458" stroke="white" stroke-width="0.269422" stroke-linecap="round" stroke-linejoin="round"/>
<path d="M183.183 72.8505C183.362 72.8505 183.508 72.7051 183.508 72.5258C183.508 72.3465 183.362 72.2012 183.183 72.2012C183.004 72.2012 182.858 72.3465 182.858 72.5258C182.858 72.7051 183.004 72.8505 183.183 72.8505Z" fill="white"/>
<path d="M182.904 74.7235C183.083 74.7235 183.229 74.5782 183.229 74.3989C183.229 74.2196 183.083 74.0742 182.904 74.0742C182.725 74.0742 182.579 74.2196 182.579 74.3989C182.579 74.5782 182.725 74.7235 182.904 74.7235Z" fill="white"/>
<path d="M176.705 80.6172C176.705 80.6172 182.193 83.593 191.053 81.2907" stroke="white" stroke-width="0.269422" stroke-linecap="round" stroke-linejoin="round"/>
<path d="M192.645 91.3906C191.755 92.8185 190.765 94.1812 189.682 95.4683C189.124 96.1217 187.362 97.2061 187.383 97.6076C187.405 98.009 187.836 98.5222 189.234 97.1037C188.736 97.8015 186.824 99.6511 186.734 100.462C186.659 101.136 187.364 102.172 188.644 101.028C189.025 100.687 191.627 97.6399 194.01 94.2438" fill="white"/>
<path d="M192.645 91.3906C191.755 92.8185 190.765 94.1812 189.682 95.4683C189.124 96.1217 187.362 97.2061 187.383 97.6076C187.405 98.009 187.836 98.5222 189.234 97.1037C188.736 97.8015 186.824 99.6511 186.734 100.462C186.659 101.136 187.364 102.172 188.644 101.028C189.025 100.687 191.627 97.6399 194.01 94.2438" stroke="#1D1E26" stroke-width="0.269422" stroke-linecap="round" stroke-linejoin="round"/>
<path d="M186.586 139.564C186.586 139.564 187.394 143.853 189.136 143.683C190.138 143.548 190.549 140.736 190.618 139.527C190.618 139.527 190.693 141.268 190.948 142.333C191.202 143.399 193.373 148.479 189.568 148.55C186.052 148.55 186.288 145.624 186.584 142.601C186.665 141.591 186.666 140.575 186.586 139.564V139.564Z" fill="#1D1E26"/>
<path d="M189.136 143.682C190.138 143.547 190.549 140.734 190.618 139.526L190.499 136.01C190.499 136.01 188.185 136.759 186.498 136.01L186.585 139.562C186.585 139.562 187.389 143.851 189.136 143.682Z" fill="#9BDEFF"/>
<path d="M182.185 141.705C181.979 139.816 181.889 137.917 181.915 136.018C179.452 136.556 177.711 136.018 177.711 136.018C177.711 136.018 177.777 139.719 177.711 140.151C177.619 140.753 176.959 141.286 175.275 141.875C175.274 141.868 179.344 142.738 182.185 141.705Z" fill="#9BDEFF"/>
<path d="M182.091 140.879C182.091 140.879 183.244 145.423 181.267 145.405C178.076 145.377 178.243 145.46 173.693 145.967C172.666 146.102 170.334 146.247 170.334 144.422C170.334 143.075 172.389 142.738 175.358 141.862C176.665 142.005 177.984 141.992 179.289 141.825C180.295 141.687 181.305 141.64 182.091 140.879Z" fill="#1D1E26"/>
<path d="M55.4668 91.9448C55.2984 93.696 61.1355 104.404 64.8966 106.508C69.008 108.811 81.8702 104.683 82.8132 104.218C84.4297 103.41 83.7023 102.316 83.0072 102.124C82.1774 101.895 79.6165 103.044 78.7368 103.258C80.6753 102.45 80.3412 101.82 79.956 101.641C79.5707 101.462 77.8168 102.766 76.9586 103.056C72.6088 104.524 67.7754 103.977 66.4121 103.402C64.0089 102.392 59.9999 92.6022 59.6065 91.5999C58.8238 89.6156 55.747 89.0593 55.4668 91.9448Z" fill="#CC7E62" stroke="#1D1E26" stroke-width="0.269422" stroke-linecap="round" stroke-linejoin="round"/>
<path d="M56.0179 89.7456C56.5028 89.5072 58.3659 88.6598 59.8437 91.0927C61.3214 93.5256 61.7673 94.7892 62.8073 96.7816C62.5823 97.0065 58.3618 99.6267 58.3618 99.6267C58.3618 99.6267 52.5369 91.4578 56.0179 89.7456Z" fill="#008ACE"/>
<mask id="mask1_950_19273" style="mask-type:alpha" maskUnits="userSpaceOnUse" x="54" y="89" width="9" height="11">
<path d="M56.018 89.7456C56.5029 89.5072 58.366 88.6598 59.8438 91.0927C61.3216 93.5256 61.7675 94.7892 62.8074 96.7816C62.5825 97.0065 58.362 99.6267 58.362 99.6267C58.362 99.6267 52.537 91.4578 56.018 89.7456Z" fill="#008ACE"/>
</mask>
<g mask="url(#mask1_950_19273)">
<path d="M37.2768 86.1401L37.8358 85.445L38.1497 86.2788L37.2768 86.1401Z" fill="#9BDEFF"/>
<path d="M41.8543 86.8702L42.412 86.1738L42.7258 87.009L41.8543 86.8702Z" fill="#9BDEFF"/>
<path d="M32.7006 85.4113L33.2583 84.7148L33.5736 85.5501L32.7006 85.4113Z" fill="#9BDEFF"/>
<path d="M51.0065 88.3291L51.5656 87.634L51.8795 88.4679L51.0065 88.3291Z" fill="#9BDEFF"/>
<path d="M55.584 89.0593L56.1417 88.3628L56.4556 89.198L55.584 89.0593Z" fill="#9BDEFF"/>
<path d="M46.4304 87.599L46.9881 86.9039L47.302 87.7378L46.4304 87.599Z" fill="#9BDEFF"/>
<path d="M60.1602 89.7881L60.7179 89.093L61.0317 89.9268L60.1602 89.7881Z" fill="#9BDEFF"/>
<path d="M64.7363 90.5182L65.294 89.8217L65.6092 90.657L64.7363 90.5182Z" fill="#9BDEFF"/>
<path d="M73.8899 91.9771L74.4476 91.2807L74.7615 92.1159L73.8899 91.9771Z" fill="#9BDEFF"/>
<path d="M78.4661 92.7059L79.0238 92.0108L79.339 92.8447L78.4661 92.7059Z" fill="#9BDEFF"/>
<path d="M69.3124 91.247L69.8715 90.5519L70.1854 91.3857L69.3124 91.247Z" fill="#9BDEFF"/>
<path d="M39.2436 88.8518L39.8013 88.1567L40.1151 88.9919L39.2436 88.8518Z" fill="#9BDEFF"/>
<path d="M43.8197 89.582L44.3774 88.8855L44.6926 89.7207L43.8197 89.582Z" fill="#9BDEFF"/>
<path d="M34.6674 88.123L35.2251 87.4266L35.539 88.2618L34.6674 88.123Z" fill="#9BDEFF"/>
<path d="M52.9733 91.0409L53.531 90.3458L53.8449 91.1796L52.9733 91.0409Z" fill="#9BDEFF"/>
<path d="M57.5495 91.771L58.1072 91.0746L58.4224 91.9098L57.5495 91.771Z" fill="#9BDEFF"/>
<path d="M48.3958 90.3107L48.9549 89.6156L49.2688 90.4508L48.3958 90.3107Z" fill="#9BDEFF"/>
<path d="M62.1256 92.4998L62.6846 91.8047L62.9985 92.6386L62.1256 92.4998Z" fill="#9BDEFF"/>
<path d="M66.7031 93.2299L67.2608 92.5335L67.5747 93.3687L66.7031 93.2299Z" fill="#9BDEFF"/>
<path d="M75.8554 94.6889L76.4144 93.9924L76.7283 94.8276L75.8554 94.6889Z" fill="#9BDEFF"/>
<path d="M80.4329 95.4177L80.9906 94.7225L81.3044 95.5564L80.4329 95.4177Z" fill="#9BDEFF"/>
<path d="M71.2792 93.9587L71.8369 93.2636L72.1522 94.0975L71.2792 93.9587Z" fill="#9BDEFF"/>
<path d="M36.5439 90.7405L37.1016 90.0454L37.4155 90.8792L36.5439 90.7405Z" fill="#9BDEFF"/>
<path d="M41.1201 91.4693L41.6791 90.7742L41.993 91.6094L41.1201 91.4693Z" fill="#9BDEFF"/>
<path d="M31.9678 90.0103L32.5255 89.3152L32.8394 90.1491L31.9678 90.0103Z" fill="#9BDEFF"/>
<path d="M50.2737 92.9295L50.8314 92.2331L51.1453 93.0683L50.2737 92.9295Z" fill="#9BDEFF"/>
<path d="M54.8498 93.6583L55.4075 92.9632L55.7228 93.7971L54.8498 93.6583Z" fill="#9BDEFF"/>
<path d="M45.6976 92.1994L46.2553 91.5043L46.5691 92.3381L45.6976 92.1994Z" fill="#9BDEFF"/>
<path d="M59.426 94.3885L59.985 93.692L60.2989 94.5272L59.426 94.3885Z" fill="#9BDEFF"/>
<path d="M64.0035 95.1172L64.5612 94.4221L64.8751 95.2573L64.0035 95.1172Z" fill="#9BDEFF"/>
<path d="M73.1571 96.5762L73.7148 95.8811L74.0287 96.7163L73.1571 96.5762Z" fill="#9BDEFF"/>
<path d="M77.7332 97.3063L78.2909 96.6112L78.6048 97.4451L77.7332 97.3063Z" fill="#9BDEFF"/>
<path d="M68.5796 95.8474L69.1373 95.1509L69.4525 95.9861L68.5796 95.8474Z" fill="#9BDEFF"/>
<path d="M38.5107 93.4522L39.0684 92.7571L39.3823 93.591L38.5107 93.4522Z" fill="#9BDEFF"/>
<path d="M43.0869 94.1823L43.6446 93.4859L43.9584 94.3211L43.0869 94.1823Z" fill="#9BDEFF"/>
<path d="M33.9332 92.7221L34.4909 92.027L34.8062 92.8622L33.9332 92.7221Z" fill="#9BDEFF"/>
<path d="M52.2391 95.6413L52.7982 94.9448L53.1121 95.78L52.2391 95.6413Z" fill="#9BDEFF"/>
<path d="M56.8166 96.3701L57.3743 95.6749L57.6882 96.5088L56.8166 96.3701Z" fill="#9BDEFF"/>
<path d="M47.663 94.9111L48.2207 94.216L48.5359 95.0499L47.663 94.9111Z" fill="#9BDEFF"/>
<path d="M61.3928 97.1002L61.9505 96.4037L62.2643 97.2389L61.3928 97.1002Z" fill="#9BDEFF"/>
<path d="M65.9689 97.829L66.528 97.1339L66.8418 97.9691L65.9689 97.829Z" fill="#9BDEFF"/>
<path d="M75.1225 99.2879L75.6802 98.5928L75.9941 99.428L75.1225 99.2879Z" fill="#9BDEFF"/>
<path d="M79.6987 100.018L80.2577 99.3229L80.5716 100.157L79.6987 100.018Z" fill="#9BDEFF"/>
<path d="M70.5464 98.5591L71.1041 97.864L71.418 98.6979L70.5464 98.5591Z" fill="#9BDEFF"/>
<path d="M35.8232 95.2627L36.3809 94.5663L36.6948 95.4015L35.8232 95.2627Z" fill="#9BDEFF"/>
<path d="M40.3994 95.9915L40.9584 95.2964L41.2723 96.1316L40.3994 95.9915Z" fill="#9BDEFF"/>
<path d="M31.2471 94.5326L31.8048 93.8375L32.1187 94.6713L31.2471 94.5326Z" fill="#9BDEFF"/>
<path d="M49.553 97.4504L50.1107 96.7553L50.4246 97.5905L49.553 97.4504Z" fill="#9BDEFF"/>
<path d="M54.1291 98.1806L54.6868 97.4855L55.0021 98.3193L54.1291 98.1806Z" fill="#9BDEFF"/>
<path d="M44.9769 96.7217L45.5346 96.0252L45.8484 96.8604L44.9769 96.7217Z" fill="#9BDEFF"/>
<path d="M58.7053 98.9107L59.2643 98.2142L59.5782 99.0495L58.7053 98.9107Z" fill="#9BDEFF"/>
<path d="M63.2828 99.6395L63.8405 98.9444L64.1543 99.7783L63.2828 99.6395Z" fill="#9BDEFF"/>
<path d="M72.4351 101.098L72.9941 100.403L73.308 101.237L72.4351 101.098Z" fill="#9BDEFF"/>
<path d="M77.0125 101.829L77.5702 101.132L77.8841 101.967L77.0125 101.829Z" fill="#9BDEFF"/>
<path d="M67.8589 100.37L68.4166 99.6732L68.7318 100.508L67.8589 100.37Z" fill="#9BDEFF"/>
<path d="M37.7887 97.9745L38.3477 97.278L38.6616 98.1132L37.7887 97.9745Z" fill="#9BDEFF"/>
<path d="M42.3662 98.7033L42.9239 98.0081L43.2377 98.8434L42.3662 98.7033Z" fill="#9BDEFF"/>
<path d="M33.2125 97.2443L33.7702 96.5492L34.0841 97.3831L33.2125 97.2443Z" fill="#9BDEFF"/>
<path d="M51.5184 100.162L52.0775 99.4671L52.3914 100.302L51.5184 100.162Z" fill="#9BDEFF"/>
<path d="M56.0959 100.892L56.6536 100.197L56.9675 101.031L56.0959 100.892Z" fill="#9BDEFF"/>
<path d="M46.9423 99.4334L47.5 98.7383L47.8139 99.5721L46.9423 99.4334Z" fill="#9BDEFF"/>
<path d="M60.6721 101.622L61.2298 100.926L61.5436 101.761L60.6721 101.622Z" fill="#9BDEFF"/>
<path d="M65.2482 102.351L65.8059 101.656L66.1211 102.49L65.2482 102.351Z" fill="#9BDEFF"/>
<path d="M74.4018 103.81L74.9595 103.115L75.2734 103.949L74.4018 103.81Z" fill="#9BDEFF"/>
<path d="M78.978 104.54L79.5357 103.845L79.8509 104.679L78.978 104.54Z" fill="#9BDEFF"/>
<path d="M69.8257 103.081L70.3834 102.385L70.6973 103.22L69.8257 103.081Z" fill="#9BDEFF"/>
<path d="M35.0904 99.8618L35.6481 99.1667L35.962 100.002L35.0904 99.8618Z" fill="#9BDEFF"/>
<path d="M39.6665 100.592L40.2242 99.8968L40.5381 100.731L39.6665 100.592Z" fill="#9BDEFF"/>
<path d="M30.5129 99.133L31.072 98.4379L31.3858 99.2717L30.5129 99.133Z" fill="#9BDEFF"/>
<path d="M48.8188 102.051L49.3779 101.356L49.6918 102.19L48.8188 102.051Z" fill="#9BDEFF"/>
<path d="M53.3963 102.781L53.954 102.085L54.2679 102.92L53.3963 102.781Z" fill="#9BDEFF"/>
<path d="M44.2427 101.322L44.8004 100.626L45.1156 101.461L44.2427 101.322Z" fill="#9BDEFF"/>
<path d="M57.9725 103.51L58.5302 102.815L58.8454 103.649L57.9725 103.51Z" fill="#9BDEFF"/>
<path d="M62.5486 104.24L63.1076 103.543L63.4215 104.379L62.5486 104.24Z" fill="#9BDEFF"/>
<path d="M71.7022 105.699L72.2599 105.002L72.5751 105.838L71.7022 105.699Z" fill="#9BDEFF"/>
<path d="M76.2784 106.428L76.8374 105.732L77.1513 106.568L76.2784 106.428Z" fill="#9BDEFF"/>
<path d="M67.1261 104.969L67.6838 104.274L67.9977 105.109L67.1261 104.969Z" fill="#9BDEFF"/>
<path d="M37.0558 102.574L37.6135 101.878L37.9288 102.714L37.0558 102.574Z" fill="#9BDEFF"/>
<path d="M41.632 103.304L42.191 102.609L42.5049 103.442L41.632 103.304Z" fill="#9BDEFF"/>
<path d="M32.4797 101.845L33.0374 101.15L33.3513 101.983L32.4797 101.845Z" fill="#9BDEFF"/>
<path d="M50.7856 104.763L51.3433 104.067L51.6585 104.901L50.7856 104.763Z" fill="#9BDEFF"/>
<path d="M55.3617 105.493L55.9208 104.796L56.2347 105.631L55.3617 105.493Z" fill="#9BDEFF"/>
<path d="M46.2095 104.034L46.7672 103.337L47.081 104.173L46.2095 104.034Z" fill="#9BDEFF"/>
<path d="M59.9392 106.221L60.4969 105.526L60.8108 106.36L59.9392 106.221Z" fill="#9BDEFF"/>
<path d="M64.5154 106.952L65.0731 106.257L65.387 107.09L64.5154 106.952Z" fill="#9BDEFF"/>
<path d="M73.669 108.411L74.2267 107.715L74.5406 108.549L73.669 108.411Z" fill="#9BDEFF"/>
<path d="M78.2451 109.141L78.8028 108.444L79.1167 109.279L78.2451 109.141Z" fill="#9BDEFF"/>
<path d="M69.0915 107.68L69.6492 106.985L69.9644 107.821L69.0915 107.68Z" fill="#9BDEFF"/>
<path d="M34.2565 105.086L34.8156 104.391L35.1295 105.225L34.2565 105.086Z" fill="#9BDEFF"/>
<path d="M38.834 105.816L39.3917 105.12L39.7056 105.955L38.834 105.816Z" fill="#9BDEFF"/>
<path d="M29.6804 104.356L30.2381 103.661L30.5533 104.496L29.6804 104.356Z" fill="#9BDEFF"/>
<path d="M47.9863 107.275L48.5454 106.578L48.8592 107.414L47.9863 107.275Z" fill="#9BDEFF"/>
<path d="M52.5638 108.004L53.1215 107.309L53.4354 108.144L52.5638 108.004Z" fill="#9BDEFF"/>
<path d="M43.4102 106.545L43.9679 105.85L44.2831 106.684L43.4102 106.545Z" fill="#9BDEFF"/>
<path d="M57.1399 108.734L57.6976 108.039L58.0115 108.873L57.1399 108.734Z" fill="#9BDEFF"/>
<path d="M61.7161 109.463L62.2751 108.768L62.589 109.603L61.7161 109.463Z" fill="#9BDEFF"/>
<path d="M70.8697 110.922L71.4274 110.226L71.7413 111.062L70.8697 110.922Z" fill="#9BDEFF"/>
<path d="M75.4458 111.652L76.0049 110.957L76.3188 111.79L75.4458 111.652Z" fill="#9BDEFF"/>
<path d="M66.2936 110.193L66.8513 109.498L67.1651 110.332L66.2936 110.193Z" fill="#9BDEFF"/>
<path d="M36.2233 107.798L36.781 107.102L37.0949 107.936L36.2233 107.798Z" fill="#9BDEFF"/>
<path d="M40.7995 108.528L41.3572 107.831L41.6724 108.666L40.7995 108.528Z" fill="#9BDEFF"/>
<path d="M31.6472 107.067L32.2049 106.372L32.5188 107.208L31.6472 107.067Z" fill="#9BDEFF"/>
<path d="M49.9531 109.987L50.5108 109.29L50.8247 110.125L49.9531 109.987Z" fill="#9BDEFF"/>
<path d="M54.5292 110.715L55.0869 110.02L55.4022 110.856L54.5292 110.715Z" fill="#9BDEFF"/>
<path d="M45.377 109.257L45.9347 108.561L46.2485 109.395L45.377 109.257Z" fill="#9BDEFF"/>
<path d="M59.1054 111.446L59.6644 110.75L59.9783 111.584L59.1054 111.446Z" fill="#9BDEFF"/>
<path d="M63.6829 112.176L64.2406 111.479L64.5544 112.314L63.6829 112.176Z" fill="#9BDEFF"/>
<path d="M72.8351 113.635L73.3942 112.938L73.7081 113.773L72.8351 113.635Z" fill="#9BDEFF"/>
<path d="M77.4126 114.363L77.9703 113.668L78.2842 114.502L77.4126 114.363Z" fill="#9BDEFF"/>
<path d="M68.259 112.905L68.8167 112.209L69.1319 113.043L68.259 112.905Z" fill="#9BDEFF"/>
<path d="M33.5237 109.686L34.0814 108.99L34.3966 109.825L33.5237 109.686Z" fill="#9BDEFF"/>
<path d="M38.0999 110.415L38.6589 109.72L38.9728 110.555L38.0999 110.415Z" fill="#9BDEFF"/>
<path d="M28.9476 108.956L29.5053 108.261L29.8192 109.095L28.9476 108.956Z" fill="#9BDEFF"/>
<path d="M47.2535 111.874L47.8112 111.179L48.1251 112.014L47.2535 111.874Z" fill="#9BDEFF"/>
<path d="M51.8296 112.604L52.3887 111.909L52.7025 112.743L51.8296 112.604Z" fill="#9BDEFF"/>
<path d="M42.6773 111.145L43.235 110.449L43.5489 111.284L42.6773 111.145Z" fill="#9BDEFF"/>
<path d="M56.4071 113.333L56.9648 112.638L57.2787 113.473L56.4071 113.333Z" fill="#9BDEFF"/>
<path d="M60.9832 114.063L61.5409 113.368L61.8548 114.202L60.9832 114.063Z" fill="#9BDEFF"/>
<path d="M70.1369 115.522L70.6946 114.827L71.0085 115.661L70.1369 115.522Z" fill="#9BDEFF"/>
<path d="M74.713 116.252L75.2707 115.556L75.5846 116.391L74.713 116.252Z" fill="#9BDEFF"/>
<path d="M65.5594 114.793L66.1171 114.097L66.4323 114.932L65.5594 114.793Z" fill="#9BDEFF"/>
<path d="M35.4905 112.398L36.0482 111.703L36.3621 112.537L35.4905 112.398Z" fill="#9BDEFF"/>
<path d="M40.0666 113.127L40.6243 112.432L40.9382 113.267L40.0666 113.127Z" fill="#9BDEFF"/>
<path d="M30.913 111.668L31.4721 110.973L31.7859 111.807L30.913 111.668Z" fill="#9BDEFF"/>
<path d="M49.2203 114.586L49.778 113.891L50.0918 114.726L49.2203 114.586Z" fill="#9BDEFF"/>
<path d="M53.7964 115.316L54.3541 114.621L54.668 115.455L53.7964 115.316Z" fill="#9BDEFF"/>
<path d="M44.6428 113.857L45.2018 113.162L45.5157 113.996L44.6428 113.857Z" fill="#9BDEFF"/>
<path d="M58.3725 116.046L58.9302 115.35L59.2455 116.185L58.3725 116.046Z" fill="#9BDEFF"/>
<path d="M62.95 116.775L63.5077 116.08L63.8216 116.914L62.95 116.775Z" fill="#9BDEFF"/>
<path d="M72.1023 118.234L72.66 117.539L72.9752 118.374L72.1023 118.234Z" fill="#9BDEFF"/>
<path d="M76.6785 118.964L77.2375 118.269L77.5514 119.103L76.6785 118.964Z" fill="#9BDEFF"/>
<path d="M67.5262 117.505L68.0839 116.808L68.3978 117.644L67.5262 117.505Z" fill="#9BDEFF"/>
<path d="M32.803 114.207L33.3607 113.512L33.6759 114.347L32.803 114.207Z" fill="#9BDEFF"/>
<path d="M37.3791 114.937L37.9382 114.242L38.2521 115.076L37.3791 114.937Z" fill="#9BDEFF"/>
<path d="M28.2269 113.478L28.7846 112.783L29.0984 113.617L28.2269 113.478Z" fill="#9BDEFF"/>
<path d="M46.5328 116.396L47.0905 115.701L47.4044 116.535L46.5328 116.396Z" fill="#9BDEFF"/>
<path d="M51.1089 117.126L51.668 116.43L51.9818 117.265L51.1089 117.126Z" fill="#9BDEFF"/>
<path d="M41.9566 115.667L42.5143 114.971L42.8282 115.806L41.9566 115.667Z" fill="#9BDEFF"/>
<path d="M55.6864 117.855L56.2441 117.16L56.558 117.994L55.6864 117.855Z" fill="#9BDEFF"/>
<path d="M60.2625 118.585L60.8202 117.89L61.1341 118.724L60.2625 118.585Z" fill="#9BDEFF"/>
<path d="M69.4148 120.044L69.9739 119.349L70.2878 120.183L69.4148 120.044Z" fill="#9BDEFF"/>
<path d="M73.9923 120.774L74.55 120.078L74.8639 120.913L73.9923 120.774Z" fill="#9BDEFF"/>
<path d="M64.8387 119.315L65.3964 118.619L65.7116 119.454L64.8387 119.315Z" fill="#9BDEFF"/>
<path d="M34.7698 116.92L35.3275 116.224L35.6414 117.059L34.7698 116.92Z" fill="#9BDEFF"/>
<path d="M39.3459 117.649L39.9036 116.954L40.2175 117.788L39.3459 117.649Z" fill="#9BDEFF"/>
<path d="M30.1923 116.19L30.75 115.495L31.0652 116.329L30.1923 116.19Z" fill="#9BDEFF"/>
<path d="M48.4982 119.108L49.0573 118.413L49.3711 119.248L48.4982 119.108Z" fill="#9BDEFF"/>
<path d="M53.0757 119.838L53.6334 119.143L53.9473 119.977L53.0757 119.838Z" fill="#9BDEFF"/>
<path d="M43.9221 118.379L44.4798 117.683L44.795 118.518L43.9221 118.379Z" fill="#9BDEFF"/>
<path d="M57.6518 120.567L58.2095 119.872L58.5234 120.707L57.6518 120.567Z" fill="#9BDEFF"/>
<path d="M62.228 121.297L62.787 120.602L63.1009 121.436L62.228 121.297Z" fill="#9BDEFF"/>
<path d="M71.3816 122.756L71.9393 122.061L72.2545 122.895L71.3816 122.756Z" fill="#9BDEFF"/>
<path d="M75.9577 123.486L76.5168 122.79L76.8307 123.625L75.9577 123.486Z" fill="#9BDEFF"/>
<path d="M66.8055 122.026L67.3632 121.331L67.677 122.166L66.8055 122.026Z" fill="#9BDEFF"/>
</g>
<path d="M75.3031 142.883C75.3031 142.883 73.0858 146.696 73.8038 147.262C75.3112 148.452 76.3108 147.983 77.5757 148.44C78.8407 148.896 77.3319 149.248 83.1353 151.403C84.023 151.654 85.0455 150.561 83.8735 149.35C82.7015 148.139 79.4442 146.454 78.9915 144.199C78.3557 143.967 75.3031 142.883 75.3031 142.883Z" stroke="#1D1E26" stroke-width="0.269422" stroke-linecap="round" stroke-linejoin="round"/>
<path d="M44.3397 116.628C44.3397 116.628 60.9227 115.786 72.8783 118.13C76.0413 118.752 76.3592 122.653 76.7068 126.482C77.0247 129.976 79.0817 144.138 79.0265 144.23L75.3004 142.883C75.3004 142.883 68.4705 127.763 70.4966 124.562C70.537 124.5 56.29 126.494 50.1431 125.566C42.9199 124.476 44.3424 116.634 44.3424 116.634" fill="#CC7E62"/>
<path d="M44.3397 116.628C44.3397 116.628 60.9227 115.786 72.8783 118.13C76.0413 118.752 76.3592 122.653 76.7068 126.482C77.0247 129.976 79.0817 144.138 79.0265 144.23L75.3004 142.883C75.3004 142.883 68.4705 127.763 70.4966 124.562C70.537 124.5 56.29 126.494 50.1431 125.566C42.9199 124.476 44.3424 116.634 44.3424 116.634" stroke="#1D1E26" stroke-width="0.269422" stroke-linecap="round" stroke-linejoin="round"/>
<path d="M82.8645 130.079C82.8645 130.079 83.7819 134.434 84.6952 134.389C86.6122 134.288 87.054 133.277 88.3095 132.784C89.565 132.291 88.6544 133.546 94.4402 131.341C95.2741 130.937 95.3199 129.447 93.6414 129.311C91.9629 129.175 88.4011 130.056 86.5731 128.66C85.9453 128.908 82.8645 130.079 82.8645 130.079Z" stroke="#1D1E26" stroke-width="0.269422" stroke-linecap="round" stroke-linejoin="round"/>
<path d="M44.3397 116.628C44.3397 116.628 58.3281 111.644 70.1463 108.68C73.273 107.897 75.2196 111.295 77.1635 114.607C78.9376 117.634 86.5838 128.543 86.573 128.65L82.8644 130.072C82.8644 130.072 70.2528 119.266 70.7216 115.501C70.731 115.428 58.8252 123.853 52.7268 125.065C42.7165 127.061 44.3397 116.621 44.3397 116.621" fill="#CC7E62"/>
<path d="M44.3397 116.628C44.3397 116.628 58.3281 111.644 70.1463 108.68C73.273 107.897 75.2196 111.295 77.1635 114.607C78.9376 117.634 86.5838 128.543 86.573 128.65L82.8644 130.072C82.8644 130.072 70.2528 119.266 70.7216 115.501C70.731 115.428 58.8252 123.853 52.7268 125.065C42.7165 127.061 44.3397 116.621 44.3397 116.621" stroke="#1D1E26" stroke-width="0.269422" stroke-linecap="round" stroke-linejoin="round"/>
<path d="M43.901 116.441L57.5796 117.262L59.088 92.1206L45.4095 91.2998L43.901 116.441Z" stroke="#1D1E26" stroke-width="0.269907" stroke-miterlimit="10" stroke-linecap="round"/>
<path d="M45.936 91.42C46.029 89.9462 48.2692 88.8443 51.2207 88.6719C51.3043 88.843 51.8539 89.8304 53.4354 90.0109C55.2836 90.2224 55.2028 89.3724 55.2028 89.3724C55.1691 89.2377 55.1462 89.1029 55.1274 88.979C57.8027 89.5717 59.6766 90.8798 59.5877 92.2794C59.4772 94.0307 56.333 95.2593 52.5625 95.0222C48.7919 94.7851 45.8269 93.1726 45.936 91.42Z" stroke="#1D1E26" stroke-width="0.269422" stroke-miterlimit="10" stroke-linecap="round"/>
<path d="M57.9683 117.383C58.0635 115.869 55.0847 114.45 51.3149 114.213C47.5451 113.976 44.4119 115.01 44.3167 116.524C44.2215 118.037 47.2004 119.456 50.9701 119.693C54.7399 119.93 57.8731 118.896 57.9683 117.383Z" stroke="#1D1E26" stroke-width="0.269422" stroke-miterlimit="10" stroke-linecap="round"/>
<path d="M53.4799 86.1292C54.0449 86.5449 54.7047 86.813 55.3995 86.9091C59.1714 87.0614 60.0147 82.2347 60.3313 80.3083C60.3313 80.3083 61.3605 75.3051 56.259 74.5507C51.2747 73.8125 51.2935 78.5557 51.3232 78.4102C52.0196 78.6796 52.4143 79.5579 52.4143 79.5579C52.4143 79.5579 51.4485 77.8067 50.1768 78.6877C49.4601 79.1808 49.2985 80.5521 49.7727 81.2809C49.9309 81.5233 50.153 81.7173 50.4145 81.8416C50.6759 81.9659 50.9666 82.0157 51.2545 81.9854C51.2813 81.9817 51.3086 81.9835 51.3347 81.9909C51.3608 81.9982 51.385 82.0109 51.4059 82.0281C51.4268 82.0454 51.4439 82.0668 51.4561 82.091C51.4683 82.1151 51.4753 82.1416 51.4767 82.1687C51.4687 84.324 52.254 85.3694 52.254 85.3694C52.254 85.3694 52.1988 86.8431 50.9595 88.5903C50.9595 88.5903 51.4512 89.8378 53.2778 90.091C55.2258 90.3604 55.1638 89.4633 55.1638 89.4633C54.9673 88.607 55.0489 87.7104 55.3968 86.9038" fill="#CC7E62"/>
<path d="M53.4799 86.1292C54.0449 86.5449 54.7047 86.813 55.3995 86.9091C59.1714 87.0614 60.0147 82.2347 60.3313 80.3083C60.3313 80.3083 61.3605 75.3051 56.259 74.5507C51.2747 73.8125 51.2935 78.5557 51.3232 78.4102C52.0196 78.6796 52.4143 79.5579 52.4143 79.5579C52.4143 79.5579 51.4485 77.8067 50.1768 78.6877C49.4601 79.1808 49.2985 80.5521 49.7727 81.2809C49.9309 81.5233 50.153 81.7173 50.4145 81.8416C50.6759 81.9659 50.9666 82.0157 51.2545 81.9854C51.2813 81.9817 51.3086 81.9835 51.3347 81.9909C51.3608 81.9982 51.385 82.0109 51.4059 82.0281C51.4268 82.0454 51.4439 82.0668 51.4561 82.091C51.4683 82.1151 51.4753 82.1416 51.4767 82.1687C51.4687 84.324 52.254 85.3694 52.254 85.3694C52.254 85.3694 52.1988 86.8431 50.9595 88.5903C50.9595 88.5903 51.4512 89.8378 53.2778 90.091C55.2258 90.3604 55.1638 89.4633 55.1638 89.4633C54.9673 88.607 55.0489 87.7104 55.3968 86.9038" stroke="#1D1E26" stroke-width="0.269422" stroke-linecap="round" stroke-linejoin="round"/>
<path d="M51.0241 79.2637C51.0241 79.2637 51.8068 79.5708 51.7044 80.565" stroke="#1D1E26" stroke-width="0.269422" stroke-miterlimit="10" stroke-linecap="round"/>
<path d="M51.6195 80.0492C51.4054 79.9333 51.1565 79.8989 50.919 79.9522" stroke="#1D1E26" stroke-width="0.269422" stroke-miterlimit="10" stroke-linecap="round"/>
<path d="M54.8768 69.6055C54.8768 69.6055 52.122 69.9139 50.0811 72.6284C48.3447 74.9387 50.8355 77.8821 56.6483 78.8251C64.0049 80.0281 63.427 73.7398 60.5172 71.6073C58.6137 70.213 54.699 69.5395 52.6811 71.8956C53.0071 71.2314 53.4018 70.3235 54.8768 69.6055Z" fill="#1D1E26"/>
<path d="M49.7955 73.0879C48.9334 74.8189 50.2738 76.7924 53.4664 78.0022C53.1862 78.5935 52.7686 79.7022 52.9559 80.9187C52.9976 81.1881 52.5086 81.4952 52.417 80.8499C52.3443 80.3636 52.3187 79.8208 52.3039 79.6187C52.3198 79.6471 52.3462 79.6681 52.3775 79.6772C52.4087 79.6862 52.4423 79.6826 52.4709 79.6672C52.485 79.6593 52.4974 79.6488 52.5074 79.6361C52.5174 79.6235 52.5248 79.609 52.5291 79.5934C52.5335 79.5779 52.5348 79.5617 52.5329 79.5457C52.531 79.5297 52.526 79.5142 52.5181 79.5001C52.4965 79.4611 51.9792 78.541 51.1804 78.3524C50.9944 78.3109 50.8016 78.3105 50.6155 78.3512C50.4294 78.392 50.2544 78.4728 50.1027 78.5881C49.3523 79.1054 49.1287 80.5253 49.6662 81.3497C49.8368 81.6114 50.0764 81.8208 50.3587 81.9547C50.6409 82.0885 50.9547 82.1417 51.2652 82.1081C51.2776 82.1068 51.29 82.1079 51.3019 82.1117C51.3137 82.1154 51.3246 82.1215 51.334 82.1297C51.3398 82.1344 51.3445 82.1404 51.3477 82.1471C51.351 82.1539 51.3527 82.1613 51.3528 82.1688C51.3362 82.9932 51.4652 83.814 51.734 84.5936C46.5342 80.2141 48.5481 75.2123 49.7955 73.0879Z" fill="#1D1E26"/>
<path d="M53.884 69.5234C52.8318 69.8886 51.8652 70.4643 51.0429 71.2154" stroke="#1D1E26" stroke-width="0.134711" stroke-linecap="round" stroke-linejoin="round"/>
<path d="M62.8801 75.5261C62.8648 74.7137 62.6668 73.9152 62.3009 73.1897C61.935 72.4643 61.4106 71.8304 60.7665 71.3352C60.4173 71.0831 60.0426 70.8687 59.6484 70.6953" stroke="#1D1E26" stroke-width="0.134711" stroke-linecap="round" stroke-linejoin="round"/>
<path d="M50.6658 84.1182C49.4063 82.8371 48.6802 81.5223 48.3165 80.252" stroke="#1D1E26" stroke-width="0.134711" stroke-linecap="round" stroke-linejoin="round"/>
<path d="M55.0035 77.886C55.4723 78.0018 55.9707 78.1042 56.4947 78.1891C59.2051 78.6323 60.8378 78.0544 61.6744 77.0508" stroke="white" stroke-width="0.134711" stroke-linecap="round" stroke-linejoin="round"/>
<path d="M55.6878 81.957C55.8701 81.957 56.0178 81.8092 56.0178 81.6269C56.0178 81.4446 55.8701 81.2969 55.6878 81.2969C55.5055 81.2969 55.3578 81.4446 55.3578 81.6269C55.3578 81.8092 55.5055 81.957 55.6878 81.957Z" fill="#1D1E26"/>
<path d="M58.9357 82.7103C59.1075 82.7103 59.2468 82.5709 59.2468 82.3991C59.2468 82.2272 59.1075 82.0879 58.9357 82.0879C58.7638 82.0879 58.6245 82.2272 58.6245 82.3991C58.6245 82.5709 58.7638 82.7103 58.9357 82.7103Z" fill="#1D1E26"/>
<path d="M57.4754 81.666C57.4754 81.666 57.4754 84.34 57.2666 84.6566C57.0578 84.9732 56.5028 84.5098 56.5028 84.5098" stroke="#1D1E26" stroke-width="0.269422" stroke-miterlimit="10" stroke-linecap="round"/>
<path d="M54.6142 84.9746C54.6142 84.9746 55.6986 85.0271 55.6986 85.7829" stroke="#1D1E26" stroke-width="0.269422" stroke-miterlimit="10" stroke-linecap="round"/>
<path d="M55.6063 80.5666C56.2657 80.4415 56.759 80.1233 56.7083 79.8558C56.6575 79.5882 56.0819 79.4727 55.4226 79.5978C54.7632 79.7228 54.2699 80.0411 54.3206 80.3086C54.3714 80.5762 54.947 80.6917 55.6063 80.5666Z" fill="#1D1E26"/>
<path d="M60.6448 81.9959C60.8266 81.7932 60.6148 81.3067 60.1717 80.9093C59.7287 80.5119 59.2221 80.3541 59.0403 80.5568C58.8585 80.7595 59.0702 81.246 59.5133 81.6434C59.9564 82.0408 60.463 82.1987 60.6448 81.9959Z" fill="#1D1E26"/>
<path d="M51.2692 88.1247C51.2692 88.1247 47.2898 87.6492 45.288 91.4291C44.0581 93.7502 44.1645 116.158 44.1645 116.158C44.1645 116.158 57.0497 116.394 58.6244 115.889C58.8521 114.317 59.8436 100.113 59.8436 94.5167C59.8436 92.6308 60.7987 89.4085 55.2216 88.5692C55.161 89.4691 52.4439 90.2289 51.2692 88.1247Z" fill="#9BDEFF"/>
<mask id="mask2_950_19273" style="mask-type:alpha" maskUnits="userSpaceOnUse" x="44" y="88" width="16" height="29">
<path d="M51.2692 88.1247C51.2692 88.1247 47.2898 87.6492 45.288 91.4291C44.0581 93.7502 44.1645 116.158 44.1645 116.158C44.1645 116.158 57.0497 116.394 58.6244 115.889C58.8521 114.317 59.8436 100.113 59.8436 94.5167C59.8436 92.6308 60.7987 89.4085 55.2216 88.5692C55.161 89.4691 52.4439 90.2289 51.2692 88.1247Z" fill="#86DFFF"/>
</mask>
<g mask="url(#mask2_950_19273)">
<path d="M32.275 86.2961L32.7168 85.5215L33.1587 86.2961H32.275Z" fill="#008ACE"/>
<path d="M36.9091 86.2961L37.3509 85.5215L37.7928 86.2961H36.9091Z" fill="#008ACE"/>
<path d="M27.6409 86.2961L28.0828 85.5215L28.5246 86.2961H27.6409Z" fill="#008ACE"/>
<path d="M46.1785 86.2961L46.6204 85.5215L47.0622 86.2961H46.1785Z" fill="#008ACE"/>
<path d="M50.8126 86.2961L51.2545 85.5215L51.6963 86.2961H50.8126Z" fill="#008ACE"/>
<path d="M41.5445 86.2961L41.9863 85.5215L42.4268 86.2961H41.5445Z" fill="#008ACE"/>
<path d="M55.4467 86.2961L55.8885 85.5215L56.3304 86.2961H55.4467Z" fill="#008ACE"/>
<path d="M60.0807 86.2961L60.5226 85.5215L60.9644 86.2961H60.0807Z" fill="#008ACE"/>
<path d="M69.3502 86.2961L69.7921 85.5215L70.2339 86.2961H69.3502Z" fill="#008ACE"/>
<path d="M73.9843 86.2961L74.4261 85.5215L74.868 86.2961H73.9843Z" fill="#008ACE"/>
<path d="M64.7161 86.2961L65.158 85.5215L65.5985 86.2961H64.7161Z" fill="#008ACE"/>
<path d="M34.6432 88.6643L35.0851 87.8897L35.5269 88.6643H34.6432Z" fill="#008ACE"/>
<path d="M39.2786 88.6643L39.7205 87.8897L40.161 88.6643H39.2786Z" fill="#008ACE"/>
<path d="M30.0092 88.6643L30.451 87.8897L30.8929 88.6643H30.0092Z" fill="#008ACE"/>
<path d="M48.5468 88.6643L48.9886 87.8897L49.4305 88.6643H48.5468Z" fill="#008ACE"/>
<path d="M53.1808 88.6643L53.6227 87.8897L54.0645 88.6643H53.1808Z" fill="#008ACE"/>
<path d="M43.9127 88.6643L44.3546 87.8897L44.7964 88.6643H43.9127Z" fill="#008ACE"/>
<path d="M57.8162 88.6643L58.2567 87.8897L58.6986 88.6643H57.8162Z" fill="#008ACE"/>
<path d="M62.4503 88.6643L62.8922 87.8897L63.3327 88.6643H62.4503Z" fill="#008ACE"/>
<path d="M71.7184 88.6643L72.1603 87.8897L72.6021 88.6643H71.7184Z" fill="#008ACE"/>
<path d="M76.3525 88.6643L76.7944 87.8897L77.2362 88.6643H76.3525Z" fill="#008ACE"/>
<path d="M67.0844 88.6643L67.5262 87.8897L67.9667 88.6643H67.0844Z" fill="#008ACE"/>
<path d="M32.275 90.953L32.7168 90.1785L33.1587 90.953H32.275Z" fill="#008ACE"/>
<path d="M36.9091 90.953L37.3509 90.1785L37.7928 90.953H36.9091Z" fill="#008ACE"/>
<path d="M27.6409 90.953L28.0828 90.1785L28.5246 90.953H27.6409Z" fill="#008ACE"/>
<path d="M46.1785 90.953L46.6204 90.1785L47.0622 90.953H46.1785Z" fill="#008ACE"/>
<path d="M50.8126 90.953L51.2545 90.1785L51.6963 90.953H50.8126Z" fill="#008ACE"/>
<path d="M41.5445 90.953L41.9863 90.1785L42.4268 90.953H41.5445Z" fill="#008ACE"/>
<path d="M55.4467 90.953L55.8885 90.1785L56.3304 90.953H55.4467Z" fill="#008ACE"/>
<path d="M60.0807 90.953L60.5226 90.1785L60.9644 90.953H60.0807Z" fill="#008ACE"/>
<path d="M69.3502 90.953L69.7921 90.1785L70.2339 90.953H69.3502Z" fill="#008ACE"/>
<path d="M73.9843 90.953L74.4261 90.1785L74.868 90.953H73.9843Z" fill="#008ACE"/>
<path d="M64.7161 90.953L65.158 90.1785L65.5985 90.953H64.7161Z" fill="#008ACE"/>
<path d="M34.6432 93.3226L35.0851 92.548L35.5269 93.3226H34.6432Z" fill="#008ACE"/>
<path d="M39.2786 93.3226L39.7205 92.548L40.161 93.3226H39.2786Z" fill="#008ACE"/>
<path d="M30.0092 93.3226L30.451 92.548L30.8929 93.3226H30.0092Z" fill="#008ACE"/>
<path d="M48.5468 93.3226L48.9886 92.548L49.4305 93.3226H48.5468Z" fill="#008ACE"/>
<path d="M53.1808 93.3226L53.6227 92.548L54.0645 93.3226H53.1808Z" fill="#008ACE"/>
<path d="M43.9127 93.3226L44.3546 92.548L44.7964 93.3226H43.9127Z" fill="#008ACE"/>
<path d="M57.8162 93.3226L58.2567 92.548L58.6986 93.3226H57.8162Z" fill="#008ACE"/>
<path d="M62.4503 93.3226L62.8922 92.548L63.3327 93.3226H62.4503Z" fill="#008ACE"/>
<path d="M71.7184 93.3226L72.1603 92.548L72.6021 93.3226H71.7184Z" fill="#008ACE"/>
<path d="M76.3525 93.3226L76.7944 92.548L77.2362 93.3226H76.3525Z" fill="#008ACE"/>
<path d="M67.0844 93.3226L67.5262 92.548L67.9667 93.3226H67.0844Z" fill="#008ACE"/>
<path d="M32.275 95.5332L32.7168 94.7586L33.1587 95.5332H32.275Z" fill="#008ACE"/>
<path d="M36.9091 95.5332L37.3509 94.7586L37.7928 95.5332H36.9091Z" fill="#008ACE"/>
<path d="M27.6409 95.5332L28.0828 94.7586L28.5246 95.5332H27.6409Z" fill="#008ACE"/>
<path d="M46.1785 95.5332L46.6204 94.7586L47.0622 95.5332H46.1785Z" fill="#008ACE"/>
<path d="M50.8126 95.5332L51.2545 94.7586L51.6963 95.5332H50.8126Z" fill="#008ACE"/>
<path d="M41.5445 95.5332L41.9863 94.7586L42.4268 95.5332H41.5445Z" fill="#008ACE"/>
<path d="M55.4467 95.5332L55.8885 94.7586L56.3304 95.5332H55.4467Z" fill="#008ACE"/>
<path d="M60.0807 95.5332L60.5226 94.7586L60.9644 95.5332H60.0807Z" fill="#008ACE"/>
<path d="M69.3502 95.5332L69.7921 94.7586L70.2339 95.5332H69.3502Z" fill="#008ACE"/>
<path d="M73.9843 95.5332L74.4261 94.7586L74.868 95.5332H73.9843Z" fill="#008ACE"/>
<path d="M64.7161 95.5332L65.158 94.7586L65.5985 95.5332H64.7161Z" fill="#008ACE"/>
<path d="M34.6432 97.9014L35.0851 97.1269L35.5269 97.9014H34.6432Z" fill="#008ACE"/>
<path d="M39.2786 97.9014L39.7205 97.1269L40.161 97.9014H39.2786Z" fill="#008ACE"/>
<path d="M30.0092 97.9014L30.451 97.1269L30.8929 97.9014H30.0092Z" fill="#008ACE"/>
<path d="M48.5468 97.9014L48.9886 97.1269L49.4305 97.9014H48.5468Z" fill="#008ACE"/>
<path d="M53.1808 97.9014L53.6227 97.1269L54.0645 97.9014H53.1808Z" fill="#008ACE"/>
<path d="M43.9127 97.9014L44.3546 97.1269L44.7964 97.9014H43.9127Z" fill="#008ACE"/>
<path d="M57.8162 97.9014L58.2567 97.1269L58.6986 97.9014H57.8162Z" fill="#008ACE"/>
<path d="M62.4503 97.9014L62.8922 97.1269L63.3327 97.9014H62.4503Z" fill="#008ACE"/>
<path d="M71.7184 97.9014L72.1603 97.1269L72.6021 97.9014H71.7184Z" fill="#008ACE"/>
<path d="M76.3525 97.9014L76.7944 97.1269L77.2362 97.9014H76.3525Z" fill="#008ACE"/>
<path d="M67.0844 97.9014L67.5262 97.1269L67.9667 97.9014H67.0844Z" fill="#008ACE"/>
<path d="M32.275 100.192L32.7168 99.4156L33.1587 100.192H32.275Z" fill="#008ACE"/>
<path d="M36.9091 100.192L37.3509 99.4156L37.7928 100.192H36.9091Z" fill="#008ACE"/>
<path d="M27.6409 100.192L28.0828 99.4156L28.5246 100.192H27.6409Z" fill="#008ACE"/>
<path d="M46.1785 100.192L46.6204 99.4156L47.0622 100.192H46.1785Z" fill="#008ACE"/>
<path d="M50.8126 100.192L51.2545 99.4156L51.6963 100.192H50.8126Z" fill="#008ACE"/>
<path d="M41.5445 100.192L41.9863 99.4156L42.4268 100.192H41.5445Z" fill="#008ACE"/>
<path d="M55.4467 100.192L55.8885 99.4156L56.3304 100.192H55.4467Z" fill="#008ACE"/>
<path d="M60.0807 100.192L60.5226 99.4156L60.9644 100.192H60.0807Z" fill="#008ACE"/>
<path d="M69.3502 100.192L69.7921 99.4156L70.2339 100.192H69.3502Z" fill="#008ACE"/>
<path d="M73.9843 100.192L74.4261 99.4156L74.868 100.192H73.9843Z" fill="#008ACE"/>
<path d="M64.7161 100.192L65.158 99.4156L65.5985 100.192H64.7161Z" fill="#008ACE"/>
<path d="M34.6432 102.56L35.0851 101.785L35.5269 102.56H34.6432Z" fill="#008ACE"/>
<path d="M39.2786 102.56L39.7205 101.785L40.161 102.56H39.2786Z" fill="#008ACE"/>
<path d="M30.0092 102.56L30.451 101.785L30.8929 102.56H30.0092Z" fill="#008ACE"/>
<path d="M48.5468 102.56L48.9886 101.785L49.4305 102.56H48.5468Z" fill="#008ACE"/>
<path d="M53.1808 102.56L53.6227 101.785L54.0645 102.56H53.1808Z" fill="#008ACE"/>
<path d="M43.9127 102.56L44.3546 101.785L44.7964 102.56H43.9127Z" fill="#008ACE"/>
<path d="M57.8162 102.56L58.2567 101.785L58.6986 102.56H57.8162Z" fill="#008ACE"/>
<path d="M62.4503 102.56L62.8922 101.785L63.3327 102.56H62.4503Z" fill="#008ACE"/>
<path d="M71.7184 102.56L72.1603 101.785L72.6021 102.56H71.7184Z" fill="#008ACE"/>
<path d="M76.3525 102.56L76.7944 101.785L77.2362 102.56H76.3525Z" fill="#008ACE"/>
<path d="M67.0844 102.56L67.5262 101.785L67.9667 102.56H67.0844Z" fill="#008ACE"/>
<path d="M32.275 105.48L32.7168 104.706L33.1587 105.48H32.275Z" fill="#008ACE"/>
<path d="M36.9091 105.48L37.3509 104.706L37.7928 105.48H36.9091Z" fill="#008ACE"/>
<path d="M27.6409 105.48L28.0828 104.706L28.5246 105.48H27.6409Z" fill="#008ACE"/>
<path d="M46.1785 105.48L46.6204 104.706L47.0622 105.48H46.1785Z" fill="#008ACE"/>
<path d="M50.8126 105.48L51.2545 104.706L51.6963 105.48H50.8126Z" fill="#008ACE"/>
<path d="M41.5445 105.48L41.9863 104.706L42.4268 105.48H41.5445Z" fill="#008ACE"/>
<path d="M55.4467 105.48L55.8885 104.706L56.3304 105.48H55.4467Z" fill="#008ACE"/>
<path d="M60.0807 105.48L60.5226 104.706L60.9644 105.48H60.0807Z" fill="#008ACE"/>
<path d="M69.3502 105.48L69.7921 104.706L70.2339 105.48H69.3502Z" fill="#008ACE"/>
<path d="M73.9843 105.48L74.4261 104.706L74.868 105.48H73.9843Z" fill="#008ACE"/>
<path d="M64.7161 105.48L65.158 104.706L65.5985 105.48H64.7161Z" fill="#008ACE"/>
<path d="M34.6432 107.849L35.0851 107.074L35.5269 107.849H34.6432Z" fill="#008ACE"/>
<path d="M39.2786 107.849L39.7205 107.074L40.161 107.849H39.2786Z" fill="#008ACE"/>
<path d="M30.0092 107.849L30.451 107.074L30.8929 107.849H30.0092Z" fill="#008ACE"/>
<path d="M48.5468 107.849L48.9886 107.074L49.4305 107.849H48.5468Z" fill="#008ACE"/>
<path d="M53.1808 107.849L53.6227 107.074L54.0645 107.849H53.1808Z" fill="#008ACE"/>
<path d="M43.9127 107.849L44.3546 107.074L44.7964 107.849H43.9127Z" fill="#008ACE"/>
<path d="M57.8162 107.849L58.2567 107.074L58.6986 107.849H57.8162Z" fill="#008ACE"/>
<path d="M62.4503 107.849L62.8922 107.074L63.3327 107.849H62.4503Z" fill="#008ACE"/>
<path d="M71.7184 107.849L72.1603 107.074L72.6021 107.849H71.7184Z" fill="#008ACE"/>
<path d="M76.3525 107.849L76.7944 107.074L77.2362 107.849H76.3525Z" fill="#008ACE"/>
<path d="M67.0844 107.849L67.5262 107.074L67.9667 107.849H67.0844Z" fill="#008ACE"/>
<path d="M32.275 110.139L32.7168 109.364L33.1587 110.139H32.275Z" fill="#008ACE"/>
<path d="M36.9091 110.139L37.3509 109.364L37.7928 110.139H36.9091Z" fill="#008ACE"/>
<path d="M27.6409 110.139L28.0828 109.364L28.5246 110.139H27.6409Z" fill="#008ACE"/>
<path d="M46.1785 110.139L46.6204 109.364L47.0622 110.139H46.1785Z" fill="#008ACE"/>
<path d="M50.8126 110.139L51.2545 109.364L51.6963 110.139H50.8126Z" fill="#008ACE"/>
<path d="M41.5445 110.139L41.9863 109.364L42.4268 110.139H41.5445Z" fill="#008ACE"/>
<path d="M55.4467 110.139L55.8885 109.364L56.3304 110.139H55.4467Z" fill="#008ACE"/>
<path d="M60.0807 110.139L60.5226 109.364L60.9644 110.139H60.0807Z" fill="#008ACE"/>
<path d="M69.3502 110.139L69.7921 109.364L70.2339 110.139H69.3502Z" fill="#008ACE"/>
<path d="M73.9843 110.139L74.4261 109.364L74.868 110.139H73.9843Z" fill="#008ACE"/>
<path d="M64.7161 110.139L65.158 109.364L65.5985 110.139H64.7161Z" fill="#008ACE"/>
<path d="M34.6432 112.507L35.0851 111.732L35.5269 112.507H34.6432Z" fill="#008ACE"/>
<path d="M39.2786 112.507L39.7205 111.732L40.161 112.507H39.2786Z" fill="#008ACE"/>
<path d="M30.0092 112.507L30.451 111.732L30.8929 112.507H30.0092Z" fill="#008ACE"/>
<path d="M48.5468 112.507L48.9886 111.732L49.4305 112.507H48.5468Z" fill="#008ACE"/>
<path d="M53.1808 112.507L53.6227 111.732L54.0645 112.507H53.1808Z" fill="#008ACE"/>
<path d="M43.9127 112.507L44.3546 111.732L44.7964 112.507H43.9127Z" fill="#008ACE"/>
<path d="M57.8162 112.507L58.2567 111.732L58.6986 112.507H57.8162Z" fill="#008ACE"/>
<path d="M62.4503 112.507L62.8922 111.732L63.3327 112.507H62.4503Z" fill="#008ACE"/>
<path d="M71.7184 112.507L72.1603 111.732L72.6021 112.507H71.7184Z" fill="#008ACE"/>
<path d="M76.3525 112.507L76.7944 111.732L77.2362 112.507H76.3525Z" fill="#008ACE"/>
<path d="M67.0844 112.507L67.5262 111.732L67.9667 112.507H67.0844Z" fill="#008ACE"/>
<path d="M32.275 114.717L32.7168 113.943L33.1587 114.717H32.275Z" fill="#008ACE"/>
<path d="M36.9091 114.717L37.3509 113.943L37.7928 114.717H36.9091Z" fill="#008ACE"/>
<path d="M27.6409 114.717L28.0828 113.943L28.5246 114.717H27.6409Z" fill="#008ACE"/>
<path d="M46.1785 114.717L46.6204 113.943L47.0622 114.717H46.1785Z" fill="#008ACE"/>
<path d="M50.8126 114.717L51.2545 113.943L51.6963 114.717H50.8126Z" fill="#008ACE"/>
<path d="M41.5445 114.717L41.9863 113.943L42.4268 114.717H41.5445Z" fill="#008ACE"/>
<path d="M55.4467 114.717L55.8885 113.943L56.3304 114.717H55.4467Z" fill="#008ACE"/>
<path d="M60.0807 114.717L60.5226 113.943L60.9644 114.717H60.0807Z" fill="#008ACE"/>
<path d="M69.3502 114.717L69.7921 113.943L70.2339 114.717H69.3502Z" fill="#008ACE"/>
<path d="M73.9843 114.717L74.4261 113.943L74.868 114.717H73.9843Z" fill="#008ACE"/>
<path d="M64.7161 114.717L65.158 113.943L65.5985 114.717H64.7161Z" fill="#008ACE"/>
<path d="M34.6432 117.086L35.0851 116.311L35.5269 117.086H34.6432Z" fill="#008ACE"/>
<path d="M39.2786 117.086L39.7205 116.311L40.161 117.086H39.2786Z" fill="#008ACE"/>
<path d="M30.0092 117.086L30.451 116.311L30.8929 117.086H30.0092Z" fill="#008ACE"/>
<path d="M48.5468 117.086L48.9886 116.311L49.4305 117.086H48.5468Z" fill="#008ACE"/>
<path d="M53.1808 117.086L53.6227 116.311L54.0645 117.086H53.1808Z" fill="#008ACE"/>
<path d="M43.9127 117.086L44.3546 116.311L44.7964 117.086H43.9127Z" fill="#008ACE"/>
<path d="M57.8162 117.086L58.2567 116.311L58.6986 117.086H57.8162Z" fill="#008ACE"/>
<path d="M62.4503 117.086L62.8922 116.311L63.3327 117.086H62.4503Z" fill="#008ACE"/>
<path d="M71.7184 117.086L72.1603 116.311L72.6021 117.086H71.7184Z" fill="#008ACE"/>
<path d="M76.3525 117.086L76.7944 116.311L77.2362 117.086H76.3525Z" fill="#008ACE"/>
<path d="M67.0844 117.086L67.5262 116.311L67.9667 117.086H67.0844Z" fill="#008ACE"/>
</g>
<path d="M44.3397 116.628C44.3397 116.628 61.0574 115.382 73.013 117.726C76.176 118.348 76.9964 122.329 77.344 126.157C77.6619 129.652 79.2205 140.888 79.1652 140.975L73.6583 141.125C73.6583 141.125 70.044 130.155 69.1845 125.33C69.1724 125.257 56.3937 127.231 50.2454 126.303C43.0236 125.213 44.3424 116.618 44.3424 116.618" fill="#1D1E26"/>
<path d="M44.0972 116.08C44.0972 116.08 68.0597 108.421 70.6986 108.253C73.3376 108.085 74.2348 109.6 75.5267 111.341C76.8186 113.081 85.071 125.572 85.071 125.572L80.4019 128.655C80.4019 128.655 74.8478 122.837 69.9685 116.461C68.8087 117.547 51.9724 127.145 47.2495 125.083C43.0263 123.229 44.0972 116.08 44.0972 116.08Z" fill="#1D1E26"/>
<path d="M60.2227 110.479L80.8653 104.974L81.0822 105.788L60.4396 111.292C60.3315 111.321 60.2165 111.306 60.1197 111.25C60.0229 111.194 59.9524 111.101 59.9235 110.993V110.993C59.8947 110.885 59.91 110.77 59.9661 110.673C60.0221 110.577 60.1143 110.506 60.2223 110.477L60.2227 110.479Z" fill="#9BDEFF"/>
<path d="M81.3408 105.721L66.6115 109.644L67.4535 99.1366C67.4655 98.9836 67.5247 98.8381 67.6229 98.7201C67.7211 98.6022 67.8534 98.5175 68.0017 98.4779L81.551 94.8663C81.6272 94.8459 81.7071 94.8442 81.7841 94.8612C81.8611 94.8782 81.9329 94.9135 81.9934 94.9641C82.0539 95.0147 82.1013 95.0791 82.1317 95.1519C82.1621 95.2246 82.1745 95.3037 82.168 95.3822L81.3408 105.721Z" fill="#008ACE"/>
<path d="M74.8478 102.611C75.1945 102.611 75.4756 102.33 75.4756 101.983C75.4756 101.637 75.1945 101.355 74.8478 101.355C74.5011 101.355 74.2201 101.637 74.2201 101.983C74.2201 102.33 74.5011 102.611 74.8478 102.611Z" fill="white"/>
<path d="M46.1476 91.3033C45.3582 92.87 46.9289 104.968 49.6703 108.288C52.6716 111.925 66.1535 112.72 67.2002 112.625C69.004 112.46 68.7157 111.173 68.1432 110.739C67.4535 110.226 64.6488 110.372 63.7516 110.255C65.8531 110.195 65.7723 109.493 65.4732 109.188C65.1742 108.882 63.0727 109.457 62.1674 109.423C57.5873 109.224 53.2765 106.968 52.2123 105.937C50.3371 104.127 50.1377 93.5436 50.1337 92.4659C50.1202 90.3442 47.4516 88.7128 46.1476 91.3033Z" fill="#CC7E62" stroke="#1D1E26" stroke-width="0.269422" stroke-linecap="round" stroke-linejoin="round"/>
<path d="M45.7663 91.0005C46.0587 90.0669 47.9823 88.5757 49.7794 90.106C51.5764 91.6363 51.4444 97.4397 52.1072 100.921C51.8081 101.034 45.5144 101.302 45.5144 101.302C45.5144 101.302 44.9931 93.4778 45.7663 91.0005Z" fill="#008ACE"/>
<mask id="mask3_950_19273" style="mask-type:alpha" maskUnits="userSpaceOnUse" x="45" y="89" width="8" height="13">
<path d="M45.7663 91.0005C46.0586 90.0669 47.9823 88.5757 49.7794 90.106C51.5764 91.6363 51.4444 97.4397 52.1072 100.921C51.8081 101.034 45.5144 101.302 45.5144 101.302C45.5144 101.302 44.9931 93.4778 45.7663 91.0005Z" fill="#008ACE"/>
</mask>
<g mask="url(#mask3_950_19273)">
<path d="M33.8458 81.5606L34.4048 80.8655L34.7187 81.7007L33.8458 81.5606Z" fill="#9BDEFF"/>
<path d="M38.4233 82.2907L38.981 81.5956L39.2949 82.4295L38.4233 82.2907Z" fill="#9BDEFF"/>
<path d="M29.2697 80.8318L29.8274 80.1367L30.1426 80.9706L29.2697 80.8318Z" fill="#9BDEFF"/>
<path d="M47.5756 83.7497L48.1346 83.0546L48.4485 83.8884L47.5756 83.7497Z" fill="#9BDEFF"/>
<path d="M52.153 84.4798L52.7108 83.7834L53.0246 84.6186L52.153 84.4798Z" fill="#9BDEFF"/>
<path d="M42.9994 83.0209L43.5571 82.3244L43.8724 83.1596L42.9994 83.0209Z" fill="#9BDEFF"/>
<path d="M56.7292 85.2086L57.2869 84.5135L57.6021 85.3473L56.7292 85.2086Z" fill="#9BDEFF"/>
<path d="M61.3053 85.9387L61.8644 85.2436L62.1783 86.0775L61.3053 85.9387Z" fill="#9BDEFF"/>
<path d="M70.459 87.3976L71.0167 86.7025L71.3305 87.5364L70.459 87.3976Z" fill="#9BDEFF"/>
<path d="M75.0351 88.1264L75.5928 87.4313L75.908 88.2665L75.0351 88.1264Z" fill="#9BDEFF"/>
<path d="M65.8828 86.6675L66.4405 85.9724L66.7544 86.8076L65.8828 86.6675Z" fill="#9BDEFF"/>
<path d="M35.8126 84.2723L36.3703 83.5772L36.6842 84.4125L35.8126 84.2723Z" fill="#9BDEFF"/>
<path d="M40.3887 85.0025L40.9464 84.3074L41.2616 85.1412L40.3887 85.0025Z" fill="#9BDEFF"/>
<path d="M31.2364 83.5436L31.7941 82.8485L32.108 83.6823L31.2364 83.5436Z" fill="#9BDEFF"/>
<path d="M49.5423 86.4614L50.1001 85.7663L50.4139 86.6002L49.5423 86.4614Z" fill="#9BDEFF"/>
<path d="M54.1185 87.1915L54.6762 86.4951L54.9914 87.3303L54.1185 87.1915Z" fill="#9BDEFF"/>
<path d="M44.9662 85.7326L45.5239 85.0362L45.8378 85.8714L44.9662 85.7326Z" fill="#9BDEFF"/>
<path d="M58.6946 87.9203L59.2537 87.2252L59.5676 88.0591L58.6946 87.9203Z" fill="#9BDEFF"/>
<path d="M63.2721 88.6505L63.8298 87.9554L64.1437 88.7892L63.2721 88.6505Z" fill="#9BDEFF"/>
<path d="M72.4244 90.1094L72.9834 89.4143L73.2973 90.2481L72.4244 90.1094Z" fill="#9BDEFF"/>
<path d="M77.0019 90.8395L77.5596 90.1431L77.8735 90.9783L77.0019 90.8395Z" fill="#9BDEFF"/>
<path d="M67.8482 89.3793L68.406 88.6841L68.7212 89.5193L67.8482 89.3793Z" fill="#9BDEFF"/>
<path d="M33.113 86.161L33.6707 85.4659L33.9859 86.2998L33.113 86.161Z" fill="#9BDEFF"/>
<path d="M37.6891 86.8911L38.2482 86.1947L38.562 87.0299L37.6891 86.8911Z" fill="#9BDEFF"/>
<path d="M28.5368 85.4322L29.0945 84.7358L29.4084 85.571L28.5368 85.4322Z" fill="#9BDEFF"/>
<path d="M46.8427 88.3501L47.4004 87.6536L47.7143 88.4888L46.8427 88.3501Z" fill="#9BDEFF"/>
<path d="M51.4189 89.0788L51.9779 88.3837L52.2918 89.2189L51.4189 89.0788Z" fill="#9BDEFF"/>
<path d="M42.2666 87.6199L42.8243 86.9248L43.1382 87.7587L42.2666 87.6199Z" fill="#9BDEFF"/>
<path d="M55.9964 89.809L56.5541 89.1139L56.8679 89.9477L55.9964 89.809Z" fill="#9BDEFF"/>
<path d="M60.5725 90.5378L61.1302 89.8427L61.4454 90.6779L60.5725 90.5378Z" fill="#9BDEFF"/>
<path d="M69.7261 91.998L70.2838 91.3016L70.5977 92.1368L69.7261 91.998Z" fill="#9BDEFF"/>
<path d="M74.3023 92.7268L74.86 92.0317L75.1738 92.8656L74.3023 92.7268Z" fill="#9BDEFF"/>
<path d="M65.1486 91.2679L65.7077 90.5728L66.0216 91.4067L65.1486 91.2679Z" fill="#9BDEFF"/>
<path d="M35.0798 88.8727L35.6375 88.1776L35.9513 89.0115L35.0798 88.8727Z" fill="#9BDEFF"/>
<path d="M39.6559 89.6029L40.2136 88.9064L40.5275 89.7416L39.6559 89.6029Z" fill="#9BDEFF"/>
<path d="M30.5023 88.144L31.0613 87.4475L31.3752 88.2827L30.5023 88.144Z" fill="#9BDEFF"/>
<path d="M48.8095 91.0618L49.3672 90.3667L49.6811 91.2006L48.8095 91.0618Z" fill="#9BDEFF"/>
<path d="M53.3857 91.7906L53.9434 91.0955L54.2572 91.9307L53.3857 91.7906Z" fill="#9BDEFF"/>
<path d="M44.232 90.3317L44.7911 89.6365L45.105 90.4704L44.232 90.3317Z" fill="#9BDEFF"/>
<path d="M57.9618 92.5207L58.5208 91.8256L58.8347 92.6595L57.9618 92.5207Z" fill="#9BDEFF"/>
<path d="M62.5393 93.2495L63.097 92.5544L63.4109 93.3896L62.5393 93.2495Z" fill="#9BDEFF"/>
<path d="M71.6916 94.7098L72.2493 94.0133L72.5645 94.8485L71.6916 94.7098Z" fill="#9BDEFF"/>
<path d="M76.2677 95.4386L76.8268 94.7435L77.1406 95.5773L76.2677 95.4386Z" fill="#9BDEFF"/>
<path d="M67.1154 93.9796L67.6731 93.2845L67.987 94.1184L67.1154 93.9796Z" fill="#9BDEFF"/>
<path d="M32.3923 90.6833L32.95 89.9881L33.2652 90.822L32.3923 90.6833Z" fill="#9BDEFF"/>
<path d="M36.9684 91.412L37.5275 90.7169L37.8413 91.5521L36.9684 91.412Z" fill="#9BDEFF"/>
<path d="M27.8161 89.9531L28.3738 89.258L28.6877 90.0932L27.8161 89.9531Z" fill="#9BDEFF"/>
<path d="M46.122 92.8723L46.6797 92.1759L46.9936 93.0111L46.122 92.8723Z" fill="#9BDEFF"/>
<path d="M50.6982 93.6011L51.2572 92.906L51.5711 93.7399L50.6982 93.6011Z" fill="#9BDEFF"/>
<path d="M41.5459 92.1422L42.1036 91.4471L42.4175 92.2809L41.5459 92.1422Z" fill="#9BDEFF"/>
<path d="M55.2757 94.3312L55.8334 93.6348L56.1472 94.47L55.2757 94.3312Z" fill="#9BDEFF"/>
<path d="M59.8518 95.06L60.4095 94.3649L60.7234 95.1988L59.8518 95.06Z" fill="#9BDEFF"/>
<path d="M69.0054 96.5189L69.5631 95.8238L69.877 96.659L69.0054 96.5189Z" fill="#9BDEFF"/>
<path d="M73.5816 97.2491L74.1393 96.554L74.4531 97.3878L73.5816 97.2491Z" fill="#9BDEFF"/>
<path d="M64.4279 95.7902L64.987 95.095L65.3009 95.9289L64.4279 95.7902Z" fill="#9BDEFF"/>
<path d="M34.359 93.395L34.9168 92.6999L35.2306 93.5337L34.359 93.395Z" fill="#9BDEFF"/>
<path d="M38.9352 94.1238L39.4929 93.4287L39.8068 94.2639L38.9352 94.1238Z" fill="#9BDEFF"/>
<path d="M29.7816 92.6649L30.3393 91.9697L30.6545 92.805L29.7816 92.6649Z" fill="#9BDEFF"/>
<path d="M48.0888 95.5841L48.6465 94.8876L48.9604 95.7228L48.0888 95.5841Z" fill="#9BDEFF"/>
<path d="M52.665 96.3128L53.2227 95.6177L53.5365 96.4516L52.665 96.3128Z" fill="#9BDEFF"/>
<path d="M43.5113 94.8539L44.069 94.1588L44.3843 94.9927L43.5113 94.8539Z" fill="#9BDEFF"/>
<path d="M57.2411 97.043L57.7988 96.3465L58.114 97.1817L57.2411 97.043Z" fill="#9BDEFF"/>
<path d="M61.8172 97.7718L62.3763 97.0767L62.6902 97.9119L61.8172 97.7718Z" fill="#9BDEFF"/>
<path d="M70.9709 99.232L71.5286 98.5356L71.8438 99.3708L70.9709 99.232Z" fill="#9BDEFF"/>
<path d="M75.547 99.9608L76.1061 99.2657L76.4199 100.1L75.547 99.9608Z" fill="#9BDEFF"/>
<path d="M66.3947 98.5019L66.9524 97.8068L67.2663 98.6406L66.3947 98.5019Z" fill="#9BDEFF"/>
<path d="M31.6594 95.2836L32.2171 94.5872L32.531 95.4224L31.6594 95.2836Z" fill="#9BDEFF"/>
<path d="M36.2356 96.0124L36.7933 95.3173L37.1072 96.1512L36.2356 96.0124Z" fill="#9BDEFF"/>
<path d="M27.0819 94.5535L27.641 93.8584L27.9549 94.6923L27.0819 94.5535Z" fill="#9BDEFF"/>
<path d="M45.3892 97.4714L45.9469 96.7762L46.2608 97.6101L45.3892 97.4714Z" fill="#9BDEFF"/>
<path d="M49.9653 98.2015L50.523 97.505L50.8369 98.3402L49.9653 98.2015Z" fill="#9BDEFF"/>
<path d="M40.8117 96.7426L41.3708 96.0461L41.6846 96.8813L40.8117 96.7426Z" fill="#9BDEFF"/>
<path d="M54.5415 98.9303L55.0992 98.2352L55.4144 99.0704L54.5415 98.9303Z" fill="#9BDEFF"/>
<path d="M59.119 99.6604L59.6767 98.9653L59.9905 99.7992L59.119 99.6604Z" fill="#9BDEFF"/>
<path d="M68.2712 101.119L68.8303 100.424L69.1442 101.258L68.2712 101.119Z" fill="#9BDEFF"/>
<path d="M72.8474 101.849L73.4064 101.153L73.7203 101.988L72.8474 101.849Z" fill="#9BDEFF"/>
<path d="M63.6951 100.389L64.2528 99.6941L64.5667 100.529L63.6951 100.389Z" fill="#9BDEFF"/>
<path d="M33.6249 97.9954L34.1826 97.2989L34.4978 98.1341L33.6249 97.9954Z" fill="#9BDEFF"/>
<path d="M38.201 98.7242L38.7601 98.0291L39.0739 98.8629L38.201 98.7242Z" fill="#9BDEFF"/>
<path d="M29.0487 97.2652L29.6064 96.5701L29.9203 97.404L29.0487 97.2652Z" fill="#9BDEFF"/>
<path d="M47.3546 100.183L47.9123 99.488L48.2276 100.323L47.3546 100.183Z" fill="#9BDEFF"/>
<path d="M51.9308 100.913L52.4898 100.218L52.8037 101.052L51.9308 100.913Z" fill="#9BDEFF"/>
<path d="M42.7785 99.4543L43.3362 98.7592L43.6501 99.5931L42.7785 99.4543Z" fill="#9BDEFF"/>
<path d="M56.5083 101.643L57.066 100.947L57.3798 101.782L56.5083 101.643Z" fill="#9BDEFF"/>
<path d="M61.0844 102.372L61.6421 101.677L61.9573 102.511L61.0844 102.372Z" fill="#9BDEFF"/>
<path d="M70.238 103.831L70.7957 103.136L71.1096 103.97L70.238 103.831Z" fill="#9BDEFF"/>
<path d="M74.8142 104.561L75.3719 103.865L75.6871 104.7L74.8142 104.561Z" fill="#9BDEFF"/>
<path d="M65.6605 103.102L66.2196 102.406L66.5335 103.241L65.6605 103.102Z" fill="#9BDEFF"/>
<path d="M30.8269 100.506L31.3846 99.8113L31.6985 100.646L30.8269 100.506Z" fill="#9BDEFF"/>
<path d="M35.4031 101.237L35.9608 100.54L36.2746 101.375L35.4031 101.237Z" fill="#9BDEFF"/>
<path d="M26.2494 99.7776L26.8071 99.0812L27.1224 99.9164L26.2494 99.7776Z" fill="#9BDEFF"/>
<path d="M44.5553 102.695L45.1144 102L45.4283 102.834L44.5553 102.695Z" fill="#9BDEFF"/>
<path d="M49.1328 103.426L49.6905 102.729L50.0044 103.564L49.1328 103.426Z" fill="#9BDEFF"/>
<path d="M39.9792 101.965L40.5369 101.27L40.8521 102.105L39.9792 101.965Z" fill="#9BDEFF"/>
<path d="M53.709 104.154L54.2667 103.459L54.5819 104.293L53.709 104.154Z" fill="#9BDEFF"/>
<path d="M58.2851 104.885L58.8442 104.188L59.158 105.023L58.2851 104.885Z" fill="#9BDEFF"/>
<path d="M67.4387 106.343L67.9964 105.648L68.3117 106.482L67.4387 106.343Z" fill="#9BDEFF"/>
<path d="M72.0149 107.072L72.5739 106.377L72.8878 107.212L72.0149 107.072Z" fill="#9BDEFF"/>
<path d="M62.8626 105.613L63.4203 104.918L63.7342 105.752L62.8626 105.613Z" fill="#9BDEFF"/>
<path d="M32.7924 103.218L33.3501 102.523L33.6639 103.358L32.7924 103.218Z" fill="#9BDEFF"/>
<path d="M37.3685 103.948L37.9275 103.253L38.2414 104.087L37.3685 103.948Z" fill="#9BDEFF"/>
<path d="M28.2162 102.489L28.7739 101.794L29.0878 102.628L28.2162 102.489Z" fill="#9BDEFF"/>
<path d="M46.5221 105.407L47.0798 104.712L47.3937 105.546L46.5221 105.407Z" fill="#9BDEFF"/>
<path d="M51.0983 106.137L51.6573 105.441L51.9712 106.276L51.0983 106.137Z" fill="#9BDEFF"/>
<path d="M41.946 104.677L42.5037 103.982L42.8176 104.817L41.946 104.677Z" fill="#9BDEFF"/>
<path d="M55.6757 106.866L56.2335 106.171L56.5473 107.005L55.6757 106.866Z" fill="#9BDEFF"/>
<path d="M60.2519 107.596L60.8096 106.9L61.1235 107.735L60.2519 107.596Z" fill="#9BDEFF"/>
<path d="M69.4055 109.055L69.9632 108.36L70.2771 109.194L69.4055 109.055Z" fill="#9BDEFF"/>
<path d="M73.9817 109.784L74.5394 109.089L74.8532 109.924L73.9817 109.784Z" fill="#9BDEFF"/>
<path d="M64.828 108.325L65.3857 107.63L65.701 108.465L64.828 108.325Z" fill="#9BDEFF"/>
<path d="M30.0927 105.107L30.6504 104.412L30.9657 105.246L30.0927 105.107Z" fill="#9BDEFF"/>
<path d="M34.6702 105.837L35.2279 105.14L35.5418 105.976L34.6702 105.837Z" fill="#9BDEFF"/>
<path d="M25.5166 104.377L26.0743 103.682L26.3882 104.517L25.5166 104.377Z" fill="#9BDEFF"/>
<path d="M43.8225 107.296L44.3802 106.599L44.6954 107.435L43.8225 107.296Z" fill="#9BDEFF"/>
<path d="M48.4 108.025L48.9577 107.33L49.2716 108.163L48.4 108.025Z" fill="#9BDEFF"/>
<path d="M39.2464 106.566L39.8041 105.871L40.1179 106.704L39.2464 106.566Z" fill="#9BDEFF"/>
<path d="M52.9761 108.755L53.5338 108.06L53.8477 108.894L52.9761 108.755Z" fill="#9BDEFF"/>
<path d="M57.5523 109.484L58.11 108.788L58.4252 109.624L57.5523 109.484Z" fill="#9BDEFF"/>
<path d="M66.7059 110.942L67.2636 110.247L67.5775 111.083L66.7059 110.942Z" fill="#9BDEFF"/>
<path d="M71.282 111.673L71.8397 110.978L72.155 111.811L71.282 111.673Z" fill="#9BDEFF"/>
<path d="M62.1284 110.214L62.6875 109.519L63.0013 110.352L62.1284 110.214Z" fill="#9BDEFF"/>
<path d="M32.0595 107.819L32.6172 107.123L32.9311 107.957L32.0595 107.819Z" fill="#9BDEFF"/>
<path d="M36.6357 108.549L37.1934 107.852L37.5086 108.687L36.6357 108.549Z" fill="#9BDEFF"/>
<path d="M27.482 107.088L28.0411 106.393L28.355 107.228L27.482 107.088Z" fill="#9BDEFF"/>
<path d="M45.7893 110.008L46.347 109.311L46.6609 110.146L45.7893 110.008Z" fill="#9BDEFF"/>
<path d="M50.3654 110.736L50.9231 110.041L51.2384 110.875L50.3654 110.736Z" fill="#9BDEFF"/>
<path d="M41.2118 109.277L41.7709 108.582L42.0847 109.416L41.2118 109.277Z" fill="#9BDEFF"/>
<path d="M54.9416 111.467L55.5006 110.771L55.8145 111.605L54.9416 111.467Z" fill="#9BDEFF"/>
<path d="M59.5191 112.195L60.0768 111.5L60.3906 112.335L59.5191 112.195Z" fill="#9BDEFF"/>
<path d="M68.6713 113.656L69.229 112.959L69.5443 113.794L68.6713 113.656Z" fill="#9BDEFF"/>
<path d="M73.2488 114.384L73.8065 113.689L74.1204 114.523L73.2488 114.384Z" fill="#9BDEFF"/>
<path d="M64.0952 112.925L64.6529 112.23L64.9668 113.064L64.0952 112.925Z" fill="#9BDEFF"/>
<path d="M29.372 109.629L29.9297 108.933L30.245 109.768L29.372 109.629Z" fill="#9BDEFF"/>
<path d="M33.9482 110.358L34.5072 109.663L34.8211 110.498L33.9482 110.358Z" fill="#9BDEFF"/>
<path d="M24.7959 108.899L25.3536 108.204L25.6675 109.038L24.7959 108.899Z" fill="#9BDEFF"/>
<path d="M43.1018 111.817L43.6595 111.122L43.9747 111.957L43.1018 111.817Z" fill="#9BDEFF"/>
<path d="M47.6779 112.547L48.237 111.852L48.5509 112.686L47.6779 112.547Z" fill="#9BDEFF"/>
<path d="M38.5257 111.088L39.0834 110.393L39.3972 111.227L38.5257 111.088Z" fill="#9BDEFF"/>
<path d="M52.2554 113.277L52.8131 112.581L53.127 113.416L52.2554 113.277Z" fill="#9BDEFF"/>
<path d="M56.8316 114.006L57.3893 113.311L57.7045 114.145L56.8316 114.006Z" fill="#9BDEFF"/>
<path d="M65.9852 115.465L66.5429 114.77L66.8568 115.603L65.9852 115.465Z" fill="#9BDEFF"/>
<path d="M70.5613 116.195L71.119 115.498L71.4329 116.334L70.5613 116.195Z" fill="#9BDEFF"/>
<path d="M61.4077 114.736L61.9668 114.039L62.2806 114.875L61.4077 114.736Z" fill="#9BDEFF"/>
<path d="M31.3388 112.341L31.8965 111.646L32.2104 112.48L31.3388 112.341Z" fill="#9BDEFF"/>
<path d="M35.915 113.07L36.4727 112.374L36.7865 113.21L35.915 113.07Z" fill="#9BDEFF"/>
<path d="M26.7613 111.611L27.3204 110.916L27.6343 111.749L26.7613 111.611Z" fill="#9BDEFF"/>
<path d="M45.0686 114.53L45.6263 113.833L45.9402 114.669L45.0686 114.53Z" fill="#9BDEFF"/>
<path d="M49.6447 115.259L50.2024 114.564L50.5163 115.397L49.6447 115.259Z" fill="#9BDEFF"/>
<path d="M40.4911 113.8L41.0502 113.105L41.364 113.938L40.4911 113.8Z" fill="#9BDEFF"/>
<path d="M54.2209 115.989L54.7786 115.292L55.0938 116.128L54.2209 115.989Z" fill="#9BDEFF"/>
<path d="M58.7984 116.718L59.3561 116.022L59.6699 116.856L58.7984 116.718Z" fill="#9BDEFF"/>
<path d="M67.9506 118.176L68.5083 117.481L68.8236 118.317L67.9506 118.176Z" fill="#9BDEFF"/>
<path d="M72.5268 118.907L73.0858 118.211L73.3997 119.045L72.5268 118.907Z" fill="#9BDEFF"/>
<path d="M63.3745 117.448L63.9322 116.751L64.2461 117.586L63.3745 117.448Z" fill="#9BDEFF"/>
</g>
<path d="M47.3532 116.199C47.3532 116.199 48.1615 118.782 45.2369 119.323" stroke="white" stroke-width="0.134711" stroke-linecap="round" stroke-linejoin="round"/>
<path d="M79.793 126.894L84.4001 123.861" stroke="white" stroke-width="0.134711" stroke-linecap="round" stroke-linejoin="round"/>
<path d="M73.7296 139.357L79.3444 139.223" stroke="white" stroke-width="0.134711" stroke-linecap="round" stroke-linejoin="round"/>
<path d="M81.4999 129.445L83.9853 134.37C83.9853 134.37 87.0608 132.663 89.5341 132.428C92.0074 132.192 95.5004 131.227 96.1066 130.597C95.6904 129.935 94.3917 128.645 90.4487 128.846C88.9952 128.692 86.1865 127.152 86.1865 127.152L81.4999 129.445Z" fill="#9BDEFF"/>
<path d="M96.1011 130.592C95.4949 131.222 92.0032 132.188 89.5286 132.423C87.0539 132.657 83.9798 134.365 83.9798 134.365L84.1347 134.668C84.264 134.906 84.475 135.089 84.7287 135.184C84.9824 135.279 85.2618 135.279 85.5155 135.184L95.6188 131.424C95.9004 131.321 96.3005 131.02 96.1819 130.751L96.1011 130.592Z" fill="#1D1E26"/>
<path d="M83.0167 132.185C83.0167 132.185 85.9022 130.939 87.2736 132.935" stroke="#1D1E26" stroke-width="0.404134" stroke-linecap="round" stroke-linejoin="round"/>
<path d="M86.7774 128.597C86.8013 128.435 86.6935 128.285 86.5368 128.262C86.38 128.239 86.2335 128.352 86.2097 128.513C86.1858 128.675 86.2936 128.825 86.4504 128.848C86.6072 128.872 86.7536 128.759 86.7774 128.597Z" fill="#1D1E26"/>
<path d="M88.056 129.251C88.0799 129.089 87.9721 128.939 87.8153 128.916C87.6585 128.893 87.5121 129.006 87.4883 129.168C87.4644 129.33 87.5722 129.48 87.7289 129.503C87.8857 129.526 88.0322 129.413 88.056 129.251Z" fill="#1D1E26"/>
<path d="M89.635 129.704C89.6589 129.543 89.5511 129.393 89.3944 129.369C89.2376 129.346 89.0912 129.459 89.0673 129.621C89.0434 129.783 89.1512 129.933 89.308 129.956C89.4648 129.979 89.6112 129.866 89.635 129.704Z" fill="#1D1E26"/>
<path d="M86.5569 128.504C86.5569 128.504 87.5525 127.868 87.4905 127.584" stroke="#1D1E26" stroke-width="0.404134" stroke-linecap="round" stroke-linejoin="round"/>
<path d="M87.7707 129.204C87.7707 129.204 88.8174 128.381 88.6247 128.113" stroke="#1D1E26" stroke-width="0.404134" stroke-linecap="round" stroke-linejoin="round"/>
<path d="M89.3494 129.658C89.3494 129.658 90.252 129.053 89.9624 128.65" stroke="#1D1E26" stroke-width="0.404134" stroke-linecap="round" stroke-linejoin="round"/>
<path d="M74.2644 141.963L73.3309 147.4C73.3309 147.4 76.8186 147.858 78.947 149.14C81.0754 150.423 84.4567 151.725 85.3202 151.579C85.3781 150.8 85.1033 148.989 81.8177 146.802C80.74 145.813 79.3929 142.906 79.3929 142.906L74.2644 141.963Z" fill="#9BDEFF"/>
<path d="M85.3203 151.577C84.4568 151.724 81.0755 150.421 78.9471 149.139C76.8187 147.856 73.331 147.398 73.331 147.398L73.2758 147.734C73.2382 148.003 73.2994 148.276 73.448 148.504C73.5966 148.731 73.8226 148.897 74.084 148.971L84.4366 151.956C84.7249 152.039 85.226 152.035 85.288 151.751L85.3203 151.577Z" fill="#1D1E26"/>
<path d="M73.855 145.072C73.855 145.072 76.9157 145.788 76.8308 148.21" stroke="#1D1E26" stroke-width="0.404134" stroke-linecap="round" stroke-linejoin="round"/>
<path d="M79.0183 144.408C79.1338 144.292 79.1364 144.107 79.0241 143.995C78.9119 143.884 78.7272 143.887 78.6117 144.003C78.4962 144.119 78.4936 144.304 78.6059 144.415C78.7182 144.527 78.9029 144.524 79.0183 144.408Z" fill="#1D1E26"/>
<path d="M79.6581 145.695C79.7736 145.579 79.7762 145.394 79.6639 145.282C79.5516 145.171 79.3669 145.174 79.2515 145.29C79.136 145.406 79.1334 145.591 79.2456 145.702C79.3579 145.814 79.5426 145.811 79.6581 145.695Z" fill="#1D1E26"/>
<path d="M80.6583 146.998C80.7738 146.882 80.7764 146.697 80.6641 146.585C80.5518 146.473 80.3671 146.477 80.2516 146.593C80.1361 146.709 80.1335 146.893 80.2458 147.005C80.3581 147.117 80.5428 147.114 80.6583 146.998Z" fill="#1D1E26"/>
<path d="M78.8918 144.218C78.8918 144.218 80.0705 144.3 80.1891 144.033" stroke="#1D1E26" stroke-width="0.404134" stroke-linecap="round" stroke-linejoin="round"/>
<path d="M79.4495 145.506C79.4495 145.506 80.7804 145.467 80.7844 145.137" stroke="#1D1E26" stroke-width="0.404134" stroke-linecap="round" stroke-linejoin="round"/>
<path d="M80.449 146.811C80.449 146.811 81.5348 146.861 81.5415 146.365" stroke="#1D1E26" stroke-width="0.404134" stroke-linecap="round" stroke-linejoin="round"/>
<g clip-path="url(#clip2_950_19273)">
<path d="M226.231 139.732C229.922 136.877 227.92 134.375 227.02 134.182C228.671 133.124 232.919 130.096 232.379 126.551C232.332 126.2 232.225 125.861 232.062 125.547C233.338 125.036 234.689 124.982 236.001 125.702C240.781 128.324 235.153 133.95 233.766 135.261C235.925 135.183 238.035 138.248 234.691 140.503C231.377 142.738 218.602 142.343 218.599 142.343C221.915 141.88 224.004 141.453 226.231 139.732Z" fill="#F5B7AB"/>
<path d="M209.869 142.152C209.869 142.152 221.504 142.618 225.366 139.762C229.529 136.681 227.37 134.366 225.906 134.212C227.37 133.518 232.303 130.127 231.764 126.581C231.224 123.035 227.061 125.274 227.061 125.274C227.061 125.274 240.052 111.942 231.144 107.695C227.911 106.154 224.591 111.008 224.823 117.793C224.129 116.098 221.663 114.633 220.43 116.098C219.196 117.563 220.506 121.262 220.506 121.262C220.506 121.262 217.732 118.025 215.185 120.337C212.638 122.65 215.416 129.125 215.956 130.281C214.649 128.662 211.789 126.925 210.635 129.125C208.944 132.362 211.796 138.606 209.869 142.152Z" fill="white" stroke="#F5B7AB" stroke-width="0.269422" stroke-linecap="round" stroke-linejoin="round"/>
<path d="M209.869 142.152C209.869 142.152 228.908 130.127 231.144 107.695" stroke="#F5B7AB" stroke-width="0.269422" stroke-linecap="round" stroke-linejoin="round"/>
<path d="M224.77 126.377C224.77 126.377 225.131 120.722 220.506 116.098" stroke="#F5B7AB" stroke-width="0.269422" stroke-linecap="round" stroke-linejoin="round"/>
<path d="M220.968 131.744C220.968 131.744 223.975 128.43 231.76 127.428" stroke="#F5B7AB" stroke-width="0.269422" stroke-linecap="round" stroke-linejoin="round"/>
<path d="M219.273 133.748C219.273 133.748 223.282 124.421 215.188 120.336" stroke="#F5B7AB" stroke-width="0.269422" stroke-linecap="round" stroke-linejoin="round"/>
<path d="M215.704 137.454C215.704 137.454 219.783 135.356 227.737 136.749" stroke="#F5B7AB" stroke-width="0.269422" stroke-linecap="round" stroke-linejoin="round"/>
<path d="M214.731 138.343C214.731 138.343 215.722 132.214 211.37 128.318" stroke="#F5B7AB" stroke-width="0.269422" stroke-linecap="round" stroke-linejoin="round"/>
<path d="M210.699 142.258C210.699 142.258 215.909 130.821 219.602 127.451C223.867 123.557 221.456 119.107 218.674 121.239C215.892 123.371 210.979 133.663 210.979 133.663C210.979 133.663 216.237 119.356 216.82 114.008C217.381 108.909 215.597 106.377 213.297 106.683C210.516 107.056 208.198 117.438 208.291 129.12C208.104 124.299 207.997 113.355 202.821 112.06C200.595 111.5 199.112 113.637 202.541 122.538C206.03 131.593 205.534 131.22 205.534 131.22C205.534 131.22 204.027 125.795 201.057 123.751C198.369 121.897 196.978 126.347 199.759 130.148C203.604 135.395 205.226 142.258 205.226 142.258H210.699Z" fill="#88CC00"/>
<path d="M215.17 106.101C215.071 105.985 214.949 105.89 214.812 105.822C214.676 105.754 214.527 105.715 214.374 105.705C214.086 105.678 213.795 105.716 213.524 105.817C213.524 105.817 212.107 104.346 212.684 103.872C213.261 103.398 213.821 104.694 213.821 104.694C213.821 104.694 213.421 102.016 214.608 102.246C215.794 102.477 215.189 104.33 214.869 104.666C215.252 104.262 216.145 103.051 216.747 103.764C217.289 104.405 215.17 106.101 215.17 106.101Z" fill="#1D1E26"/>
<path d="M199.4 122.376C199.4 122.376 199.144 122.347 198.721 122.535C198.492 122.639 198.302 122.814 198.181 123.034C198.181 123.034 196.611 122.76 196.637 122.098C196.663 121.436 197.83 122.098 197.83 122.098C197.83 122.098 196.17 120.577 196.931 119.747C197.865 118.733 198.585 120.896 198.558 121.557C198.601 121.051 199.068 120.417 199.575 120.45C199.976 120.476 200.235 121.946 199.4 122.376Z" fill="#1D1E26"/>
<path d="M202.407 111.007C202.407 111.007 201.736 110.736 201.007 111.337C200.248 110.902 199.407 110.511 199.607 110.09C199.806 109.669 200.592 109.772 200.894 110.137C200.455 109.32 200.307 108.457 200.922 108.228C201.537 107.999 202.277 109.186 201.842 109.945C202.163 109.562 202.691 109.174 203.068 109.291C203.445 109.409 203.666 110.019 202.407 111.007Z" fill="#1D1E26"/>
<path d="M220.77 119.892C220.77 119.892 221.493 119.847 221.994 120.648C222.852 120.477 223.773 120.368 223.72 119.911C223.667 119.453 222.886 119.297 222.485 119.548C223.159 118.911 223.575 118.135 223.061 117.727C222.548 117.319 221.474 118.207 221.646 119.065C221.459 118.598 221.086 118.065 220.691 118.054C220.296 118.043 219.89 118.555 220.77 119.892Z" fill="#1D1E26"/>
</g>
<g clip-path="url(#clip3_950_19273)">
<path d="M27.093 141.67H45.1327C45.1327 141.67 47.5113 129.778 52.0705 125.812C50.2866 127.001 46.1241 131.164 44.5381 134.138C47.5113 127.596 49.2952 122.838 51.2779 120.657L50.4854 117.485C50.4854 117.485 43.3488 129.777 41.9608 135.724C44.1414 128.587 47.3134 119.269 49.292 116.693H48.4994L44.9307 122.243L47.7068 115.702V110.746C47.7068 110.746 40.3715 126.803 39.9748 134.336C39.7769 133.147 40.1736 120.856 45.5262 111.737C44.736 112.728 39.9781 117.882 36.4118 133.939C36.6098 130.966 35.6192 122.441 44.7377 109.754C44.414 109.603 44.0819 109.471 43.7431 109.358C43.7431 109.358 37.2028 116.894 35.0221 123.632C36.4118 119.664 41.3661 105.988 41.3661 105.988C41.3661 105.988 40.3748 105.592 40.3748 105.79C40.3748 105.988 36.2122 114.71 32.4456 125.415C33.0403 122.441 38.3921 106.186 38.3921 106.186H37.2028C37.2028 106.384 29.8715 120.063 30.6617 134.138C30.265 131.561 29.0757 117.288 35.4188 106.583C34.6263 106.781 32.6436 107.178 32.6436 107.178C32.6436 107.178 28.0819 115.9 28.4811 131.363C27.6876 129.578 25.7058 125.019 28.4811 116.293C27.8856 117.086 27.0963 119.465 27.0963 119.465C27.0963 119.465 26.8983 113.914 27.6909 112.134L24.7177 115.305C24.7177 115.305 24.123 124.622 26.8983 132.75C26.3037 132.353 22.9329 123.036 22.9329 117.288L22.3383 118.477C22.3383 118.477 22.9329 127.794 25.907 133.547C25.1136 132.753 22.1403 127.203 21.9424 122.445V127.401L20.5576 121.454C20.5576 121.454 20.1609 124.976 20.1609 125.419C20.1544 126.01 21.5424 133.147 27.093 141.67Z" fill="#88CC00"/>
<path d="M21.9171 116.975C21.9171 116.975 16.3495 109.4 7.87049 113.036C6.67143 113.549 6.50036 116.457 13.1808 119.715C11.9817 119.715 10.7826 119.715 9.75462 119.372C10.7826 121.083 13.3518 126.738 13.6948 129.479C14.3798 129.821 15.5789 130.849 18.3199 130.678C16.6093 131.192 15.9218 131.534 13.8658 131.877C14.5509 133.076 19.1883 142.212 27.5695 141.641C35.1085 141.131 35.1085 130.51 35.1085 130.51C35.1085 130.51 34.7664 132.395 32.3682 133.594C33.0533 132.223 37.5066 115.95 18.8356 112.008C19.519 112.696 21.4031 114.923 21.9171 116.975Z" fill="#F8CBC2"/>
<path d="M11.8114 114.924C11.8114 114.924 28.7694 120.233 27.5703 141.642" stroke="white" stroke-width="0.269422" stroke-linecap="round" stroke-linejoin="round"/>
<path d="M27.9939 141.711C27.9939 141.711 23.6506 125.067 5.15141 128.346C6.05723 128.764 7.32634 129.23 8.54089 130.653C7.56339 129.942 4.99583 129.031 2.59444 129.776C1.99735 130.362 -3.46198 135.177 3.89125 141.57C4.21709 140.8 4.82476 139.032 4.82476 139.032L5.97332 142.591C5.97332 142.591 10.2906 142.951 13.5359 141.39C13.6793 140.651 13.6556 139.89 13.4667 139.161L15.451 140.908C15.451 140.908 22.2014 138.562 27.9939 141.711Z" fill="white" stroke="#88CC00" stroke-width="0.702547" stroke-linecap="round" stroke-linejoin="round"/>
<path d="M27.9939 141.711C27.9939 141.711 20.7718 131.638 8.62479 136.066" stroke="#88CC00" stroke-width="0.269422" stroke-linecap="round" stroke-linejoin="round"/>
</g>
</g>
<defs>
<clipPath id="clip0_950_19273">
<rect width="237.9" height="152.004" fill="white"/>
</clipPath>
<clipPath id="clip1_950_19273">
<rect width="79.0755" height="48.2267" fill="white" transform="translate(81.7697 51.2598)"/>
</clipPath>
<clipPath id="clip2_950_19273">
<rect width="41.3563" height="40.1428" fill="white" transform="translate(196.544 102.232)"/>
</clipPath>
<clipPath id="clip3_950_19273">
<rect width="52.1332" height="36.982" fill="white" transform="translate(0 105.734)"/>
</clipPath>
</defs>
</svg>
