<svg width="237" height="200" viewBox="0 0 237 200" fill="none" xmlns="http://www.w3.org/2000/svg">
<path d="M34.4719 150.717C34.4719 150.717 35.9987 146.114 40.3844 147.226C41.2576 145.69 41.2426 134.732 36.8918 139.121C36.0087 135.181 32.9302 129.052 30.5202 131.905C28.1103 134.757 31.8524 142.199 31.8524 142.199C31.8524 142.199 27.2172 136.274 25.2464 138.882C23.2755 141.491 34.4719 150.717 34.4719 150.717Z" fill="#008ACE"/>
<path d="M12.3592 164.559C12.3592 164.559 13.0078 158.205 17.6031 155.342C17.154 154.474 11.6656 141.337 9.70476 149.446C8.17299 148.574 3.34318 144.419 0.93326 147.267C-1.53154 150.195 2.69953 155.152 5.33398 156.025C3.57768 155.811 -0.364003 157.786 3.14859 160.409C6.66118 163.032 12.3592 164.559 12.3592 164.559Z" fill="#008ACE"/>
<path d="M28.1757 186.218C27.3632 188.234 27.1383 190.439 27.527 192.577C25.3367 192.577 16.5502 192.577 17.0042 190.183C17.4583 187.789 21.385 187.984 21.385 187.984C21.385 187.984 12.1794 188.218 12.833 185.151C13.4867 182.083 21.38 184.697 21.38 184.697C21.38 184.697 16.5502 181.64 18.521 180.103C20.4919 178.567 26.6339 184.268 28.1757 186.218Z" fill="#008ACE"/>
<path d="M31.2487 187.969C33.4391 185.031 41.2277 186.542 48.8017 188.916C34.7114 182.896 16.435 173.694 15.6566 166.742C14.544 156.886 23.9641 154.896 30.5502 161.46C33.5439 164.452 40.9832 171.714 48.178 178.737C40.5342 170.148 33.6636 160.133 36.0187 153.799C39.5113 144.373 48.0732 153.799 51.3713 162.537C54.6693 171.275 59.08 185.525 65.0175 195.156C65.0175 195.156 64.9876 195.156 64.9227 195.156C64.1593 195.116 58.5212 194.891 48.3626 196.941C37.4008 199.131 27.312 193.245 31.2487 187.969Z" fill="#9BDEFF"/>
<mask id="mask0_1635_17132" style="mask-type:alpha" maskUnits="userSpaceOnUse" x="15" y="149" width="51" height="49">
<path d="M31.2487 187.969C33.4391 185.031 41.2277 186.542 48.8017 188.916C34.7114 182.896 16.435 173.694 15.6566 166.742C14.544 156.886 23.9641 154.896 30.5502 161.46C33.5439 164.452 40.9832 171.714 48.178 178.737C40.5342 170.148 33.6636 160.133 36.0187 153.799C39.5113 144.373 48.0732 153.799 51.3713 162.537C54.6693 171.275 59.08 185.525 65.0175 195.156C65.0175 195.156 64.9876 195.156 64.9227 195.156C64.1593 195.116 58.5212 194.891 48.3626 196.941C37.4008 199.131 27.312 193.245 31.2487 187.969Z" fill="#9BDEFF"/>
</mask>
<g mask="url(#mask0_1635_17132)">
<path d="M51.3114 116.316L32.7705 227.334" stroke="white" stroke-linecap="round" stroke-linejoin="round"/>
<path d="M16.25 122.621L36.4524 239.883" stroke="white" stroke-linecap="round" stroke-linejoin="round"/>
<path d="M16.25 122.621C16.709 124.187 56.8244 220.282 56.8244 220.282" stroke="white" stroke-linecap="round" stroke-linejoin="round"/>
<path d="M66.9839 131.023L41.6523 234.38" stroke="white" stroke-linecap="round" stroke-linejoin="round"/>
<path d="M1.14258 167.923L74.3432 156.117L35.071 235.18" stroke="white" stroke-linecap="round" stroke-linejoin="round"/>
<path d="M77.5562 176.746L-10.3633 213.868" stroke="white" stroke-linecap="round" stroke-linejoin="round"/>
</g>
<path d="M188.917 146.278H63.7759C62.7167 146.277 61.692 145.901 60.8831 145.217C60.0741 144.534 59.533 143.586 59.3553 142.542L50.9879 63.3254C50.8658 62.609 50.9017 61.8744 51.0933 61.1733C51.2849 60.4722 51.6275 59.8214 52.0971 59.2665C52.5667 58.7115 53.1519 58.2659 53.8118 57.9608C54.4717 57.6557 55.1904 57.4984 55.9175 57.5H196.775C197.502 57.4984 198.221 57.6557 198.881 57.9608C199.541 58.2659 200.126 58.7115 200.596 59.2665C201.065 59.8214 201.408 60.4722 201.6 61.1733C201.791 61.8744 201.827 62.609 201.705 63.3254L193.338 142.542C193.16 143.586 192.619 144.534 191.81 145.217C191.001 145.901 189.976 146.277 188.917 146.278Z" fill="#9BDEFF"/>
<mask id="mask1_1635_17132" style="mask-type:alpha" maskUnits="userSpaceOnUse" x="50" y="57" width="152" height="90">
<path d="M188.917 146.278H63.7759C62.7167 146.277 61.692 145.901 60.8831 145.217C60.0741 144.534 59.533 143.586 59.3553 142.542L50.9879 63.3254C50.8658 62.609 50.9017 61.8744 51.0933 61.1733C51.2849 60.4722 51.6275 59.8214 52.0971 59.2665C52.5667 58.7115 53.1519 58.2659 53.8118 57.9608C54.4717 57.6557 55.1904 57.4984 55.9175 57.5H196.775C197.502 57.4984 198.221 57.6557 198.881 57.9608C199.541 58.2659 200.126 58.7115 200.596 59.2665C201.065 59.8214 201.408 60.4722 201.6 61.1733C201.791 61.8744 201.827 62.609 201.705 63.3254L193.338 142.542C193.16 143.586 192.619 144.534 191.81 145.217C191.001 145.901 189.976 146.277 188.917 146.278Z" fill="#9BDEFF"/>
</mask>
<g mask="url(#mask1_1635_17132)">
<path d="M54.3105 116.207L115.661 177.055" stroke="white" stroke-linecap="round" stroke-linejoin="round"/>
<path d="M57.7734 30.918L134.462 189.023" stroke="white" stroke-linecap="round" stroke-linejoin="round"/>
<path d="M41.9414 139.148L141.387 4.48438" stroke="white" stroke-linecap="round" stroke-linejoin="round"/>
<path d="M208.18 69.3242L115.66 189.025" stroke="white" stroke-linecap="round" stroke-linejoin="round"/>
<path d="M201.255 48.875L41.9414 159.598" stroke="white" stroke-linecap="round" stroke-linejoin="round"/>
<path d="M81.0234 10.4707L236.88 155.109" stroke="white" stroke-linecap="round" stroke-linejoin="round"/>
<path d="M173.549 189.024L60.7422 -0.00390625" stroke="white" stroke-linecap="round" stroke-linejoin="round"/>
<path d="M121.598 -2.99609L208.18 96.7545" stroke="white" stroke-linecap="round" stroke-linejoin="round"/>
<path d="M51.3418 87.2773L240.343 172.065" stroke="white" stroke-linecap="round" stroke-linejoin="round"/>
<path d="M161.674 7.47656L91.417 221.94" stroke="white" stroke-linecap="round" stroke-linejoin="round"/>
</g>
<path d="M159.054 6.9337C159.054 6.9337 158.351 6.86388 157.059 6.78906" stroke="#1D1E26" stroke-linecap="round" stroke-linejoin="round"/>
<path d="M155.207 108.296L157.203 108.211" stroke="#1D1E26" stroke-linecap="round" stroke-linejoin="round"/>
<path d="M205.008 88.9219H120.686C118.944 88.922 117.253 89.5007 115.876 90.567C114.5 91.6333 113.517 93.1266 113.082 94.8121L110.088 106.378H48.558C47.9075 106.38 47.2652 106.524 46.6755 106.798C46.0859 107.073 45.563 107.473 45.1431 107.969C44.7231 108.466 44.4161 109.048 44.2433 109.675C44.0705 110.302 44.0361 110.959 44.1423 111.6L57.6139 191.401C57.7915 192.444 58.3319 193.39 59.1398 194.074C59.9477 194.757 60.9712 195.134 62.0296 195.136H187.161C188.219 195.134 189.242 194.757 190.05 194.074C190.858 193.39 191.399 192.444 191.576 191.401L205.916 106.358L208.546 93.2161C208.647 92.6943 208.632 92.1565 208.501 91.6413C208.37 91.126 208.127 90.646 207.789 90.2356C207.451 89.8253 207.026 89.4947 206.546 89.2676C206.065 89.0404 205.54 88.9224 205.008 88.9219V88.9219Z" fill="white" stroke="#1D1E26" stroke-linecap="round" stroke-linejoin="round"/>
<path d="M71.6787 198.148H127.561" stroke="#1D1E26" stroke-linecap="round" stroke-linejoin="round"/>
<path d="M210.999 193.746C219.117 187.466 214.717 181.97 212.736 181.541C216.368 179.217 225.708 172.564 224.521 164.763C224.42 163.994 224.185 163.248 223.827 162.559C226.631 161.432 229.605 161.317 232.494 162.898C243.002 168.663 230.628 181.033 227.574 183.915C232.324 183.746 236.965 190.484 229.61 195.441C222.256 200.399 194.22 199.486 194.215 199.486C201.509 198.444 206.105 197.506 210.999 193.746Z" fill="#9BDEFF"/>
<path d="M174.517 198.54C174.517 198.54 200.108 199.572 208.595 193.288C217.75 186.51 213.005 181.422 209.782 181.083C213.005 179.557 223.858 172.106 222.67 164.305C221.483 156.505 212.327 161.422 212.327 161.422C212.327 161.422 240.907 132.111 221.308 122.784C214.188 119.392 206.893 130.071 207.402 144.983C205.875 141.258 200.452 138.036 197.738 141.258C195.023 144.48 197.907 152.609 197.907 152.609C197.907 152.609 191.805 145.492 186.212 150.579C180.619 155.667 186.711 169.901 187.903 172.44C185.024 168.884 178.743 165.063 176.208 169.901C172.481 177.018 178.753 190.754 174.517 198.54Z" fill="white" stroke="#008ACE" stroke-linecap="round" stroke-linejoin="round"/>
<path d="M174.517 198.539C174.517 198.539 216.393 172.105 221.313 122.783" stroke="#008ACE" stroke-linecap="round" stroke-linejoin="round"/>
<path d="M207.292 163.861C207.292 163.861 208.086 151.427 197.912 141.258" stroke="#008ACE" stroke-linecap="round" stroke-linejoin="round"/>
<path d="M198.93 175.66C198.93 175.66 205.546 168.373 222.67 166.184" stroke="#008ACE" stroke-linecap="round" stroke-linejoin="round"/>
<path d="M195.204 180.064C195.204 180.064 204.02 159.561 186.223 150.578" stroke="#008ACE" stroke-linecap="round" stroke-linejoin="round"/>
<path d="M187.35 188.21C187.35 188.21 196.331 183.596 213.819 186.664" stroke="#008ACE" stroke-linecap="round" stroke-linejoin="round"/>
<path d="M185.214 190.165C185.214 190.165 187.389 176.699 177.814 168.125" stroke="#008ACE" stroke-linecap="round" stroke-linejoin="round"/>
<path d="M32.3516 93.3555L40.7987 102.333" stroke="#1D1E26" stroke-linecap="round" stroke-linejoin="round"/>
<path d="M30.0723 102.832L37.6313 106.573" stroke="#1D1E26" stroke-linecap="round" stroke-linejoin="round"/>
<path d="M208.564 81.2222L212.057 73.2422" stroke="#1D1E26" stroke-linecap="round" stroke-linejoin="round"/>
<path d="M212.058 83.7153L222.037 73.7402" stroke="#1D1E26" stroke-linecap="round" stroke-linejoin="round"/>
<path d="M214.553 87.7054L222.037 84.7129" stroke="#1D1E26" stroke-linecap="round" stroke-linejoin="round"/>
</svg>
