<svg xmlns="http://www.w3.org/2000/svg" xmlns:xlink="http://www.w3.org/1999/xlink" viewBox="0 0 1765.37 1344.45"><defs><style>.cls-1,.cls-4{fill:#9bdeff;}.cls-1,.cls-10,.cls-16,.cls-17,.cls-22,.cls-3,.cls-7,.cls-8{stroke:#1d1e26;}.cls-1,.cls-10,.cls-12,.cls-13,.cls-15,.cls-16,.cls-17,.cls-22,.cls-3,.cls-6,.cls-7,.cls-8{stroke-linecap:round;}.cls-1,.cls-12,.cls-13,.cls-15,.cls-16,.cls-17,.cls-22,.cls-6,.cls-7,.cls-8{stroke-linejoin:round;}.cls-1,.cls-10,.cls-12,.cls-13,.cls-17,.cls-3,.cls-6,.cls-7,.cls-8{stroke-width:2px;}.cls-13,.cls-15,.cls-16,.cls-2,.cls-22,.cls-3,.cls-6,.cls-7{fill:none;}.cls-10,.cls-3{stroke-miterlimit:10;}.cls-5{clip-path:url(#clip-path);}.cls-15,.cls-6{stroke:#fff;}.cls-10,.cls-12,.cls-14,.cls-8{fill:#fff;}.cls-9{fill:#1d1e26;}.cls-11{fill:#008ace;}.cls-12,.cls-13{stroke:#008ace;}.cls-17{fill:#cc7e62;}.cls-18{clip-path:url(#clip-path-2);}.cls-19{fill:#86dfff;}.cls-20{clip-path:url(#clip-path-3);}.cls-21{clip-path:url(#clip-path-4);}.cls-22{stroke-width:3px;}.cls-23{fill:#f3f4f8;}.cls-24{clip-path:url(#clip-path-5);}.cls-25{clip-path:url(#clip-path-6);}</style><clipPath id="clip-path"><rect class="cls-1" x="372.15" y="269.68" width="1232.58" height="767.68" rx="28.28"/></clipPath><clipPath id="clip-path-2"><path class="cls-2" d="M426.84,882.29c3.6-1.77,17.43-8.06,28.4,10s14.28,27.44,22,42.23c-1.67,1.67-33,21.12-33,21.12S401,895,426.84,882.29Z"/></clipPath><clipPath id="clip-path-3"><path class="cls-2" d="M391.59,870.26s-29.54-3.53-44.4,24.53c-9.13,17.23-8.34,183.57-8.34,183.57s95.65,1.75,107.34-2c1.69-11.67,9.05-117.11,9.05-158.65,0-14,7.09-37.92-34.31-44.15C420.48,880.24,400.31,885.88,391.59,870.26Z"/></clipPath><clipPath id="clip-path-4"><path class="cls-2" d="M350.74,891.61c2.17-6.93,16.45-18,29.79-6.64s12.36,54.44,17.28,80.28c-2.22.84-48.94,2.83-48.94,2.83S345,910,350.74,891.61Z"/></clipPath><clipPath id="clip-path-5"><path class="cls-2" d="M834.51,724.94v45.64a8.86,8.86,0,0,1-8.86,8.86h-6.14v-80.5a29.5,29.5,0,0,0-29.5-29.5h0a29.5,29.5,0,0,0-29.5,29.5v147.5h-8.62a7.38,7.38,0,0,1-7.38-7.39V787.44a11,11,0,0,0-11-11h0a11,11,0,0,0-11,11v65a16,16,0,0,0,16,16h22v50h59v-110h15a29,29,0,0,0,29-29h0v-54.5a14.5,14.5,0,0,0-14.5-14.5h0A14.5,14.5,0,0,0,834.51,724.94Z"/></clipPath><clipPath id="clip-path-6"><path class="cls-2" d="M1128.31,851.43v3.12a5.46,5.46,0,0,1-5.46,5.46h-5.59V762.48a16,16,0,0,0-16-16h0a16,16,0,0,0-16,16v59.95h-7.46a2.9,2.9,0,0,1-2.9-2.9V785.65a5.66,5.66,0,0,0-5.67-5.66h0a5.65,5.65,0,0,0-5.66,5.66v36.78h0a11.33,11.33,0,0,0,11.33,11.33h10.36v84.68h32.06V875.21h11a15.21,15.21,0,0,0,15.2-15.2h0v-8.58a7.6,7.6,0,0,0-7.6-7.6h0A7.6,7.6,0,0,0,1128.31,851.43Z"/></clipPath></defs><g id="Layer_2" data-name="Layer 2"><g id="L_Empty_Monochrome"><rect class="cls-3" x="372.15" y="269.68" width="1232.58" height="767.68" rx="28.28"/><rect class="cls-4" x="372.15" y="269.68" width="1232.58" height="767.68" rx="28.28"/><g class="cls-5"><line class="cls-6" x1="370.59" y1="782.21" x2="791.48" y2="1052.64"/><line class="cls-6" x1="370.59" y1="330.82" x2="791.48" y2="1052.64"/><line class="cls-6" x1="371.53" y1="888.43" x2="819.95" y2="273.89"/><line class="cls-6" x1="1326.24" y1="273.89" x2="655.25" y2="1052.64"/><line class="cls-6" x1="1627.17" y1="381.65" x2="730.87" y2="1053.06"/><line class="cls-6" x1="1277.44" y1="273.89" x2="371.53" y2="976.94"/><line class="cls-6" x1="472.26" y1="273.89" x2="1511.27" y2="1052.64"/><line class="cls-6" x1="958.21" y1="1052.64" x2="407.19" y2="275.92"/><line class="cls-6" x1="710.1" y1="273.14" x2="1238.81" y2="1054.67"/><line class="cls-6" x1="899.25" y1="273.89" x2="614.59" y2="1052.64"/><line class="cls-6" x1="370.59" y1="483.32" x2="683.72" y2="273.89"/><line class="cls-6" x1="1627.17" y1="745.61" x2="1541.77" y2="1052.64"/><polyline class="cls-6" points="1480.77 275.92 1460.44 1052.64 370.59 621.58"/><line class="cls-6" x1="970.41" y1="273.89" x2="1627.17" y2="603.28"/><line class="cls-6" x1="1556" y1="273.89" x2="1013.11" y2="1052.64"/><line class="cls-6" x1="1149.34" y1="273.89" x2="1326.24" y2="1054.67"/><line class="cls-6" x1="948.05" y1="273.89" x2="1627.17" y2="857.44"/><line class="cls-6" x1="1627.17" y1="674.45" x2="1098.51" y2="1052.64"/><line class="cls-6" x1="370.59" y1="918.44" x2="506.82" y2="1054.67"/><line class="cls-6" x1="1208.17" y1="247.04" x2="1681.55" y2="709.8"/><line class="cls-6" x1="1511.23" y1="247.04" x2="1646.17" y2="535.98"/><line class="cls-6" x1="1660.54" y1="903.34" x2="1128.26" y2="1079.55"/><polyline class="cls-6" points="1646.17 653.52 328.66 568.55 1170.47 221.35"/><line class="cls-6" x1="546.4" y1="1096.45" x2="422.16" y2="203.01"/><line class="cls-6" x1="375.72" y1="549.15" x2="1646.17" y2="903.34"/></g><rect class="cls-7" x="372.15" y="269.68" width="1232.58" height="767.68" rx="28.28"/><path class="cls-8" d="M400.43,268.68h1176A28.28,28.28,0,0,1,1604.73,297v14.44a0,0,0,0,1,0,0H372.15a0,0,0,0,1,0,0V297A28.28,28.28,0,0,1,400.43,268.68Z"/><circle class="cls-9" cx="397.94" cy="290.99" r="6.68"/><circle class="cls-9" cx="422.16" cy="290.99" r="6.68"/><circle class="cls-9" cx="446.39" cy="290.99" r="6.68"/><rect class="cls-10" x="278.65" y="387.8" width="1232.58" height="767.68" rx="28.28"/><path class="cls-11" d="M305.92,386.8H1484a28.28,28.28,0,0,1,28.28,28.28v14.44a0,0,0,0,1,0,0H277.64a0,0,0,0,1,0,0V415.08A28.28,28.28,0,0,1,305.92,386.8Z"/><path class="cls-4" d="M1678.33,1254.62c27.55-21.31,12.61-40,5.89-41.43,12.32-7.89,44-30.49,40-57a22.93,22.93,0,0,0-2.37-7.49c9.52-3.82,19.61-4.22,29.41,1.16,35.68,19.56-6.33,61.57-16.69,71.35,16.11-.58,31.87,22.29,6.91,39.13-24.74,16.68-120.11,13.73-120.13,13.73C1646.12,1270.66,1661.71,1267.47,1678.33,1254.62Z"/><path class="cls-12" d="M1556.2,1272.68s86.85,3.49,115.66-17.84c31.07-23,15-40.28,4-41.43,10.94-5.18,47.76-30.5,43.73-57s-35.1-9.79-35.1-9.79,97-99.52,30.5-131.19c-24.17-11.5-48.91,24.75-47.18,75.38-5.18-12.66-23.59-23.59-32.8-12.66s.58,38.55.58,38.55-20.72-24.16-39.71-6.9,1.73,65.59,5.76,74.23c-9.78-12.09-31.11-25-39.71-8.64C1549.3,1199.6,1570.59,1246.21,1556.2,1272.68Z"/><path class="cls-13" d="M1556.2,1272.68s142.12-89.77,158.81-257.21"/><path class="cls-13" d="M1667.43,1154.93s2.7-42.21-31.82-76.74"/><path class="cls-13" d="M1639.06,1195s22.44-24.74,80.55-32.22"/><path class="cls-13" d="M1626.4,1210s29.92-69.62-30.5-100.12"/><path class="cls-13" d="M1599.76,1237.61s30.44-15.67,89.82-5.26"/><path class="cls-13" d="M1592.5,1244.25s7.39-45.75-25.1-74.83"/><path class="cls-11" d="M1562.4,1273.47s38.89-85.37,66.44-110.53c31.84-29.06,13.84-62.28-6.92-46.37s-57.44,92.74-57.44,92.74,39.24-106.79,43.6-146.72c4.15-38.06-9.14-57-26.3-54.67-20.76,2.77-38.06,80.28-37.37,167.48-1.39-36-2.19-117.68-40.84-127.34-16.61-4.15-27.68,11.76-2.07,78.2,26,67.6,22.34,64.79,22.34,64.79s-11.25-40.5-33.42-55.79c-20.07-13.84-30.45,19.38-9.68,47.76,28.7,39.22,40.83,90.45,40.83,90.45Z"/><path class="cls-9" d="M1595.77,1003.57a8.5,8.5,0,0,0-5.94-3,14.47,14.47,0,0,0-6.35.83s-10.58-11-6.27-14.52,8.49,6.14,8.49,6.14-3-20,5.88-18.27,4.33,15.55,2,18.06c2.85-3,9.53-12.05,14-6.73C1611.59,990.91,1595.77,1003.57,1595.77,1003.57Z"/><path class="cls-9" d="M1478.06,1125.06a10.79,10.79,0,0,0-5.08,1.19,8.61,8.61,0,0,0-4,3.72s-11.73-2-11.53-7,8.9,0,8.9,0-12.4-11.38-6.71-17.58c7-7.57,12.35,8.57,12.15,13.51.32-3.78,3.81-8.51,7.59-8.27C1482.36,1110.88,1484.28,1121.85,1478.06,1125.06Z"/><path class="cls-9" d="M1500.51,1040.22s-5-2-10.46,2.46c-5.67-3.24-11.94-6.16-10.48-9.3s7.36-2.37,9.61.35c-3.27-6.1-4.39-12.57.21-14.25s10.11,7.14,6.87,12.81c2.39-2.85,6.34-5.75,9.15-4.9S1509.9,1032.83,1500.51,1040.22Z"/><path class="cls-9" d="M1637.57,1106.52s5.4-.34,9.15,5.64c6.4-1.28,13.27-2.07,12.88-5.51s-6.23-4.58-9.22-2.71c5-4.75,8.13-10.54,4.3-13.58s-11.85,3.58-10.57,10c-1.37-3.47-4.19-7.46-7.13-7.55S1631,1096.54,1637.57,1106.52Z"/><circle class="cls-14" cx="304.44" cy="409.11" r="6.68"/><circle class="cls-14" cx="328.66" cy="409.11" r="6.68"/><circle class="cls-14" cx="352.89" cy="409.11" r="6.68"/><line class="cls-7" x1="1608.78" y1="244.72" x2="1621.31" y2="216.08"/><line class="cls-7" x1="1621.31" y1="253.67" x2="1657.12" y2="217.87"/><line class="cls-7" x1="1630.27" y1="268" x2="1657.12" y2="257.25"/><line class="cls-7" x1="243.55" y1="349.44" x2="268.46" y2="375.93"/><line class="cls-7" x1="236.81" y1="377.4" x2="259.11" y2="388.44"/><line class="cls-7" x1="1614.71" y1="388.58" x2="1614.71" y2="869.84"/><path class="cls-9" d="M711.58,326.56c1.22-.44-3.58-42.5,34.7-45.37,7,0,8.12,5.18,22.48,2,2.87-.64,14,20.1-2.87,29.67-5.1,2.55-24.24,23-28.39,38.91s-1.93,27.43,37.63,37,63.36,12.73,73.89,13.05c7,.48,7.46,7.05,6.18,8.64-3.51.32-100.79-1.91-153.11-15.95-4.14-2.55-3.5-8.61-19.45-13.07s-59.33-44-75-95.7c-2.24,5.74-14,36.65-15.63,43.7-2.6,11.57,7.3,52.52,8.61,60.93,4.78,0,8.61,2.93,8.61,8.67h-15s-6.06-39.93-21.69-59.39c1.91-17.86,4.38-44.15-6.7-75.92-4.78-13.71,5.1-67.62,45.61-82,7-1.92,34.14-5.75,60.61,86.12C674.66,274.25,694,332.94,711.58,326.56Z"/><path class="cls-14" d="M721.12,295.17c4.09-5.57,10.21-10.23,19.4-12.27-3.47-6.08-17.9-20.46-21.39-17-3.67,3.67,2,29.25,2,29.25Z"/><path class="cls-9" d="M720.62,297.53l-.48-2.15c-1-4.36-5.58-26.3-1.72-30.16a3.1,3.1,0,0,1,2.77-.79c5.67.76,17.18,12.68,20.2,18l.67,1.18-1.32.29a30.81,30.81,0,0,0-18.82,11.88Zm0-31.14a.9.9,0,0,0-.74.24c-2.12,2.12-.32,15.95,1.81,26.24a32.52,32.52,0,0,1,17.29-10.61c-3.82-5.7-13.72-15.27-18-15.85A2.12,2.12,0,0,0,720.58,266.39Z"/><path class="cls-9" d="M615,378.18c-1.31-8.41-11.21-49.36-8.62-60.92.68-3,3.2-10.3,6-18.14-1.77-4.36-3.37-8.83-4.75-13.39-2.24,5.74-14,36.65-15.63,43.7a23.62,23.62,0,0,0-.43,4.87c12.17,20.54,17,52.56,17,52.56h15C623.62,381.12,619.79,378.18,615,378.18Z"/><path class="cls-9" d="M611.5,181.75a18,18,0,0,1,6.47-.6l0-.07s-61.3-97.46,6.72-160.8c5.47-5.09,24.75-11.74,34,6.44,1.28,4.47,2.56,13.72-5.42,14.68s-8.61,3.82-8,6.06,3.51,8,11.78,5c6.67-2.38,19.6-5,13.22-29.28s-32-25.83-44.46-21c-14.26,5.49-83.81,50.37-26.6,185.63A57.88,57.88,0,0,1,611.5,181.75Z"/><path class="cls-9" d="M740,345.09a40.83,40.83,0,0,0-2.45,6.67c-4,15.46-2.06,26.72,34.09,36.11,26.77,1.53,80,4.56,82.5,4.56a6.11,6.11,0,0,0-5.36-8.36c-17.23-.79-52.86-10.46-81.88-19.07C747.86,359.37,741.84,350.53,740,345.09Z"/><path class="cls-14" d="M763.83,385.43a1,1,0,0,1-.3,0c-30.73-9.63-30.24-22.09-26.87-35.07a1,1,0,1,1,1.94.5c-3.93,15.12-1.06,24.33,25.53,32.66a1,1,0,0,1-.3,1.95Z"/><path class="cls-14" d="M721.28,298.19s-21.34-8.12-25.25-6.09.14,23.22,12.62,34.1S721.28,316,721.28,316Z"/><path class="cls-9" d="M714.9,330.33c-2,0-4.33-1.13-6.91-3.38-10.18-8.88-15.2-24.68-14.31-32.09.23-1.89.86-3.12,1.89-3.65,4.1-2.13,22.43,4.67,26.06,6.05l.65.24V316c0,1.18-.23,11.55-5.32,13.85A5,5,0,0,1,714.9,330.33ZM698,292.74a3.29,3.29,0,0,0-1.47.25c-.29.15-.66.78-.82,2.11-.7,5.83,3.37,21.39,13.64,30.35,2.85,2.49,5.15,3.37,6.82,2.61,3.34-1.5,4.13-9.19,4.15-12V298.89C713.18,296.22,702.3,292.74,698,292.74Z"/><path class="cls-9" d="M708.65,326.2c6.76,5.9,9.9,2.42,11.36-2-16.5-6.2-24-32.1-24-32.1C692.11,294.13,696.17,315.32,708.65,326.2Z"/><path class="cls-14" d="M768.46,282.37a32.42,32.42,0,0,0-9.66,4.49c-2.27,1.42-2.7,6.12,1.71,4.53s5.68-3.25,6.77-.06c.82,2.41,4,.24,4.18-1s-4-2.9,0-4.77C774.11,284.33,771.7,281.56,768.46,282.37Z"/><path class="cls-14" d="M748.67,307.15a1,1,0,0,1-.46-1.89A22.61,22.61,0,0,1,757,303a29.5,29.5,0,0,0,7.65-1.6c5.76-2.11,4.26-9.7,4.19-10a1,1,0,0,1,.55-1.1,1,1,0,0,1,1.2.25s2,2.25,3.46,1.51a1,1,0,0,1,.89,1.79,4,4,0,0,1-3.87-.34c.06,3.49-1.08,8.08-5.73,9.79a31.22,31.22,0,0,1-8.12,1.7,20.9,20.9,0,0,0-8.1,2.08A1.06,1.06,0,0,1,748.67,307.15Z"/><path class="cls-14" d="M733.44,301.26a5.22,5.22,0,0,1-.59,0,1,1,0,1,1,.17-2c.24,0,5.53.39,8.28-4.24a1,1,0,1,1,1.72,1A11,11,0,0,1,733.44,301.26Z"/><path class="cls-14" d="M594.64,322.14a.9.9,0,0,1-.42-.1,1,1,0,0,1-.48-1.33c2.18-4.64,8.63-21.3,11.41-28.65,6.65-17.52,6.1-32,4.47-41a50.81,50.81,0,0,0-5.18-15.55,1,1,0,1,1,1.71-1c.15.24,3.58,6,5.42,16.12,1.69,9.29,2.28,24.15-4.55,42.15-2.79,7.37-9.27,24.1-11.47,28.79A1,1,0,0,1,594.64,322.14Z"/><path class="cls-14" d="M852.56,411.48a1,1,0,0,1-.24,0,1,1,0,0,1-.74-1.2,4,4,0,0,0-.3-3.18,3.59,3.59,0,0,0-2.11-1.32,1,1,0,1,1,.29-2,5.5,5.5,0,0,1,3.48,2.18,5.85,5.85,0,0,1,.59,4.75A1,1,0,0,1,852.56,411.48Z"/><path class="cls-14" d="M848.47,411.39h-.09a1,1,0,0,1-.91-1.09c.22-2.35-.9-2.58-1.44-2.69a1.07,1.07,0,0,1-1-.94,1,1,0,0,1,1.39-1c3,.66,3.16,3.3,3,4.83A1,1,0,0,1,848.47,411.39Z"/><path class="cls-14" d="M850.88,393.43a.91.91,0,0,1-.23,0,1,1,0,0,1-.74-1.2,3.9,3.9,0,0,0-.3-3.16,3.47,3.47,0,0,0-2.13-1.34,1,1,0,1,1,.31-2,5.46,5.46,0,0,1,3.47,2.18,5.76,5.76,0,0,1,.59,4.75A1,1,0,0,1,850.88,393.43Z"/><path class="cls-14" d="M846.8,393.34h-.1a1,1,0,0,1-.9-1.09c.22-2.35-.91-2.58-1.44-2.69-.74-.16-.94-.6-1-.94a1,1,0,0,1,1.38-1c3,.66,3.16,3.3,3,4.83A1,1,0,0,1,846.8,393.34Z"/><path class="cls-14" d="M606.88,400.62h0a1,1,0,0,1-1-1c.16-4.1-2.14-4.64-2.41-4.69a1,1,0,0,1,.31-2c1.5.22,4.29,1.92,4.1,6.74A1,1,0,0,1,606.88,400.62Z"/><path class="cls-14" d="M602.79,400.53h-.14a1,1,0,0,1-.85-1.13,2.17,2.17,0,0,0-1.59-2.65,1.09,1.09,0,0,1-.82-.92,1,1,0,0,1,.88-1.1,1,1,0,0,1,.65.15,4.17,4.17,0,0,1,2.86,4.81A1,1,0,0,1,602.79,400.53Z"/><path class="cls-14" d="M620.91,387.86h0a1,1,0,0,1-1-1c.16-4.11-2.15-4.65-2.41-4.69a1,1,0,0,1-.82-1.15,1,1,0,0,1,1.13-.83c1.5.23,4.29,1.92,4.09,6.75A1,1,0,0,1,620.91,387.86Z"/><path class="cls-14" d="M616.82,387.77h-.15a1,1,0,0,1-.84-1.14,2.16,2.16,0,0,0-1.59-2.64,1.16,1.16,0,0,1-.83-.93,1,1,0,0,1,.9-1.1,1.09,1.09,0,0,1,.64.15,4.17,4.17,0,0,1,2.86,4.81A1,1,0,0,1,616.82,387.77Z"/><path class="cls-8" d="M1398.51,915.68c16.82-24,32.16-50.26,30.47-63.83-3.76-30.05-30.35-84.74-56.71-108.37l4.33,53.44s28.9,44.5,29.77,57.54c.43,6.51-7.12,22.77-17.95,40"/><ellipse class="cls-3" cx="1325.33" cy="941.72" rx="51.27" ry="20.58"/><polygon class="cls-8" points="1305.54 1256.44 1323.16 962.3 1274.05 942.08 1279.4 1256.41 1305.54 1256.44"/><polygon class="cls-8" points="1345.84 1256.61 1327.49 962.3 1376.6 942.08 1371.25 1256.57 1345.84 1256.61"/><rect class="cls-3" x="1274.05" y="752.87" width="102.55" height="188.49"/><path class="cls-7" d="M1345.84,1256.54c0-.48-1,28.54-1,43,0,14.76,23.11,22.44,33.57,9.12,5.78-7.36-5.7-40.12-7.11-52C1371.25,1256.18,1345.84,1256.54,1345.84,1256.54Z"/><path class="cls-7" d="M1305.53,1256.51s8.24,33.66,1.74,35.83c-13.65,4.55-19.49-2.17-29.61-2.17s-.31,6.27-46.73,6.75c-6.91-.49-11.34-10.81,0-16.36s39.08-6,48.46-24.08Z"/><path class="cls-3" d="M1340.11,730.05c.24.7.5,1.42.78,2.15,0,0-5.55,7.72-18.54,6.29-13.86-1.52-11.87-7.6-11.87-7.6.15-.3.3-.59.43-.89-21.29,2.89-36.86,12-36.86,22.87,0,13.16,23,23.83,51.28,23.83s51.27-10.67,51.27-23.83C1376.6,742.1,1361.22,733,1340.11,730.05Z"/><path class="cls-8" d="M1328.42,710.41a31.09,31.09,0,0,1-15.16,2.09c-27.31-5.78-24.54-41.88-23.31-56.21,0,0,1.74-37.7,39.65-33.81,37,3.79,28.26,37.72,28.31,36.63-5.47.66-9.9,6.23-9.9,6.23s10.1-10.76,17.6-2.16c4.23,4.84,2.9,15-1.84,19.3a11.6,11.6,0,0,1-11.91,2.34,1.43,1.43,0,0,0-1.92.91c-3.88,15.49-11.4,21.5-11.4,21.5s-2.29,10.66,3.4,25.42c0,0-5.79,8-19.33,6.53-14.44-1.6-12.35-7.93-12.35-7.93a30.54,30.54,0,0,0,3-18.75"/><path class="cls-3" d="M1358.47,665.71s-6.17.77-7.24,8.08"/><path class="cls-3" d="M1352.78,670.25a7.38,7.38,0,0,1,5.19.58"/><path class="cls-9" d="M1391.12,620.8c11.54.61,25.59-8.43,28.5-25,3.43-19.46-21.18-33.61-40.07-29.46-13.62,3-18.33,16.92-19.9,24.47C1380.45,599.65,1389.93,618.31,1391.12,620.8Z"/><path class="cls-11" d="M1381.5,627.36s19.31-8,29.8,16C1407.32,643.88,1387.7,644.42,1381.5,627.36Z"/><path class="cls-4" d="M1419.8,621.86s-12.88,23.1-38.3,5.5C1383.65,623.14,1397,611,1419.8,621.86Z"/><path class="cls-15" d="M1392.37,573s-18.11,5.91-19.79,20"/><path class="cls-15" d="M1395.77,593.62s-10.82-7.4-16.89,3.32"/><path class="cls-9" d="M1349.62,598.86c-28.71-7.61-47.15,3.23-57.57,15.81-.77.93,2.23,4.79,1.82,4.45-17.74,16.92-4.17,39.44-4.17,39.44,5.11-19.12,12.53-22.73,12.53-22.73v0c5.25,8.71,12.73,18.56,22.88,26.43-1.84-3.72-10.52-16.66-10.35-28.19,4.62,5.63,45.14,37.79,10.14,85.17,3-2.42,21.84-20.6,25.71-56.14.05-.4.07-.79.1-1.19a14.7,14.7,0,0,1,8.31-2.95,9.73,9.73,0,0,1,7.28,3.64c4.43,5.07,3.44,15.65-1.92,20.57a12.49,12.49,0,0,1-12.83,2.52.7.7,0,0,0-.53,0,.38.38,0,0,0-.2.25c-2.37,9.45-6,15.41-8.65,18.71,3.18-.15,25.16-2.15,37.18-27.15C1395.63,643.67,1383.13,607.74,1349.62,598.86Z"/><path class="cls-4" d="M1382.35,626.82l8.9-5.74s-10.47-23.44-35.87-31.84l-5.76,9.62C1365.58,603.09,1376.76,613.46,1382.35,626.82Z"/><path class="cls-9" d="M1295.18,701.1a25.46,25.46,0,0,0,1,15.13c.8-1.64-.69-5.88,2.88-10.25A28,28,0,0,1,1295.18,701.1Z"/><path class="cls-15" d="M1382.66,658.33c2.23-12.82.24-25.13-5.47-35.11"/><path class="cls-16" d="M1351.1,705.78a47.55,47.55,0,0,0,26.06-19.19"/><path class="cls-16" d="M1288.55,620.69c-8.64,10.81-7.33,23-5.13,30.55"/><circle class="cls-9" cx="1320.48" cy="672.39" r="2.44"/><circle class="cls-9" cx="1295.85" cy="673.82" r="2.3"/><path class="cls-3" d="M1307.43,670.36s-3.5,19.44-2.34,22,5.74-.08,5.74-.08"/><path class="cls-9" d="M1299.19,661.65c1.26,3.74-2.46,1.9-7.41,3.78s-9.29,5.82-10,3.82,2.34-9.2,7.29-11.09S1298.5,659.62,1299.19,661.65Z"/><path class="cls-9" d="M1315.8,659.31c.48-5.13,2.67-.87,8-.41s11.39-1,11.2,1.17-6.6,7-11.88,6.57S1315.61,661.45,1315.8,659.31Z"/><line class="cls-7" x1="1314.4" y1="701.39" x2="1324.32" y2="698.9"/><path class="cls-8" d="M1281.13,740.54c-50.44,5.21-49.71-25-43.72-40,8.34-20.9,21.11-33.08,39.19-53.41,4.24-4.76,17.36-12.73,17.23-15.71s-3.3-6.82-13.78,3.6c3.75-5.14,18.08-18.72,18.81-24.73.61-5-4.55-12.74-14.14-4.35-5.65,4.95-40.29,39.34-66.57,86.11-11.49,20.45-11.81,71.95,56,76.3"/><path class="cls-11" d="M1310.83,727.62s13.52,15.42,29.42,0c3.2,0,26.53,3.75,40.7,20.84s33.55,50.64,33.55,50.64l-27.72,19.8-8.53-13.13s2.84,126.28,34,214.63c-101.38,21.67-134.47-18.89-180-2.78,9.45-32.78,37.23-203.9,37.23-220.61,0-13.33-23.34-29.47-43.34-37.8,5.55-13.9,14.22-34.45,14.22-34.45S1265,741,1310.83,727.62Z"/><path class="cls-6" d="M1303.64,731.17s15.72,27.29,47.59,0"/><line class="cls-6" x1="1325.33" y1="743.48" x2="1317.87" y2="796.92"/><circle class="cls-14" cx="1318.18" cy="754.47" r="2.41"/><circle class="cls-14" cx="1316.11" cy="768.37" r="2.41"/><path class="cls-6" d="M1270.09,814.52s40.74,22.09,106.51,5"/><path class="cls-8" d="M1388.42,894.5a262.88,262.88,0,0,1-22,30.27c-4.14,4.85-17.22,12.9-17.06,15.88s3.36,6.79,13.74-3.74c-3.7,5.18-17.89,18.91-18.56,24.93-.56,5,4.68,12.69,14.18,4.2,2.83-2.53,22.14-25.15,39.83-50.36"/><path class="cls-9" d="M1343.44,1252.1s6,31.84,18.93,30.58c7.44-1,10.49-21.88,11-30.85,0,0,.56,12.92,2.45,20.83s18,45.62-10.24,46.15c-26.1,0-24.35-21.72-22.15-44.16A142.21,142.21,0,0,0,1343.44,1252.1Z"/><path class="cls-4" d="M1362.37,1282.68c7.44-1,10.49-21.88,11-30.85l-.88-26.1s-17.18,5.56-29.7,0l.64,26.37S1349.4,1283.94,1362.37,1282.68Z"/><path class="cls-4" d="M1310.77,1268a346.63,346.63,0,0,1-2-42.22c-18.29,4-31.21,0-31.21,0s.49,27.48,0,30.68c-.68,4.47-5.58,8.43-18.08,12.8C1259.47,1269.21,1289.68,1275.67,1310.77,1268Z"/><path class="cls-9" d="M1310.07,1261.87s8.56,33.73-6.11,33.6c-23.69-.21-22.45.41-56.23,4.17-7.62,1-24.93,2.08-24.93-11.47,0-10,15.25-12.5,37.29-19a123.94,123.94,0,0,0,29.18-.28C1296.74,1267.87,1304.24,1267.52,1310.07,1261.87Z"/><path class="cls-17" d="M422.75,898.62c-1.25,13,42.08,92.49,70,108.11,30.52,17.09,126-13.55,133-17,12-6,6.6-14.12,1.44-15.55-6.16-1.7-25.17,6.83-31.7,8.42,14.39-6,11.91-10.67,9.05-12s-15.88,8.35-22.25,10.5C550,992,514.12,987.94,504,983.67c-17.84-7.5-47.6-80.17-50.52-87.61C447.67,881.33,424.83,877.2,422.75,898.62Z"/><path class="cls-11" d="M426.84,882.29c3.6-1.77,17.43-8.06,28.4,10s14.28,27.44,22,42.23c-1.67,1.67-33,21.12-33,21.12S401,895,426.84,882.29Z"/><g class="cls-18"><polygon class="cls-19" points="287.72 855.53 291.87 850.37 294.2 856.56 287.72 855.53"/><polygon class="cls-19" points="321.7 860.95 325.84 855.78 328.17 861.98 321.7 860.95"/><polygon class="cls-19" points="253.75 850.12 257.89 844.95 260.23 851.15 253.75 850.12"/><polygon class="cls-19" points="389.64 871.78 393.79 866.62 396.12 872.81 389.64 871.78"/><polygon class="cls-19" points="423.62 877.2 427.76 872.03 430.09 878.23 423.62 877.2"/><polygon class="cls-19" points="355.67 866.36 359.81 861.2 362.14 867.39 355.67 866.36"/><polygon class="cls-19" points="457.59 882.61 461.73 877.45 464.06 883.64 457.59 882.61"/><polygon class="cls-19" points="491.56 888.03 495.7 882.86 498.04 889.06 491.56 888.03"/><polygon class="cls-19" points="559.51 898.86 563.65 893.69 565.98 899.89 559.51 898.86"/><polygon class="cls-19" points="593.48 904.27 597.62 899.11 599.96 905.3 593.48 904.27"/><polygon class="cls-19" points="525.53 893.44 529.68 888.28 532.01 894.47 525.53 893.44"/><polygon class="cls-19" points="302.32 875.66 306.46 870.5 308.79 876.7 302.32 875.66"/><polygon class="cls-19" points="336.29 881.08 340.43 875.91 342.77 882.11 336.29 881.08"/><polygon class="cls-19" points="268.35 870.25 272.49 865.08 274.82 871.28 268.35 870.25"/><polygon class="cls-19" points="404.24 891.91 408.38 886.75 410.71 892.94 404.24 891.91"/><polygon class="cls-19" points="438.21 897.33 442.35 892.16 444.69 898.36 438.21 897.33"/><polygon class="cls-19" points="370.26 886.49 374.41 881.33 376.74 887.53 370.26 886.49"/><polygon class="cls-19" points="472.18 902.74 476.33 897.58 478.66 903.77 472.18 902.74"/><polygon class="cls-19" points="506.16 908.16 510.3 902.99 512.63 909.19 506.16 908.16"/><polygon class="cls-19" points="574.1 918.99 578.25 913.82 580.58 920.02 574.1 918.99"/><polygon class="cls-19" points="608.08 924.4 612.22 919.24 614.55 925.43 608.08 924.4"/><polygon class="cls-19" points="540.13 913.57 544.27 908.41 546.61 914.6 540.13 913.57"/><polygon class="cls-19" points="282.28 889.68 286.42 884.52 288.75 890.71 282.28 889.68"/><polygon class="cls-19" points="316.25 895.09 320.4 889.93 322.73 896.13 316.25 895.09"/><polygon class="cls-19" points="248.31 884.26 252.45 879.1 254.78 885.29 248.31 884.26"/><polygon class="cls-19" points="384.2 905.93 388.34 900.76 390.67 906.96 384.2 905.93"/><polygon class="cls-19" points="418.17 911.34 422.31 906.18 424.65 912.37 418.17 911.34"/><polygon class="cls-19" points="350.23 900.51 354.37 895.35 356.7 901.54 350.23 900.51"/><polygon class="cls-19" points="452.14 916.76 456.29 911.59 458.62 917.79 452.14 916.76"/><polygon class="cls-19" points="486.12 922.17 490.26 917.01 492.59 923.21 486.12 922.17"/><polygon class="cls-19" points="554.07 933 558.21 927.84 560.54 934.04 554.07 933"/><polygon class="cls-19" points="588.04 938.42 592.18 933.26 594.51 939.45 588.04 938.42"/><polygon class="cls-19" points="520.09 927.59 524.23 922.42 526.57 928.62 520.09 927.59"/><polygon class="cls-19" points="296.88 909.81 301.02 904.65 303.35 910.84 296.88 909.81"/><polygon class="cls-19" points="330.85 915.23 334.99 910.06 337.32 916.26 330.85 915.23"/><polygon class="cls-19" points="262.9 904.39 267.04 899.23 269.38 905.43 262.9 904.39"/><polygon class="cls-19" points="398.79 926.06 402.94 920.89 405.27 927.09 398.79 926.06"/><polygon class="cls-19" points="432.77 931.47 436.91 926.31 439.24 932.5 432.77 931.47"/><polygon class="cls-19" points="364.82 920.64 368.96 915.48 371.3 921.67 364.82 920.64"/><polygon class="cls-19" points="466.74 936.89 470.88 931.72 473.21 937.92 466.74 936.89"/><polygon class="cls-19" points="500.71 942.3 504.86 937.14 507.19 943.34 500.71 942.3"/><polygon class="cls-19" points="568.66 953.13 572.8 947.97 575.13 954.17 568.66 953.13"/><polygon class="cls-19" points="602.63 958.55 606.78 953.39 609.11 959.58 602.63 958.55"/><polygon class="cls-19" points="534.69 947.72 538.83 942.56 541.16 948.75 534.69 947.72"/><polygon class="cls-19" points="276.93 923.25 281.07 918.08 283.4 924.28 276.93 923.25"/><polygon class="cls-19" points="310.9 928.66 315.05 923.5 317.38 929.7 310.9 928.66"/><polygon class="cls-19" points="242.96 917.83 247.1 912.67 249.43 918.86 242.96 917.83"/><polygon class="cls-19" points="378.85 939.49 382.99 934.33 385.32 940.53 378.85 939.49"/><polygon class="cls-19" points="412.82 944.91 416.96 939.75 419.3 945.94 412.82 944.91"/><polygon class="cls-19" points="344.88 934.08 349.02 928.91 351.35 935.11 344.88 934.08"/><polygon class="cls-19" points="446.79 950.33 450.94 945.16 453.27 951.36 446.79 950.33"/><polygon class="cls-19" points="480.77 955.74 484.91 950.58 487.24 956.77 480.77 955.74"/><polygon class="cls-19" points="548.71 966.57 552.86 961.41 555.19 967.6 548.71 966.57"/><polygon class="cls-19" points="582.69 971.99 586.83 966.82 589.16 973.02 582.69 971.99"/><polygon class="cls-19" points="514.74 961.16 518.88 955.99 521.22 962.19 514.74 961.16"/><polygon class="cls-19" points="291.52 943.38 295.67 938.21 298 944.41 291.52 943.38"/><polygon class="cls-19" points="325.5 948.79 329.64 943.63 331.97 949.83 325.5 948.79"/><polygon class="cls-19" points="257.55 937.96 261.69 932.8 264.02 938.99 257.55 937.96"/><polygon class="cls-19" points="393.44 959.62 397.59 954.46 399.92 960.66 393.44 959.62"/><polygon class="cls-19" points="427.42 965.04 431.56 959.88 433.89 966.07 427.42 965.04"/><polygon class="cls-19" points="359.47 954.21 363.61 949.05 365.94 955.24 359.47 954.21"/><polygon class="cls-19" points="461.39 970.46 465.53 965.29 467.86 971.49 461.39 970.46"/><polygon class="cls-19" points="495.36 975.87 499.5 970.71 501.84 976.9 495.36 975.87"/><polygon class="cls-19" points="563.31 986.7 567.45 981.54 569.78 987.73 563.31 986.7"/><polygon class="cls-19" points="597.28 992.12 601.42 986.96 603.76 993.15 597.28 992.12"/><polygon class="cls-19" points="529.34 981.29 533.48 976.12 535.81 982.32 529.34 981.29"/><polygon class="cls-19" points="271.49 957.39 275.63 952.23 277.96 958.43 271.49 957.39"/><polygon class="cls-19" points="305.46 962.81 309.6 957.65 311.93 963.84 305.46 962.81"/><polygon class="cls-19" points="237.51 951.98 241.66 946.82 243.99 953.01 237.51 951.98"/><polygon class="cls-19" points="373.4 973.64 377.55 968.48 379.88 974.67 373.4 973.64"/><polygon class="cls-19" points="407.38 979.06 411.52 973.89 413.85 980.09 407.38 979.06"/><polygon class="cls-19" points="339.43 968.23 343.57 963.06 345.91 969.26 339.43 968.23"/><polygon class="cls-19" points="441.35 984.47 445.49 979.31 447.83 985.5 441.35 984.47"/><polygon class="cls-19" points="475.32 989.89 479.47 984.72 481.8 990.92 475.32 989.89"/><polygon class="cls-19" points="543.27 1000.72 547.41 995.55 549.75 1001.75 543.27 1000.72"/><polygon class="cls-19" points="577.24 1006.13 581.39 1000.97 583.72 1007.17 577.24 1006.13"/><polygon class="cls-19" points="509.3 995.3 513.44 990.14 515.77 996.34 509.3 995.3"/><polygon class="cls-19" points="286.08 977.52 290.22 972.36 292.56 978.56 286.08 977.52"/><polygon class="cls-19" points="320.05 982.94 324.2 977.78 326.53 983.97 320.05 982.94"/><polygon class="cls-19" points="252.11 972.11 256.25 966.95 258.58 973.14 252.11 972.11"/><polygon class="cls-19" points="388 993.77 392.14 988.61 394.48 994.8 388 993.77"/><polygon class="cls-19" points="421.97 999.19 426.12 994.02 428.45 1000.22 421.97 999.19"/><polygon class="cls-19" points="354.03 988.36 358.17 983.19 360.5 989.39 354.03 988.36"/><polygon class="cls-19" points="455.95 1004.6 460.09 999.44 462.42 1005.63 455.95 1004.6"/><polygon class="cls-19" points="489.92 1010.02 494.06 1004.86 496.39 1011.05 489.92 1010.02"/><polygon class="cls-19" points="557.87 1020.85 562.01 1015.69 564.34 1021.88 557.87 1020.85"/><polygon class="cls-19" points="591.84 1026.27 595.98 1021.1 598.31 1027.3 591.84 1026.27"/><polygon class="cls-19" points="523.89 1015.43 528.03 1010.27 530.37 1016.47 523.89 1015.43"/><polygon class="cls-19" points="265.3 996.17 269.45 991.01 271.78 997.2 265.3 996.17"/><polygon class="cls-19" points="299.28 1001.59 303.42 996.42 305.75 1002.62 299.28 1001.59"/><polygon class="cls-19" points="231.33 990.75 235.47 985.59 237.81 991.79 231.33 990.75"/><polygon class="cls-19" points="367.22 1012.42 371.37 1007.25 373.7 1013.45 367.22 1012.42"/><polygon class="cls-19" points="401.2 1017.83 405.34 1012.67 407.67 1018.87 401.2 1017.83"/><polygon class="cls-19" points="333.25 1007 337.39 1001.84 339.73 1008.03 333.25 1007"/><polygon class="cls-19" points="435.17 1023.25 439.31 1018.09 441.64 1024.28 435.17 1023.25"/><polygon class="cls-19" points="469.14 1028.66 473.29 1023.5 475.62 1029.7 469.14 1028.66"/><polygon class="cls-19" points="537.09 1039.49 541.23 1034.33 543.56 1040.53 537.09 1039.49"/><polygon class="cls-19" points="571.06 1044.91 575.21 1039.75 577.54 1045.94 571.06 1044.91"/><polygon class="cls-19" points="503.12 1034.08 507.26 1028.92 509.59 1035.11 503.12 1034.08"/><polygon class="cls-19" points="279.9 1016.3 284.04 1011.14 286.37 1017.33 279.9 1016.3"/><polygon class="cls-19" points="313.87 1021.72 318.01 1016.55 320.35 1022.75 313.87 1021.72"/><polygon class="cls-19" points="245.93 1010.88 250.07 1005.72 252.4 1011.92 245.93 1010.88"/><polygon class="cls-19" points="381.82 1032.55 385.96 1027.38 388.29 1033.58 381.82 1032.55"/><polygon class="cls-19" points="415.79 1037.96 419.93 1032.8 422.27 1039 415.79 1037.96"/><polygon class="cls-19" points="347.85 1027.13 351.99 1021.97 354.32 1028.16 347.85 1027.13"/><polygon class="cls-19" points="449.76 1043.38 453.91 1038.22 456.24 1044.41 449.76 1043.38"/><polygon class="cls-19" points="483.74 1048.8 487.88 1043.63 490.21 1049.83 483.74 1048.8"/><polygon class="cls-19" points="551.68 1059.63 555.83 1054.46 558.16 1060.66 551.68 1059.63"/><polygon class="cls-19" points="585.66 1065.04 589.8 1059.88 592.13 1066.07 585.66 1065.04"/><polygon class="cls-19" points="517.71 1054.21 521.85 1049.05 524.19 1055.24 517.71 1054.21"/><polygon class="cls-19" points="259.86 1030.32 264 1025.15 266.34 1031.35 259.86 1030.32"/><polygon class="cls-19" points="293.83 1035.73 297.98 1030.57 300.31 1036.77 293.83 1035.73"/><polygon class="cls-19" points="225.89 1024.9 230.03 1019.74 232.36 1025.93 225.89 1024.9"/><polygon class="cls-19" points="361.78 1046.56 365.92 1041.4 368.25 1047.6 361.78 1046.56"/><polygon class="cls-19" points="395.75 1051.98 399.9 1046.82 402.23 1053.01 395.75 1051.98"/><polygon class="cls-19" points="327.81 1041.15 331.95 1035.98 334.28 1042.18 327.81 1041.15"/><polygon class="cls-19" points="429.73 1057.39 433.87 1052.23 436.2 1058.43 429.73 1057.39"/><polygon class="cls-19" points="463.7 1062.81 467.84 1057.65 470.17 1063.84 463.7 1062.81"/><polygon class="cls-19" points="531.65 1073.64 535.79 1068.48 538.12 1074.67 531.65 1073.64"/><polygon class="cls-19" points="565.62 1079.06 569.76 1073.89 572.09 1080.09 565.62 1079.06"/><polygon class="cls-19" points="497.67 1068.23 501.81 1063.06 504.15 1069.26 497.67 1068.23"/><polygon class="cls-19" points="274.46 1050.45 278.6 1045.29 280.93 1051.48 274.46 1050.45"/><polygon class="cls-19" points="308.43 1055.86 312.57 1050.7 314.9 1056.9 308.43 1055.86"/><polygon class="cls-19" points="240.48 1045.03 244.63 1039.87 246.96 1046.06 240.48 1045.03"/><polygon class="cls-19" points="376.38 1066.69 380.52 1061.53 382.85 1067.73 376.38 1066.69"/><polygon class="cls-19" points="410.35 1072.11 414.49 1066.95 416.82 1073.14 410.35 1072.11"/><polygon class="cls-19" points="342.4 1061.28 346.55 1056.12 348.88 1062.31 342.4 1061.28"/><polygon class="cls-19" points="444.32 1077.53 448.46 1072.36 450.8 1078.56 444.32 1077.53"/><polygon class="cls-19" points="478.3 1082.94 482.44 1077.78 484.77 1083.97 478.3 1082.94"/><polygon class="cls-19" points="546.24 1093.77 550.38 1088.61 552.72 1094.81 546.24 1093.77"/><polygon class="cls-19" points="580.21 1099.19 584.36 1094.03 586.69 1100.22 580.21 1099.19"/><polygon class="cls-19" points="512.27 1088.36 516.41 1083.19 518.74 1089.39 512.27 1088.36"/><polygon class="cls-19" points="254.51 1063.88 258.65 1058.72 260.99 1064.92 254.51 1063.88"/><polygon class="cls-19" points="288.48 1069.3 292.63 1064.14 294.96 1070.33 288.48 1069.3"/><polygon class="cls-19" points="220.54 1058.47 224.68 1053.31 227.01 1059.5 220.54 1058.47"/><polygon class="cls-19" points="356.43 1080.13 360.57 1074.97 362.9 1081.16 356.43 1080.13"/><polygon class="cls-19" points="390.4 1085.55 394.55 1080.38 396.88 1086.58 390.4 1085.55"/><polygon class="cls-19" points="322.46 1074.72 326.6 1069.55 328.93 1075.75 322.46 1074.72"/><polygon class="cls-19" points="424.38 1090.96 428.52 1085.8 430.85 1091.99 424.38 1090.96"/><polygon class="cls-19" points="458.35 1096.38 462.49 1091.22 464.82 1097.41 458.35 1096.38"/><polygon class="cls-19" points="526.29 1107.21 530.44 1102.05 532.77 1108.24 526.29 1107.21"/><polygon class="cls-19" points="560.27 1112.63 564.41 1107.46 566.74 1113.66 560.27 1112.63"/><polygon class="cls-19" points="492.32 1101.8 496.46 1096.63 498.8 1102.83 492.32 1101.8"/><polygon class="cls-19" points="269.11 1084.02 273.25 1078.85 275.58 1085.05 269.11 1084.02"/><polygon class="cls-19" points="303.08 1089.43 307.22 1084.27 309.55 1090.46 303.08 1089.43"/><polygon class="cls-19" points="235.13 1078.6 239.27 1073.44 241.61 1079.63 235.13 1078.6"/><polygon class="cls-19" points="371.02 1100.26 375.17 1095.1 377.5 1101.3 371.02 1100.26"/><polygon class="cls-19" points="405 1105.68 409.14 1100.52 411.47 1106.71 405 1105.68"/><polygon class="cls-19" points="337.05 1094.85 341.19 1089.68 343.53 1095.88 337.05 1094.85"/><polygon class="cls-19" points="438.97 1111.09 443.11 1105.93 445.44 1112.13 438.97 1111.09"/><polygon class="cls-19" points="472.94 1116.51 477.09 1111.35 479.42 1117.54 472.94 1116.51"/><polygon class="cls-19" points="540.89 1127.34 545.03 1122.18 547.37 1128.37 540.89 1127.34"/><polygon class="cls-19" points="574.86 1132.76 579.01 1127.59 581.34 1133.79 574.86 1132.76"/><polygon class="cls-19" points="506.92 1121.92 511.06 1116.76 513.39 1122.96 506.92 1121.92"/></g><path class="cls-7" d="M570,1276.75s-16.46,28.31-11.13,32.51c11.19,8.83,18.61,5.35,28,8.74s-1.81,6,41.27,22c6.59,1.86,14.18-6.25,5.48-15.24s-32.88-21.5-36.24-38.24C592.66,1284.8,570,1276.75,570,1276.75Z"/><path class="cls-17" d="M340.15,1081.85S463.25,1075.6,552,1093c23.48,4.62,25.84,33.58,28.42,62,2.36,25.94,17.63,131.07,17.22,131.75l-27.66-10s-50.7-112.24-35.66-136c.3-.46-105.46,14.34-151.09,7.45-53.62-8.09-43.06-66.3-43.06-66.3"/><path class="cls-7" d="M626.13,1181.69s6.81,32.33,13.59,32c14.23-.75,17.51-8.26,26.83-11.92s2.56,5.66,45.51-10.71c6.19-3,6.53-14.06-5.93-15.07s-38.9,5.53-52.47-4.83C649,1173,626.13,1181.69,626.13,1181.69Z"/><path class="cls-17" d="M340.15,1081.85s103.84-37,191.57-59c23.21-5.81,37.66,19.41,52.09,44,13.17,22.47,69.93,103.45,69.85,104.24l-27.53,10.56s-93.62-80.22-90.14-108.17c.07-.54-88.31,62-133.58,71-74.31,14.82-62.26-62.68-62.26-62.68"/><rect class="cls-3" x="346.04" y="897.72" width="101.54" height="186.63" transform="matrix(-1, -0.06, 0.06, -1, 730.61, 2005.04)"/><path class="cls-3" d="M352,894.72c.69-10.94,17.32-19.12,39.23-20.4.62,1.27,4.7,8.6,16.44,9.94,13.72,1.57,13.12-4.74,13.12-4.74-.25-1-.42-2-.56-2.92,19.86,4.4,33.77,14.11,33.11,24.5-.82,13-24.16,22.12-52.15,20.36S351.19,907.73,352,894.72Z"/><ellipse class="cls-3" cx="390.65" cy="1084.28" rx="20.38" ry="50.77" transform="translate(-716.02 1406.06) rotate(-86.4)"/><path class="cls-17" d="M408,855.45a31.27,31.27,0,0,0,14.25,5.79c28,1.13,34.26-34.7,36.61-49,0,0,7.64-37.14-30.23-42.74-37-5.48-36.86,29.73-36.64,28.65,5.17,2,8.1,8.52,8.1,8.52s-7.17-13-16.61-6.46c-5.32,3.66-6.52,13.84-3,19.25a11.68,11.68,0,0,0,11,5.23,1.45,1.45,0,0,1,1.65,1.36c-.06,16,5.77,23.76,5.77,23.76s-.41,10.94-9.61,23.91c0,0,3.65,9.26,17.21,11.14,14.46,2,14-4.66,14-4.66a30.66,30.66,0,0,1,1.73-19"/><path class="cls-3" d="M389.77,804.48s5.81,2.28,5.05,9.66"/><path class="cls-3" d="M394.19,810.31a7.48,7.48,0,0,0-5.2-.72"/><path class="cls-9" d="M418.37,732.78s-20.45,2.29-35.6,22.44c-12.89,17.15,5.6,39,48.75,46,54.61,8.93,50.32-37.75,28.72-53.58-14.13-10.35-43.19-15.35-58.17,2.14C404.49,744.85,407.42,738.11,418.37,732.78Z"/><path class="cls-9" d="M380.65,758.64c-6.4,12.85,3.55,27.5,27.25,36.48-2.08,4.39-5.18,12.62-3.79,21.65.31,2-3.32,4.28-4-.51-.54-3.61-.73-7.64-.84-9.14v0a.92.92,0,0,0,1.24.36.91.91,0,0,0,.35-1.24c-.16-.29-4-7.12-9.93-8.52a9.72,9.72,0,0,0-8,1.75c-5.57,3.84-7.23,14.38-3.24,20.5a12.56,12.56,0,0,0,11.87,5.63.66.66,0,0,1,.51.16.38.38,0,0,1,.14.29,52,52,0,0,0,2.83,18C356.44,811.54,371.39,774.41,380.65,758.64Z"/><path class="cls-16" d="M411,732.18a60.85,60.85,0,0,0-21.09,12.56"/><path class="cls-16" d="M477.78,776.74a40.2,40.2,0,0,0-15.69-31.11,45.41,45.41,0,0,0-8.3-4.75"/><path class="cls-16" d="M387.11,840.51c-9.35-9.51-14.74-19.27-17.44-28.7"/><path class="cls-15" d="M419.31,794.25c3.48.86,7.18,1.62,11.07,2.25,20.12,3.29,32.24-1,38.45-8.45"/><circle class="cls-9" cx="424.39" cy="822.03" r="2.45"/><circle class="cls-9" cx="448.5" cy="827.76" r="2.31"/><path class="cls-3" d="M437.66,822.31s0,19.85-1.55,22.2-5.67-1.09-5.67-1.09"/><path class="cls-3" d="M416.42,846.88s8.05.39,8.05,6"/><ellipse class="cls-9" cx="423.07" cy="810.58" rx="9.02" ry="3.66" transform="translate(-143.61 93.02) rotate(-10.74)"/><ellipse class="cls-9" cx="455.24" cy="819.39" rx="3.66" ry="8" transform="translate(-458.71 611.21) rotate(-48.11)"/><path class="cls-19" d="M391.59,870.26s-29.54-3.53-44.4,24.53c-9.13,17.23-8.34,183.57-8.34,183.57s95.65,1.75,107.34-2c1.69-11.67,9.05-117.11,9.05-158.65,0-14,7.09-37.92-34.31-44.15C420.48,880.24,400.31,885.88,391.59,870.26Z"/><g class="cls-20"><polygon class="cls-11" points="250.59 856.69 253.87 850.94 257.15 856.69 250.59 856.69"/><polygon class="cls-11" points="284.99 856.69 288.27 850.94 291.55 856.69 284.99 856.69"/><polygon class="cls-11" points="216.19 856.69 219.47 850.94 222.75 856.69 216.19 856.69"/><polygon class="cls-11" points="353.8 856.69 357.08 850.94 360.36 856.69 353.8 856.69"/><polygon class="cls-11" points="388.2 856.69 391.48 850.94 394.76 856.69 388.2 856.69"/><polygon class="cls-11" points="319.4 856.69 322.68 850.94 325.95 856.69 319.4 856.69"/><polygon class="cls-11" points="422.6 856.69 425.88 850.94 429.16 856.69 422.6 856.69"/><polygon class="cls-11" points="457 856.69 460.28 850.94 463.56 856.69 457 856.69"/><polygon class="cls-11" points="525.81 856.69 529.09 850.94 532.37 856.69 525.81 856.69"/><polygon class="cls-11" points="560.21 856.69 563.49 850.94 566.77 856.69 560.21 856.69"/><polygon class="cls-11" points="491.41 856.69 494.69 850.94 497.96 856.69 491.41 856.69"/><polygon class="cls-11" points="268.17 874.27 271.45 868.52 274.73 874.27 268.17 874.27"/><polygon class="cls-11" points="302.58 874.27 305.86 868.52 309.13 874.27 302.58 874.27"/><polygon class="cls-11" points="233.77 874.27 237.05 868.52 240.33 874.27 233.77 874.27"/><polygon class="cls-11" points="371.38 874.27 374.66 868.52 377.94 874.27 371.38 874.27"/><polygon class="cls-11" points="405.78 874.27 409.06 868.52 412.34 874.27 405.78 874.27"/><polygon class="cls-11" points="336.98 874.27 340.26 868.52 343.54 874.27 336.98 874.27"/><polygon class="cls-11" points="440.19 874.27 443.46 868.52 446.74 874.27 440.19 874.27"/><polygon class="cls-11" points="474.59 874.27 477.87 868.52 481.14 874.27 474.59 874.27"/><polygon class="cls-11" points="543.39 874.27 546.67 868.52 549.95 874.27 543.39 874.27"/><polygon class="cls-11" points="577.79 874.27 581.07 868.52 584.35 874.27 577.79 874.27"/><polygon class="cls-11" points="508.99 874.27 512.27 868.52 515.54 874.27 508.99 874.27"/><polygon class="cls-11" points="250.59 891.26 253.87 885.51 257.15 891.26 250.59 891.26"/><polygon class="cls-11" points="284.99 891.26 288.27 885.51 291.55 891.26 284.99 891.26"/><polygon class="cls-11" points="216.19 891.26 219.47 885.51 222.75 891.26 216.19 891.26"/><polygon class="cls-11" points="353.8 891.26 357.08 885.51 360.36 891.26 353.8 891.26"/><polygon class="cls-11" points="388.2 891.26 391.48 885.51 394.76 891.26 388.2 891.26"/><polygon class="cls-11" points="319.4 891.26 322.68 885.51 325.95 891.26 319.4 891.26"/><polygon class="cls-11" points="422.6 891.26 425.88 885.51 429.16 891.26 422.6 891.26"/><polygon class="cls-11" points="457 891.26 460.28 885.51 463.56 891.26 457 891.26"/><polygon class="cls-11" points="525.81 891.26 529.09 885.51 532.37 891.26 525.81 891.26"/><polygon class="cls-11" points="560.21 891.26 563.49 885.51 566.77 891.26 560.21 891.26"/><polygon class="cls-11" points="491.41 891.26 494.69 885.51 497.96 891.26 491.41 891.26"/><polygon class="cls-11" points="268.17 908.85 271.45 903.1 274.73 908.85 268.17 908.85"/><polygon class="cls-11" points="302.58 908.85 305.86 903.1 309.13 908.85 302.58 908.85"/><polygon class="cls-11" points="233.77 908.85 237.05 903.1 240.33 908.85 233.77 908.85"/><polygon class="cls-11" points="371.38 908.85 374.66 903.1 377.94 908.85 371.38 908.85"/><polygon class="cls-11" points="405.78 908.85 409.06 903.1 412.34 908.85 405.78 908.85"/><polygon class="cls-11" points="336.98 908.85 340.26 903.1 343.54 908.85 336.98 908.85"/><polygon class="cls-11" points="440.19 908.85 443.46 903.1 446.74 908.85 440.19 908.85"/><polygon class="cls-11" points="474.59 908.85 477.87 903.1 481.14 908.85 474.59 908.85"/><polygon class="cls-11" points="543.39 908.85 546.67 903.1 549.95 908.85 543.39 908.85"/><polygon class="cls-11" points="577.79 908.85 581.07 903.1 584.35 908.85 577.79 908.85"/><polygon class="cls-11" points="508.99 908.85 512.27 903.1 515.54 908.85 508.99 908.85"/><polygon class="cls-11" points="250.59 925.26 253.87 919.51 257.15 925.26 250.59 925.26"/><polygon class="cls-11" points="284.99 925.26 288.27 919.51 291.55 925.26 284.99 925.26"/><polygon class="cls-11" points="216.19 925.26 219.47 919.51 222.75 925.26 216.19 925.26"/><polygon class="cls-11" points="353.8 925.26 357.08 919.51 360.36 925.26 353.8 925.26"/><polygon class="cls-11" points="388.2 925.26 391.48 919.51 394.76 925.26 388.2 925.26"/><polygon class="cls-11" points="319.4 925.26 322.68 919.51 325.95 925.26 319.4 925.26"/><polygon class="cls-11" points="422.6 925.26 425.88 919.51 429.16 925.26 422.6 925.26"/><polygon class="cls-11" points="457 925.26 460.28 919.51 463.56 925.26 457 925.26"/><polygon class="cls-11" points="525.81 925.26 529.09 919.51 532.37 925.26 525.81 925.26"/><polygon class="cls-11" points="560.21 925.26 563.49 919.51 566.77 925.26 560.21 925.26"/><polygon class="cls-11" points="491.41 925.26 494.69 919.51 497.96 925.26 491.41 925.26"/><polygon class="cls-11" points="268.17 942.84 271.45 937.09 274.73 942.84 268.17 942.84"/><polygon class="cls-11" points="302.58 942.84 305.86 937.09 309.13 942.84 302.58 942.84"/><polygon class="cls-11" points="233.77 942.84 237.05 937.09 240.33 942.84 233.77 942.84"/><polygon class="cls-11" points="371.38 942.84 374.66 937.09 377.94 942.84 371.38 942.84"/><polygon class="cls-11" points="405.78 942.84 409.06 937.09 412.34 942.84 405.78 942.84"/><polygon class="cls-11" points="336.98 942.84 340.26 937.09 343.54 942.84 336.98 942.84"/><polygon class="cls-11" points="440.19 942.84 443.46 937.09 446.74 942.84 440.19 942.84"/><polygon class="cls-11" points="474.59 942.84 477.87 937.09 481.14 942.84 474.59 942.84"/><polygon class="cls-11" points="543.39 942.84 546.67 937.09 549.95 942.84 543.39 942.84"/><polygon class="cls-11" points="577.79 942.84 581.07 937.09 584.35 942.84 577.79 942.84"/><polygon class="cls-11" points="508.99 942.84 512.27 937.09 515.54 942.84 508.99 942.84"/><polygon class="cls-11" points="250.59 959.84 253.87 954.08 257.15 959.84 250.59 959.84"/><polygon class="cls-11" points="284.99 959.84 288.27 954.08 291.55 959.84 284.99 959.84"/><polygon class="cls-11" points="216.19 959.84 219.47 954.08 222.75 959.84 216.19 959.84"/><polygon class="cls-11" points="353.8 959.84 357.08 954.08 360.36 959.84 353.8 959.84"/><polygon class="cls-11" points="388.2 959.84 391.48 954.08 394.76 959.84 388.2 959.84"/><polygon class="cls-11" points="319.4 959.84 322.68 954.08 325.95 959.84 319.4 959.84"/><polygon class="cls-11" points="422.6 959.84 425.88 954.08 429.16 959.84 422.6 959.84"/><polygon class="cls-11" points="457 959.84 460.28 954.08 463.56 959.84 457 959.84"/><polygon class="cls-11" points="525.81 959.84 529.09 954.08 532.37 959.84 525.81 959.84"/><polygon class="cls-11" points="560.21 959.84 563.49 954.08 566.77 959.84 560.21 959.84"/><polygon class="cls-11" points="491.41 959.84 494.69 954.08 497.96 959.84 491.41 959.84"/><polygon class="cls-11" points="268.17 977.42 271.45 971.67 274.73 977.42 268.17 977.42"/><polygon class="cls-11" points="302.58 977.42 305.86 971.67 309.13 977.42 302.58 977.42"/><polygon class="cls-11" points="233.77 977.42 237.05 971.67 240.33 977.42 233.77 977.42"/><polygon class="cls-11" points="371.38 977.42 374.66 971.67 377.94 977.42 371.38 977.42"/><polygon class="cls-11" points="405.78 977.42 409.06 971.67 412.34 977.42 405.78 977.42"/><polygon class="cls-11" points="336.98 977.42 340.26 971.67 343.54 977.42 336.98 977.42"/><polygon class="cls-11" points="440.19 977.42 443.46 971.67 446.74 977.42 440.19 977.42"/><polygon class="cls-11" points="474.59 977.42 477.87 971.67 481.14 977.42 474.59 977.42"/><polygon class="cls-11" points="543.39 977.42 546.67 971.67 549.95 977.42 543.39 977.42"/><polygon class="cls-11" points="577.79 977.42 581.07 971.67 584.35 977.42 577.79 977.42"/><polygon class="cls-11" points="508.99 977.42 512.27 971.67 515.54 977.42 508.99 977.42"/><polygon class="cls-11" points="250.59 999.1 253.87 993.35 257.15 999.1 250.59 999.1"/><polygon class="cls-11" points="284.99 999.1 288.27 993.35 291.55 999.1 284.99 999.1"/><polygon class="cls-11" points="216.19 999.1 219.47 993.35 222.75 999.1 216.19 999.1"/><polygon class="cls-11" points="353.8 999.1 357.08 993.35 360.36 999.1 353.8 999.1"/><polygon class="cls-11" points="388.2 999.1 391.48 993.35 394.76 999.1 388.2 999.1"/><polygon class="cls-11" points="319.4 999.1 322.68 993.35 325.95 999.1 319.4 999.1"/><polygon class="cls-11" points="422.6 999.1 425.88 993.35 429.16 999.1 422.6 999.1"/><polygon class="cls-11" points="457 999.1 460.28 993.35 463.56 999.1 457 999.1"/><polygon class="cls-11" points="525.81 999.1 529.09 993.35 532.37 999.1 525.81 999.1"/><polygon class="cls-11" points="560.21 999.1 563.49 993.35 566.77 999.1 560.21 999.1"/><polygon class="cls-11" points="491.41 999.1 494.69 993.35 497.96 999.1 491.41 999.1"/><polygon class="cls-11" points="268.17 1016.68 271.45 1010.93 274.73 1016.68 268.17 1016.68"/><polygon class="cls-11" points="302.58 1016.68 305.86 1010.93 309.13 1016.68 302.58 1016.68"/><polygon class="cls-11" points="233.77 1016.68 237.05 1010.93 240.33 1016.68 233.77 1016.68"/><polygon class="cls-11" points="371.38 1016.68 374.66 1010.93 377.94 1016.68 371.38 1016.68"/><polygon class="cls-11" points="405.78 1016.68 409.06 1010.93 412.34 1016.68 405.78 1016.68"/><polygon class="cls-11" points="336.98 1016.68 340.26 1010.93 343.54 1016.68 336.98 1016.68"/><polygon class="cls-11" points="440.19 1016.68 443.46 1010.93 446.74 1016.68 440.19 1016.68"/><polygon class="cls-11" points="474.59 1016.68 477.87 1010.93 481.14 1016.68 474.59 1016.68"/><polygon class="cls-11" points="543.39 1016.68 546.67 1010.93 549.95 1016.68 543.39 1016.68"/><polygon class="cls-11" points="577.79 1016.68 581.07 1010.93 584.35 1016.68 577.79 1016.68"/><polygon class="cls-11" points="508.99 1016.68 512.27 1010.93 515.54 1016.68 508.99 1016.68"/><polygon class="cls-11" points="250.59 1033.68 253.87 1027.93 257.15 1033.68 250.59 1033.68"/><polygon class="cls-11" points="284.99 1033.68 288.27 1027.93 291.55 1033.68 284.99 1033.68"/><polygon class="cls-11" points="216.19 1033.68 219.47 1027.93 222.75 1033.68 216.19 1033.68"/><polygon class="cls-11" points="353.8 1033.68 357.08 1027.93 360.36 1033.68 353.8 1033.68"/><polygon class="cls-11" points="388.2 1033.68 391.48 1027.93 394.76 1033.68 388.2 1033.68"/><polygon class="cls-11" points="319.4 1033.68 322.68 1027.93 325.95 1033.68 319.4 1033.68"/><polygon class="cls-11" points="422.6 1033.68 425.88 1027.93 429.16 1033.68 422.6 1033.68"/><polygon class="cls-11" points="457 1033.68 460.28 1027.93 463.56 1033.68 457 1033.68"/><polygon class="cls-11" points="525.81 1033.68 529.09 1027.93 532.37 1033.68 525.81 1033.68"/><polygon class="cls-11" points="560.21 1033.68 563.49 1027.93 566.77 1033.68 560.21 1033.68"/><polygon class="cls-11" points="491.41 1033.68 494.69 1027.93 497.96 1033.68 491.41 1033.68"/><polygon class="cls-11" points="268.17 1051.26 271.45 1045.51 274.73 1051.26 268.17 1051.26"/><polygon class="cls-11" points="302.58 1051.26 305.86 1045.51 309.13 1051.26 302.58 1051.26"/><polygon class="cls-11" points="233.77 1051.26 237.05 1045.51 240.33 1051.26 233.77 1051.26"/><polygon class="cls-11" points="371.38 1051.26 374.66 1045.51 377.94 1051.26 371.38 1051.26"/><polygon class="cls-11" points="405.78 1051.26 409.06 1045.51 412.34 1051.26 405.78 1051.26"/><polygon class="cls-11" points="336.98 1051.26 340.26 1045.51 343.54 1051.26 336.98 1051.26"/><polygon class="cls-11" points="440.19 1051.26 443.46 1045.51 446.74 1051.26 440.19 1051.26"/><polygon class="cls-11" points="474.59 1051.26 477.87 1045.51 481.14 1051.26 474.59 1051.26"/><polygon class="cls-11" points="543.39 1051.26 546.67 1045.51 549.95 1051.26 543.39 1051.26"/><polygon class="cls-11" points="577.79 1051.26 581.07 1045.51 584.35 1051.26 577.79 1051.26"/><polygon class="cls-11" points="508.99 1051.26 512.27 1045.51 515.54 1051.26 508.99 1051.26"/><polygon class="cls-11" points="250.59 1067.67 253.87 1061.92 257.15 1067.67 250.59 1067.67"/><polygon class="cls-11" points="284.99 1067.67 288.27 1061.92 291.55 1067.67 284.99 1067.67"/><polygon class="cls-11" points="216.19 1067.67 219.47 1061.92 222.75 1067.67 216.19 1067.67"/><polygon class="cls-11" points="353.8 1067.67 357.08 1061.92 360.36 1067.67 353.8 1067.67"/><polygon class="cls-11" points="388.2 1067.67 391.48 1061.92 394.76 1067.67 388.2 1067.67"/><polygon class="cls-11" points="319.4 1067.67 322.68 1061.92 325.95 1067.67 319.4 1067.67"/><polygon class="cls-11" points="422.6 1067.67 425.88 1061.92 429.16 1067.67 422.6 1067.67"/><polygon class="cls-11" points="457 1067.67 460.28 1061.92 463.56 1067.67 457 1067.67"/><polygon class="cls-11" points="525.81 1067.67 529.09 1061.92 532.37 1067.67 525.81 1067.67"/><polygon class="cls-11" points="560.21 1067.67 563.49 1061.92 566.77 1067.67 560.21 1067.67"/><polygon class="cls-11" points="491.41 1067.67 494.69 1061.92 497.96 1067.67 491.41 1067.67"/><polygon class="cls-11" points="268.17 1085.25 271.45 1079.5 274.73 1085.25 268.17 1085.25"/><polygon class="cls-11" points="302.58 1085.25 305.86 1079.5 309.13 1085.25 302.58 1085.25"/><polygon class="cls-11" points="233.77 1085.25 237.05 1079.5 240.33 1085.25 233.77 1085.25"/><polygon class="cls-11" points="371.38 1085.25 374.66 1079.5 377.94 1085.25 371.38 1085.25"/><polygon class="cls-11" points="405.78 1085.25 409.06 1079.5 412.34 1085.25 405.78 1085.25"/><polygon class="cls-11" points="336.98 1085.25 340.26 1079.5 343.54 1085.25 336.98 1085.25"/><polygon class="cls-11" points="440.19 1085.25 443.46 1079.5 446.74 1085.25 440.19 1085.25"/><polygon class="cls-11" points="474.59 1085.25 477.87 1079.5 481.14 1085.25 474.59 1085.25"/><polygon class="cls-11" points="543.39 1085.25 546.67 1079.5 549.95 1085.25 543.39 1085.25"/><polygon class="cls-11" points="577.79 1085.25 581.07 1079.5 584.35 1085.25 577.79 1085.25"/><polygon class="cls-11" points="508.99 1085.25 512.27 1079.5 515.54 1085.25 508.99 1085.25"/></g><path d="M340.15,1081.85S464.25,1072.6,553,1090c23.48,4.62,29.57,34.17,32.15,62.59,2.36,25.94,13.93,109.35,13.52,110l-40.88,1.11s-26.83-81.43-33.21-117.25c-.09-.54-94.95,14.11-140.59,7.22-53.61-8.09-43.82-71.89-43.82-71.89"/><path class="cls-9" d="M338.35,1077.78s177.88-56.85,197.47-58.1,26.25,10,35.84,22.92,70.85,105.64,70.85,105.64l-34.66,22.89s-41.23-43.19-77.45-90.52c-8.61,8.06-133.59,79.31-168.65,64C330.4,1130.85,338.35,1077.78,338.35,1077.78Z"/><path class="cls-19" d="M456.2,1016.09H614.79a0,0,0,0,1,0,0v6.25a0,0,0,0,1,0,0H456.2a3.13,3.13,0,0,1-3.13-3.13v0a3.13,3.13,0,0,1,3.13-3.13Z" transform="translate(-244.53 171.94) rotate(-14.93)"/><path class="cls-11" d="M614.82,1000.88,505.48,1030l6.25-78a5.51,5.51,0,0,1,4.07-4.89l100.58-26.81a3.65,3.65,0,0,1,4.58,3.83Z"/><circle class="cls-14" cx="566.62" cy="973.13" r="4.66"/><path class="cls-17" d="M353.57,893.85c-5.86,11.63,5.8,101.44,26.15,126.08,22.28,27,122.36,32.9,130.13,32.2,13.39-1.23,11.25-10.78,7-14-5.12-3.81-25.94-2.73-32.6-3.6,15.6-.44,15-5.65,12.78-7.92s-17.82,2-24.54,1.75c-34-1.48-66-18.23-73.9-25.88-13.92-13.44-15.4-92-15.43-100C383.06,886.73,363.25,874.62,353.57,893.85Z"/><path class="cls-11" d="M350.74,891.61c2.17-6.93,16.45-18,29.79-6.64s12.36,54.44,17.28,80.28c-2.22.84-48.94,2.83-48.94,2.83S345,910,350.74,891.61Z"/><g class="cls-21"><polygon class="cls-19" points="262.25 821.53 266.4 816.37 268.73 822.57 262.25 821.53"/><polygon class="cls-19" points="296.23 826.95 300.37 821.79 302.7 827.98 296.23 826.95"/><polygon class="cls-19" points="228.28 816.12 232.42 810.96 234.76 817.15 228.28 816.12"/><polygon class="cls-19" points="364.17 837.78 368.32 832.62 370.65 838.81 364.17 837.78"/><polygon class="cls-19" points="398.15 843.2 402.29 838.03 404.62 844.23 398.15 843.2"/><polygon class="cls-19" points="330.2 832.37 334.34 827.2 336.68 833.4 330.2 832.37"/><polygon class="cls-19" points="432.12 848.61 436.26 843.45 438.6 849.64 432.12 848.61"/><polygon class="cls-19" points="466.09 854.03 470.24 848.87 472.57 855.06 466.09 854.03"/><polygon class="cls-19" points="534.04 864.86 538.18 859.7 540.51 865.89 534.04 864.86"/><polygon class="cls-19" points="568.01 870.27 572.15 865.11 574.49 871.31 568.01 870.27"/><polygon class="cls-19" points="500.07 859.44 504.21 854.28 506.54 860.48 500.07 859.44"/><polygon class="cls-19" points="276.85 841.66 280.99 836.5 283.32 842.7 276.85 841.66"/><polygon class="cls-19" points="310.82 847.08 314.96 841.92 317.3 848.11 310.82 847.08"/><polygon class="cls-19" points="242.88 836.25 247.02 831.09 249.35 837.28 242.88 836.25"/><polygon class="cls-19" points="378.77 857.91 382.91 852.75 385.24 858.94 378.77 857.91"/><polygon class="cls-19" points="412.74 863.33 416.88 858.16 419.22 864.36 412.74 863.33"/><polygon class="cls-19" points="344.8 852.5 348.94 847.33 351.27 853.53 344.8 852.5"/><polygon class="cls-19" points="446.71 868.74 450.86 863.58 453.19 869.77 446.71 868.74"/><polygon class="cls-19" points="480.69 874.16 484.83 869 487.16 875.19 480.69 874.16"/><polygon class="cls-19" points="548.63 884.99 552.78 879.83 555.11 886.02 548.63 884.99"/><polygon class="cls-19" points="582.61 890.41 586.75 885.24 589.08 891.44 582.61 890.41"/><polygon class="cls-19" points="514.66 879.57 518.8 874.41 521.14 880.61 514.66 879.57"/><polygon class="cls-19" points="256.81 855.68 260.95 850.52 263.29 856.71 256.81 855.68"/><polygon class="cls-19" points="290.78 861.1 294.93 855.93 297.26 862.13 290.78 861.1"/><polygon class="cls-19" points="222.84 850.27 226.98 845.1 229.31 851.3 222.84 850.27"/><polygon class="cls-19" points="358.73 871.93 362.87 866.76 365.2 872.96 358.73 871.93"/><polygon class="cls-19" points="392.7 877.34 396.85 872.18 399.18 878.38 392.7 877.34"/><polygon class="cls-19" points="324.76 866.51 328.9 861.35 331.23 867.54 324.76 866.51"/><polygon class="cls-19" points="426.68 882.76 430.82 877.6 433.15 883.79 426.68 882.76"/><polygon class="cls-19" points="460.65 888.17 464.79 883.01 467.13 889.21 460.65 888.17"/><polygon class="cls-19" points="528.6 899.01 532.74 893.84 535.07 900.04 528.6 899.01"/><polygon class="cls-19" points="562.57 904.42 566.71 899.26 569.04 905.45 562.57 904.42"/><polygon class="cls-19" points="494.62 893.59 498.77 888.43 501.1 894.62 494.62 893.59"/><polygon class="cls-19" points="271.41 875.81 275.55 870.65 277.88 876.84 271.41 875.81"/><polygon class="cls-19" points="305.38 881.23 309.52 876.06 311.85 882.26 305.38 881.23"/><polygon class="cls-19" points="237.43 870.4 241.58 865.23 243.91 871.43 237.43 870.4"/><polygon class="cls-19" points="373.33 892.06 377.47 886.9 379.8 893.09 373.33 892.06"/><polygon class="cls-19" points="407.3 897.47 411.44 892.31 413.77 898.51 407.3 897.47"/><polygon class="cls-19" points="339.35 886.64 343.5 881.48 345.83 887.67 339.35 886.64"/><polygon class="cls-19" points="441.27 902.89 445.42 897.73 447.75 903.92 441.27 902.89"/><polygon class="cls-19" points="475.25 908.3 479.39 903.14 481.72 909.34 475.25 908.3"/><polygon class="cls-19" points="543.19 919.14 547.33 913.97 549.67 920.17 543.19 919.14"/><polygon class="cls-19" points="577.16 924.55 581.31 919.39 583.64 925.58 577.16 924.55"/><polygon class="cls-19" points="509.22 913.72 513.36 908.56 515.69 914.75 509.22 913.72"/><polygon class="cls-19" points="251.46 889.25 255.6 884.09 257.94 890.28 251.46 889.25"/><polygon class="cls-19" points="285.43 894.66 289.58 889.5 291.91 895.7 285.43 894.66"/><polygon class="cls-19" points="217.49 883.83 221.63 878.67 223.96 884.87 217.49 883.83"/><polygon class="cls-19" points="353.38 905.5 357.52 900.33 359.85 906.53 353.38 905.5"/><polygon class="cls-19" points="387.35 910.91 391.5 905.75 393.83 911.94 387.35 910.91"/><polygon class="cls-19" points="319.41 900.08 323.55 894.92 325.88 901.11 319.41 900.08"/><polygon class="cls-19" points="421.33 916.33 425.47 911.16 427.8 917.36 421.33 916.33"/><polygon class="cls-19" points="455.3 921.74 459.44 916.58 461.77 922.77 455.3 921.74"/><polygon class="cls-19" points="523.25 932.57 527.39 927.41 529.72 933.61 523.25 932.57"/><polygon class="cls-19" points="557.22 937.99 561.36 932.83 563.69 939.02 557.22 937.99"/><polygon class="cls-19" points="489.27 927.16 493.42 922 495.75 928.19 489.27 927.16"/><polygon class="cls-19" points="266.06 909.38 270.2 904.22 272.53 910.41 266.06 909.38"/><polygon class="cls-19" points="300.03 914.79 304.17 909.63 306.5 915.83 300.03 914.79"/><polygon class="cls-19" points="232.08 903.96 236.22 898.8 238.56 905 232.08 903.96"/><polygon class="cls-19" points="367.98 925.63 372.12 920.46 374.45 926.66 367.98 925.63"/><polygon class="cls-19" points="401.95 931.04 406.09 925.88 408.42 932.07 401.95 931.04"/><polygon class="cls-19" points="334 920.21 338.14 915.05 340.48 921.24 334 920.21"/><polygon class="cls-19" points="435.92 936.46 440.06 931.29 442.4 937.49 435.92 936.46"/><polygon class="cls-19" points="469.89 941.87 474.04 936.71 476.37 942.91 469.89 941.87"/><polygon class="cls-19" points="537.84 952.71 541.98 947.54 544.32 953.74 537.84 952.71"/><polygon class="cls-19" points="571.81 958.12 575.96 952.96 578.29 959.15 571.81 958.12"/><polygon class="cls-19" points="503.87 947.29 508.01 942.13 510.34 948.32 503.87 947.29"/><polygon class="cls-19" points="246.02 923.4 250.16 918.23 252.49 924.43 246.02 923.4"/><polygon class="cls-19" points="279.99 928.81 284.13 923.65 286.46 929.84 279.99 928.81"/><polygon class="cls-19" points="212.04 917.98 216.19 912.82 218.52 919.01 212.04 917.98"/><polygon class="cls-19" points="347.94 939.64 352.08 934.48 354.41 940.67 347.94 939.64"/><polygon class="cls-19" points="381.91 945.06 386.05 939.89 388.38 946.09 381.91 945.06"/><polygon class="cls-19" points="313.96 934.23 318.11 929.06 320.44 935.26 313.96 934.23"/><polygon class="cls-19" points="415.88 950.47 420.02 945.31 422.36 951.51 415.88 950.47"/><polygon class="cls-19" points="449.86 955.89 454 950.73 456.33 956.92 449.86 955.89"/><polygon class="cls-19" points="517.8 966.72 521.95 961.56 524.28 967.75 517.8 966.72"/><polygon class="cls-19" points="551.77 972.14 555.92 966.97 558.25 973.17 551.77 972.14"/><polygon class="cls-19" points="483.83 961.3 487.97 956.14 490.3 962.34 483.83 961.3"/><polygon class="cls-19" points="260.61 943.53 264.75 938.36 267.09 944.56 260.61 943.53"/><polygon class="cls-19" points="294.58 948.94 298.73 943.78 301.06 949.97 294.58 948.94"/><polygon class="cls-19" points="226.64 938.11 230.78 932.95 233.11 939.14 226.64 938.11"/><polygon class="cls-19" points="362.53 959.77 366.67 954.61 369.01 960.81 362.53 959.77"/><polygon class="cls-19" points="396.5 965.19 400.65 960.03 402.98 966.22 396.5 965.19"/><polygon class="cls-19" points="328.56 954.36 332.7 949.2 335.03 955.39 328.56 954.36"/><polygon class="cls-19" points="430.48 970.61 434.62 965.44 436.95 971.64 430.48 970.61"/><polygon class="cls-19" points="464.45 976.02 468.59 970.86 470.93 977.05 464.45 976.02"/><polygon class="cls-19" points="532.4 986.85 536.54 981.69 538.87 987.88 532.4 986.85"/><polygon class="cls-19" points="566.37 992.27 570.51 987.1 572.85 993.3 566.37 992.27"/><polygon class="cls-19" points="498.42 981.44 502.57 976.27 504.9 982.47 498.42 981.44"/><polygon class="cls-19" points="239.84 962.17 243.98 957.01 246.31 963.21 239.84 962.17"/><polygon class="cls-19" points="273.81 967.59 277.95 962.42 280.28 968.62 273.81 967.59"/><polygon class="cls-19" points="205.86 956.76 210 951.59 212.34 957.79 205.86 956.76"/><polygon class="cls-19" points="341.75 978.42 345.9 973.26 348.23 979.45 341.75 978.42"/><polygon class="cls-19" points="375.73 983.84 379.87 978.67 382.2 984.87 375.73 983.84"/><polygon class="cls-19" points="307.78 973 311.92 967.84 314.26 974.04 307.78 973"/><polygon class="cls-19" points="409.7 989.25 413.84 984.09 416.18 990.28 409.7 989.25"/><polygon class="cls-19" points="443.67 994.67 447.82 989.5 450.15 995.7 443.67 994.67"/><polygon class="cls-19" points="511.62 1005.5 515.76 1000.34 518.1 1006.53 511.62 1005.5"/><polygon class="cls-19" points="545.59 1010.91 549.74 1005.75 552.07 1011.95 545.59 1010.91"/><polygon class="cls-19" points="477.65 1000.08 481.79 994.92 484.12 1001.11 477.65 1000.08"/><polygon class="cls-19" points="254.43 982.3 258.57 977.14 260.9 983.34 254.43 982.3"/><polygon class="cls-19" points="288.4 987.72 292.55 982.56 294.88 988.75 288.4 987.72"/><polygon class="cls-19" points="220.46 976.89 224.6 971.73 226.93 977.92 220.46 976.89"/><polygon class="cls-19" points="356.35 998.55 360.49 993.39 362.82 999.58 356.35 998.55"/><polygon class="cls-19" points="390.32 1003.97 394.47 998.8 396.8 1005 390.32 1003.97"/><polygon class="cls-19" points="322.38 993.13 326.52 987.97 328.85 994.17 322.38 993.13"/><polygon class="cls-19" points="424.3 1009.38 428.44 1004.22 430.77 1010.41 424.3 1009.38"/><polygon class="cls-19" points="458.27 1014.8 462.41 1009.63 464.74 1015.83 458.27 1014.8"/><polygon class="cls-19" points="526.22 1025.63 530.36 1020.47 532.69 1026.66 526.22 1025.63"/><polygon class="cls-19" points="560.19 1031.04 564.33 1025.88 566.66 1032.08 560.19 1031.04"/><polygon class="cls-19" points="492.24 1020.21 496.38 1015.05 498.72 1021.25 492.24 1020.21"/><polygon class="cls-19" points="234.39 996.32 238.53 991.16 240.87 997.35 234.39 996.32"/><polygon class="cls-19" points="268.37 1001.74 272.51 996.57 274.84 1002.77 268.37 1001.74"/><polygon class="cls-19" points="200.42 990.9 204.56 985.74 206.89 991.94 200.42 990.9"/><polygon class="cls-19" points="336.31 1012.57 340.45 1007.4 342.79 1013.6 336.31 1012.57"/><polygon class="cls-19" points="370.29 1017.98 374.43 1012.82 376.76 1019.01 370.29 1017.98"/><polygon class="cls-19" points="302.34 1007.15 306.48 1001.99 308.81 1008.18 302.34 1007.15"/><polygon class="cls-19" points="404.26 1023.4 408.4 1018.24 410.73 1024.43 404.26 1023.4"/><polygon class="cls-19" points="438.23 1028.81 442.37 1023.65 444.71 1029.85 438.23 1028.81"/><polygon class="cls-19" points="506.18 1039.64 510.32 1034.48 512.65 1040.68 506.18 1039.64"/><polygon class="cls-19" points="540.15 1045.06 544.29 1039.9 546.63 1046.09 540.15 1045.06"/><polygon class="cls-19" points="472.2 1034.23 476.35 1029.07 478.68 1035.26 472.2 1034.23"/><polygon class="cls-19" points="248.99 1016.45 253.13 1011.29 255.46 1017.48 248.99 1016.45"/><polygon class="cls-19" points="282.96 1021.87 287.1 1016.7 289.44 1022.9 282.96 1021.87"/><polygon class="cls-19" points="215.01 1011.03 219.16 1005.87 221.49 1012.07 215.01 1011.03"/><polygon class="cls-19" points="350.91 1032.7 355.05 1027.53 357.38 1033.73 350.91 1032.7"/><polygon class="cls-19" points="384.88 1038.11 389.02 1032.95 391.36 1039.14 384.88 1038.11"/><polygon class="cls-19" points="316.93 1027.28 321.08 1022.12 323.41 1028.31 316.93 1027.28"/><polygon class="cls-19" points="418.85 1043.53 423 1038.37 425.33 1044.56 418.85 1043.53"/><polygon class="cls-19" points="452.83 1048.94 456.97 1043.78 459.3 1049.98 452.83 1048.94"/><polygon class="cls-19" points="520.77 1059.78 524.91 1054.61 527.25 1060.81 520.77 1059.78"/><polygon class="cls-19" points="554.75 1065.19 558.89 1060.03 561.22 1066.22 554.75 1065.19"/><polygon class="cls-19" points="486.8 1054.36 490.94 1049.2 493.27 1055.39 486.8 1054.36"/><polygon class="cls-19" points="229.04 1029.89 233.18 1024.72 235.52 1030.92 229.04 1029.89"/><polygon class="cls-19" points="263.01 1035.3 267.16 1030.14 269.49 1036.34 263.01 1035.3"/><polygon class="cls-19" points="195.07 1024.47 199.21 1019.31 201.54 1025.5 195.07 1024.47"/><polygon class="cls-19" points="330.96 1046.13 335.1 1040.97 337.44 1047.17 330.96 1046.13"/><polygon class="cls-19" points="364.93 1051.55 369.08 1046.39 371.41 1052.58 364.93 1051.55"/><polygon class="cls-19" points="296.99 1040.72 301.13 1035.56 303.46 1041.75 296.99 1040.72"/><polygon class="cls-19" points="398.91 1056.97 403.05 1051.8 405.38 1058 398.91 1056.97"/><polygon class="cls-19" points="432.88 1062.38 437.02 1057.22 439.36 1063.41 432.88 1062.38"/><polygon class="cls-19" points="500.83 1073.21 504.97 1068.05 507.3 1074.24 500.83 1073.21"/><polygon class="cls-19" points="534.8 1078.63 538.94 1073.46 541.27 1079.66 534.8 1078.63"/><polygon class="cls-19" points="466.85 1067.8 471 1062.63 473.33 1068.83 466.85 1067.8"/><polygon class="cls-19" points="243.64 1050.02 247.78 1044.86 250.11 1051.05 243.64 1050.02"/><polygon class="cls-19" points="277.61 1055.43 281.75 1050.27 284.08 1056.47 277.61 1055.43"/><polygon class="cls-19" points="209.66 1044.6 213.81 1039.44 216.14 1045.63 209.66 1044.6"/><polygon class="cls-19" points="345.56 1066.27 349.7 1061.1 352.03 1067.3 345.56 1066.27"/><polygon class="cls-19" points="379.53 1071.68 383.67 1066.52 386 1072.71 379.53 1071.68"/><polygon class="cls-19" points="311.58 1060.85 315.73 1055.69 318.06 1061.88 311.58 1060.85"/><polygon class="cls-19" points="413.5 1077.1 417.64 1071.93 419.98 1078.13 413.5 1077.1"/><polygon class="cls-19" points="447.48 1082.51 451.62 1077.35 453.95 1083.54 447.48 1082.51"/><polygon class="cls-19" points="515.42 1093.34 519.56 1088.18 521.9 1094.38 515.42 1093.34"/><polygon class="cls-19" points="549.39 1098.76 553.54 1093.6 555.87 1099.79 549.39 1098.76"/><polygon class="cls-19" points="481.45 1087.93 485.59 1082.76 487.92 1088.96 481.45 1087.93"/></g><path class="cls-15" d="M362.52,1078.66s6,19.17-15.71,23.19"/><line class="cls-15" x1="603.33" y1="1158.05" x2="637.53" y2="1135.54"/><line class="cls-15" x1="558.32" y1="1250.57" x2="600" y2="1249.57"/><path class="cls-19" d="M616,1177l18.45,36.56s22.83-12.67,41.19-14.42,44.29-8.91,48.79-13.59c-3.09-4.91-12.73-14.49-42-13-10.79-1.14-31.64-12.57-31.64-12.57Z"/><path class="cls-9" d="M724.39,1185.51c-4.5,4.68-30.42,11.85-48.79,13.59s-41.19,14.42-41.19,14.42l1.15,2.25a8.34,8.34,0,0,0,10.25,3.83l75-27.91c2.09-.77,5.06-3,4.18-5Z"/><path class="cls-22" d="M627.26,1197.33s21.42-9.25,31.6,5.57"/><ellipse class="cls-9" cx="653.06" cy="1170.36" rx="2.2" ry="2.13" transform="translate(-599.97 1645.91) rotate(-81.62)"/><ellipse class="cls-9" cx="662.55" cy="1175.21" rx="2.2" ry="2.13" transform="translate(-596.66 1659.45) rotate(-81.62)"/><ellipse class="cls-9" cx="674.27" cy="1178.57" rx="2.2" ry="2.13" transform="translate(-589.97 1673.92) rotate(-81.62)"/><path class="cls-22" d="M653.54,1170s7.39-4.72,6.93-6.83"/><path class="cls-22" d="M662.55,1175.21s7.77-6.11,6.34-8.1"/><path class="cls-22" d="M674.27,1178.57s6.7-4.49,4.55-7.48"/><path class="cls-19" d="M562.29,1269.91l-6.93,40.36s25.89,3.4,41.69,12.92,40.9,19.19,47.31,18.1c.43-5.78-1.61-19.22-26-35.46-8-7.34-18-28.92-18-28.92Z"/><path class="cls-9" d="M644.36,1341.29c-6.41,1.09-31.51-8.58-47.31-18.1s-41.69-12.92-41.69-12.92l-.41,2.49a8.34,8.34,0,0,0,6,9.18l76.85,22.16c2.14.62,5.86.59,6.32-1.52Z"/><path class="cls-22" d="M559.25,1293s22.72,5.31,22.09,23.29"/><ellipse class="cls-9" cx="596.03" cy="1286.67" rx="2.2" ry="2.13" transform="translate(-736.22 801) rotate(-45.12)"/><ellipse class="cls-9" cx="600.78" cy="1296.22" rx="2.2" ry="2.13" transform="translate(-741.59 807.17) rotate(-45.12)"/><ellipse class="cls-9" cx="608.2" cy="1305.9" rx="2.2" ry="2.13" transform="translate(-746.26 815.28) rotate(-45.12)"/><path class="cls-22" d="M596.64,1286.66s8.75.61,9.63-1.37"/><path class="cls-22" d="M600.78,1296.22s9.88-.29,9.91-2.74"/><path class="cls-22" d="M608.2,1305.9s8.06.37,8.11-3.31"/><path class="cls-11" d="M202.12,1267.2H336.45s17.71-88.57,51.66-118.09c-13.29,8.86-44.28,39.86-56.09,62,22.14-48.71,35.42-84.14,50.18-100.37l-5.9-23.62s-53.14,91.51-63.47,135.79c16.24-53.13,39.85-122.51,54.61-141.7h-5.9L335,1122.54l20.66-48.71v-36.9S301,1156.49,298.07,1212.58c-1.48-8.85,1.47-100.37,41.33-168.27-5.91,7.38-41.33,45.76-67.9,165.32,1.48-22.14-5.91-85.61,62-180.08a70.55,70.55,0,0,0-7.38-3s-48.71,56.09-64.94,106.28c10.33-29.53,47.23-131.37,47.23-131.37s-7.38-3-7.38-1.48-31,66.42-59,146.13C246.41,1124,286.26,1003,286.26,1003H277.4c0,1.48-54.61,103.33-48.71,208.13-2.95-19.19-11.8-125.47,35.43-205.17-5.91,1.47-20.67,4.42-20.67,4.42s-33.94,64.95-31,180.08c-5.91-13.28-20.67-47.23,0-112.18-4.43,5.91-10.34,23.62-10.34,23.62s-1.47-41.33,4.43-54.61l-22.14,23.61s-4.43,69.38,16.24,129.89c-4.43-3-29.52-72.32-29.52-115.13l-4.43,8.86s4.43,69.37,26.57,112.18c-5.91-5.91-28.05-47.24-29.52-82.66v36.9l-10.33-44.28s-3,26.22-3,29.52C150.46,1150.59,160.8,1203.73,202.12,1267.2Z"/><path class="cls-4" d="M163.58,1083.34S122.13,1027,59,1054c-8.93,3.83-10.21,25.51,39.54,49.74-8.93,0-17.86,0-25.51-2.55,7.65,12.75,26.78,54.84,29.33,75.25,5.1,2.55,14,10.2,34.44,8.93-12.76,3.82-17.86,6.37-33.16,8.93,5.1,8.92,39.63,77,102,72.69,56.12-3.82,56.12-82.9,56.12-82.9s-2.55,14-20.41,23c5.11-10.2,38.27-131.37-100.75-160.7C145.73,1051.46,159.76,1068,163.58,1083.34Z"/><path class="cls-6" d="M88.33,1068s126.27,39.54,117.34,199"/><path class="cls-12" d="M208.83,1267.5S176.5,1143.56,38.75,1168c6.74,3.11,16.19,6.59,25.24,17.17-7.31-5.29-26.4-12.07-44.31-6.52-4.44,4.36-45.09,40.21,9.65,87.82,2.43-5.74,7-18.9,7-18.9l8.55,26.5s32.15,2.68,56.31-8.94a37.65,37.65,0,0,0-.52-16.61l14.78,13S165.7,1244.05,208.83,1267.5Z"/><path class="cls-13" d="M208.83,1267.5s-53.8-75-144.22-42"/><path class="cls-23" d="M759.44,703.15H730.16A6.14,6.14,0,0,1,724,697h0a6.14,6.14,0,0,1,6.14-6.14h12.69a6.28,6.28,0,0,0,6.34-5.74,6.14,6.14,0,0,0-6.13-6.55H653a6.28,6.28,0,0,0-6.34,5.73,6.15,6.15,0,0,0,6.13,6.56h-25a6.28,6.28,0,0,0-6.34,5.73,6.13,6.13,0,0,0,6.13,6.55h41.77a6.15,6.15,0,0,0-6.13,6.55,6.28,6.28,0,0,0,6.34,5.74h90.09a6.15,6.15,0,0,0,6.13-6.55A6.29,6.29,0,0,0,759.44,703.15Z"/><path class="cls-23" d="M1197.51,918.44h-549a10,10,0,0,0,0,20h126a10,10,0,0,0,0,20h309a10,10,0,0,0,0-20h114a10,10,0,0,0,0-20Z"/><path class="cls-23" d="M1012.81,625a6.14,6.14,0,0,0,6.13-6.55,6.28,6.28,0,0,0-6.34-5.74h-33a6.14,6.14,0,0,0,6.13-6.55,6.28,6.28,0,0,0-6.34-5.73H900.16a6.28,6.28,0,0,0-6.34,5.73,6.14,6.14,0,0,0,6.13,6.55H884.19a6.28,6.28,0,0,0-6.34,5.74A6.14,6.14,0,0,0,884,625H857.77a6.28,6.28,0,0,0-6.34,5.73,6.14,6.14,0,0,0,6.13,6.55h46.07a6.16,6.16,0,0,0-6.13,6.56,6.29,6.29,0,0,0,6.34,5.73h103.84a6.28,6.28,0,0,0,6.34-5.73,6.14,6.14,0,0,0-6.13-6.56h-21.5a6.14,6.14,0,0,1-6.14-6.14h0a6.14,6.14,0,0,1,6.14-6.14Z"/><path class="cls-23" d="M1145.44,660.14h-19.72a6.15,6.15,0,0,0,0-12.29H1088a6.15,6.15,0,1,0,0,12.29h-9.5a6.14,6.14,0,0,0-6.14,6.14c0,3.39,2.75,6.14,7.37,6.14h67c2.16,0,4.91-2.75,4.91-6.14A6.14,6.14,0,0,0,1145.44,660.14Z"/><path class="cls-4" d="M834.51,724.94v45.64a8.86,8.86,0,0,1-8.86,8.86h-6.14v-80.5a29.5,29.5,0,0,0-29.5-29.5h0a29.5,29.5,0,0,0-29.5,29.5v147.5h-8.62a7.38,7.38,0,0,1-7.38-7.39V787.44a11,11,0,0,0-11-11h0a11,11,0,0,0-11,11v65a16,16,0,0,0,16,16h22v50h59v-110h15a29,29,0,0,0,29-29h0v-54.5a14.5,14.5,0,0,0-14.5-14.5h0A14.5,14.5,0,0,0,834.51,724.94Z"/><path class="cls-4" d="M1128.31,851.43v3.12a5.46,5.46,0,0,1-5.46,5.46h-5.59V762.48a16,16,0,0,0-16-16h0a16,16,0,0,0-16,16v59.95h-7.46a2.9,2.9,0,0,1-2.9-2.9V785.65a5.66,5.66,0,0,0-5.67-5.66h0a5.65,5.65,0,0,0-5.66,5.66v36.78h0a11.33,11.33,0,0,0,11.33,11.33h10.36v84.68h32.06V875.21h11a15.21,15.21,0,0,0,15.2-15.2h0v-8.58a7.6,7.6,0,0,0-7.6-7.6h0A7.6,7.6,0,0,0,1128.31,851.43Z"/><path class="cls-9" d="M1095.06,743.32s6-6.61,12.53-1.55c2.6-1.93,10.64-20.36.05-16.21,1.43-7.28.77-19.85-5.37-16.83s-5.36,18.29-5.36,18.29-3.39-13.34-8.64-10.36S1095.06,743.32,1095.06,743.32Z"/><path class="cls-9" d="M779.85,664.21s10.51-5.2,19.44-.85c.93-1.54,16-22.93,1.45-18.05-.14-3.24,1.59-14.8-5.19-15.75-7-1-10.53,10.46-9.31,15.4-1.38-2.94-8.3-7.13-9,.89S779.85,664.21,779.85,664.21Z"/><path class="cls-9" d="M738.31,772.12a21.11,21.11,0,0,0-11.69.9c-.72-3.95-3.6-19.78.89-19.78s5.4,7.19,5.4,7.19-3.42-16.55,2.34-16.37,3.6,15.29,3.6,15.29,3.95-9.71,7.37-6.66S741.37,768.7,738.31,772.12Z"/><g class="cls-24"><line class="cls-6" x1="859.51" y1="658.44" x2="859.51" y2="989.44"/><line class="cls-6" x1="839.51" y1="658.44" x2="839.51" y2="989.44"/><line class="cls-6" x1="818.51" y1="658.44" x2="818.51" y2="989.44"/><line class="cls-6" x1="798.51" y1="658.44" x2="798.51" y2="989.44"/><line class="cls-6" x1="778.51" y1="658.44" x2="778.51" y2="989.44"/><line class="cls-6" x1="758.51" y1="658.44" x2="758.51" y2="989.44"/><line class="cls-6" x1="739.51" y1="658.44" x2="739.51" y2="989.44"/><line class="cls-6" x1="719.51" y1="658.44" x2="719.51" y2="989.44"/></g><g class="cls-25"><line class="cls-6" x1="1052.51" y1="874.44" x2="1132.51" y2="948.44"/><line class="cls-6" x1="1072.51" y1="749.44" x2="1127.51" y2="931.44"/><path class="cls-6" d="M1042.51,810.44c1-2,120,64,120,64"/><line class="cls-6" x1="1074.51" y1="911.44" x2="1112.51" y2="723.44"/><path class="cls-6" d="M1066.51,862.44c1,1,89,49,89,49"/><line class="cls-6" x1="1047.51" y1="832.44" x2="1119.51" y2="708.44"/><line class="cls-6" x1="1081.51" y1="743.44" x2="1152.51" y2="826.44"/><path class="cls-6" d="M1124.51,752.44c-1,1,3,211,3,211"/><line class="cls-6" x1="1155.51" y1="850.44" x2="1023.51" y2="927.44"/></g><path class="cls-7" d="M1002.58,860.12a57.43,57.43,0,1,1-63.8-38.91"/><path class="cls-7" d="M971.1,856.51a43.79,43.79,0,1,1-50.67-2.29"/><path class="cls-7" d="M963.72,881.77a31.33,31.33,0,1,1-28.34-9.68"/><path class="cls-7" d="M928.73,931.79a16.77,16.77,0,0,1,12.2-31.09,16.57,16.57,0,0,1,5.9,3.09"/><line class="cls-7" x1="923.55" y1="820.16" x2="925.51" y2="825.05"/><line class="cls-7" x1="887.13" y1="858.89" x2="892.31" y2="861.24"/><line class="cls-7" x1="892.68" y1="893.47" x2="886.48" y2="895.52"/><line class="cls-7" x1="907.67" y1="857.36" x2="911.71" y2="860.7"/><line class="cls-7" x1="902.36" y1="878.4" x2="907.53" y2="880.75"/><line class="cls-7" x1="905.02" y1="895.08" x2="909.9" y2="896.51"/><line class="cls-7" x1="927.13" y1="868.07" x2="929.56" y2="873.68"/><line class="cls-7" x1="917.46" y1="881.91" x2="921.73" y2="886.57"/><line class="cls-7" x1="911.09" y1="913.35" x2="916.84" y2="911.92"/><line class="cls-7" x1="921.44" y1="899.04" x2="925.08" y2="904.27"/><line class="cls-7" x1="920.09" y1="921.34" x2="926.06" y2="920.47"/><line class="cls-7" x1="976.94" y1="862.02" x2="971.06" y2="866.67"/><line class="cls-7" x1="985.84" y1="877.68" x2="993.74" y2="874.96"/><line class="cls-7" x1="985.63" y1="902.72" x2="978.69" y2="900.7"/><line class="cls-7" x1="968.05" y1="887.79" x2="975.26" y2="883.79"/><line class="cls-7" x1="971.89" y1="905.42" x2="964.11" y2="904.8"/><line class="cls-7" x1="951.09" y1="923.6" x2="954.78" y2="930.16"/><line class="cls-7" x1="986.69" y1="910.56" x2="991.46" y2="915.45"/><line class="cls-7" x1="972.65" y1="929.77" x2="975.95" y2="935.88"/><line class="cls-7" x1="1003.34" y1="893.67" x2="1010.51" y2="894.92"/><line class="cls-7" x1="906.89" y1="837.76" x2="911.94" y2="842.71"/><line class="cls-7" x1="906.73" y1="929.77" x2="913.14" y2="923.6"/></g></g></svg>