<svg width="168" height="75" viewBox="0 0 168 75" fill="none" xmlns="http://www.w3.org/2000/svg">
<g clip-path="url(#clip0_5264_5030)">
<path d="M89.6543 29.5992C91.534 29.5911 93.4106 29.4702 95.2703 29.2373C96.101 29.1352 97.9063 28.35 98.2303 28.5418C98.5543 28.7335 98.7636 29.2611 96.861 29.6333C97.6983 29.5845 100.218 29.0365 100.94 29.3269C101.544 29.5697 102.04 30.5194 100.432 30.9279C99.5356 31.1548 94.8676 31.8867 89.6543 31.9355" fill="white"/>
<path d="M89.6543 29.5992C91.534 29.5911 93.4106 29.4702 95.2703 29.2373C96.101 29.1352 97.9063 28.35 98.2303 28.5418C98.5543 28.7335 98.7636 29.2611 96.861 29.6333C97.6983 29.5845 100.218 29.0365 100.94 29.3269C101.544 29.5697 102.04 30.5194 100.432 30.9279C99.5356 31.1548 94.8676 31.8867 89.6543 31.9355" stroke="#1D1E26" stroke-width="0.228571" stroke-miterlimit="10" stroke-linecap="round"/>
<path d="M109.018 23.7176C111.031 20.7073 110.544 17.2412 107.931 15.9759C105.318 14.7105 101.567 16.1251 99.5547 19.1353C97.5419 22.1456 98.0286 25.6117 100.642 26.8771C103.255 28.1424 107.005 26.7279 109.018 23.7176Z" fill="#00689B"/>
<path d="M103.134 25.9997C102.553 26.0044 101.98 25.8788 101.474 25.6355C100.483 25.1566 99.8501 24.2648 99.6901 23.1256C99.5301 21.9864 99.8568 20.7633 100.605 19.6445C101.737 17.9505 103.635 16.8556 105.441 16.8556C106.022 16.851 106.595 16.9766 107.101 17.2198C108.091 17.6998 108.725 18.5905 108.885 19.7296C109.045 20.8688 108.718 22.092 107.97 23.2107C106.837 24.9048 104.934 25.9997 103.134 25.9997Z" fill="white"/>
<path d="M105.44 16.9692C106 16.9641 106.552 17.0847 107.04 17.3187C109.01 18.2729 109.377 20.886 107.86 23.1553C106.72 24.8573 104.84 25.8864 103.14 25.8864C102.579 25.8914 102.028 25.7709 101.54 25.5369C99.5703 24.5838 99.2023 21.9707 100.721 19.7014C101.861 17.9995 103.741 16.9692 105.441 16.9692H105.44ZM105.441 16.7423C103.589 16.7423 101.646 17.8599 100.49 19.5891C99.7276 20.7238 99.397 21.9889 99.557 23.1394C99.7223 24.3149 100.38 25.2362 101.408 25.7343C101.936 25.9885 102.534 26.1193 103.141 26.1133C104.993 26.1133 106.936 24.9968 108.093 23.2676C108.854 22.1273 109.185 20.8667 109.026 19.7162C108.861 18.5407 108.204 17.6194 107.176 17.1213C106.649 16.8686 106.054 16.7379 105.45 16.7423H105.441Z" fill="#1D1E26"/>
<path d="M101.485 27.4455L99.3496 26.4414L99.1484 26.7513L101.284 27.7554L101.485 27.4455Z" fill="#1D1E26"/>
<path d="M97.4839 33.0415C97.0919 33.1958 96.0586 32.6898 95.9679 32.3289C95.6826 31.1841 99.6133 26.9609 99.6133 26.9609L100.827 27.5283C100.827 27.5283 98.6546 32.5808 97.4839 33.0415Z" fill="#008ACE"/>
<path d="M95.9112 34.9183C96.5806 34.9183 97.1232 34.4565 97.1232 33.8869C97.1232 33.3172 96.5806 32.8555 95.9112 32.8555C95.2419 32.8555 94.6992 33.3172 94.6992 33.8869C94.6992 34.4565 95.2419 34.9183 95.9112 34.9183Z" fill="#008ACE"/>
<path d="M96.4988 32.9821C96.7286 33.0902 96.9107 33.2591 97.0175 33.4632L97.2735 33.0684C96.8601 33.0513 96.2161 32.728 96.0201 32.4375L95.7441 32.8641C96.0041 32.833 96.2689 32.8744 96.4988 32.9821V32.9821Z" fill="#1D1E26"/>
<path d="M89.6543 29.5992C91.534 29.5911 93.4106 29.4701 95.2703 29.2373C96.101 29.1352 97.9063 28.35 98.2303 28.5418C98.5543 28.7335 98.7636 29.2611 96.861 29.6333" fill="white"/>
<path d="M89.6543 29.5992C91.534 29.5911 93.4106 29.4701 95.2703 29.2373C96.101 29.1352 97.9063 28.35 98.2303 28.5418C98.5543 28.7335 98.7636 29.2611 96.861 29.6333" stroke="#1D1E26" stroke-width="0.228571" stroke-miterlimit="10" stroke-linecap="round"/>
<path d="M81.107 17.6576C81.107 17.6576 81.7323 18.2181 81.5937 19.8735C81.455 21.529 82.5056 26.7722 83.423 27.5528C84.3403 28.3334 85.519 29.0017 92.5963 28.7793C92.7297 29.4488 93.2523 32.6825 93.2523 32.6825C93.2523 32.6825 85.519 32.9094 83.8163 32.4556C82.1137 32.0017 79.3457 32.9594 77.911 22.6137C77.4017 21.1103 80.1016 17.5781 81.107 17.6576Z" fill="#1D1E26"/>
<path d="M49.5742 43.9656C49.5742 43.9656 62.3862 49.1317 80.3422 41.997C79.8182 40.2122 73.9196 23.2618 83.3569 15.0061C80.8662 13.5572 75.7569 9.98759 73.1342 10.8794C70.5116 11.7712 55.0476 19.0216 49.5742 43.9656Z" fill="#00689B"/>
<path d="M82.1765 18.3508C82.1765 18.3508 83.4738 27.0399 84.1418 27.6084C85.3218 28.6114 91.4751 28.389 91.4751 28.389L91.8751 33.0728C91.8751 33.0728 82.4391 33.6311 80.8658 32.0698C79.4458 30.6595 77.9831 28.1655 78.3751 26.1583C78.7671 24.1511 80.8658 17.7937 82.1765 18.3508Z" fill="#008ACE"/>
<mask id="mask0_5264_5030" style="mask-type:alpha" maskUnits="userSpaceOnUse" x="78" y="18" width="14" height="16">
<path d="M82.1765 18.3508C82.1765 18.3508 83.4738 27.0399 84.1418 27.6084C85.3218 28.6114 91.4751 28.389 91.4751 28.389L91.8751 33.0728C91.8751 33.0728 82.4391 33.6311 80.8658 32.0698C79.4458 30.6595 77.9831 28.1655 78.3751 26.1583C78.7671 24.1511 80.8658 17.7937 82.1765 18.3508Z" fill="#008ACE"/>
</mask>
<g mask="url(#mask0_5264_5030)">
<path d="M80.7578 5.82031V27.2333" stroke="white" stroke-width="0.228571" stroke-linecap="round" stroke-linejoin="round"/>
<path d="M84.6406 5.82031V27.2333" stroke="white" stroke-width="0.228571" stroke-linecap="round" stroke-linejoin="round"/>
<path d="M88.5215 5.82031V27.2333" stroke="white" stroke-width="0.228571" stroke-linecap="round" stroke-linejoin="round"/>
<path d="M26.8145 21.1172H107.725" stroke="white" stroke-width="0.228571" stroke-linecap="round" stroke-linejoin="round"/>
<path d="M26.8145 27.2344H107.725" stroke="white" stroke-width="0.228571" stroke-linecap="round" stroke-linejoin="round"/>
<path d="M26.8145 24.1758H107.725" stroke="white" stroke-width="0.228571" stroke-linecap="round" stroke-linejoin="round"/>
<path d="M80.7578 27.2344V48.6485" stroke="white" stroke-width="0.228571" stroke-linecap="round" stroke-linejoin="round"/>
<path d="M84.6406 27.2344V48.6485" stroke="white" stroke-width="0.228571" stroke-linecap="round" stroke-linejoin="round"/>
<path d="M88.5215 27.2344V48.6485" stroke="white" stroke-width="0.228571" stroke-linecap="round" stroke-linejoin="round"/>
<path d="M26.8145 27.2344H107.725" stroke="white" stroke-width="0.228571" stroke-linecap="round" stroke-linejoin="round"/>
<path d="M26.8145 30.293H107.725" stroke="white" stroke-width="0.228571" stroke-linecap="round" stroke-linejoin="round"/>
</g>
<path d="M83.3567 15.0039C83.3567 15.0039 85.5847 17.4581 85.5847 18.6847C84.7981 18.5712 82.5701 18.1276 82.1767 18.6847C81.7834 19.2418 77.9834 27.4952 78.3754 33.2955C77.8514 31.5107 76.1474 16.7921 83.3567 15.0039Z" fill="#00689B"/>
<path d="M79.8381 14.3556C80.2062 14.8996 80.7282 15.3567 81.3567 15.6854C84.93 17.1672 87.7807 13.5126 88.8967 12.0545C88.8967 12.0545 92.0034 8.32269 87.4074 5.86846C82.9167 3.46869 80.9341 7.36392 81.0194 7.26066C81.5754 7.73154 81.5861 8.59274 81.5861 8.59274C81.5861 8.59274 81.394 6.80681 79.798 7.07004C78.8994 7.21755 78.1647 8.28298 78.314 9.05227C78.3642 9.3082 78.4964 9.54738 78.6961 9.7434C78.8959 9.93941 79.1554 10.0847 79.4461 10.1631C79.4728 10.17 79.4975 10.1814 79.5188 10.1967C79.5402 10.2121 79.5576 10.2309 79.5701 10.2521C79.5825 10.2734 79.5898 10.2966 79.5914 10.3203C79.593 10.344 79.5889 10.3677 79.5794 10.39C78.6581 12.1589 78.9754 13.2947 78.9754 13.2947C78.9754 13.2947 78.3007 14.4827 76.3674 15.4687C76.3674 15.4687 76.3141 16.6691 77.9674 17.5337C79.7341 18.4596 80.0527 17.6994 80.0527 17.6994C80.2246 16.9271 80.6814 16.2216 81.3567 15.6854C84.93 17.1672 87.7807 13.5126 88.8967 12.0545" fill="white"/>
<path d="M79.8381 14.3556C80.2062 14.8996 80.7282 15.3567 81.3567 15.6854C84.93 17.1672 87.7807 13.5126 88.8967 12.0545C88.8967 12.0545 92.0034 8.32269 87.4074 5.86846C82.9167 3.46869 80.9341 7.36392 81.0194 7.26066C81.5754 7.73154 81.5861 8.59274 81.5861 8.59274C81.5861 8.59274 81.394 6.80681 79.798 7.07004C78.8994 7.21755 78.1647 8.28298 78.314 9.05227C78.3642 9.3082 78.4964 9.54738 78.6961 9.7434C78.8959 9.93941 79.1554 10.0847 79.4461 10.1631C79.4728 10.17 79.4975 10.1814 79.5188 10.1967C79.5402 10.2121 79.5576 10.2309 79.5701 10.2521C79.5825 10.2734 79.5898 10.2966 79.5914 10.3203C79.593 10.344 79.5889 10.3677 79.5794 10.39C78.6581 12.1589 78.9754 13.2947 78.9754 13.2947C78.9754 13.2947 78.3007 14.4827 76.3674 15.4687C76.3674 15.4687 76.3141 16.6691 77.9674 17.5337C79.7341 18.4596 80.0527 17.6994 80.0527 17.6994C80.2246 16.9271 80.6814 16.2216 81.3567 15.6854C84.93 17.1672 87.7807 13.5126 88.8967 12.0545" stroke="#1D1E26" stroke-width="0.228571" stroke-linecap="round" stroke-linejoin="round"/>
<path d="M80.377 7.84766C80.377 7.84766 81.0023 8.38094 80.4823 9.1593" stroke="#1D1E26" stroke-width="0.228571" stroke-miterlimit="10" stroke-linecap="round"/>
<path d="M83.6175 11.6587C83.8097 11.6587 83.9655 11.5261 83.9655 11.3625C83.9655 11.199 83.8097 11.0664 83.6175 11.0664C83.4253 11.0664 83.2695 11.199 83.2695 11.3625C83.2695 11.5261 83.4253 11.6587 83.6175 11.6587Z" fill="#1D1E26"/>
<path d="M86.2577 13.6168C86.4388 13.6168 86.5857 13.4919 86.5857 13.3377C86.5857 13.1836 86.4388 13.0586 86.2577 13.0586C86.0765 13.0586 85.9297 13.1836 85.9297 13.3377C85.9297 13.4919 86.0765 13.6168 86.2577 13.6168Z" fill="#1D1E26"/>
<path d="M85.2597 12.1406C85.2597 12.1406 83.9504 14.259 83.593 14.419C83.2357 14.579 82.957 13.9833 82.957 13.9833" stroke="#1D1E26" stroke-width="0.228571" stroke-miterlimit="10" stroke-linecap="round"/>
<path d="M80.9698 13.5625C80.9698 13.5625 80.4205 14.2785 81.5805 14.6552" stroke="#1D1E26" stroke-width="0.228571" stroke-miterlimit="10" stroke-linecap="round"/>
<path d="M85.5475 10.1027C85.5806 9.86055 85.0389 9.60785 84.3375 9.53826C83.636 9.46867 83.0405 9.60854 83.0073 9.85066C82.9742 10.0928 83.5159 10.3455 84.2173 10.4151C84.9188 10.4847 85.5143 10.3448 85.5475 10.1027Z" fill="#1D1E26"/>
<path d="M88.1678 13.6175C88.3946 13.4687 88.2687 13.0061 87.8865 12.5842C87.5044 12.1624 87.0107 11.9411 86.7838 12.0899C86.557 12.2387 86.6829 12.7013 87.065 13.1232C87.4472 13.545 87.9409 13.7663 88.1678 13.6175Z" fill="#1D1E26"/>
<path d="M80.619 8.70354C80.4619 8.53085 80.2363 8.41269 79.9844 8.37109" stroke="#1D1E26" stroke-width="0.228571" stroke-miterlimit="10" stroke-linecap="round"/>
<path d="M80.9541 10.1165C81.2834 10.23 82.7208 7.63167 84.5981 8.74249C86.4754 9.8533 87.9314 13.0541 92.2754 12.3733C96.6194 11.6926 95.8301 7.28787 93.7688 6.3881C95.1768 6.35406 96.5021 0.169121 87.5994 2.2614C87.1021 0.219045 82.8714 -0.700016 81.1994 0.607093C79.2448 2.13886 80.8848 3.54355 80.8848 3.54355C80.8848 3.54355 75.6114 3.96223 75.6074 8.13772C75.6074 12.1793 78.8661 13.1755 78.8661 13.1755C78.8661 13.1755 78.6594 12.1623 79.4768 10.331C79.4859 10.3087 79.4897 10.285 79.4879 10.2614C79.4861 10.2378 79.4788 10.2147 79.4664 10.1936C79.454 10.1724 79.4367 10.1536 79.4156 10.1382C79.3944 10.1228 79.3699 10.1112 79.3434 10.1041C79.0531 10.0253 78.794 9.87999 78.5945 9.684C78.395 9.48802 78.2629 9.249 78.2128 8.99324C78.0621 8.22396 78.7928 7.13924 79.6954 7.01102C80.5981 6.88281 81.5314 7.63848 81.4834 8.52917C81.4501 9.05111 80.2034 9.87146 80.9541 10.1165Z" fill="#1D1E26"/>
<path d="M87.5998 2.26172C87.5931 2.2708 87.8144 3.96368 86.9558 3.36005C86.2411 2.85854 87.5998 2.26172 87.5998 2.26172Z" stroke="white" stroke-width="0.114286" stroke-linecap="round" stroke-linejoin="round"/>
<path d="M80.875 3.55469C80.8857 3.56036 81.603 5.15113 82.0403 4.27972C82.403 3.55355 80.875 3.55469 80.875 3.55469Z" stroke="white" stroke-width="0.114286" stroke-linecap="round" stroke-linejoin="round"/>
<path d="M93.8519 6.41845C93.8399 6.41845 92.4093 7.56104 92.1773 6.63404C92.0226 6.01452 93.8519 6.41845 93.8519 6.41845Z" stroke="white" stroke-width="0.114286" stroke-linecap="round" stroke-linejoin="round"/>
<path d="M85.2617 8.24219C85.2617 8.24219 87.8457 10.836 89.6697 11.3942C91.9137 12.0818 93.4404 11.4714 94.4031 10.1802" stroke="white" stroke-width="0.114286" stroke-linecap="round" stroke-linejoin="round"/>
<path d="M44.5176 60.5699L45.9589 58.582L49.5749 60.4349L47.8669 62.686L47.0322 62.2776C46.1608 62.0735 45.3988 61.6199 44.8749 60.9931L44.5176 60.5699Z" fill="white" stroke="#1D1E26" stroke-width="0.228571" stroke-linecap="round" stroke-linejoin="round"/>
<path d="M75.8866 73.1102C70.2426 70.0727 69.8572 59.9483 61.9932 62.6272C48.4172 67.2486 30.7999 65.6386 28.8359 49.4688C26.8719 33.299 7.35458 30.1027 7.99991 38.9824C8.52391 46.2316 17.3052 45.4498 20.1879 43.2203C23.0706 40.9907 32.0612 30.2173 22.8092 26.937C14.9426 24.1492 1.97058 29.0565 0.142578 19.9102" stroke="#1D1E26" stroke-width="0.228571" stroke-linecap="round" stroke-linejoin="round" stroke-dasharray="0.91 0.91"/>
<path d="M161.698 67.3125H8.7992C7.33253 67.3125 6.14453 68.1612 6.14453 69.2085C6.14453 70.2558 7.33253 71.1045 8.7992 71.1045H27.6912C26.2245 71.1045 25.0379 71.9532 25.0379 73.0005C25.0379 74.0477 26.2259 74.8965 27.6912 74.8965H144.715C146.182 74.8965 147.369 74.0477 147.369 73.0005C147.369 71.9532 146.181 71.1045 144.715 71.1045H161.698C163.165 71.1045 164.351 70.2558 164.351 69.2085C164.351 68.1612 163.163 67.3125 161.698 67.3125Z" fill="#F5F6FA"/>
<path d="M75.0996 59.6168V62.2935L79.1916 62.2685L79.4249 59.0586L75.0996 59.6168Z" fill="white" stroke="#1D1E26" stroke-width="0.228571" stroke-linecap="round" stroke-linejoin="round"/>
<path d="M23.6618 66.7063L23.0658 67.0944L23.5605 66.3841C23.3533 65.7871 23.0713 65.2107 22.7191 64.6651L22.0231 65.2608L22.4792 64.3111C22.0612 63.7222 21.5581 63.1801 20.9818 62.6976L20.3151 63.4351L20.6392 62.431C20.0933 62.0201 19.4824 61.6764 18.8245 61.4098L18.6912 62.0316C18.6912 62.0316 18.6111 61.6356 18.5298 61.2975C17.8499 61.0564 17.1303 60.906 16.3965 60.8516C16.4068 61.6685 16.5091 62.4827 16.7018 63.2831C17.0925 63.4715 17.5018 63.6768 17.5018 63.6768L16.7805 63.6122C16.971 64.3397 17.2531 65.0476 17.6218 65.7237C18.0818 65.8224 18.7018 65.9336 18.7018 65.9336L17.7765 65.9881C18.1904 66.6881 18.7538 67.3164 19.4378 67.841L20.4885 67.8296L19.7885 68.0838C20.7738 68.7169 22.0471 69.1288 23.6885 69.1424C23.9578 68.5603 23.9445 67.6799 23.6618 66.7063Z" fill="white" stroke="#9BDEFF" stroke-width="0.228571" stroke-linecap="round" stroke-linejoin="round"/>
<path d="M16.3945 60.8516L23.6905 69.1424" stroke="#9BDEFF" stroke-width="0.228571" stroke-linecap="round" stroke-linejoin="round"/>
<path d="M25.8032 67.2546L25.0032 67.1627L26.0152 66.9358C26.4002 66.3277 26.7103 65.6874 26.9406 65.025L25.8819 65.033L27.0819 64.5882C27.3024 63.8485 27.417 63.0888 27.4232 62.3257L26.2659 62.463L27.4166 61.8878C27.38 61.2057 27.2338 60.5311 26.9819 59.8828L26.3152 60.2811C26.3152 60.2811 26.6139 59.9157 26.8592 59.6003C26.5717 58.9639 26.171 58.3688 25.6712 57.8359C24.9386 58.4877 24.2788 59.1961 23.7006 59.9521C23.8219 60.3583 23.9446 60.794 23.9446 60.794L23.4659 60.2607C22.9488 60.9605 22.5189 61.7043 22.1832 62.48C22.4379 62.8613 22.8006 63.3605 22.8006 63.3605L22.0592 62.7932C21.7354 63.6178 21.5881 64.4852 21.6246 65.3541L22.4179 66.0349L21.6659 65.7705C21.8286 66.9233 22.4059 68.0908 23.6206 69.1903C24.3472 68.9078 25.1339 68.2077 25.8032 67.2546Z" fill="#008ACE"/>
<path d="M25.6704 57.832L23.6211 69.1921" stroke="white" stroke-width="0.228571" stroke-linecap="round" stroke-linejoin="round"/>
<path d="M64.1558 40.3799C64.1558 40.3799 62.0598 47.0743 59.8318 50.8628C58.1904 53.6563 49.8664 61.1246 49.8664 61.1246L44.7598 58.5591C44.7598 58.5591 51.7051 50.8628 52.0931 49.3016C52.4811 47.7403 52.3598 39.3757 54.4518 36.6991C56.5438 34.0225 58.1331 31.457 58.1331 31.457C58.1331 31.457 62.1958 33.6877 70.9771 32.5724C72.0251 34.3572 74.4504 36.3088 76.1531 38.2048C77.8558 40.1007 82.5704 45.9793 83.1651 47.1832C84.2144 49.3016 79.7571 59.7857 79.7571 59.7857H75.0344C75.0344 59.7857 74.3784 50.7516 75.5584 48.9668C74.5104 48.2985 66.7771 44.1718 64.1558 40.3799Z" fill="white" stroke="#1D1E26" stroke-width="0.228571" stroke-miterlimit="10" stroke-linecap="round"/>
<path d="M57.6781 14.0848C57.6781 14.0848 51.9114 14.5307 44.3101 20.5523C43.6954 21.039 42.7381 22.5606 42.3447 22.5606C41.9514 22.5606 41.4274 22.2202 42.7447 20.9993C42.0887 21.4452 40.3847 23.1177 39.5994 23.23C38.9394 23.3231 37.8954 22.783 38.9434 21.6676C39.9914 20.5523 49.9527 12.1877 58.0647 11.3242" fill="white"/>
<path d="M57.6781 14.0848C57.6781 14.0848 51.9114 14.5307 44.3101 20.5523C43.6954 21.039 42.7381 22.5606 42.3447 22.5606C41.9514 22.5606 41.4274 22.2202 42.7447 20.9993C42.0887 21.4452 40.3847 23.1177 39.5994 23.23C38.9394 23.3231 37.8954 22.783 38.9434 21.6676C39.9914 20.5523 49.9527 12.1877 58.0647 11.3242" stroke="#1D1E26" stroke-width="0.228571" stroke-miterlimit="10" stroke-linecap="round"/>
<path d="M42.8594 17.3461L46.0007 19.9104C46.0007 19.9104 56.2234 12.6612 64.0874 14.446C65.7914 14.8919 59.894 24.8177 58.0594 31.5099C58.0594 31.9558 64.0874 35.9713 71.034 32.6252C81.65 20.5799 81.126 17.6797 81.126 17.6797C81.126 17.6797 76.67 17.1226 76.4074 14.1113C75.2274 11.6582 71.8554 8.82381 59.5007 10.2081C49.5434 11.3234 42.8594 17.3461 42.8594 17.3461Z" fill="#1D1E26"/>
<path d="M44.3005 15.5616L47.1832 19.4647C47.0845 19.4954 59.2405 12.6569 63.1725 15.2268C63.1725 15.2268 62.2018 18.7442 53.0805 25.1527C50.0672 27.2722 39.9752 31.5067 36.1738 31.9606C36.4405 32.9647 44.9552 44.5642 46.3965 45.6795C47.7072 44.8944 64.6138 36.5343 68.0218 29.8399C71.4298 23.1455 75.3618 18.2404 79.8178 16.1209C79.6845 15.4526 77.9832 9.42654 76.0165 8.42578C75.2298 8.98289 73.1338 10.6565 73.1338 10.6565C73.1338 10.6565 61.4658 5.30097 44.3005 15.5616Z" fill="#008ACE"/>
<mask id="mask1_5264_5030" style="mask-type:alpha" maskUnits="userSpaceOnUse" x="36" y="8" width="44" height="38">
<path d="M44.3005 15.5616L47.1832 19.4647C47.0845 19.4954 59.2405 12.6569 63.1725 15.2268C63.1725 15.2268 62.2018 18.7442 53.0805 25.1527C50.0672 27.2722 39.9752 31.5067 36.1738 31.9606C36.4405 32.9647 44.9552 44.5642 46.3965 45.6795C47.7072 44.8944 64.6138 36.5343 68.0218 29.8399C71.4298 23.1455 75.3618 18.2404 79.8178 16.1209C79.6845 15.4526 77.9832 9.42654 76.0165 8.42578C75.2298 8.98289 73.1338 10.6565 73.1338 10.6565C73.1338 10.6565 61.4658 5.30097 44.3005 15.5616Z" fill="#008ACE"/>
</mask>
<g mask="url(#mask1_5264_5030)">
<path d="M38.0625 5.81641V27.2294" stroke="white" stroke-width="0.228571" stroke-linecap="round" stroke-linejoin="round"/>
<path d="M41.9434 5.81641V27.2294" stroke="white" stroke-width="0.228571" stroke-linecap="round" stroke-linejoin="round"/>
<path d="M45.8242 5.81641V27.2294" stroke="white" stroke-width="0.228571" stroke-linecap="round" stroke-linejoin="round"/>
<path d="M49.707 5.81641V27.2294" stroke="white" stroke-width="0.228571" stroke-linecap="round" stroke-linejoin="round"/>
<path d="M53.5879 5.81641V27.2294" stroke="white" stroke-width="0.228571" stroke-linecap="round" stroke-linejoin="round"/>
<path d="M57.4688 5.81641V27.2294" stroke="white" stroke-width="0.228571" stroke-linecap="round" stroke-linejoin="round"/>
<path d="M61.3516 5.81641V27.2294" stroke="white" stroke-width="0.228571" stroke-linecap="round" stroke-linejoin="round"/>
<path d="M65.2324 5.81641V27.2294" stroke="white" stroke-width="0.228571" stroke-linecap="round" stroke-linejoin="round"/>
<path d="M69.1152 5.81641V27.2294" stroke="white" stroke-width="0.228571" stroke-linecap="round" stroke-linejoin="round"/>
<path d="M72.9961 5.81641V27.2294" stroke="white" stroke-width="0.228571" stroke-linecap="round" stroke-linejoin="round"/>
<path d="M76.877 5.81641V27.2294" stroke="white" stroke-width="0.228571" stroke-linecap="round" stroke-linejoin="round"/>
<path d="M26.8145 8.875H107.725" stroke="white" stroke-width="0.228571" stroke-linecap="round" stroke-linejoin="round"/>
<path d="M26.8145 11.9336H107.725" stroke="white" stroke-width="0.228571" stroke-linecap="round" stroke-linejoin="round"/>
<path d="M26.8145 14.9922H107.725" stroke="white" stroke-width="0.228571" stroke-linecap="round" stroke-linejoin="round"/>
<path d="M26.8145 18.0508H107.725" stroke="white" stroke-width="0.228571" stroke-linecap="round" stroke-linejoin="round"/>
<path d="M26.8145 21.1133H107.725" stroke="white" stroke-width="0.228571" stroke-linecap="round" stroke-linejoin="round"/>
<path d="M26.8145 27.2305H107.725" stroke="white" stroke-width="0.228571" stroke-linecap="round" stroke-linejoin="round"/>
<path d="M26.8145 24.1719H107.725" stroke="white" stroke-width="0.228571" stroke-linecap="round" stroke-linejoin="round"/>
<path d="M38.0625 27.2305V48.6446" stroke="white" stroke-width="0.228571" stroke-linecap="round" stroke-linejoin="round"/>
<path d="M41.9434 27.2305V48.6446" stroke="white" stroke-width="0.228571" stroke-linecap="round" stroke-linejoin="round"/>
<path d="M45.8242 27.2305V48.6446" stroke="white" stroke-width="0.228571" stroke-linecap="round" stroke-linejoin="round"/>
<path d="M49.707 27.2305V48.6446" stroke="white" stroke-width="0.228571" stroke-linecap="round" stroke-linejoin="round"/>
<path d="M53.5879 27.2305V48.6446" stroke="white" stroke-width="0.228571" stroke-linecap="round" stroke-linejoin="round"/>
<path d="M57.4688 27.2305V48.6446" stroke="white" stroke-width="0.228571" stroke-linecap="round" stroke-linejoin="round"/>
<path d="M61.3516 27.2305V48.6446" stroke="white" stroke-width="0.228571" stroke-linecap="round" stroke-linejoin="round"/>
<path d="M65.2324 27.2305V48.6446" stroke="white" stroke-width="0.228571" stroke-linecap="round" stroke-linejoin="round"/>
<path d="M69.1152 27.2305V48.6446" stroke="white" stroke-width="0.228571" stroke-linecap="round" stroke-linejoin="round"/>
<path d="M72.9961 27.2305V48.6446" stroke="white" stroke-width="0.228571" stroke-linecap="round" stroke-linejoin="round"/>
<path d="M76.877 27.2305V48.6446" stroke="white" stroke-width="0.228571" stroke-linecap="round" stroke-linejoin="round"/>
<path d="M26.8145 27.2305H107.725" stroke="white" stroke-width="0.228571" stroke-linecap="round" stroke-linejoin="round"/>
<path d="M26.8145 30.2891H107.725" stroke="white" stroke-width="0.228571" stroke-linecap="round" stroke-linejoin="round"/>
<path d="M26.8145 33.3477H107.725" stroke="white" stroke-width="0.228571" stroke-linecap="round" stroke-linejoin="round"/>
<path d="M26.8145 36.4062H107.725" stroke="white" stroke-width="0.228571" stroke-linecap="round" stroke-linejoin="round"/>
<path d="M26.8145 39.4648H107.725" stroke="white" stroke-width="0.228571" stroke-linecap="round" stroke-linejoin="round"/>
<path d="M26.8145 42.5234H107.725" stroke="white" stroke-width="0.228571" stroke-linecap="round" stroke-linejoin="round"/>
<path d="M26.8145 45.5859H107.725" stroke="white" stroke-width="0.228571" stroke-linecap="round" stroke-linejoin="round"/>
</g>
<path d="M151.447 68.5727C151.447 68.5727 152.175 66.6915 153.125 65.9631C153.226 66.1469 153.356 66.3183 153.511 66.4725L153.674 65.6658C153.674 65.6658 155.57 63.9241 157.018 63.839C157.116 64.2137 157.285 64.5724 157.518 64.901L157.867 63.5395C157.867 63.5395 160.063 62.8167 161.067 62.9869C161.117 63.2842 161.217 63.7097 161.267 64.092C161.517 63.7516 161.966 63.0708 161.966 63.0708C161.966 63.0708 163.566 63.283 164.213 63.7936C164.213 64.26 163.114 65.836 162.515 66.2569C162.115 66.1299 161.267 66.0448 161.267 66.0448L162.215 66.8095C162.215 66.8095 160.713 68.305 160.267 68.305C159.967 68.2199 159.019 67.8806 159.019 67.8806L159.469 68.6022C159.469 68.6022 158.307 69.0992 151.447 68.5727Z" fill="white" stroke="#00689B" stroke-width="0.228571" stroke-linecap="round" stroke-linejoin="round"/>
<path d="M164.206 63.8047C164.206 63.8047 154.22 68.1799 151.426 68.6042Z" fill="white"/>
<path d="M164.206 63.8047C164.206 63.8047 154.22 68.1799 151.426 68.6042" stroke="#00689B" stroke-width="0.228571" stroke-linecap="round" stroke-linejoin="round"/>
<path d="M162.558 63.6328L161.943 64.772" stroke="#00689B" stroke-width="0.228571" stroke-linecap="round" stroke-linejoin="round"/>
<path d="M159.563 63.8047L158.863 66.0456" stroke="#00689B" stroke-width="0.228571" stroke-linecap="round" stroke-linejoin="round"/>
<path d="M156.019 65.0352L155.383 67.3929" stroke="#00689B" stroke-width="0.228571" stroke-linecap="round" stroke-linejoin="round"/>
<path d="M157.616 68.1768L154.898 67.5664" stroke="#00689B" stroke-width="0.228571" stroke-linecap="round" stroke-linejoin="round"/>
<path d="M160.611 67.2001L158.229 66.2969" stroke="#00689B" stroke-width="0.228571" stroke-linecap="round" stroke-linejoin="round"/>
<path d="M162.859 65.0331L161.584 64.9219" stroke="#00689B" stroke-width="0.228571" stroke-linecap="round" stroke-linejoin="round"/>
<path d="M156.868 61.9452C156.868 61.9452 156.768 61.3086 155.82 61.3086C155.484 61.3086 155.969 59.0995 156.518 59.3117C157.068 59.5238 156.518 60.2466 156.518 60.2466C156.518 60.2466 157.766 58.5446 158.414 59.0995C158.906 59.5182 157.566 60.9263 157.566 60.9263C157.566 60.9263 158.366 60.5008 158.565 60.7561C158.764 61.0114 158.316 61.5208 156.868 61.9452Z" fill="#1D1E26"/>
<path d="M149.978 60.3311C149.978 60.3311 149.129 59.7786 148.33 60.5853C148.031 60.1609 147.382 59.0558 147.831 58.8016C148.281 58.5475 148.631 59.3111 148.631 59.3111C148.631 59.3111 148.082 57.4423 148.881 57.3992C149.679 57.3561 149.481 59.1409 149.481 59.1409C149.481 59.1409 150.029 57.8247 150.529 58.164C151.029 58.5032 149.978 60.3311 149.978 60.3311Z" fill="#1D1E26"/>
<path d="M155.019 55.8707C155.019 55.8707 154.471 55.149 153.722 55.4463C153.522 55.1059 153.273 53.0635 153.971 53.3222C154.67 53.5809 154.266 54.4648 154.266 54.4648C154.266 54.4648 154.915 52.511 155.563 52.8934C156.211 53.2757 155.014 54.677 155.014 54.677C155.014 54.677 155.814 53.7421 156.263 53.9962C156.713 54.2504 156.118 55.1456 155.019 55.8707Z" fill="#1D1E26"/>
<path d="M151.957 68.7591C151.957 68.7591 157.072 62.8011 156.275 61.983C155.551 61.2398 153.904 62.3438 152.408 64.511C153.855 61.9614 155.752 56.5242 154.055 56.0568C152.357 55.5893 150.76 62.8533 150.855 63.7031C150.505 61.2818 149.727 60.2459 148.855 60.98C148.055 61.6608 148.617 67.081 148.98 68.7546L151.957 68.7591Z" fill="#9BDEFF"/>
<mask id="mask2_5264_5030" style="mask-type:alpha" maskUnits="userSpaceOnUse" x="148" y="56" width="9" height="13">
<path d="M151.957 68.7591C151.957 68.7591 157.072 62.8011 156.275 61.983C155.551 61.2398 153.904 62.3438 152.408 64.511C153.855 61.9614 155.752 56.5242 154.055 56.0568C152.357 55.5893 150.76 62.8533 150.855 63.7031C150.505 61.2818 149.727 60.2459 148.855 60.98C148.055 61.6608 148.617 67.081 148.98 68.7546L151.957 68.7591Z" fill="#9BDEFF"/>
</mask>
<g mask="url(#mask2_5264_5030)">
<path d="M156.633 65.2812L150.494 70.4643" stroke="white" stroke-width="0.228571" stroke-linecap="round" stroke-linejoin="round"/>
<path d="M156.287 58.0195L148.613 71.4855" stroke="white" stroke-width="0.228571" stroke-linecap="round" stroke-linejoin="round"/>
<path d="M157.869 67.2357L147.92 55.7656" stroke="white" stroke-width="0.228571" stroke-linecap="round" stroke-linejoin="round"/>
<path d="M141.236 61.2891L150.494 71.4838" stroke="white" stroke-width="0.228571" stroke-linecap="round" stroke-linejoin="round"/>
<path d="M141.93 59.5469L157.87 68.9769" stroke="white" stroke-width="0.228571" stroke-linecap="round" stroke-linejoin="round"/>
<path d="M153.959 56.2773L138.365 68.5962" stroke="white" stroke-width="0.228571" stroke-linecap="round" stroke-linejoin="round"/>
<path d="M144.701 71.4834L155.988 55.3828" stroke="white" stroke-width="0.228571" stroke-linecap="round" stroke-linejoin="round"/>
<path d="M149.9 55.1289L141.236 63.6251" stroke="white" stroke-width="0.228571" stroke-linecap="round" stroke-linejoin="round"/>
<path d="M156.93 62.8164L138.02 70.0384" stroke="white" stroke-width="0.228571" stroke-linecap="round" stroke-linejoin="round"/>
<path d="M145.891 56.0195L152.921 74.2873" stroke="white" stroke-width="0.228571" stroke-linecap="round" stroke-linejoin="round"/>
</g>
<path d="M167.76 50.8052C167.76 50.8052 162.255 33.0719 150.721 38.6487C142.108 42.8139 151.508 48.2398 154.916 45.6755C159.471 42.2466 151.213 34.0908 143.907 34.9679C133.684 36.1944 133.815 49.4698 141.417 55.4902C148.627 61.202 145.761 72.6732 135.257 68.879C130.015 66.983 135.524 63.7493 138.664 66.983C141.04 69.4259 134.473 74.8937 127 72.4486" stroke="#1D1E26" stroke-width="0.228571" stroke-linecap="round" stroke-linejoin="round" stroke-dasharray="0.91 0.91"/>
<path d="M74.8877 61.9785L74.8184 66.7758C74.8184 66.7758 78.1877 66.2085 80.5837 66.6465C82.9797 67.0844 86.2824 67.1321 87.0277 66.7917C86.8184 66.1722 86.2064 64.9082 82.4344 64.0776C81.101 63.5943 79.6864 61.7891 79.6864 61.7891L74.8877 61.9785Z" fill="#9BDEFF"/>
<path d="M87.0277 66.7897C86.2824 67.1301 82.9797 67.0779 80.5837 66.6445C78.1877 66.211 74.8184 66.7738 74.8184 66.7738L74.881 67.0484C74.9399 67.2689 75.0882 67.4647 75.2999 67.6014C75.5115 67.7382 75.773 67.8071 76.0384 67.7961L86.5904 67.3843C86.6573 67.3844 86.7236 67.3722 86.7845 67.3486C86.8455 67.3249 86.8998 67.2904 86.9437 67.2474C86.9875 67.2043 87.02 67.1537 87.0389 67.099C87.0578 67.0443 87.0626 66.9868 87.053 66.9304L87.0277 66.7897Z" fill="#1D1E26"/>
<path d="M75.0371 64.8314C75.0371 64.8314 77.5704 64.5795 78.3158 66.4811" stroke="#1D1E26" stroke-width="0.228571" stroke-linecap="round" stroke-linejoin="round"/>
<path d="M79.0828 63.0693C79.2397 63.0693 79.3668 62.9611 79.3668 62.8276C79.3668 62.6941 79.2397 62.5859 79.0828 62.5859C78.926 62.5859 78.7988 62.6941 78.7988 62.8276C78.7988 62.9611 78.926 63.0693 79.0828 63.0693Z" fill="#1D1E26"/>
<path d="M80.0692 64.0029C80.226 64.0029 80.3532 63.8947 80.3532 63.7612C80.3532 63.6277 80.226 63.5195 80.0692 63.5195C79.9123 63.5195 79.7852 63.6277 79.7852 63.7612C79.7852 63.8947 79.9123 64.0029 80.0692 64.0029Z" fill="#1D1E26"/>
<path d="M81.3055 64.7177C81.4623 64.7177 81.5895 64.6095 81.5895 64.4761C81.5895 64.3426 81.4623 64.2344 81.3055 64.2344C81.1486 64.2344 81.0215 64.3426 81.0215 64.4761C81.0215 64.6095 81.1486 64.7177 81.3055 64.7177Z" fill="#1D1E26"/>
<path d="M79.1582 62.8059C79.1582 62.8059 80.2729 62.5586 80.2915 62.3203" stroke="#1D1E26" stroke-width="0.228571" stroke-linecap="round" stroke-linejoin="round"/>
<path d="M80.0703 63.7677C80.0703 63.7677 81.2836 63.3865 81.177 63.1289" stroke="#1D1E26" stroke-width="0.228571" stroke-linecap="round" stroke-linejoin="round"/>
<path d="M81.3047 64.4757C81.3047 64.4757 82.322 64.2295 82.1607 63.8438" stroke="#1D1E26" stroke-width="0.228571" stroke-linecap="round" stroke-linejoin="round"/>
<path d="M118.611 58.9468C118.611 58.9468 121.839 59.0364 122.806 60.9539C123.198 61.7346 121.102 64.7459 121.102 64.7459L123.466 66.5307C123.466 66.5307 124.777 65.4154 123.466 64.3C124.122 63.6306 125.957 60.508 124.253 58.8356C122.977 57.5875 120.975 55.8242 120.975 55.8242L118.611 58.9468Z" fill="white" stroke="#1D1E26" stroke-width="0.228571" stroke-miterlimit="10" stroke-linecap="round"/>
<path d="M111.404 55.1555C108.913 57.9433 102.229 60.174 101.442 60.8434C100.656 61.5129 99.7396 64.3007 99.6076 65.8619C101.05 65.9754 101.312 67.2008 101.312 67.2008H97.9036C97.9036 67.2008 97.3796 61.2893 97.5116 60.5064C97.6436 59.7235 102.492 55.9338 103.409 52.4766L111.404 55.1555Z" fill="white" stroke="#1D1E26" stroke-width="0.228571" stroke-linecap="round" stroke-linejoin="round"/>
<path d="M99.6219 49.5657C99.6219 49.5657 96.9166 47.9602 98.3286 45.4311C98.3392 45.4129 98.3421 45.3922 98.3368 45.3724C98.3314 45.3526 98.3181 45.3351 98.2992 45.3227C98.2803 45.3104 98.2569 45.304 98.233 45.3047C98.2092 45.3055 98.1864 45.3132 98.1686 45.3267C95.9286 47.0287 94.1112 49.3899 96.8059 52.0211C97.8872 51.0226 99.6219 49.5657 99.6219 49.5657Z" fill="white" stroke="#1D1E26" stroke-width="0.228571" stroke-miterlimit="10" stroke-linecap="round"/>
<path d="M126.737 59.0599C125.689 57.1639 122.413 56.718 121.496 56.718C119.66 58.9487 117.04 59.2834 116.121 59.6181C115.203 59.9528 115.073 60.9558 114.549 61.96C114.025 62.9642 113.893 66.5326 114.025 67.4244C115.467 67.5368 115.6 68.8734 115.6 68.8734H112.321C112.321 68.8734 111.665 60.1741 111.404 59.1699C111.143 58.1658 111.804 57.8322 111.804 57.8322C111.804 57.8322 104.727 56.4933 104.071 57.1627C101.581 59.9506 94.8975 62.1813 94.1108 62.8507C93.3241 63.5201 92.4001 66.3091 92.2668 67.8704C93.7081 67.9838 93.9708 69.2092 93.9708 69.2092H90.5655C90.5655 69.2092 90.0415 63.2978 90.1655 62.5148C90.2895 61.7319 95.1455 57.9422 96.0628 54.485C96.9801 51.0277 97.7735 49.6911 99.6081 49.5844C101.443 49.4778 114.156 49.3575 117.301 48.4691C120.447 47.5807 123.068 49.1385 125.301 50.811C127.873 52.7399 130.464 53.5341 132.176 54.4589C133.145 54.9808 134.607 56.1608 134.476 57.8378C134.345 59.5148 134.876 61.6298 136.311 62.8564C136.311 63.3023 134.737 64.4176 133.035 63.9717C131.332 63.5258 127.655 60.1752 126.737 59.0599Z" fill="white" stroke="#1D1E26" stroke-width="0.228571" stroke-miterlimit="10" stroke-linecap="round"/>
<path d="M133.382 58.4813C133.354 58.5146 133.317 58.5414 133.274 58.5591C133.231 58.5768 133.183 58.585 133.135 58.5827C133.088 58.5804 133.041 58.5679 133.001 58.5461C132.96 58.5244 132.927 58.4943 132.903 58.4586C132.88 58.4229 132.868 58.3827 132.868 58.342C132.869 58.3012 132.881 58.2611 132.904 58.2255C132.927 58.1899 132.961 58.1599 133.002 58.1383C133.042 58.1168 133.089 58.1044 133.137 58.1023C133.066 58.0513 132.981 58.0159 132.89 57.999C132.523 57.931 132.146 58.1931 132.047 58.5834C131.949 58.9737 132.165 59.3447 132.531 59.4117C132.898 59.4786 133.277 59.2177 133.375 58.8273C133.405 58.7135 133.407 58.5958 133.382 58.4813V58.4813Z" fill="#1D1E26"/>
<path d="M132.701 62.4609C132.701 62.4609 132.504 62.8513 133.749 63.2416" stroke="#1D1E26" stroke-width="0.228571" stroke-linecap="round" stroke-linejoin="round"/>
<path d="M131.428 55.19C131.041 54.7679 130.137 54.0655 129.11 54.6465C128.084 55.2274 126.254 58.4816 126.33 60.6918C126.406 62.9021 128.54 63.9528 129.785 64.0345C131.03 64.1162 131.274 62.9657 131.14 61.3999C131.005 59.8341 132.188 56.0182 131.428 55.19Z" fill="#1D1E26"/>
<path d="M128.835 52.8142C128.835 52.8142 125.492 54.9439 125.879 58.2604C125.491 58.2604 124.235 58.2718 124.235 58.2718C124.235 58.2718 123.985 54.1474 127.393 52.0312L128.835 52.8142Z" fill="#008ACE"/>
<path d="M124.837 59.6195C125.525 59.6195 126.082 59.145 126.082 58.5598C126.082 57.9745 125.525 57.5 124.837 57.5C124.149 57.5 123.592 57.9745 123.592 58.5598C123.592 59.145 124.149 59.6195 124.837 59.6195Z" fill="#008ACE"/>
<path d="M135.301 61.6637C135.301 61.6637 135.447 62.5339 135.422 62.9209C135.383 63.5336 135.281 63.5131 135.543 63.7367C135.806 63.9602 136.702 63.6675 136.743 63.0559C136.801 62.164 135.899 61.3221 135.301 61.6637Z" fill="#1D1E26"/>
<path d="M99.6182 49.6996C98.6142 49.7608 97.9248 50.1954 97.3262 51.3176C98.0235 51.7464 99.1195 51.9257 99.6088 51.3709C100.396 50.4779 100.265 51.5978 102.623 52.0392C104.71 52.434 104.798 50.0921 104.79 49.543C103.829 49.5713 102.933 49.5952 102.154 49.6167C100.913 49.6474 100.017 49.67 99.6182 49.6996Z" fill="#F5F6FA"/>
<path d="M90.6738 61.9893C91.0538 62.0109 91.5578 61.8758 92.1405 61.6262C93.4512 61.068 93.4512 60.6221 94.7618 61.068C96.0725 61.5139 96.7285 60.1761 96.7285 59.3955C96.7285 58.6149 98.1698 57.8342 96.7285 56.8301C96.3085 56.5385 95.7458 56.5691 95.1565 56.7563C94.1605 58.321 92.7405 59.804 91.6898 60.9057C91.2898 61.3142 90.9338 61.692 90.6738 61.9893Z" fill="#F5F6FA"/>
<path d="M117.344 48.5715C116.738 48.7428 115.789 48.8858 114.634 49.0049C114.052 50.253 113.414 52.107 114.812 52.0321C116.908 51.9187 118.218 51.6985 118.612 52.4792C119.005 53.2598 118.088 55.3782 120.053 55.1558C122.018 54.9334 124.116 53.7057 123.592 52.4792C123.234 51.6429 123.426 50.5503 123.957 50.0068C122 48.7258 119.845 47.8623 117.344 48.5715Z" fill="#F5F6FA"/>
<path d="M107.842 57.0831C107.996 56.9338 108.135 56.7745 108.259 56.6066C108.653 56.0483 110.094 56.1595 111.405 56.8335C112.715 57.5075 113.239 57.3917 114.026 56.8335C114.813 56.2752 113.239 55.7181 112.453 55.161C111.666 54.6039 110.487 53.7109 108.914 53.7109C107.341 53.7109 106.425 53.8244 105.899 54.8263C105.899 54.8263 104.458 55.2722 103.934 55.8305C103.667 56.1141 103.877 56.543 104.267 56.9538C104.926 56.7847 106.373 56.8959 107.842 57.0831Z" fill="#F5F6FA"/>
<path d="M112.846 62.8497C112.713 61.7343 113.113 60.9537 112.846 60.1731C112.686 59.6954 112.23 59.886 111.691 60.1833C111.867 61.723 112.109 64.5051 112.267 66.51C112.573 66.2128 112.874 65.8293 113.237 65.5263C114.157 64.7457 112.977 63.965 112.846 62.8497Z" fill="#F5F6FA"/>
<path d="M100 66.3086C100 66.3086 100.787 66.649 100.871 67.2016" stroke="#1D1E26" stroke-width="0.228571" stroke-linecap="round" stroke-linejoin="round"/>
<path d="M99.6074 66.7539C99.6074 66.7539 100.066 66.8299 100.131 67.1987" stroke="#1D1E26" stroke-width="0.228571" stroke-linecap="round" stroke-linejoin="round"/>
<path d="M92.666 68.3164C92.666 68.3164 93.4034 68.532 93.4994 69.13" stroke="#1D1E26" stroke-width="0.228571" stroke-linecap="round" stroke-linejoin="round"/>
<path d="M92.2324 68.6875C92.2324 68.6875 92.7338 68.7601 92.7564 69.1311" stroke="#1D1E26" stroke-width="0.228571" stroke-linecap="round" stroke-linejoin="round"/>
<path d="M114.186 67.9453C114.186 67.9453 114.972 68.1722 115.02 68.8723" stroke="#1D1E26" stroke-width="0.228571" stroke-linecap="round" stroke-linejoin="round"/>
<path d="M113.756 68.3125C113.756 68.3125 114.28 68.426 114.28 68.8696" stroke="#1D1E26" stroke-width="0.228571" stroke-linecap="round" stroke-linejoin="round"/>
<path d="M123.292 64.9023C123.418 65.1089 123.473 65.342 123.45 65.5742C123.426 65.8063 123.325 66.0279 123.158 66.2129" stroke="#1D1E26" stroke-width="0.228571" stroke-linecap="round" stroke-linejoin="round"/>
<path d="M122.608 64.9531C122.701 65.0744 122.745 65.2181 122.733 65.3626C122.722 65.507 122.656 65.6445 122.545 65.7542" stroke="#1D1E26" stroke-width="0.228571" stroke-linecap="round" stroke-linejoin="round"/>
<path d="M123.466 61.6232C123.461 61.5741 123.444 61.5263 123.418 61.4825C123.391 61.4388 123.354 61.4 123.31 61.3684C123.265 61.3367 123.214 61.3129 123.158 61.2982C123.103 61.2835 123.045 61.2783 122.987 61.2828C122.936 61.9806 122.284 63.1482 121.787 63.9549C122.534 63.9992 123.187 63.5011 122.684 63.079C122.019 62.5173 123.591 62.4039 123.466 61.6232Z" fill="#F5F6FA"/>
<path d="M99.815 64.0695C99.9842 63.4277 100.201 62.7956 100.463 62.1769C99.971 62.1769 99.4377 62.1463 98.6897 62.4038C97.8657 62.6864 98.9244 63.5067 99.815 64.0695Z" fill="#F5F6FA"/>
<path d="M96.2011 49.2455C95.6758 48.6883 96.9865 48.3536 97.1185 47.3495C97.1345 47.2322 97.1088 47.1136 97.0449 47.0088C96.981 46.9041 96.8817 46.818 96.7598 46.7617C95.3385 48.3502 95.2065 49.8559 96.3598 51.3321C97.6531 50.9122 96.6451 49.7197 96.2011 49.2455Z" fill="#F5F6FA"/>
<path d="M44.5107 60.2305C44.5107 60.2305 45.8947 61.9778 48.2441 62.4385C45.7187 66.3904 44.9667 68.9865 43.8667 69.8942C43.0027 70.6056 40.1467 71.1423 39.1467 68.2501C38.5561 66.5368 40.3627 64.9801 40.8107 64.4105C41.2587 63.8409 41.2547 62.6325 41.8227 62.0652C42.3907 61.4979 43.4534 60.4075 44.5107 60.2305Z" fill="#9BDEFF"/>
<path d="M39.1424 68.2557C39.1731 68.3419 39.2037 68.4248 39.2371 68.5053C39.2477 68.5326 39.2597 68.5564 39.2717 68.5825C39.2944 68.6358 39.3171 68.688 39.3411 68.7379L39.3851 68.823C39.4077 68.8673 39.4304 68.9115 39.4544 68.9535C39.4784 68.9955 39.4877 69.0091 39.5037 69.0375L39.5757 69.1509C39.5931 69.1782 39.6117 69.2043 39.6291 69.2304L39.7051 69.3336L39.7611 69.4062L39.8411 69.5015L39.8997 69.5674C39.9277 69.5969 39.9557 69.6252 39.9851 69.6536C40.0144 69.682 40.0237 69.6933 40.0437 69.7115C40.0637 69.7296 40.1051 69.767 40.1371 69.7943C40.1691 69.8215 40.1731 69.8272 40.1931 69.8419C40.2131 69.8567 40.2664 69.8998 40.3037 69.927C40.3184 69.9372 40.3317 69.9486 40.3464 69.9577C40.3984 69.994 40.4504 70.0292 40.5037 70.0609L40.5384 70.0802C40.5797 70.104 40.6224 70.1279 40.6651 70.1494L40.7251 70.1789L40.8304 70.2266L40.8984 70.2538L40.9971 70.2924L41.0691 70.3151C41.1011 70.3264 41.1331 70.3366 41.1664 70.3457L41.2384 70.365L41.3371 70.3888L41.4091 70.4036L41.5077 70.4217L41.5797 70.4319L41.6811 70.4444L41.7491 70.4512C41.7851 70.4512 41.8211 70.4512 41.8571 70.458H41.9171C41.9624 70.458 42.0064 70.458 42.0504 70.458H42.0837C42.1384 70.458 42.1931 70.4581 42.2477 70.4512H42.2984C42.3357 70.4512 42.3717 70.4512 42.4091 70.441L42.4717 70.4331C42.5037 70.4331 42.5357 70.4251 42.5664 70.4195L42.6317 70.4081L42.7211 70.3922L42.7864 70.3775L42.8691 70.3582L42.9331 70.3412L43.0131 70.3185L43.0744 70.2992L43.1517 70.2731L43.2091 70.2538L43.2864 70.2243L43.3371 70.2039L43.4157 70.1687L43.4571 70.1494C43.4957 70.1313 43.5317 70.1131 43.5664 70.0938C42.3664 70.3423 40.6997 70.0269 39.9864 67.9584C39.3944 66.2451 41.2011 64.6895 41.6504 64.1199C42.0717 63.5832 41.8397 62.1468 43.4464 60.6797C42.7797 61.1006 42.1944 61.7009 41.8197 62.0719C41.2517 62.629 41.2517 63.8476 40.8037 64.4172C40.5797 64.702 40.0157 65.2341 39.5824 65.9081C39.4709 66.0796 39.3724 66.2569 39.2877 66.4391C39.0004 67.0135 38.9492 67.6535 39.1424 68.2557Z" fill="#1D1E26"/>
<path d="M42.9904 61.1797C42.9904 61.1797 43.5717 62.5413 41.6797 63.2981" stroke="#1D1E26" stroke-width="0.228571" stroke-linecap="round" stroke-linejoin="round"/>
<path d="M44.7449 62.7373C44.9018 62.7373 45.0289 62.6291 45.0289 62.4956C45.0289 62.3621 44.9018 62.2539 44.7449 62.2539C44.5881 62.2539 44.4609 62.3621 44.4609 62.4956C44.4609 62.6291 44.5881 62.7373 44.7449 62.7373Z" fill="#1D1E26"/>
<path d="M43.7899 64.1435C43.9467 64.1435 44.0739 64.0353 44.0739 63.9018C44.0739 63.7684 43.9467 63.6602 43.7899 63.6602C43.633 63.6602 43.5059 63.7684 43.5059 63.9018C43.5059 64.0353 43.633 64.1435 43.7899 64.1435Z" fill="#1D1E26"/>
<path d="M42.786 65.499C42.9428 65.499 43.07 65.3908 43.07 65.2573C43.07 65.1238 42.9428 65.0156 42.786 65.0156C42.6291 65.0156 42.502 65.1238 42.502 65.2573C42.502 65.3908 42.6291 65.499 42.786 65.499Z" fill="#1D1E26"/>
<path d="M46.3973 63.5498C46.5541 63.5498 46.6813 63.4416 46.6813 63.3081C46.6813 63.1746 46.5541 63.0664 46.3973 63.0664C46.2404 63.0664 46.1133 63.1746 46.1133 63.3081C46.1133 63.4416 46.2404 63.5498 46.3973 63.5498Z" fill="#1D1E26"/>
<path d="M45.5203 64.8193C45.6772 64.8193 45.8043 64.7111 45.8043 64.5776C45.8043 64.4441 45.6772 64.3359 45.5203 64.3359C45.3635 64.3359 45.2363 64.4441 45.2363 64.5776C45.2363 64.7111 45.3635 64.8193 45.5203 64.8193Z" fill="#1D1E26"/>
<path d="M44.6297 66.1826C44.7866 66.1826 44.9137 66.0744 44.9137 65.9409C44.9137 65.8074 44.7866 65.6992 44.6297 65.6992C44.4729 65.6992 44.3457 65.8074 44.3457 65.9409C44.3457 66.0744 44.4729 66.1826 44.6297 66.1826Z" fill="#1D1E26"/>
<path d="M44.8006 62.5478C44.7019 62.44 45.1366 63.3636 46.4006 63.3069" stroke="#1D1E26" stroke-width="0.228571" stroke-linecap="round" stroke-linejoin="round"/>
<path d="M43.7891 63.9023C43.7891 63.9023 44.4491 64.8509 45.5224 64.5775" stroke="#1D1E26" stroke-width="0.228571" stroke-linecap="round" stroke-linejoin="round"/>
<path d="M42.7871 65.2539C42.7871 65.2539 43.4604 66.106 44.6298 65.9347" stroke="#1D1E26" stroke-width="0.228571" stroke-linecap="round" stroke-linejoin="round"/>
</g>
<defs>
<clipPath id="clip0_5264_5030">
<rect width="168" height="75" fill="white"/>
</clipPath>
</defs>
</svg>
